<svg width="128" height="128" viewBox="0 0 128 128" fill="none" xmlns="http://www.w3.org/2000/svg">
<path d="M83.3253 106.12C89.3576 105.351 92.4998 104.031 97.3295 100.12C108.74 90.8815 106.086 77.2258 106.627 64.3187C106.787 60.5249 106.325 56.5067 106.677 52.6933C107.083 48.284 112.469 46.5272 115.61 49.4867C117.051 50.854 117.163 52.4177 117.227 54.2714C117.288 59.4945 117.236 64.6805 117.242 69.9007C117.233 83.7183 117.345 94.9259 107.084 105.64C96.1015 117.108 86.761 116.902 72.3186 117.304C66.1483 117.488 59.9738 117.476 53.8043 117.269C44.8015 117.015 38.4277 117.255 30.2137 112.81C27.3728 111.254 24.7376 109.35 22.3692 107.141C20.0993 104.982 18.106 102.549 16.4346 99.8992C11.2041 91.6854 10.8929 84.1274 10.7249 74.7225C10.6244 69.0897 10.6147 63.4467 10.6631 57.8079C10.8051 52.0887 10.709 46.1063 11.6046 40.4562C14.0732 24.8803 28.8622 11.5305 44.5663 11.1146C46.2245 11.2555 47.9715 11.1623 49.6583 11.208C60.4563 11.5005 71.3131 11.4674 82.111 11.1638C82.5152 11.1524 82.9035 11.1728 83.3033 11.1143C86.2718 11.1914 92.5508 12.118 94.626 14.2873C97.6892 17.4893 94.9793 23.9974 90.185 23.0409C80.7823 21.1652 71.3731 21.4122 61.775 21.424C57.6252 21.4042 53.4756 21.4869 49.33 21.6725C41.6728 22.0237 36.1887 22.8442 30.1638 28.2107C24.3032 33.4307 21.8593 39.7977 21.587 47.5152C21.1476 59.2317 20.9255 71.1883 21.8076 82.8783C21.9258 84.4449 22.1751 86.3342 22.5658 87.7415C24.9696 96.3985 32.7958 103.928 41.6592 105.646C42.1953 105.749 43.8272 105.959 44.2047 106.112C45.0698 106.782 46.4418 106.382 47.2788 106.708C46.9933 106.723 46.4367 106.732 46.1861 106.809C46.8536 107.026 50.2868 107.22 50.8418 107.169C54.2215 106.853 81.6853 107.606 82.6335 106.786C82.121 106.735 79.4403 106.821 79.2836 106.678C80.1353 106.248 82.4622 106.946 83.3253 106.12Z" fill="white"></path>
<path d="M111.276 24.0421C114.434 23.8114 117.016 25.7378 117.211 28.9914C117.448 32.9583 114.17 34.3044 111.281 36.0248C109.846 36.8924 108.435 37.7978 107.049 38.7401C94.4049 47.2998 83.6573 58.3701 75.4753 71.2621C74.2064 73.2617 73.0036 75.3028 71.8693 77.3818C70.9468 79.0873 69.2803 82.6754 68.1361 83.9259C67.2819 84.8592 66.0865 85.4074 64.822 85.4459C61.2933 85.5371 59.1168 82.2349 56.799 80.0048C52.69 76.0509 48.7679 71.8521 44.6491 67.9092C41.5885 64.4623 34.6413 60.3986 39.1523 55.0194C40.7621 53.2714 43.7831 52.9446 45.768 54.1946C46.7204 54.7924 47.5216 55.5783 48.3109 56.3728C52.5334 60.6233 56.7621 64.8688 61.0233 69.0806C61.5061 69.5579 62.5236 70.4734 63.2129 70.4558C64.1546 69.6803 66.6154 65.2129 67.4943 63.8772C76.8916 49.5879 89.1785 37.4261 103.563 28.1752C105.75 26.7854 108.827 24.5508 111.276 24.0421Z" fill="white"></path>
<path d="M44.2047 106.112C53.1416 106.605 62.0935 106.774 71.0426 106.62C75.0145 106.549 79.3185 106.295 83.3253 106.12C82.4622 106.946 80.1353 106.248 79.2836 106.678C79.4403 106.821 82.121 106.735 82.6335 106.786C81.6853 107.606 54.2215 106.852 50.8418 107.168C50.2868 107.22 46.8536 107.026 46.1861 106.809C46.4367 106.732 46.9933 106.723 47.2788 106.707C46.4418 106.382 45.0698 106.782 44.2047 106.112Z" fill="white"></path>
<path d="M44.5664 11.1144C45.9059 10.91 48.8375 10.8774 50.2869 10.8252C55.411 10.6535 60.5383 10.5917 65.6652 10.6398C70.1043 10.6411 74.5757 10.6197 79.0087 10.8503C79.9117 10.8973 82.5537 10.9642 83.3034 11.1141C82.9035 11.1727 82.5153 11.1523 82.111 11.1636C71.3132 11.4673 60.4564 11.5003 49.6584 11.2079C47.9715 11.1622 46.2245 11.2554 44.5664 11.1144Z" fill="white"></path>
</svg>