<svg width="128" height="128" viewBox="0 0 128 128" fill="none" xmlns="http://www.w3.org/2000/svg">
<path d="M118.281 5.06641C124.033 7.16828 123.72 12.8062 123.301 17.8262C122.571 26.4747 120.627 34.9772 117.526 43.0834C114.458 51.1557 110.374 58.8042 105.373 65.8439C104.577 66.97 98.1225 75.029 98.0591 75.2649C97.8691 75.9714 100.659 83.7582 100.965 85.2115C101.355 87.0643 101.485 89.1833 101.391 91.0728C100.965 99.6234 89.1596 111.511 83.3095 117.54C81.8059 119.09 79.2626 122.229 77.3784 123.086C75.9605 123.731 74.061 123.762 72.6196 123.188C71.0827 122.576 69.9707 121.342 69.3352 119.837C68.6409 118.192 68.155 116.42 67.6111 114.72L64.9565 106.416C64.7649 105.815 63.9054 102.876 63.7249 102.542C62.6244 102.213 56.9686 105.71 55.2459 106.186C49.6527 107.728 47.3459 105.295 43.7164 101.653L38.3772 96.2982L29.1134 87.0438C27.0887 85.021 24.9569 83.0552 23.1279 80.8419C21.1497 78.4482 21.0224 75.7272 21.7887 72.8615C22.3489 70.7673 25.5965 66.2482 25.4829 64.505C25.1116 63.9604 23.3986 63.6182 22.7216 63.4064C19.5815 62.4237 8.1996 59.229 6.2958 57.5139C4.67234 56.0513 4.13983 53.7699 4.55131 51.6644C4.61808 51.3228 4.72719 51.015 4.88753 50.7067C5.70353 50.5444 6.52048 49.1464 7.21942 48.504C11.0579 44.9762 14.7111 41.031 18.6466 37.6303C21.2972 35.3475 24.0827 33.2258 26.9877 31.2769C27.2321 31.1129 28.5956 30.1073 28.7281 30.0637C30.2672 29.5558 33.007 27.6925 34.4555 27.3814C37.1314 26.8067 40.4635 27.466 43.1722 27.1209C45.6767 27.5384 49.9409 29.2717 52.6464 30.0218C55.6559 27.6908 58.3696 25.1847 61.5674 22.9072C72.8264 14.888 85.4131 9.08272 98.9756 6.27946C100.923 5.87703 103.812 5.26748 105.716 5.12182C109.675 5.36544 113.66 4.95548 117.619 5.28074C117.746 5.29117 118.152 5.12166 118.281 5.06641ZM28.4921 75.7378C28.6895 76.096 28.9966 76.6095 29.2797 76.9007C32.8255 80.5474 36.4969 84.0779 40.0646 87.7055C40.6149 88.265 41.1735 88.8374 41.7635 89.3534C43.328 91.064 50.4704 98.4667 51.971 99.1757C52.1204 99.2462 52.2686 99.3153 52.4211 99.3789C56.6842 97.7987 61.6491 94.6953 65.5841 92.3712C92.8927 76.2419 114.041 48.4522 116.195 16.1089C116.236 15.5023 116.234 14.8732 116.265 14.2643C116.559 11.3738 115.333 11.6944 112.994 11.8201C77.301 13.822 48.1677 37.8349 32.003 68.497C30.7332 70.9057 29.4905 73.1988 28.4921 75.7378ZM70.1081 98.3025C70.8312 101.553 72.2006 105.163 73.1857 108.392C73.4676 109.316 74.3522 112.235 74.6875 112.961C74.836 113.441 75.0801 114.393 75.3607 114.757C76.1366 114.724 78.8229 111.806 79.4255 111.13C84.6201 105.299 90.5627 99.6094 93.9092 92.4554C94.7341 90.6919 93.6235 82.5107 91.7727 81.8417C90.6175 82.4099 88.245 84.8492 87.1472 85.7683C85.3399 87.2814 83.533 88.7815 81.6757 90.2404C77.9466 93.1698 73.9487 95.6029 70.1081 98.3025ZM12.9125 52.5894C16.6954 53.8005 20.6226 55.1364 24.4067 56.274C25.4241 56.6139 28.9409 57.9269 29.7974 57.6497C30.2867 57.1887 33.4486 52.2042 34.1499 51.1994C36.3884 48.0178 38.7435 44.9198 41.2104 41.9117C41.8486 41.1242 46.5844 36.409 46.1099 35.893C44.5239 34.1682 38.3672 33.875 36.2951 34.0499C31.2395 35.2752 24.113 41.8904 20.194 45.4399C17.8057 47.603 14.9689 50.1503 12.9125 52.5894Z" fill="white"></path>
<path d="M74.0179 32.8507C74.7869 32.7023 77.2253 30.219 78.4584 29.7038C79.9705 29.072 81.6668 28.1839 83.3816 28.0207C85.0401 27.8628 86.6824 27.9454 88.3404 27.8843C89.555 27.9447 89.3884 28.459 90.9856 28.0993C94.9598 29.624 97.6993 31.8449 99.48 35.8207C101.155 39.5657 101.278 43.8218 99.8228 47.6575C98.364 51.3993 95.4915 54.4168 91.8261 56.0579C84.435 59.3163 75.2351 55.7278 72.0373 48.324C70.355 44.4293 70.4136 40.129 71.9573 36.198C72.2693 35.3975 73.3071 33.3062 74.0179 32.8507ZM86.952 49.8798C89.7213 49.4645 92.0541 47.5938 93.061 44.9809C94.0679 42.3679 93.5938 39.4154 91.8191 37.2493C90.0446 35.083 87.2434 34.0369 84.4833 34.5098C80.2773 35.2304 77.4355 39.203 78.1123 43.4164C78.789 47.6297 82.7319 50.5127 86.952 49.8798Z" fill="white"></path>
<path d="M74.0179 32.8505C75.0045 31.1323 77.1208 29.6208 78.877 28.781C82.6655 26.9665 87.0174 26.7215 90.9856 28.0991C89.3884 28.4588 89.555 27.9445 88.3404 27.8841C86.6824 27.9452 85.0401 27.8626 83.3816 28.0205C81.6668 28.1837 79.9705 29.0718 78.4584 29.7036C77.2253 30.2188 74.7869 32.7021 74.0179 32.8505Z" fill="white"></path>
<path d="M10.1882 117.664C7.71821 112.907 11.4387 99.8137 13.4776 94.75C14.6684 91.7926 16.4274 86.2106 20.536 87.6486C21.3884 87.9441 22.0846 88.5721 22.4662 89.3895C23.5584 91.7468 21.0911 95.0577 20.2251 97.3246C18.6706 101.393 17.0687 106.758 16.9334 111.102C19.5172 111.799 27.7279 109.553 30.4634 108.512C32.5335 107.724 34.9015 106.102 37.159 105.927C38.1565 105.85 38.5312 106.36 39.2477 107.014C39.4636 107.022 39.4865 107.008 39.6881 107.101C40.2162 108.206 40.0981 109.237 40.0815 110.399C39.6017 111.707 36.7461 113.033 35.5547 113.584C29.9419 116.178 23.8682 117.747 17.729 118.417C15.272 118.686 12.3643 119.112 10.1882 117.664Z" fill="white"></path>
<path d="M4.88757 50.7068C5.56007 49.0213 8.01674 46.9846 9.37575 45.6368C15.2074 39.8526 21.542 33.8329 28.5332 29.4945C33.4818 26.4238 37.485 25.6688 43.1723 27.121C40.4635 27.4661 37.1314 26.8068 34.4555 27.3815C33.007 27.6926 30.2673 29.5559 28.7282 30.0638C28.5957 30.1074 27.2322 31.113 26.9878 31.277C24.0828 33.2259 21.2973 35.3476 18.6467 37.6304C14.7112 41.0311 11.058 44.9763 7.21946 48.5041C6.52052 49.1465 5.70357 50.5445 4.88757 50.7068Z" fill="white"></path>
<path d="M16.9333 111.102C18.0433 110.864 19.5257 110.791 20.6833 110.557C22.9382 110.101 25.381 109.563 27.5646 108.85C28.7715 108.448 29.9574 107.987 31.1177 107.466C32.7912 106.697 34.8452 105.519 36.6112 105.182C37.9797 104.921 38.8605 105.644 39.8862 106.403C39.9908 106.625 40.0886 106.851 40.1793 107.079C40.6698 108.337 40.5955 109.199 40.0815 110.399C40.0981 109.237 40.2162 108.206 39.6881 107.1C39.4865 107.008 39.4636 107.022 39.2477 107.014C38.5312 106.36 38.1565 105.85 37.159 105.927C34.9015 106.102 32.5335 107.724 30.4634 108.512C27.7279 109.553 19.5172 111.799 16.9333 111.102Z" fill="white"></path>
<path d="M105.716 5.12185C108.712 4.62405 115.601 3.66171 118.281 5.06644C118.152 5.12169 117.746 5.2912 117.619 5.28077C113.66 4.95551 109.675 5.36547 105.716 5.12185Z" fill="white"></path>
</svg>