<svg width="128" height="128" viewBox="0 0 128 128" fill="none" xmlns="http://www.w3.org/2000/svg">
<g clip-path="url(#clip0_1053_9202)">
<path d="M23.6569 0H111.716C115.354 1.89291 118.41 3.30149 119.759 7.72444C120.68 10.7447 120.454 16.9561 120.455 20.2787L120.452 31.8612L120.453 69.6616L120.444 77.4685C120.442 78.8036 120.433 80.1526 120.45 81.4969C120.472 83.3364 121.324 84.1814 122.415 85.5349C123.569 86.9667 124.664 88.5042 125.381 90.21C126.155 91.7264 126.969 95.4883 128 96.5315V106.209C127.183 107.293 126.505 110.089 125.997 111.371C122.983 118.996 116.337 124.951 108.46 127.195C107.891 127.357 107.082 127.655 106.59 128H24.2525C22.2454 126.982 20.2645 126.107 18.6514 124.503C15.4122 121.282 15.1883 117.226 15.1544 112.907C14.8205 112.913 14.4865 112.912 14.1528 112.905C7.94642 112.767 3.7078 111.506 0.898015 105.735C0.661371 105.249 0.382425 104.549 0 104.192V98.7615C0.250856 98.4635 0.500674 97.8352 0.730213 97.4477C1.49959 96.1489 2.21844 94.7288 3.2794 93.6419C6.54558 90.2958 10.7299 90.2121 15.0999 90.1521C15.2388 88.3169 15.1779 86.0631 15.1763 84.1965L15.1915 75.3351C9.53416 75.6579 3.86379 74.2861 1.23812 68.8675C1.03565 68.4496 0.308636 66.9226 0 66.7566V61.272C0.230301 60.9919 0.744592 59.8116 0.972826 59.4104C1.59027 58.325 2.32219 57.2193 3.16598 56.2993C6.41566 52.756 10.6699 52.8251 15.0945 52.6115C15.2437 50.8525 15.1846 48.7229 15.182 46.9154L15.1569 37.9046C14.8222 37.9106 14.4875 37.9101 14.1529 37.903C7.94641 37.7684 3.70807 36.5051 0.897976 30.7349C0.661236 30.2487 0.382169 29.5489 0 29.1916V23.7615C0.251071 23.4631 0.501175 22.8351 0.730656 22.4476C1.50005 21.1486 2.21826 19.7289 3.27942 18.6419C6.54381 15.2979 10.7251 15.2118 15.0929 15.1525C15.2954 12.876 15.1663 11.2116 15.6625 8.80832C16.2531 5.95372 17.9636 3.45512 20.4112 1.87172C21.4556 1.20697 22.5946 0.70247 23.6569 0ZM22.858 15.7957C26.4432 17.9655 28.6489 19.3692 29.7786 23.772C30.5011 26.5879 30.0058 29.7678 28.5286 32.2675C26.8468 35.114 25.0754 35.5503 22.8954 37.2443C22.6535 39.3924 22.7815 43.3193 22.775 45.643C22.7696 47.5968 22.6899 51.5057 22.9005 53.2746C26.4592 55.5329 28.8455 57.045 29.845 61.5655C30.479 64.5161 29.9136 67.5978 28.2734 70.1311C26.5162 72.8689 25.3664 72.9189 22.9923 74.6581C22.6839 76.0249 22.7639 79.6386 22.7719 81.2696C22.7869 84.3794 22.7305 87.7091 22.86 90.7982C26.4418 92.9647 28.6515 94.3727 29.7787 98.7719C30.5021 101.594 30.0051 104.76 28.5281 107.267C26.8391 110.134 25.0639 110.548 22.8971 112.243C21.9534 121.432 25.2734 120.402 32.5346 120.359L41.8039 120.351L73.1881 120.352C74.3884 120.352 82.2016 120.551 82.5781 120.293C82.6419 119.209 80.9718 117.574 80.3121 116.605C79.4043 115.271 78.6235 114.01 77.9421 112.54C74.9724 105.94 74.7949 98.4206 77.45 91.6881C79.9976 85.2833 84.9837 80.1516 91.3129 77.4211C96.4387 75.2323 102.127 74.7288 107.558 75.9833C109.115 76.3414 111.33 77.1164 112.879 77.6211C113.154 75.0886 113.009 70.2352 113.006 67.4874L113.003 49.1949L113.004 24.6699C113.004 20.4494 113.057 16.1953 112.951 11.9808C112.896 9.81431 112.067 7.88027 109.667 7.73612C107.748 7.56555 105.92 7.60741 103.999 7.60909L95.7864 7.61254L68.9385 7.61555L41.6181 7.61645L33.1046 7.60886C31.6036 7.60774 29.4806 7.54754 28.0401 7.6875C26.4739 7.76971 24.92 7.69705 23.7409 8.96616C22.476 10.3277 22.7371 13.9274 22.858 15.7957ZM13.5977 97.9306C11.8182 97.9926 9.71312 97.8235 8.44827 99.2159C7.82824 99.9119 7.51635 100.829 7.58366 101.759C7.6618 102.725 8.12599 103.618 8.8712 104.237C10.5233 105.606 14.5405 105.161 16.7812 105.169C19.5266 105.167 22.4971 105.06 22.5664 101.387C22.583 100.508 22.2582 99.5043 21.5971 98.8925C20.0756 97.578 15.5906 97.8775 13.5977 97.9306ZM12.4264 60.3025C9.68485 60.7865 7.19341 61.0936 7.66052 64.764C8.14537 68.5738 14.8516 67.758 17.6095 67.7256C18.6296 67.678 19.5037 67.7106 20.4221 67.2761C23.9086 65.6266 23.1654 60.7221 19.1581 60.4554C16.8602 60.3024 14.7027 60.1598 12.4264 60.3025ZM99.6456 83.0505C89.4157 84.1942 82.0395 93.399 83.1526 103.632C84.2656 113.865 93.4484 121.269 103.685 120.187C113.965 119.1 121.407 109.869 120.289 99.5929C119.171 89.3164 109.919 81.9021 99.6456 83.0505ZM16.7812 30.1689C18.1445 30.1681 18.699 30.1845 20.0519 29.8972C22.6822 29.3385 23.3605 25.531 21.614 23.9085C20.1778 22.5741 15.6195 22.8772 13.5988 22.9304C11.8191 22.9929 9.71311 22.8239 8.44827 24.216C7.82815 24.9119 7.51624 25.8293 7.58364 26.759C7.66195 27.7245 8.12614 28.6176 8.87127 29.2366C10.5233 30.6056 14.5405 30.1605 16.7812 30.1689Z" fill="white"></path>
<path d="M63.067 52.9267C64.1185 52.7754 65.9905 52.9474 66.6168 53.7999C68.6233 56.531 67.1633 58.6813 65.3829 60.49L56.431 69.4337C48.3595 77.5217 49.1405 77.0805 41.0735 68.9129C39.628 67.5365 37.2519 65.5104 36.8013 63.5694C36.5901 62.6702 36.7471 61.7239 37.2371 60.9409C37.7359 60.1505 38.6699 59.4582 39.5588 59.284C43.3214 58.7668 45.5999 63.4288 48.3163 65.2774C49.5676 66.1292 51.1825 63.894 52.049 63.0133L57.7546 57.2635C59.0539 55.9569 61.3321 53.3362 63.067 52.9267Z" fill="white"></path>
<path d="M63.0707 82.9252C63.2814 82.8936 63.4931 82.87 63.7056 82.8545C66.1524 82.694 67.4956 84.1957 67.5896 86.5856C67.6496 88.1095 66.3969 89.4586 65.3822 90.4899L56.4207 99.4434C48.3416 107.539 49.1386 107.06 41.0725 98.9139C39.6305 97.5381 37.2485 95.5054 36.8009 93.5691C36.5915 92.6701 36.7491 91.7249 37.2389 90.9425C37.7415 90.1444 38.6672 89.457 39.5626 89.282C43.3301 88.767 45.6115 93.457 48.3426 95.2926C49.5671 96.1156 51.2027 93.8732 52.049 93.013L57.7546 87.2634C59.0576 85.953 61.33 83.337 63.0707 82.9252Z" fill="white"></path>
<path d="M63.0699 22.9253C64.1199 22.7755 65.9916 22.9487 66.6167 23.7997C68.6232 26.5312 67.1635 28.6812 65.3827 30.4898L56.4567 39.4074C48.3727 47.5092 49.1642 47.103 41.0734 38.9128C39.6295 37.5373 37.2506 35.5079 36.8011 33.5692C36.5906 32.67 36.7479 31.7242 37.2377 30.9415C37.7407 30.1435 38.668 29.459 39.5626 29.2832C43.3292 28.7647 45.6121 33.4585 48.3426 35.293C49.5647 36.1142 51.1877 33.8884 52.0321 33.0302L57.7175 27.3009C59.0275 25.9835 61.3256 23.3384 63.0699 22.9253Z" fill="white"></path>
<path d="M104.833 65.9948C103.888 66.1215 102.477 67.4743 100.748 67.4769C97.9881 67.481 94.4353 67.7314 91.7251 67.5749C88.6516 67.3975 79.9715 68.0755 77.6333 66.8842C77.2496 66.0133 76.7211 65.8242 76.3991 65.2795C76.2845 64.6089 76.0855 63.3389 76.3834 62.7142C77.321 60.8477 79.5463 60.9028 81.3018 60.938C87.7649 61.0675 94.222 60.8807 100.682 61.025C100.97 61.0315 101.38 60.9228 101.64 60.8058C95.8743 60.6247 90.044 60.8243 84.2711 60.7584C82.8944 60.7427 81.4924 60.7994 80.1228 60.6514C80.5074 60.5363 83.7425 60.5638 84.302 60.5633L98.0199 60.5508C98.9851 60.552 102.541 60.7039 103.157 60.6254C104.222 61.0378 104.464 61.4293 105.009 62.4109C105.431 63.1697 105.536 65.4498 104.833 65.9948Z" fill="white"></path>
<path d="M104.833 35.9944C103.942 36.1148 102.638 37.3738 100.968 37.4488C97.8551 37.5883 94.7461 37.623 91.6281 37.5713C87.6283 37.505 83.5739 37.7611 79.5988 37.3225C79.4299 37.3023 77.599 36.9791 77.6029 36.8224C77.6179 36.2034 76.7958 36.0155 76.3558 35.409C76.2976 34.5885 76.1736 33.2334 76.3859 32.4724C76.7576 32.1835 78.4019 30.9554 78.6758 30.9465C79.9275 30.9055 82.2169 30.9591 83.4255 30.9708L94.863 30.9819C96.5789 30.9821 99.8315 31.0769 101.395 30.8924L101.336 30.8225C94.4073 30.3943 86.9275 31.176 80.059 30.6745L80.2973 30.6714C80.7729 30.3298 95.8713 30.7021 97.8224 30.5653C99.0688 30.4779 101.827 30.787 103.157 30.6254C104.207 31.045 104.527 31.4568 105.032 32.4634C105.448 33.291 105.525 35.3241 104.833 35.9944Z" fill="white"></path>
<path d="M76.3361 36.6061C74.4989 33.0113 75.892 30.3 79.9698 30.2254C87.1044 30.095 94.2728 30.0964 101.407 30.2319C101.979 30.2428 102.62 30.4421 103.157 30.6254C101.827 30.787 99.0688 30.4779 97.8224 30.5653C95.8713 30.7021 80.7729 30.3298 80.2973 30.6714L80.059 30.6745C86.9275 31.176 94.4073 30.3943 101.336 30.8225L101.395 30.8924C99.8315 31.0769 96.5789 30.9821 94.863 30.9819L83.4255 30.9708C82.2169 30.9591 79.9275 30.9055 78.6758 30.9465C78.4019 30.9554 76.7576 32.1835 76.3859 32.4724C76.1736 33.2334 76.2976 34.5885 76.3558 35.409C76.7958 36.0155 77.6179 36.2034 77.6029 36.8224C77.599 36.9791 79.4299 37.3023 79.5988 37.3225C83.5739 37.7611 87.6283 37.505 91.6281 37.5713C94.7461 37.623 97.8551 37.5883 100.968 37.4488C102.638 37.3738 103.942 36.1148 104.833 35.9944C104.422 36.7068 103.936 37.405 103.053 37.5391C98.7433 38.1935 93.7738 37.8221 89.3624 37.9089C86.0094 37.9749 82.4235 37.971 79.1164 37.7393C78.1995 37.675 77.1129 37.0588 76.3361 36.6061Z" fill="white"></path>
<path d="M76.3373 66.6085C75.4181 64.8122 74.9198 62.1887 77.116 60.8724C77.6486 60.5531 79.3191 60.2367 79.9698 60.2255C87.1028 60.1027 94.2733 60.0911 101.406 60.2321C101.98 60.2435 102.619 60.4422 103.157 60.6255C102.541 60.704 98.9851 60.5521 98.0199 60.5509L84.302 60.5634C83.7425 60.5639 80.5074 60.5364 80.1228 60.6515C81.4924 60.7995 82.8944 60.7427 84.2711 60.7585C90.044 60.8244 95.8743 60.6247 101.64 60.8059C101.38 60.9229 100.97 61.0316 100.682 61.0251C94.222 60.8807 87.7649 61.0676 81.3018 60.9381C79.5463 60.9029 77.321 60.8477 76.3834 62.7142C76.0855 63.339 76.2845 64.609 76.3991 65.2796C76.7211 65.8242 77.2496 66.0134 77.6333 66.8842C79.9715 68.0756 88.6516 67.3976 91.7251 67.575C94.4353 67.7315 97.9881 67.4811 100.748 67.477C102.477 67.4744 103.888 66.1216 104.833 65.9949C104.38 66.7674 104.005 67.2827 103.109 67.5249C101.025 68.0879 81.6551 68.1289 79.1166 67.7391C78.0713 67.5786 77.2356 67.1304 76.3373 66.6085Z" fill="white"></path>
<path d="M101.097 90.3919C101.382 90.3386 101.624 90.3456 101.913 90.352C105.731 90.4362 105.591 94.6415 105.41 97.515C106.385 97.529 107.582 97.708 108.542 97.7172C112.177 97.7522 114.182 100.754 112.069 103.919C111.499 104.773 110.92 104.986 109.904 105.141C107.749 105.558 103.611 105.199 101.335 105.144C99.0157 105.034 97.7476 102.614 97.9926 100.559C98.4027 97.1192 96.4821 91.2134 101.097 90.3919Z" fill="white"></path>
</g>
<defs>
<clipPath id="clip0_1053_9202">
<rect width="128" height="128" fill="white"></rect>
</clipPath>
</defs>
</svg>