<svg width="128" height="128" viewBox="0 0 128 128" fill="none" xmlns="http://www.w3.org/2000/svg">
<path d="M89.5938 16.0609C87.2151 16.095 83.4654 16.4863 81.448 15.0865C78.74 13.2076 80.1085 7.99701 83.6626 8.04139C93.3435 8.16229 102.422 6.48759 110.666 12.9631C115.823 17.0235 119.133 22.9849 119.853 29.5088C120.184 32.3339 120.011 38.7893 120.011 41.8425L120.009 65.1908L120.011 87.1274C120.01 96.3993 120.826 103.29 114.607 111.113C110.666 116.048 104.927 119.217 98.6509 119.923C95.7611 120.238 89.9074 120.05 86.808 120.05L64.0228 120.05L41.8046 120.054C38.1239 120.059 31.5789 120.27 28.1438 119.703C24.0094 119.032 20.124 117.285 16.8771 114.639C11.9608 110.656 8.81959 104.891 8.13915 98.6003C7.8239 95.5124 8.00071 89.285 8.00073 85.9304L8.00235 62.3199L8.00304 41.2184C8.00006 37.4645 7.79121 31.2701 8.38716 27.7679C9.10354 23.695 10.8468 19.8721 13.452 16.6606C17.818 11.3544 23.5428 8.69675 30.2923 8.04844C33.9269 7.80891 39.6288 7.99249 43.3816 7.99313L65.9645 7.9875C67.9038 8.00233 69.2339 7.82865 70.844 9.26591C72.869 11.0734 71.8975 15.068 69.4114 15.7609C67.5156 16.2893 63.9371 16.0648 61.7518 16.0629L41.5699 16.0484C38.3561 16.0475 34.8281 15.8956 31.6383 16.1016C22.2639 16.7071 16.0636 23.3045 16.0053 32.6975L16.0076 78.0518L16.0048 90.6815C16.0008 96.9554 15.6169 102.204 20.5444 107.102C24.176 110.712 28.2715 111.98 33.3261 111.998L77.7326 111.992L89.9459 111.999C92.6945 112.002 96.2973 112.149 98.9079 111.655C102.037 111.038 104.916 109.517 107.189 107.28C112.676 101.798 112.017 96.0883 112.007 88.9753L112.001 77.1104L112.009 34.1885C111.995 28.9484 111.156 24.5586 107.281 20.7159C102.154 15.6308 96.2382 16.0394 89.5938 16.0609Z" fill="white"></path>
<path d="M98.8919 24.0303C100.315 23.9322 101.462 23.9275 102.646 24.9172C103.443 25.5866 103.937 26.5496 104.015 27.5881C104.12 28.9695 103.356 30.8067 102.166 31.433C100.479 32.3211 97.7457 32.7721 95.8605 33.3002C88.7091 35.3035 81.5544 38.7288 76.7141 44.5105C73.0083 48.9371 70.9284 55.1512 70.17 60.8187C69.9517 62.4498 69.9867 64.2883 69.8187 65.9298C69.6245 67.8295 69.419 70.0823 69.0441 71.9423C67.8318 77.9591 65.3145 84.1712 61.2769 88.7953C54.7817 96.234 45.9746 100.281 36.5456 102.569C34.8506 102.981 30.6065 103.901 28.9176 104.01C27.5804 104.055 26.8137 104.09 25.5761 103.342C24.6359 102.773 24.0417 101.98 23.7606 100.907C23.4804 99.8366 23.8389 98.4952 24.424 97.5962C25.6492 95.7138 30.3265 95.5425 32.6664 95.0331C47.3611 91.8341 58.762 85.3656 61.3764 69.3248C61.8994 66.1157 61.8868 63.3118 62.1611 60.2493C62.686 54.3905 65.2203 46.666 68.5918 41.746C75.7033 31.3681 87.0555 26.4645 98.8919 24.0303Z" fill="white"></path>
</svg>