<svg width="377" height="165" viewBox="0 0 377 165" fill="none" xmlns="http://www.w3.org/2000/svg">
<path d="M73.2963 57.1756C68.6491 57.8763 64.2525 59.7939 60.6576 62.7072C59.5678 63.58 57.476 65.682 56.6117 66.7637C53.4927 70.6973 51.5387 75.7372 51.1879 80.7649C50.6618 88.4477 53.5553 95.6879 59.2797 101.06C63.3632 104.895 68.3109 107.181 74.148 107.944C75.4131 108.103 78.8828 108.103 80.2482 107.944C90.056 106.751 98.248 100.408 101.705 91.3364C103.346 87.0463 103.734 81.9203 102.782 77.3598C101.78 72.5289 99.3127 68.0298 95.7177 64.4896C91.4714 60.2979 86.2481 57.7902 80.2482 57.0527C78.5822 56.856 75.0248 56.9174 73.2963 57.1756ZM78.1062 60.8019C85.4089 61.8467 91.5967 66.1614 94.9536 72.5412C97.3336 77.0648 98.0476 82.0801 97.0204 86.9603C95.7428 93.0082 91.7595 98.3923 86.198 101.588C79.8348 105.251 71.6052 105.436 64.9414 102.08C60.62 99.9042 56.8497 96.0936 54.833 91.8404C51.1879 84.1576 52.3278 75.2824 57.7891 68.7059C58.8037 67.489 60.8705 65.5836 62.2108 64.6371C63.7014 63.6045 66.4947 62.2278 68.2483 61.6623C69.4633 61.2813 71.6178 60.8142 72.7326 60.7035C73.9476 60.5806 76.8912 60.6298 78.1062 60.8019Z" fill="white"></path>
<path d="M71.0167 64.0715C64.5032 64.8951 58.7413 69.1729 56.0607 75.1594C54.2194 79.2528 54.0065 84.1452 55.4595 88.4475C57.6766 94.9748 63.4135 99.7812 70.4155 100.961C71.6931 101.17 72.2568 101.195 74.1106 101.146C76.4405 101.072 77.3799 100.924 79.3715 100.297C87.7514 97.6669 93.3004 89.3818 92.3985 80.8262C91.9351 76.4132 90.0812 72.5288 86.9873 69.4679C85.409 67.9068 83.9686 66.8988 81.9394 65.9031C79.9853 64.9566 78.2818 64.4157 76.3152 64.1207C74.9499 63.924 72.3445 63.8995 71.0167 64.0715ZM72.4823 67.8699C74.2609 68.0543 75.8643 68.5214 77.5553 69.345C79.2212 70.144 80.1356 70.7832 81.4258 72.0248C84.645 75.1102 86.3485 79.6092 85.8976 83.8256C85.7097 85.6571 85.2462 87.2429 84.4445 88.8409C82.0145 93.7456 77.1795 96.8802 71.7182 97.0891C68.975 97.1998 66.8831 96.7818 64.5157 95.6509C60.4448 93.721 57.5638 90.1439 56.424 85.6326C56.0231 84.0222 56.0231 80.9737 56.449 79.3019C58.115 72.5902 63.8644 67.9928 70.8539 67.7716C71.0919 67.7593 71.8309 67.8085 72.4823 67.8699Z" fill="white"></path>
<path d="M67.7849 71.2009C63.1754 71.8524 59.3174 75.3435 58.19 79.8671C57.8393 81.2439 57.8142 83.5917 58.1149 84.9193C59.0668 89.1602 62.3111 92.4177 66.7077 93.5855C68.0981 93.9543 70.7536 93.9543 72.2692 93.5855C77.2044 92.3808 80.7493 88.226 81.0875 83.2598L81.1626 82.1289H75.075H68.9749V83.9113V85.6937L71.7431 85.7183L74.5113 85.7552L73.8725 86.7017C73.0082 87.9678 72.0437 88.7914 70.6659 89.4429C69.3506 90.0576 68.5866 90.2419 67.2463 90.2419C65.1043 90.2419 63.3382 89.5044 61.7599 87.9678C60.9583 87.1934 60.6326 86.7632 60.2192 85.9396C59.3675 84.2186 59.167 82.7927 59.5303 81.0595C60.2317 77.7405 62.9248 75.2943 66.382 74.8641C69.3757 74.483 72.7452 76.1671 74.123 78.7116L74.361 79.1787H77.5051H80.6365L80.5489 78.896C80.5113 78.7485 80.2858 78.2199 80.0603 77.7405C77.9309 73.18 72.8704 70.4879 67.7849 71.2009Z" fill="white"></path>
<path d="M201.249 63.1371V68.8531L200.41 68.2753C198.168 66.7756 195.763 66.1856 193.295 66.5667C186.982 67.5132 183.237 72.2335 182.473 80.2113C182.185 83.1615 182.999 87.4762 184.389 90.3034C186.08 93.7576 188.548 95.7367 192.105 96.462C193.533 96.757 196.001 96.7693 197.116 96.4743C198.118 96.2161 199.721 95.4663 200.56 94.864L201.187 94.4214L201.224 95.5277L201.262 96.6341H205.821H210.393V77.0276V57.4211H205.821H201.249V63.1371ZM197.892 74.1388C199.871 74.7412 200.898 76.0319 201.249 78.4043C201.437 79.7319 201.399 84.2801 201.187 85.3865C200.736 87.6974 199.658 88.9021 197.529 89.443C195.788 89.8855 194.498 89.5413 193.233 88.2875C191.704 86.7755 190.99 84.9562 190.89 82.3133C190.765 79.0189 191.767 76.2163 193.596 74.7903C194.911 73.7823 196.114 73.598 197.892 74.1388Z" fill="white"></path>
<path d="M213.775 61.2319V65.0426H218.535H223.295V61.2319V57.4212H218.535H213.775V61.2319Z" fill="white"></path>
<path d="M285.173 64.1209V68.4847H283.733H282.292V71.2505V74.0163H283.733H285.173L285.198 83.1374L285.236 92.2707L285.637 93.1066C286.413 94.7046 287.954 95.9092 289.683 96.2534C290.622 96.4501 297.085 96.6099 297.148 96.4501C297.186 96.3764 297.186 94.7538 297.173 92.8238L297.136 89.3205L296.071 89.259C295.444 89.2098 294.843 89.0992 294.618 88.9886C294.067 88.6936 293.478 87.9929 293.328 87.452C293.24 87.157 293.19 84.6493 293.19 80.4945V74.0163H295.194H297.198V71.2505V68.4847H295.194H293.19V64.1209V59.7571H289.182H285.173V64.1209Z" fill="white"></path>
<path d="M237.387 67.0832C234.393 67.5995 231.975 68.8164 230.046 70.7832C227.441 73.4261 226.226 76.4992 226.088 80.8385C225.963 84.6369 226.602 87.3658 228.305 90.2914C229.971 93.1556 233.09 95.4543 236.51 96.3516C237.7 96.6589 237.925 96.6835 240.706 96.6835C243.449 96.6958 243.725 96.6712 244.714 96.4008C246.718 95.8353 248.197 95.1224 249.725 93.9792C251.178 92.8974 253.57 90.1439 253.282 89.8858C252.969 89.6153 247.232 85.694 247.132 85.694C247.082 85.694 246.881 85.9276 246.693 86.2226C246.243 86.9233 244.802 88.2632 244.038 88.7057C242.021 89.8612 240.192 89.9226 238.226 88.8901C236.36 87.919 235.195 86.112 235.195 84.2066V83.4814H244.339H253.483L253.508 82.6455C253.583 79.4863 253.37 77.6056 252.718 75.7617C251.441 72.1846 248.41 69.1115 244.84 67.7593C242.673 66.9357 239.754 66.6776 237.387 67.0832ZM241.157 73.5859C242.798 74.0653 243.875 75.3438 244.138 77.1139L244.201 77.581H239.754C237.311 77.581 235.32 77.5318 235.32 77.4826C235.32 77.2614 235.733 76.0198 235.946 75.6019C236.397 74.7537 237.562 73.8195 238.577 73.5122C239.115 73.3524 240.506 73.3892 241.157 73.5859Z" fill="white"></path>
<path d="M309.849 66.9602C308.02 67.2921 307.356 67.4642 306.267 67.8822C300.943 69.9104 297.824 74.9626 297.824 81.576C297.824 88.9884 301.82 94.6429 308.283 96.3516C309.473 96.6712 309.686 96.6835 312.48 96.6835C315.148 96.6957 315.523 96.6712 316.438 96.4253C318.705 95.8107 320.584 94.815 322.25 93.3645C323.69 92.0984 325.306 90.107 325.056 89.8857C324.993 89.8242 323.59 88.8531 321.949 87.7099L318.956 85.6448L318.63 86.075C318.467 86.2963 317.866 86.9355 317.302 87.4887C315.548 89.2342 313.507 89.9472 311.59 89.5046C308.985 88.9146 306.968 86.6036 306.968 84.2189V83.4813H316.1H325.231L325.319 82.4119C325.444 80.9491 325.206 78.1464 324.83 76.7819C323.565 72.1477 319.832 68.5091 315.135 67.2921C314.146 67.034 313.569 66.9725 312.041 66.9479C311.014 66.9234 310.025 66.9356 309.849 66.9602ZM313.507 73.7949C314.809 74.3849 315.661 75.5281 315.924 77.0524L316.012 77.5809H311.553H307.106L307.181 77.1753C307.507 75.4666 308.759 74.0161 310.35 73.5121C310.526 73.4507 311.139 73.4261 311.728 73.4384C312.567 73.463 312.943 73.549 313.507 73.7949Z" fill="white"></path>
<path d="M118.177 67.2553C115.872 67.661 114.156 68.6075 112.453 70.4022C110.361 72.5903 108.97 75.9092 108.557 79.6093C108.256 82.4365 108.87 85.8293 110.185 88.4721C111.764 91.6559 114.156 93.6964 117.2 94.434C118.089 94.6553 118.503 94.6921 119.893 94.6307C122.185 94.5446 123.801 94.0161 125.317 92.836L125.968 92.332V94.9994C125.968 98.134 125.843 98.7732 125.066 99.646C124.44 100.347 123.563 100.679 122.035 100.777C119.279 100.949 117.751 100.101 117.313 98.1586L117.15 97.4702L116.524 97.544C116.173 97.5809 114.357 97.6177 112.49 97.6177H109.108L109.208 98.638C109.421 100.777 110.236 102.584 111.626 103.948C113.104 105.399 114.995 106.272 117.663 106.726C119.668 107.058 123.588 107.095 125.392 106.776C129.3 106.112 131.893 104.415 133.283 101.637C134.373 99.437 134.285 100.9 134.335 83.3831L134.373 67.8699H130.164H125.968V68.6075C125.968 69.0131 125.943 69.345 125.905 69.345C125.868 69.345 125.567 69.1484 125.242 68.9148C124.352 68.2879 123.2 67.7593 122.123 67.4889C121.02 67.2184 119.041 67.0955 118.177 67.2553ZM122.148 74.1883C123.062 74.4218 123.739 74.7906 124.252 75.3561C124.841 75.9953 125.054 76.4132 125.354 77.5564C125.718 78.9209 125.83 82.3997 125.542 83.8502C125.016 86.5791 123.425 88.0296 120.97 88.0296C118.327 88.0296 116.849 86.0997 116.461 82.1292C116.298 80.3714 116.686 77.8883 117.363 76.4255C117.688 75.7248 118.277 75.0119 118.866 74.6062C119.643 74.0531 121.008 73.881 122.148 74.1883Z" fill="white"></path>
<path d="M150.995 67.2552C149.981 67.415 148.603 67.9682 147.513 68.6565C146.999 68.9884 146.548 69.2466 146.511 69.2466C146.473 69.2343 146.386 68.9393 146.323 68.5828L146.198 67.9313L141.776 67.8944L137.367 67.8698V82.252V96.6342H141.939H146.511V87.1321C146.511 80.8261 146.561 77.4825 146.649 77.1752C147.087 75.6264 149.141 74.8028 152.937 74.6676L154.778 74.5938V70.9921V67.4027L154.189 67.329C152.924 67.1814 151.684 67.1569 150.995 67.2552Z" fill="white"></path>
<path d="M164.385 67.3292C161.492 67.8455 158.861 69.4189 157.671 71.3612C156.844 72.7133 156.632 73.5246 156.556 75.4546L156.494 77.2124H160.389H164.272L164.36 76.4379C164.498 75.1349 164.661 74.7293 165.224 74.1884C165.876 73.5861 166.652 73.3402 167.867 73.3525C169.546 73.3771 170.848 74.0409 171.387 75.1595C171.851 76.1552 171.738 76.9788 171.086 77.323C170.961 77.3845 169.12 77.7532 166.99 78.1343C164.849 78.5154 162.606 78.9579 161.993 79.13C159.337 79.8676 157.546 81.2197 156.544 83.248C155.028 86.3457 154.953 89.6278 156.368 92.455C156.932 93.586 158.235 94.9258 159.35 95.4913C161.128 96.4132 164.097 96.8803 166.477 96.6345C168.331 96.4378 169.571 96.0936 171.124 95.3438C171.876 94.975 172.514 94.7046 172.539 94.7292C172.565 94.7537 172.652 95.1963 172.715 95.7003L172.853 96.6345H176.924C180.719 96.6345 180.982 96.6222 180.907 96.4255C180.857 96.3026 180.694 95.5773 180.556 94.7906C180.306 93.4507 180.281 92.8607 180.205 84.1576L180.13 74.9383L179.842 74.0778C178.176 69.1485 174.393 67.0957 167.053 67.1448C166.126 67.1448 164.924 67.2309 164.385 67.3292ZM171.788 85.1656C171.75 87.3905 171.738 87.5012 171.412 88.0912C170.986 88.8902 170.21 89.6524 169.458 90.0211C168.256 90.5989 166.076 90.4145 165.162 89.6647C164.247 88.9148 163.884 87.2185 164.423 86.1982C164.924 85.2271 166.489 84.2068 168.494 83.5307C169.308 83.2726 170.285 83.0636 171.725 82.8792C171.788 82.8669 171.813 83.8995 171.788 85.1656Z" fill="white"></path>
<path d="M213.775 82.252V96.6342H218.535H223.295V82.252V67.8698H218.535H213.775V82.252Z" fill="white"></path>
<path d="M255.988 82.252V96.6342H260.372H264.756V87.0707C264.756 78.0111 264.768 77.4948 264.994 77.0154C265.607 75.7001 267.8 75.0363 269.829 75.5526C270.931 75.8354 271.482 76.241 271.87 77.0646L272.209 77.7653L272.246 87.1936L272.296 96.6342H276.605H280.927L280.889 85.4727L280.852 74.3234L280.501 73.426C279.436 70.7217 277.645 69.0622 274.902 68.214C273.574 67.8084 270.743 67.8084 269.09 68.214C267.787 68.5336 266.184 69.2466 265.357 69.8735L264.768 70.316L264.693 69.7997C264.656 69.517 264.58 68.9762 264.53 68.6074L264.443 67.9313L260.209 67.8944L255.988 67.8698V82.252Z" fill="white"></path>
</svg>