<svg width="377" height="165" viewBox="0 0 377 165" fill="none" xmlns="http://www.w3.org/2000/svg">
<path d="M256.144 57.9332C261.669 57.8344 267.437 57.9355 272.973 57.932C280.066 57.9275 287.003 60.9206 291.926 66.1001C296.673 71.0934 299.237 77.771 299.054 84.6592C298.859 92.258 295.745 98.3888 290.3 103.55C288.9 104.779 287.379 105.864 285.762 106.79C277.852 111.288 271.223 110.019 262.489 110.24C260.938 110.279 255.79 110.344 254.517 109.992C253.678 109.36 253.899 103.323 253.901 101.934L253.911 90.4809L253.913 71.2117C253.908 69.2949 253.576 59.4564 254.39 58.2671C254.897 57.9248 255.523 57.9624 256.144 57.9332ZM262.548 102.163C270.474 102.133 278.289 103.155 284.372 97.0974C291.472 89.7717 291.646 78.0301 284.217 70.7301C277.97 64.5938 270.393 66.1444 262.537 65.9174L262.548 102.163Z" fill="white"></path>
<path d="M179.355 57.1349C179.701 57.138 180.609 57.1272 180.835 57.3243C182.88 59.1134 185.084 61.6711 186.934 63.6485L204.417 82.2358C205.964 83.8808 211.78 90.3133 213.324 91.2649C213.632 88.7512 213.544 85.6475 213.546 83.0638L213.534 67.4675C213.526 64.8282 213.485 62.1838 213.546 59.5465C213.564 58.7655 214.066 57.9013 214.919 57.9578C216.558 58.0661 220.845 57.4252 222.057 58.4655C222.532 60.4079 222.281 67.2692 222.283 69.5826L222.286 87.0313L222.283 101.991C222.283 103.546 222.552 109.869 221.824 110.685C221.245 111.052 220.621 110.979 219.931 110.979C217.661 108.864 213.725 104.266 211.509 101.832L195.076 83.79C193.832 82.4229 188.693 76.4699 187.476 75.8767L187.262 76.0076C186.495 78.0079 187.126 99.1835 186.945 102.709C186.872 104.148 187.092 107.542 186.838 109.159C186.796 109.427 186.649 109.899 186.337 109.975C184.611 110.4 181.564 110.335 179.774 110.13C179.259 110.071 178.692 109.665 178.502 109.311C178.311 108.957 178.178 108.373 178.192 107.987C178.319 104.357 178.281 100.696 178.28 97.0671L178.286 70.6374C178.301 66.6537 178.115 62.4527 178.334 58.4684C178.376 57.708 178.771 57.4806 179.355 57.1349Z" fill="white"></path>
<path d="M320.207 57.14C320.66 57.1344 321.089 57.1527 321.542 57.1717C321.869 57.3855 321.903 57.3356 322.079 57.6954C324.004 61.6555 325.806 65.6978 327.638 69.7021L337.273 90.7437L342.376 101.889C343.308 103.928 344.877 107.106 345.449 109.166C344.69 110.71 339.842 110.421 338.401 110.109C335.828 109.552 333.725 102.546 332.556 100.44C329.61 100.217 324.63 100.374 321.541 100.378C317.421 100.345 313.302 100.361 309.182 100.427C307.583 103.129 306.762 106.155 305.1 108.86C303.877 110.849 297.285 110.779 296.313 109.259C296.851 106.881 300.3 99.8644 301.563 97.1392L312.083 74.3758L317.347 62.9809C317.95 61.6785 319.472 58.1718 320.207 57.14ZM321.361 93.1488C322.907 93.1645 327.445 93.3961 328.612 92.8023C328.748 92.6027 329.015 92.2574 328.886 92.0226C327.723 89.884 321.966 75.4146 320.628 74.7737C319.599 76.2266 313.132 90.8816 312.903 92.5055C313.505 93.5678 319.983 93.161 321.361 93.1488Z" fill="white"></path>
<path d="M69.6834 57.1465C70.0543 57.1325 71.1801 57.1008 71.3203 57.3949C79.1174 73.7439 86.4951 90.3996 94.0733 106.872C94.4338 107.656 94.8259 108.841 94.8471 109.402C93.9847 110.552 88.6543 110.481 87.6881 110.09C85.1511 109.065 83.2903 102.903 82.0525 100.443C78.6412 100.258 74.3702 100.373 70.8952 100.378C67.0514 100.38 62.344 100.252 58.5718 100.455C56.8657 103.169 56.0121 108.015 53.4857 109.786C52.4588 110.506 46.468 110.743 45.708 109.224C45.8233 108.573 46.3518 107.255 46.643 106.622C51.8809 95.2356 57.1554 83.8423 62.41 72.4656L66.9386 62.6638C67.552 61.3364 68.9103 58.1931 69.6834 57.1465ZM70.7159 93.1487C72.0468 93.1627 77.6298 93.5304 78.2765 92.4773C78.1327 90.981 70.9778 75.086 70.0136 74.7604C68.8606 76.8369 62.6034 90.6713 62.3548 92.504C62.8279 93.5669 69.3944 93.1524 70.7159 93.1487Z" fill="white"></path>
<path d="M139.654 57.9397C148.42 57.7091 157.356 58.0686 166.141 57.9006C167.249 57.8792 168.917 57.8622 169.962 58.1453C170.327 58.5031 170.436 58.8892 170.472 59.3909C170.551 60.5164 170.961 64.6462 170.156 65.4798C169.423 66.2391 148.566 65.9197 146.374 65.921C146.523 70.2764 146.406 75.2524 146.406 79.6546C149.31 79.6295 165.029 79.2343 166.227 79.8646C166.415 79.9638 166.566 80.3854 166.616 80.5819C166.891 81.6815 166.956 86.3654 166.399 87.2975C165.371 87.8432 149.054 87.6397 146.411 87.6397L146.408 91.8303C146.416 95.239 146.477 98.8531 146.368 102.243C152.55 102.352 158.783 102.161 164.969 102.244C166.559 102.265 168.328 102.159 169.889 102.433C170.872 103.28 170.746 108.617 170.128 109.78C169.835 110.331 166.775 110.237 166.019 110.233C157.243 110.183 148.457 110.267 139.682 110.199C139.222 110.195 138.413 110.131 138.055 109.832C137.621 107.977 137.753 103.976 137.753 101.955L137.757 90.4308L137.761 71.3652C137.755 69.2298 137.478 59.7844 138.085 58.3274C138.591 57.9038 138.901 58.0087 139.654 57.9397Z" fill="white"></path>
<path d="M86.5363 57.9367C87.9993 57.9102 92.4993 57.627 93.3769 58.4777C94.5995 59.6627 96.5548 64.6161 97.3031 66.2991L104.452 82.3933C105.105 83.8624 108.05 91.1938 109.128 91.6199C109.521 91.5383 109.684 91.4972 109.943 91.164C111.149 89.6123 112.057 86.7523 112.891 84.8802C114.468 81.3432 123.72 59.5759 125.105 58.4193C126.224 57.4847 131.495 57.8702 133.027 58.0341C134.515 59.1689 132.035 63.4323 131.375 64.8593L127.65 72.8969C125.622 77.2972 110.534 110.52 109.835 110.921C109.258 110.992 108.981 111.059 108.42 110.869C107.842 110.406 93.58 78.9962 92.0887 75.7494L87.0032 64.668C86.2579 63.0403 85.4086 61.2691 84.7397 59.6007C84.5389 59.1002 84.7194 58.7711 84.9457 58.3782C85.4912 57.9586 85.8606 57.985 86.5363 57.9367Z" fill="white"></path>
<path d="M235.898 57.9331C237.289 57.9069 241.264 57.6372 242.248 58.3713C242.619 58.648 242.537 64.8585 242.537 65.7534L242.542 77.5993L242.539 97.6772C242.537 99.3728 242.738 109.142 242.203 109.825C241.676 110.187 241.266 110.168 240.636 110.217C239.259 110.241 234.75 110.56 233.956 109.642C233.476 108.034 233.64 101.544 233.64 99.6115L233.651 83.5357C233.655 80.5003 233.388 59.5479 234.03 58.352C234.553 57.9058 235.198 57.9648 235.898 57.9331Z" fill="white"></path>
<path d="M54.0403 57.5598C57.3615 56.9954 60.5084 59.2402 61.0564 62.5647C61.6047 65.8891 59.3453 69.0257 56.0188 69.5579C52.7149 70.0865 49.6049 67.8454 49.0604 64.5435C48.5161 61.2416 50.7418 58.1203 54.0403 57.5598ZM55.8347 67.7058C58.0966 67.2857 59.6058 65.1317 59.229 62.8618C58.8519 60.5917 56.7275 59.0415 54.4513 59.3752C52.9397 59.5969 51.6657 60.6177 51.1199 62.0448C50.574 63.472 50.8415 65.0827 51.8193 66.2567C52.7972 67.4308 54.3326 67.9849 55.8347 67.7058Z" fill="white"></path>
<path d="M38.1724 89.0923C41.2804 88.8576 42.2787 90.1464 42.7183 93.0552C44.0409 92.92 46.7105 92.3774 47.6518 93.1422C47.6912 95.3952 43.5425 94.8145 42.0266 94.8C41.6786 95.5932 41.3279 96.24 40.9139 97.0014C42.0124 97.4382 43.3017 98.0893 44.3871 98.6026C44.7878 98.8 44.6596 98.6824 44.8981 99.036C44.8549 99.8049 44.8104 100.138 44.0685 100.402C41.6429 99.6136 36.1848 96.8554 33.6431 95.6443C34.6803 93.1899 35.5138 90.0593 38.1724 89.0923ZM36.0362 94.6623L38.999 96.0067L39.4027 96.1559C40.7214 95.2657 42.0194 91.3533 38.8652 90.8142L38.7725 90.7993C37.1324 91.6242 36.8032 92.9724 36.0362 94.6623Z" fill="white"></path>
<path d="M47.5406 68.8193C50.2226 68.5241 52.3411 69.7313 52.2335 72.6883C52.1822 74.0994 51.6117 75.0378 50.9923 76.2721C51.9588 76.6883 53.8012 77.3872 54.5358 78.0313C54.7609 78.5719 54.7507 78.3514 54.5826 78.9067C53.794 79.7494 53.8053 79.6386 52.8635 79.1852L43.3252 74.7662C44.4509 72.19 44.9725 69.9413 47.5406 68.8193ZM48.9018 75.2426L49.2595 75.3678C50.8223 73.9361 51.2051 70.6772 48.0595 70.5716C46.7648 71.352 46.4179 72.4561 45.7727 73.8141L48.9018 75.2426Z" fill="white"></path>
<path d="M33.9671 98.522C35.7978 100.715 32.2744 101.239 31.8776 103.536C31.3387 106.655 35.3234 109.722 38.1515 107.818C39.8635 106.666 40.1633 105.592 40.6305 103.698L38.9153 102.835C38.8658 102.961 38.8154 103.086 38.7639 103.211C38.4161 104.057 38.4217 104.142 37.6549 104.462L37.2701 104.302C36.5011 103.076 37.127 101.648 38.1517 100.794C38.8041 100.635 38.7648 100.757 39.4675 101.072L42.3705 102.4C42.3635 107.144 39.7825 111.72 34.4122 110.087C32.7938 109.597 31.44 108.477 30.6538 106.98C28.8147 103.448 30.6761 100.207 33.9671 98.522Z" fill="white"></path>
<path d="M42.0293 77.4783C43.0328 77.6383 45.0736 78.7962 46.1142 79.1684C49.309 80.3113 52.8714 82.9306 50.9677 86.8784C50.4862 87.8821 49.6215 88.6501 48.5681 89.0098C45.8673 89.9502 42.3025 87.6832 39.7432 86.4656C39.1822 86.2298 38.9084 86.1364 38.4278 85.7395C38.3836 85.1189 38.3716 85.3307 38.7119 84.7142C41.241 83.2771 46.7003 90.0915 49.3846 86.0064C51.7625 82.3876 43.4213 80.6988 41.5318 79.1247C41.3889 78.6627 41.81 77.9583 42.0293 77.4783Z" fill="white"></path>
</svg>