<svg width="377" height="165" viewBox="0 0 377 165" fill="none" xmlns="http://www.w3.org/2000/svg">
<path d="M183.924 18.6387C208.967 18.1037 235.029 22.035 258.253 31.8457C260.167 32.654 262.114 33.8034 263.984 34.751C282.237 43.9996 301.616 59.0642 302.106 81.4209C302.343 92.2544 296.921 103.965 289.287 111.509C265.037 135.475 226.861 144.862 193.634 145.47L193.475 145.475C170.489 146.228 142.754 142.366 121.47 133.593C109.331 128.718 98.1806 121.675 88.5626 112.81C80.6404 105.38 74.7315 94.3254 74.3839 83.3603C74.0211 71.9108 79.1951 61.1119 86.9464 52.917C88.3928 51.3877 89.781 50.2404 91.3214 48.8594C97.4818 43.1349 104.383 39.1318 111.723 35.1972C117.069 32.3316 120.706 30.7964 126.376 28.7441C144.676 22.1204 163.697 19.2515 183.085 18.665C183.365 18.6538 183.644 18.645 183.924 18.6387ZM242.343 31.914C224.029 26.2873 203.981 23.8825 184.874 24.2715L183.697 24.3008C166.6 24.7713 149.669 26.9552 133.322 32.1758C130.691 33.0823 128.177 34.1993 125.559 35.1553C110.924 40.4981 96.8968 48.8537 87.1681 61.2422C85.4178 63.471 83.8301 66.5714 82.7628 69.1719C70.6378 98.7172 101.523 120.375 125.503 128.951C130.189 130.627 134.495 132.228 139.231 133.658C155.836 138.158 175.382 140.376 192.582 139.829L192.713 139.825C207.285 139.576 221.781 137.633 235.903 134.038C239.303 133.15 242.397 131.966 245.729 130.856C259.682 126.212 273.462 119.425 283.962 108.934C285.21 107.686 288.334 104.311 289.234 103.019C293.791 96.4812 296.6 89.3215 296.381 81.251C296.185 74.008 293.434 66.9437 289.218 61.1289C287.75 59.1037 284.367 55.5454 282.565 53.8447C273.599 45.3867 262.029 39.1083 250.473 34.9687C247.725 33.9849 245.139 32.773 242.343 31.914Z" fill="white"></path>
<path d="M125.203 59.228L133.419 59.3147C133.283 62.7594 133.38 66.7148 133.379 70.2107L133.376 90.325L133.383 97.4782C133.389 98.3625 133.468 100.469 133.382 101.203L133.155 101.333C130.548 101.392 127.86 101.363 125.247 101.365C125.083 95.5434 125.194 89.1567 125.196 83.2909L107.113 83.3C107.083 89.3123 107.098 95.3248 107.157 101.337C104.386 101.372 101.615 101.375 98.8435 101.347L98.8585 59.2429C100.303 59.4058 105.437 59.2846 107.152 59.2746C107.019 64.8557 107.074 71.0501 107.161 76.6362L125.208 76.6022L125.203 59.228Z" fill="white"></path>
<path d="M152.85 70.3277C159.87 70.0902 165.112 73.5897 167.278 80.2955C168.137 82.9553 168.194 85.2642 168.273 88.0171C160.771 88.1924 153.135 87.9314 145.632 88.0835C146.142 90.9278 146.729 93.9778 149.718 95.3111C153.338 96.9255 158.478 96.3646 160.336 92.3921C161.535 92.3075 163.041 92.3497 164.264 92.3521L167.627 92.3872C165.33 97.9318 162.352 101.317 156.086 102.016C151.822 102.492 147.598 101.984 144.1 99.3296C137.048 93.9782 136.169 82.757 141.412 75.8872C143.985 72.5209 147.556 70.9051 151.744 70.4078C152.112 70.3691 152.481 70.3424 152.85 70.3277ZM160.594 83.0191C159.575 78.2118 157.968 75.5786 152.466 75.9048C148.079 76.5137 146.445 78.9716 145.78 83.0484L154.241 83.0376L160.594 83.0191Z" fill="white"></path>
<path d="M250.189 70.3238C261.11 70.1836 265.301 78.1569 265.403 88.0348C257.928 88.1335 250.3 88.0601 242.814 88.0631C243.128 90.6663 243.376 92.7561 245.589 94.5465C247.299 95.9296 249.793 96.3345 251.94 96.0426C255.013 95.625 255.865 94.652 257.652 92.3951C258.733 92.3121 260.252 92.3506 261.365 92.3473L264.699 92.3834C262.636 97.8723 259.151 101.384 253.161 102.005C248.858 102.471 244.7 101.989 241.18 99.3219C231.868 92.2674 233.454 75.1994 244.937 71.2584C246.327 70.7811 247.375 70.5765 248.844 70.4058C249.291 70.3601 249.739 70.3326 250.189 70.3238ZM257.635 83.0221C256.699 78.2894 254.901 75.5259 249.549 75.9058C245.208 76.4867 243.425 78.9518 242.866 83.0367L251.212 83.0357L257.635 83.0221Z" fill="white"></path>
<path d="M209.267 59.2786L215.143 59.2695C215.111 60.5007 215.115 61.7946 215.133 63.0264C215.234 70.0036 214.975 77.0549 215.127 84.0221C216.631 82.4373 217.832 80.5727 219.264 79.0197C221.506 76.5866 223.695 73.4019 225.978 71.1181C229.024 71.0671 232.072 71.0777 235.118 71.1501C233.399 72.9275 231.461 75.378 229.839 77.2849C227.883 79.5853 225.75 82.0108 223.89 84.3688C224.691 85.1949 226.57 87.8239 227.326 88.8355L233.866 97.5868C234.73 98.7932 235.551 100.089 236.363 101.334C233.196 101.368 230.028 101.38 226.862 101.37C226.474 100.616 225.432 99.1267 224.933 98.3692C221.962 93.8644 217.933 89.3085 215.151 84.7105C214.997 90.0527 215.125 95.9674 215.129 101.348C212.575 101.363 210.021 101.365 207.466 101.353L207.461 59.3055L209.267 59.2786Z" fill="white"></path>
<path d="M188.352 70.4002C188.788 70.3499 189.227 70.3208 189.667 70.3134C201.634 70.1499 200.792 79.19 200.791 88.2375C200.775 92.6002 200.782 96.9629 200.81 101.326C198.258 101.373 195.705 101.379 193.153 101.343C193.121 97.2537 193.113 93.1641 193.129 89.0747C193.129 84.3952 194.127 75.9221 187.3 76.3202C185.202 76.4427 184.359 76.451 182.634 77.8325C179.988 80.8139 180.485 86.9813 180.487 90.8048C180.475 94.311 180.498 97.8172 180.556 101.323C177.996 101.374 175.435 101.379 172.874 101.338C172.728 91.3653 172.822 81.0764 172.854 71.0907C175.284 71.1117 177.714 71.0976 180.143 71.0485C180.157 72.4889 180.145 73.9984 180.248 75.4302C180.423 75.149 180.61 74.8744 180.806 74.607C182.737 72.0189 185.244 70.8627 188.352 70.4002Z" fill="white"></path>
<path d="M269.958 59.2183C271.754 59.3888 275.697 59.2862 277.666 59.3026L277.681 101.351C275.107 101.365 272.534 101.363 269.96 101.348C269.568 90.5764 270.115 79.5203 269.894 68.7206C269.831 65.6355 269.837 62.289 269.958 59.2183Z" fill="white"></path>
</svg>