<svg width="377" height="165" viewBox="0 0 377 165" fill="none" xmlns="http://www.w3.org/2000/svg">
<path d="M102.139 80.2964C105.014 80.2774 109.509 80.1783 112.222 80.5464C114.043 80.7955 115.82 81.2994 117.5 82.0434C125.072 85.3985 126.728 94.797 121.949 101.278C120.613 103.089 119.159 104.551 117.02 105.373C117.19 105.418 117.359 105.469 117.527 105.523C120.857 106.593 124.098 109.573 125.261 112.896C126.831 117.384 126.32 121.783 124.886 126.199C124.224 127.847 122.735 129.682 121.455 130.9C116.344 135.761 108.36 135.081 101.843 135.082C98.1404 135.1 94.4381 135.087 90.7361 135.04C90.5218 129.386 90.7107 122.245 90.7107 116.474L90.7176 80.3628C94.346 80.2047 98.4682 80.3207 102.139 80.2964ZM112.712 114.012C110.271 111.525 105.516 111.944 102.267 111.975L102.264 124.918C106.011 124.951 109.465 125.478 112.509 123.216C114.903 120.793 115.101 116.448 112.712 114.012ZM112.356 94.2651C111.619 89.8497 105.63 90.3564 102.267 90.3891L102.249 101.793C104.499 101.81 109.31 102.21 110.934 100.416C112.216 98.6405 112.729 96.4232 112.356 94.2651Z" fill="white"></path>
<path d="M217.725 80.6455C218.765 80.7614 220.808 80.7161 221.922 80.7178C224.353 80.7115 226.787 80.7288 229.219 80.7705L229.228 133.575C226.248 133.612 220.494 133.36 217.724 133.667C217.71 132.859 217.636 131.983 217.583 131.172C215.04 134.167 210.578 135.084 206.832 134.477C204.88 134.177 203.03 133.404 201.445 132.225C198.064 129.659 195.966 124.341 195.445 120.224C194.541 113.179 195.453 105.769 199.788 99.9463C203.892 94.4322 212.152 93.0693 217.661 97.3194C217.798 91.8467 217.673 86.1523 217.725 80.6455ZM211.922 105.435C210.068 107.013 209.4 110.116 209.276 112.457C209.131 115.199 208.603 124.05 212.945 123.948C214.917 122.286 215.423 119.503 215.625 117.044C215.841 114.419 216.3 105.116 211.922 105.435Z" fill="white"></path>
<path d="M196.605 42.0942C212.146 40.885 213.976 61.913 207.781 71.8139C203.84 78.1131 195.638 80.2905 189.315 76.1313C189.514 78.3045 189.402 82.0958 189.403 84.3794C189.416 85.3494 189.37 86.406 189.347 87.3833L177.352 87.3276C177.163 82.2943 177.292 76.5839 177.293 71.5063L177.3 43.1928C180.781 43.5571 184.933 42.964 188.476 43.2465C189.95 43.3641 188.944 43.7746 189.571 44.4067C189.996 44.3863 191.044 43.4626 191.648 43.2387C193.342 42.6111 194.828 42.2922 196.605 42.0942ZM198.708 56.1606C198.267 53.4795 196.583 51.9236 193.852 52.0854C190.983 52.8225 189.723 55.252 189.443 58.0229C189.063 61.7799 189.143 68.2703 194.508 67.9067C199.321 67.0268 199.313 59.8391 198.708 56.1606Z" fill="white"></path>
<path d="M144.617 94.965C161.532 94.5584 164.21 117.816 156.462 128.695C153.803 132.427 150.5 133.853 146.043 134.5C134.828 134.974 129.083 128.916 128.04 117.83C127.036 107.167 130.752 96.1237 142.867 95.0217C143.38 94.9485 144.086 94.9777 144.617 94.965ZM144.124 105.164C139.659 105.886 140.291 118.491 141.578 121.655C142.305 123.443 142.871 123.867 144.739 124C145.974 123.422 146.505 123.158 146.958 121.75C147.869 118.919 148.049 115.661 147.887 112.704C147.767 110.513 147.506 106.441 145.26 105.337C145.021 105.223 144.397 105.181 144.124 105.164Z" fill="white"></path>
<path d="M125.451 29.1516C130.861 28.7965 133.561 29.3436 138.455 31.162C138.475 33.9842 138.474 36.8065 138.454 39.6287C138.452 41.1473 138.394 43.1322 138.593 44.5999C134.69 41.4738 133.339 39.9422 127.942 39.8288C123.875 39.7435 120.251 42.396 124.435 45.8864C125.356 46.6549 126.947 47.2805 128.052 47.8485C131.227 49.4618 134.583 51.0966 137.158 53.6128C142.095 58.4383 142.149 68.5995 137.239 73.4384C132.858 77.7555 127.119 78.3265 121.228 78.2363C116.516 77.8919 113.699 77.1782 109.6 74.9282C109.727 70.5229 109.61 65.6379 109.649 61.1797C110.741 61.9733 111.722 62.9829 112.836 63.8191C116.088 66.5132 124.373 69.6115 127.735 65.8163C131.075 62.0453 120.42 58.0793 118.228 56.9132C117.069 56.2923 115.976 55.5558 114.965 54.7151C109.339 49.9775 108.288 40.8504 112.93 34.8401C115.761 31.1761 120.915 29.5412 125.451 29.1516Z" fill="white"></path>
<path d="M246.082 94.8848C249.703 94.4302 254.785 95.8142 257.364 98.5293C262.798 104.251 262.581 111.634 262.549 118.99C255.966 118.98 249.021 118.869 242.482 119.054C242.832 120.342 243.206 121.958 244.241 122.825C248.294 126.22 256.226 124.154 259.47 120.63L259.478 125.239C259.484 126.828 259.819 131.073 258.957 131.993C257.061 133.598 252.854 134.247 250.563 134.548C239.584 135.813 232.287 130.079 231.078 119.131C229.894 108.394 233.547 96.018 246.082 94.8848ZM246.326 104.609C243.917 105.756 243.322 107.457 242.469 109.836C244.133 109.87 245.798 109.886 247.464 109.884L251.363 109.845C250.625 106.399 250.537 104.434 246.326 104.609Z" fill="white"></path>
<path d="M181.335 94.8811C181.618 94.8525 181.901 94.8355 182.186 94.83C194.423 94.6478 193.644 108.392 193.665 116.937L193.63 133.578L181.825 133.587C182.134 127.937 181.636 121.775 181.842 116.071C181.953 112.974 181.974 108.584 180.201 105.974C177.417 104.603 175.887 105.771 174.452 108.126C173.213 111.035 173.561 116.227 173.564 119.469L173.561 133.643C169.704 133.526 165.844 133.529 161.987 133.654C161.95 132.2 161.957 130.711 161.966 129.255C162.034 118.119 161.838 106.953 161.991 95.8211C165.685 95.9694 169.847 95.9103 173.572 95.9338L173.565 98.8812C175.617 96.4028 178.18 95.2036 181.335 94.8811Z" fill="white"></path>
<path d="M229.236 42.0729C232.945 42.0412 236.47 42.9747 239.106 45.6696C244.033 50.704 243.473 58.1503 243.497 64.6071C242.71 64.6026 241.739 64.6829 240.936 64.7301C240.874 67.9516 241.084 72.3698 240.85 75.4713C236.963 77.881 232.89 78.2855 228.466 78.2536C224.936 78.1808 221.538 76.899 218.839 74.6217C215.595 71.8811 213.657 67.7651 213.353 63.5602C212.912 57.4697 213.514 52.1447 217.604 47.3522C220.763 43.65 223.816 42.4916 228.508 42.1042C228.75 42.0858 228.994 42.075 229.236 42.0729ZM240.224 64.8307C239.885 64.7672 239.835 64.7629 239.495 64.8131C234.706 64.9344 229.932 64.8046 225.156 64.8903C225.787 66.0507 226.258 67.0256 227.169 68.0055C229.609 69.1325 232.825 69.0163 235.325 68.1208C236.735 67.6159 239.239 66.1475 240.198 65.0192L240.224 64.8307ZM232.772 56.2233C232.009 53.1537 232.006 51.6202 228.465 51.82C227.597 51.952 227.355 51.9391 226.84 52.651C226.098 53.6764 225.697 55.0469 225.201 56.2243L229.501 56.2467L232.772 56.2233Z" fill="white"></path>
<path d="M162.264 43.179C165.71 43.3893 170.848 43.2422 174.427 43.2516L174.427 56.3195L174.432 78.2771C170.388 78.3586 166.345 78.2374 162.292 78.3573C162.269 77.295 162.233 76.233 162.185 75.1715C162.091 75.2871 161.991 75.3976 161.886 75.5023C156.333 81.018 145.666 77.913 144 70.1937C142.992 65.5248 143.199 61.0185 143.203 56.2968L143.224 43.1931C144.027 43.2896 146.375 43.2378 147.327 43.2388C149.939 43.2509 152.552 43.2457 155.164 43.2234L155.143 56.7045C155.139 59.2571 154.683 64.8864 156.387 67.0864C157.587 68.6367 161.621 68.1108 161.981 65.4885C162.388 62.5201 162.269 59.6085 162.265 56.5597L162.264 43.179Z" fill="white"></path>
<path d="M282.129 95.1497C283.676 94.9385 285.277 95.3128 286.787 95.6183C286.962 96.8374 286.912 99.1169 286.912 100.428L286.871 108.877C282.002 105.663 277.863 105.633 276.593 112.401C276.083 115.113 276.273 118.269 276.273 121.043L276.277 133.609C273.799 133.547 271.224 133.575 268.738 133.569L264.087 133.581C263.918 121.171 264.053 108.308 264.09 95.869C267.635 96.0573 272.632 95.8999 276.344 95.9188L276.185 98.3735C278.086 96.3993 279.342 95.514 282.129 95.1497Z" fill="white"></path>
<path d="M263.043 42.3743C264.912 42.2236 265.933 42.2944 267.679 42.94C267.852 44.0566 267.777 46.0792 267.784 47.2459C267.798 50.0391 267.704 52.7994 267.841 55.5958C266.324 54.5889 264.49 53.2912 262.616 53.3417C256.909 53.4951 257.779 62.8605 257.78 66.612L257.797 78.241C255.683 78.3324 253.488 78.3049 251.366 78.3049C249.558 78.3015 247.483 78.2572 245.7 78.3572C245.588 73.906 245.677 69.0373 245.675 64.5499L245.702 43.2043C249.365 43.4732 253.48 43.027 257.176 43.2638C257.752 43.3007 257.642 44.024 258.259 44.2055C259.028 43.4979 259.004 43.2954 260.096 42.9651C261.13 42.652 261.972 42.4978 263.043 42.3743Z" fill="white"></path>
</svg>