<svg width="486" height="153" viewBox="0 0 486 153" fill="none" xmlns="http://www.w3.org/2000/svg">
<rect x="0.5" y="0.5" width="485" height="152" rx="34.5" stroke="#555555"></rect>
<path d="M98.1666 44.0498C117.346 41.774 134.664 57.6011 133.936 77.3912C133.131 99.278 112.045 113.781 91.2126 107.113C88.2966 106.18 85.3149 104.521 82.695 102.851L78.9673 99.7352C72.8819 101.815 66.5709 102.236 60.4392 100.029C54.2643 97.7476 49.2212 93.149 46.3811 87.209C43.4263 80.9816 43.1266 73.8209 45.5503 67.3681C47.8446 61.2074 52.4746 56.1996 58.4362 53.4314C65.2544 50.2618 72.0317 50.4576 78.9687 52.992C85.1997 47.2722 89.9418 45.2771 98.1666 44.0498ZM85.5258 56.9254C91.4566 62.6499 94.3164 67.9243 94.5033 76.3981L87.1468 76.431C86.8176 72.9008 86.3564 70.3126 84.5427 67.1785C81.246 61.4814 74.3684 57.828 67.7655 58.4652C62.9408 58.9343 58.4948 61.2851 55.3899 65.0085C52.4042 68.6983 50.9854 73.4128 51.4389 78.1379C51.9596 82.9527 54.3915 87.3564 58.1887 90.3608C62.4529 93.7882 68.5344 95.0789 73.7968 93.5427C73.0499 91.8495 72.0532 90.0822 71.3751 88.4852C69.7985 84.3173 69.0918 80.7833 69.1206 76.2687C71.5749 76.2256 74.0297 76.1974 76.4844 76.1843C76.7177 83.4425 79.0395 89.572 84.414 94.6159C89.2129 99.1115 95.5934 101.528 102.165 101.339C108.836 101.157 115.159 98.3231 119.735 93.4652C124.155 88.7243 126.812 82.0733 126.571 75.5773C126.335 68.8555 123.429 62.5051 118.496 57.9343C113.705 53.4403 107.322 51.0413 100.758 51.2682C100.326 51.286 99.4767 51.3131 99.0785 51.3786C92.9775 52.1981 90.4959 53.5336 85.5258 56.9254Z" fill="#65A9EF"></path>
<path d="M425.563 64.7098C429.709 64.3197 434.448 66.3805 437.045 69.7207C446.556 81.9573 435.24 100.997 419.678 93.3201C418.528 92.7531 417.51 91.6472 416.699 90.6321L416.724 95.8719L416.744 105.105C414.504 105.035 412.071 105.095 409.816 105.108C409.661 91.9849 410.067 78.4929 409.765 65.4229C412.074 65.4189 414.382 65.3947 416.691 65.3501C416.739 66.5779 416.713 67.9664 416.715 69.2078C419.592 66.2069 421.365 65.1121 425.563 64.7098ZM425.958 88.5202C430.737 87.9707 434.155 83.6323 433.571 78.855C432.987 74.0779 428.626 70.69 423.856 71.3075C419.132 71.9189 415.785 76.2282 416.362 80.9576C416.941 85.6869 421.225 89.0641 425.958 88.5202Z" fill="#65A9EF"></path>
<path d="M389.267 64.5576C397.681 63.8118 405.126 69.9896 405.945 78.4002C406.764 86.8105 400.653 94.31 392.254 95.2041C383.748 96.1095 376.135 89.9039 375.305 81.388C374.475 72.8717 380.745 65.3125 389.267 64.5576ZM391.335 88.5003C396.07 88.1082 399.595 83.9541 399.211 79.2161C398.827 74.4779 394.68 70.9459 389.944 71.322C385.193 71.699 381.653 75.8593 382.037 80.6087C382.423 85.3578 386.587 88.8933 391.335 88.5003Z" fill="#65A9EF"></path>
<path d="M287.47 64.7032C292.002 64.647 294.508 65.8657 297.012 69.7118C301.014 64.3954 308.244 62.6721 313.667 67.2134C317.802 70.6767 317.085 77.5433 317.116 82.3886C317.143 86.3222 317.056 90.3946 317.191 94.4294C314.903 94.3697 312.346 94.4117 310.037 94.4045C310.073 93.5742 310.1 92.7431 310.115 91.9121C310.179 87.5071 310.936 74.0067 308.27 72.4396C296.384 65.4543 298.615 86.5546 298.628 89.3217L298.659 94.4023L291.567 94.4194L291.636 80.7893C291.641 78.7545 291.616 73.5464 289.607 72.4034C277.348 65.4261 280.096 88.4856 280.225 94.3879L273.164 94.4356L273.2 65.4065C275.512 65.4172 277.825 65.4032 280.136 65.3646C280.18 66.5289 280.087 67.8342 280.032 69.0085C282.416 66.1159 283.523 65.1004 287.47 64.7032Z" fill="#65A9EF"></path>
<path d="M254.397 64.7129C259.617 64.2855 264.736 66.9021 267.424 71.3894C269.564 74.964 269.77 78.014 269.632 82C263.002 81.8104 253.979 81.8381 247.369 82.0286C249.023 88.7147 255.613 91.5002 261.273 86.9083C261.724 86.5428 262.621 85.2022 263.002 84.672L265.138 85.7646L268.789 87.5151C265.977 91.9831 263.087 94.3552 257.517 94.9913C242.812 96.6769 235.739 80.6068 244.055 69.7493C246.49 66.5684 250.55 65.0386 254.397 64.7129ZM247.451 76.9436L257.056 76.9542C258.94 76.9363 260.876 76.9398 262.756 76.8792C261.247 72.099 258.856 70.0888 253.64 70.6381C250.086 71.8879 248.685 73.3093 247.451 76.9436Z" fill="#65A9EF"></path>
<path d="M344.791 54.645L351.894 54.6084C351.814 59.3076 351.852 64.1177 351.805 68.8313C354.462 66.1115 356.158 64.8473 360.171 64.7008C365.227 64.2094 370.75 67.8304 371.434 73.1715C372.27 79.6983 371.869 87.719 371.904 94.3999L364.688 94.3928C364.846 90.7028 364.779 86.6581 364.781 82.9388C364.797 79.8493 365.163 75.0791 362.914 72.7598C360.564 70.3382 356.096 70.8728 353.854 73.1961C351.852 75.2709 351.827 77.8333 351.818 80.5198C351.801 85.1703 351.865 89.7869 351.905 94.4183L344.786 94.4121C344.966 81.3033 344.837 67.7787 344.791 54.645Z" fill="#65A9EF"></path>
<path d="M166.742 64.704C179.271 64.1943 178.996 74.3233 178.964 83.3193C178.941 87.0113 178.949 90.7034 178.988 94.3952L171.91 94.4147C171.926 90.0957 172.628 77.7973 171.111 74.4938C170.494 73.1485 169.448 72.0122 168.039 71.4973C166.067 70.7771 163.967 71.3013 162.133 72.1394C159.173 74.0832 158.947 78.0797 158.964 81.2811C158.987 85.6523 159.005 90.0226 159.036 94.3936L151.993 94.4178L152.022 65.4161C154.347 65.4227 156.671 65.4025 158.996 65.3557C159.057 66.5262 158.979 67.754 158.928 68.9292C161.526 66.1352 162.833 65.1134 166.742 64.704Z" fill="#65A9EF"></path>
<path d="M202.523 65.4232C204.823 65.4461 207.124 65.4176 209.423 65.3384C209.472 67.3999 209.454 69.546 209.466 71.6152C209.485 75.4603 209.576 79.2926 209.417 83.145C209.091 91.0751 203.51 95.4862 195.75 95.0686C191.527 94.8413 187.873 93.3719 185.55 89.6845C184.712 88.3326 184.154 86.8266 183.909 85.2553C183.569 83.1912 183.385 67.1863 183.796 65.3974C186.121 65.4476 188.446 65.4381 190.77 65.3688C190.766 65.4729 190.762 65.5773 190.759 65.6816C190.66 70.4825 190.776 75.3013 190.691 80.1159C190.624 83.8821 191.565 88.6095 196.295 88.6614C202.734 88.7322 202.623 81.7385 202.536 77.0717C202.465 73.2489 202.508 69.2742 202.523 65.4232Z" fill="#65A9EF"></path>
<path d="M329.914 64.7115C335.053 64.3894 339.055 66.769 341.324 71.3445C339.739 72.3248 337.424 73.4462 335.75 74.281C334.691 72.7935 332.725 70.2073 330.893 70.5157C324.76 71.5488 327.655 75.6654 332.112 76.6158C336.016 77.4482 341.674 80.4826 341.67 84.9418C341.663 91.6023 337.386 94.7748 331.058 95.0597C325.251 95.0064 322.024 92.7551 319.62 87.6374L325.178 84.6085C326.385 86.6738 326.858 87.2766 328.751 88.7175C330.907 89.0441 334.68 89.359 335.182 86.3212C334.671 82.1969 320.636 82.2577 320.692 74.4755C320.734 68.3769 324.123 65.2462 329.914 64.7115Z" fill="#65A9EF"></path>
<path d="M218.004 65.395L218.257 65.4003C219.359 66.2203 225.33 82.5744 226.357 85.2054C228.419 79.326 231.55 71.1743 234.042 65.4501L241.296 65.3959C239.724 69.1812 238.237 73.0205 236.615 76.7793C234.195 82.268 231.603 88.8311 229.449 94.3992L223.17 94.3975C219.337 85.0096 214.846 74.8628 211.287 65.4705L218.004 65.395Z" fill="#65A9EF"></path>
</svg>