<svg width="486" height="153" viewBox="0 0 486 153" fill="none" xmlns="http://www.w3.org/2000/svg">
<rect x="0.5" y="0.5" width="485" height="152" rx="34.5" stroke="#555555"></rect>
<g clip-path="url(#clip0_1055_27)">
<path d="M319.794 59.461C334.547 58.2121 335.935 73.2928 333.024 84.0635C329.474 97.2066 317.74 108.08 303.526 102.362C302.354 107.951 301.184 114.625 300.155 120.273C299.29 120.235 298.303 120.249 297.428 120.24C295.229 120.229 290.114 120.078 288.148 120.304C289.224 115.554 290.069 109.623 291.019 104.702C293.123 94.3521 295.092 83.9747 296.924 73.5727C297.654 69.2765 298.153 64.2353 298.95 60.1592C301.901 59.9639 306.559 60.1299 309.559 60.1552C309.206 62.0689 309.071 64.5848 308.919 66.5662C312.077 62.4386 314.667 60.581 319.794 59.461ZM310.907 94.7675C318.829 92.8526 322.551 80.3316 321.217 73.1058C320.628 69.9094 318.446 69.4153 315.655 69.5334C308.625 71.0535 307.223 81.1667 306.292 86.9595C305.957 89.0482 305.424 91.0606 305.207 93.177C307.455 94.3244 308.353 94.7691 310.907 94.7675Z" fill="#E5E5E5"></path>
<path d="M274.066 59.3091C295.383 59.8021 294.059 84.2967 283.523 96.4718C279.221 101.442 273.85 103.499 267.335 103.793C262.842 103.647 259.397 103.151 255.823 99.9959C252.555 97.0541 250.747 92.9646 250.563 88.5833C249.937 73.6198 258.419 60.2371 274.066 59.3091ZM270.097 94.4702C273.456 92.9371 275.378 89.9786 276.62 86.5703C278.673 80.9419 281.67 67.5628 271.455 68.818C267.675 70.5529 266.045 73.2286 264.627 77.0631C263.087 81.2214 262.08 87.2758 263.731 91.5116C264.783 94.214 267.503 94.8328 270.097 94.4702Z" fill="#E5E5E5"></path>
<path d="M217.213 41.5721C220.643 41.3608 225.762 41.5292 229.324 41.5505C227.582 49.2676 225.972 58.1104 224.581 65.9499C224.99 65.4624 225.408 64.9545 225.836 64.4883C233.231 56.4444 247.826 57.2587 247.455 70.5781C247.054 76.9292 245.516 83.3509 244.347 89.6302C243.593 93.684 242.89 99.3274 241.661 103.17C238.125 103.158 233.23 102.993 229.801 103.193C231.049 97.0083 231.971 90.5721 233.26 84.3807C234.097 81.6775 235.632 73.4101 234.216 70.813C232.371 68.336 228.451 69.2635 226.639 71.2322C220.716 77.6647 220.953 87.577 218.902 95.6775C218.26 98.2144 218.149 100.694 217.406 103.174C214.004 103.16 208.681 102.972 205.43 103.198C206.109 100.503 206.641 97.2071 207.149 94.4559L209.676 80.8485L217.213 41.5721Z" fill="#E5E5E5"></path>
<path d="M382.519 40.6009C385.464 40.3747 387.975 40.6082 390.751 41.6472C390.074 44.8105 389.33 47.9587 388.515 51.0893C388.249 51.0107 387.979 50.9397 387.709 50.8762C380.121 49.0761 378.425 54.1098 376.993 60.2035C378.969 60.0592 383.397 60.1879 385.421 60.28C384.855 63.2734 384.333 66.5546 383.665 69.4942C380.926 69.4578 378.187 69.4602 375.447 69.5016C374.921 71.1918 374.508 74.1746 374.119 76.0717C372.852 82.4898 371.636 88.9174 370.466 95.3539C370.163 96.9923 369.403 101.917 368.85 103.168C365.195 103.186 360.561 102.987 356.999 103.19C357.789 99.7224 358.648 94.1009 359.312 90.4428L363.33 69.4524C361.444 69.4827 359.558 69.4608 357.675 69.3865C358.321 66.4288 358.762 63.1758 359.542 60.3109C361.326 60.2053 363.259 60.2584 365.057 60.275C367.284 49.9423 370.388 41.8606 382.519 40.6009Z" fill="#E5E5E5"></path>
<path d="M194.336 59.4786C198.031 59.3259 202.243 59.7403 205.586 61.3878C204.759 64.1213 203.815 67.3366 202.803 69.9689C199.291 68.6991 193.796 67.0684 190.695 69.936C189.255 71.2665 189.476 73.6631 190.784 74.8733C193.477 77.141 196.346 78.4442 199.072 80.8003C204.375 85.3849 204.103 93.4676 199.384 98.4653C195.155 102.945 189.89 103.64 183.951 103.799C178.421 103.52 177.413 103.136 172.427 101.008C173.478 98.1818 174.478 95.3371 175.427 92.4751C179.145 93.931 190.735 98.2495 190.512 90.163C190.42 86.8495 184.66 84.9222 182.42 82.8371C179.979 80.5652 178.113 78.7924 177.786 75.1264C177.468 71.5251 178.59 67.9445 180.908 65.1703C184.272 61.1631 189.365 59.9011 194.336 59.4786Z" fill="#E5E5E5"></path>
<path d="M342.676 60.3111C346.073 60.1312 351.428 60.2072 354.832 60.3208L354.801 60.4246C353.751 63.92 352.93 70.2514 352.141 74.0839C350.795 80.6359 349.622 87.4026 348.323 93.9547C347.963 95.7647 347.047 101.776 346.578 103.093C342.765 103.231 338.165 102.904 334.511 103.125C337.548 89.236 339.574 74.0845 342.676 60.3111Z" fill="#E5E5E5"></path>
<path d="M351.288 41.9966C359.928 42.4847 359.196 54.3929 350.659 55.067C341.988 54.9356 342.631 42.8521 351.288 41.9966Z" fill="#E5E5E5"></path>
<path d="M90.7068 44.9804C93.9716 34.7841 99.3675 19.496 113.122 21.065C114.556 21.2286 115.96 22.4897 116.91 23.4828C119.39 23.7144 120.986 24.217 123.03 25.6985C124.994 27.1213 127.465 31.1652 127.752 33.5677C128.994 33.2986 130.446 32.7857 131.718 32.4411C131.919 32.4672 132.167 32.4994 132.461 32.5375C134.308 33.8431 137.413 36.9706 138.829 38.5739C140.485 38.7314 146.496 39.0276 147.62 39.6298C148.357 40.7974 149.237 48.7517 149.487 50.5236L151.767 66.2722L156.658 98.7835L158.002 107.913C158.188 109.222 158.533 112.209 158.866 113.337C155.059 114.555 149.094 115.666 144.983 116.486C139.583 117.562 133.34 119.212 128.018 120.062C124.064 119.434 120.456 118.659 116.539 117.938L93.3724 113.605C86.3052 112.236 79.0075 111.132 72 109.529V102.267C72.4641 100.838 72.7408 97.5875 72.9349 95.9624L74.0588 86.8409C74.7521 80.9597 75.7543 75.3798 76.4181 69.0633C76.6344 67.0053 78.5725 50.1416 79.495 48.8769C80.0853 48.0676 88.9923 45.3372 90.7068 44.9804ZM95.1264 43.692C95.7911 43.4503 96.7284 43.0788 97.3923 42.9365C98.6273 42.7411 101.287 41.6493 102.8 41.2705C104.228 35.0602 105.86 29.4545 111.54 25.5261C111.963 25.2332 112.702 24.9851 112.857 24.621C112.504 24.2872 111.616 24.2402 111.143 24.2506C110.917 24.2575 110.692 24.2779 110.468 24.3117C101.623 25.9502 97.5354 36.064 95.1264 43.692ZM106.873 40.032L108.467 39.4406C111.198 38.6371 114.028 37.7809 116.643 36.6749C116.393 34.7266 116.254 29.4263 115.056 27.956C110.587 30.5868 108.227 34.7848 106.957 39.693C106.928 39.8057 106.9 39.9188 106.873 40.032ZM120.067 35.7928C121.266 35.4687 122.09 35.216 123.263 34.7867L124.446 34.4328C124.631 33.8924 124.218 32.804 123.953 32.317C122.74 30.083 121.551 28.0199 119.051 27.1807L118.969 27.1532C119.555 30.1114 120.218 32.7451 120.067 35.7928Z" fill="#96C148"></path>
<path d="M131.718 32.4409C131.919 32.467 132.167 32.4991 132.461 32.5373C134.308 33.8428 137.413 36.9704 138.829 38.5737C140.485 38.7312 146.496 39.0274 147.62 39.6296C148.357 40.7972 149.237 48.7515 149.487 50.5234L151.767 66.2719L156.658 98.7833L158.002 107.912C158.188 109.222 158.533 112.209 158.866 113.337C155.059 114.555 149.094 115.666 144.983 116.485C139.583 117.562 133.34 119.212 128.018 120.062L131.314 50.182C131.569 44.4905 132.116 38.6772 132.208 32.976C132.213 32.6704 131.952 32.5883 131.718 32.4409Z" fill="#5E8F3E"></path>
<path d="M106.369 54.967C110.337 54.7328 113.869 54.4693 117.49 56.2871C116.263 59.8597 114.84 63.8442 113.828 67.4528C110.568 66.0662 105.433 64.6774 102.082 66.6977C100.682 67.5416 100.294 68.8803 99.993 70.4098C100.835 73.6033 104.532 75.5698 107 77.5216C111.967 81.4175 114.131 85.741 113.252 92.1068C111.944 101.583 105.414 105.937 96.2378 104.762C91.4967 104.279 88.1932 102.229 84.7866 99.122C85.4852 96.4764 86.4978 92.9745 87.4207 90.4391C87.497 90.5058 87.5755 90.57 87.6559 90.6316C90.4118 92.7541 97.1369 97.2763 100.047 93.194C102.921 88.9411 97.2228 85.3117 94.549 82.8965C91.8014 80.41 90.2834 78.1769 89.9688 74.3721C89.1171 64.0684 96.4041 56.2532 106.369 54.967Z" fill="#FEFEFE"></path>
<path d="M414.567 60.2469C418.017 60.0428 422.842 60.1633 426.375 60.2343V61.8553C425.949 62.4696 425.058 64.4752 424.678 65.2769C423.394 67.9829 422.136 70.7017 420.907 73.433C414.73 86.9921 408.561 101.976 398.845 113.373C394.987 117.899 390.344 120.686 384.66 122.357C383.803 119.055 382.052 115.049 381.445 112.115C385.4 110.568 394.258 105.587 394.962 100.353C395.18 98.7323 393.884 92.8741 393.53 90.9015L389.75 70.7443C389.171 67.6346 388.287 63.3306 387.913 60.2651C392.01 60.2597 396.468 60.1481 400.534 60.3174C400.607 61.9096 400.965 64.0104 401.117 65.6688L402.669 81.6732C402.931 84.3101 403.285 86.9647 403.444 89.6048C404.064 88.3839 405.507 83.9902 406.045 82.4851C407.814 77.4648 409.663 72.474 411.596 67.5146C412.486 65.2185 413.448 62.3803 414.567 60.2469Z" fill="#E5E5E5"></path>
</g>
<defs>
<clipPath id="clip0_1055_27">
<rect width="354.375" height="112" fill="white" transform="translate(72 17)"></rect>
</clipPath>
</defs>
</svg>