<svg width="179" height="28" viewBox="0 0 179 28" fill="none" xmlns="http://www.w3.org/2000/svg">
<path d="M20.192 0.372164C15.7898 1.24076 10.7249 3.96391 6.84341 7.53217C-0.20958 13.9644 -2.103 21.8287 2.53588 25.3266C4.14529 26.5473 5.75469 26.9933 8.35815 27.0168C11.2929 27.0168 14.5118 26.2186 17.7306 24.6223L20.2867 23.3546V14.34C20.2867 9.38673 20.192 5.32548 20.0974 5.32548C19.9553 5.32548 19.198 6.3584 18.3933 7.6026C15.9318 11.3821 11.6243 16.7345 9.35219 18.8239C6.18071 21.7113 3.67193 22.0869 2.81989 19.7863C1.63651 16.5702 5.51802 10.537 11.4823 6.42883C17.9199 1.96849 24.9256 0.912099 27.4344 4.03433C28.8544 5.84194 27.6237 10.1145 24.5942 13.894C23.2688 15.5373 23.1268 15.9129 23.1268 18.4248C23.1268 20.0681 23.3162 21.054 23.5528 20.9366C24.4049 20.4906 26.4876 18.4717 28.0497 16.5467C30.7005 13.2602 31.8366 10.537 31.8366 7.32089C31.8366 4.31604 31.3632 3.07184 29.6118 1.78069C27.2924 0.0669838 24.1209 -0.426 20.192 0.372164Z" fill="white"></path>
<path d="M73.255 4.22212C71.2196 4.90291 69.2315 6.85137 68.2848 9.12849C67.7168 10.4196 67.5748 11.7108 67.7641 14.3635C68.0481 18.8708 69.0895 20.608 72.4503 22.2982C74.4384 23.2842 74.9118 23.4015 76.8525 23.4015C79.8347 23.4015 82.2961 22.5564 84.0475 20.9132L85.3729 19.6455H88.5917H91.7632V21.4061V23.1668H94.0827H96.4494L96.5914 18.2839C96.6861 15.6077 96.6861 11.2882 96.5914 8.65898L96.4494 3.89346L93.0886 3.96389L89.7751 4.03432L88.5917 5.91235C81.8228 16.7345 81.3021 17.4857 79.74 18.2135C77.5152 19.2464 75.5271 18.9882 73.8704 17.4153C72.829 16.4528 72.545 11.476 73.397 10.044C74.1071 8.89373 75.9532 8.02514 77.2312 8.28337C78.2726 8.47117 79.2667 9.41019 79.6927 10.5605C79.9767 11.3117 80.2134 11.4291 81.3021 11.4291C83.9055 11.4291 84.6629 11.1943 84.6629 10.3727C84.6629 9.05806 83.7635 7.13307 82.5328 5.91235C80.45 3.79956 76.5685 3.0953 73.255 4.22212ZM91.7632 12.6028V15.6547H89.8225C88.1657 15.6547 87.8817 15.5842 88.1184 15.2321C89.2544 13.2132 91.5265 9.55104 91.6212 9.55104C91.7159 9.55104 91.7632 10.9126 91.7632 12.6028Z" fill="white"></path>
<path d="M148.755 4.19865C144.164 5.79498 141.797 10.4901 142.838 15.7955C143.738 20.3263 146.672 22.979 151.169 23.3311C153.583 23.5189 155.098 23.2372 157.039 22.2278C164.234 18.4717 162.956 6.02973 155.145 4.01085C153.205 3.51786 150.459 3.58829 148.755 4.19865ZM154.53 8.96416C155.95 9.73885 156.802 12.2272 156.471 14.6452C156.14 16.8519 155.098 18.19 153.347 18.636C151.643 19.0351 150.365 18.683 149.087 17.4388C148.093 16.4763 147.95 15.9598 147.903 13.7062C147.856 11.6638 148.045 10.8187 148.708 9.95013C150.175 8.11905 152.305 7.74344 154.53 8.96416Z" fill="white"></path>
<path d="M37.3271 13.5654V23.2372L41.824 23.1199C46.6996 22.979 47.8356 22.7677 49.8711 21.4296C52.2852 19.8568 53.0899 18.2135 53.3266 14.4105C53.6106 9.50411 52.2378 6.59316 48.877 5.04378C46.9363 4.15171 45.3269 3.91696 41.0667 3.91696H37.3271V13.5654ZM46.1316 8.77637C47.741 9.57454 48.309 10.7483 48.3563 13.3071C48.4037 17.1571 47.0309 18.7065 43.7174 18.7065H42.0607V13.5419V8.37729H43.6701C44.5695 8.37729 45.6582 8.5651 46.1316 8.77637Z" fill="white"></path>
<path d="M54.3682 13.5418V23.1902L60.9005 23.1198L67.3854 23.0494L67.5274 20.8662L67.6694 18.7064H63.5986H59.5751V17.0397V15.3729L63.1252 15.4668L66.6754 15.5373V13.5418V11.5464L63.1252 11.6169L59.5751 11.7108V10.044V8.40072L63.5039 8.3303L67.3854 8.25987V6.14708V4.03429L60.9005 3.96387L54.3682 3.89344V13.5418Z" fill="white"></path>
<path d="M97.917 6.14712V8.37728H100.284H102.651V15.772V23.1668H105.017H107.384V15.7955V8.40076L109.893 8.33033L112.354 8.25991V6.14712V4.03433L105.159 3.9639L97.917 3.89348V6.14712Z" fill="white"></path>
<path d="M113.159 13.4714L113.301 23.0494L115.809 23.1198L118.271 23.1902V19.2933V15.3964L121.49 15.4668L124.661 15.5373L124.803 19.3637L124.898 23.1668H127.265H129.631V13.5418V3.91691H127.265H124.898V7.55561V11.1943H121.584H118.271V7.55561V3.91691H115.667H113.064L113.159 13.4714Z" fill="white"></path>
<path d="M130.957 4.08124C130.863 4.19862 130.863 8.5181 130.957 13.7296L131.147 23.1902L137.111 23.1198L143.122 23.0494L143.264 20.8662L143.406 18.7064H139.572H135.785V11.3117V3.91691H133.466C132.141 3.91691 131.052 3.98734 130.957 4.08124Z" fill="white"></path>
<path d="M162.766 13.5419V23.1668H165.133H167.5L167.547 17.9318L167.594 12.7202L168.446 14.1288C170.245 17.1101 172.849 21.4531 173.322 22.2747C173.748 23.1668 173.748 23.1668 176.304 23.1668H178.86V13.5184V3.89348L176.399 3.9639L173.89 4.03433L173.653 8.65899L173.417 13.2836L170.624 8.58856L167.831 3.91695H165.322H162.766V13.5419Z" fill="white"></path>
</svg>