<svg width="377" height="165" viewBox="0 0 377 165" fill="none" xmlns="http://www.w3.org/2000/svg">
<g clip-path="url(#clip0_1049_6286)">
<path d="M318.93 103.885C317.449 103.962 316.063 104.039 314.618 103.958C305.624 103.453 300.783 96.1636 301.621 87.5679C301.781 83.99 303.604 80.204 306.382 77.8284C311.821 73.177 323.215 73.7623 327.836 79.4009C330.649 82.8331 330.731 85.3231 330.397 89.4646C328.131 89.6231 324.693 89.4919 322.354 89.4578C318.694 89.3932 315.034 89.3916 311.376 89.4531C310.936 93.3433 312.662 99.7907 317.089 101.037C317.455 101.139 318.075 101.196 318.462 101.244L319.573 101.488L319.696 101.696C319.014 101.949 318.112 102.162 317.82 102.745C317.987 103.265 318.438 103.666 318.93 103.885ZM311.239 87.7364C313.179 87.7838 315.202 87.8629 317.136 87.8433C318.028 87.8217 319.155 87.8718 319.957 87.5427C320.758 86.1973 318.987 79.3468 318.149 77.7206L314.823 77.6168C312.623 80.1204 311.563 84.462 311.239 87.7364Z" fill="white"></path>
<path d="M250.293 103.818C240.085 105.544 231.804 98.8144 232.54 88.2425C232.853 83.7422 234.246 80.9262 237.649 77.9488C243.125 73.1605 253.565 73.7066 258.435 79.0687C260.971 81.9345 261.787 85.5339 261.457 89.3831C255.004 89.2432 248.548 89.2888 242.096 89.5198C242.6 94.0464 243.878 100.129 249.202 101.159C249.885 101.437 250.233 101.616 250.972 101.666C250.215 101.799 249.479 101.884 248.794 102.236C248.53 102.65 248.583 102.456 248.634 102.968C249.089 103.258 249.323 103.269 249.842 103.357L250.293 103.818ZM242.114 87.6141C243.794 87.7277 245.448 87.8571 247.133 87.8522C248.464 87.8343 249.846 87.8454 251.166 87.7133C250.801 85.0763 250.683 79.8677 248.763 78.0085C248.187 77.4496 247.039 77.6193 246.281 77.7196C243.482 80.0397 242.678 84.1847 242.114 87.6141Z" fill="white"></path>
<path d="M179.966 89.7389C180.004 86.8252 180.42 82.2786 179.604 79.5495C179.479 79.1304 178.076 77.0933 177.76 76.6343C176.309 75.9273 174.098 76.2775 173.306 77.8244C172.492 79.3837 173.407 80.9691 173.881 82.4976C174.48 84.4318 172.566 85.2252 171.023 85.633C169.342 86.0687 167.558 85.8247 166.055 84.9536C162.384 82.7807 165.753 75.2914 170.628 74.7605C196.2 71.9755 186.708 86.6395 189.581 101.015C190.456 101.169 192.593 101.372 193.202 101.74L193.246 102.072C191.808 104.054 185.901 104.703 183.79 103.587C182.205 102.749 181.609 102.227 180.932 100.611C181.267 99.635 180.127 98.3534 179.471 97.7367C180.352 96.0869 180.09 92.4462 180.08 90.4275C177.872 90.5967 175.618 90.7939 173.412 90.9356C173.01 94.38 172.679 97.3428 173.722 100.673L175.359 101.421C174.99 102.301 174.836 103.228 174.472 103.961C170.938 104.412 166.174 104.079 164.249 100.594C162.656 97.7672 162.657 92.4093 166.047 90.8386C169.537 89.2214 176.32 88.6818 179.966 89.7389Z" fill="white"></path>
<path d="M62.8155 61.1861C65.2982 61.2171 69.1529 61.3992 71.4824 61.0518C71.298 71.0405 71.6607 81.3846 71.518 91.4157C71.4584 95.6136 71.6464 100.088 71.4456 104.255C68.5087 103.68 65.4864 103.847 62.4879 103.878C62.0069 101.844 62.0405 84.5658 62.3212 81.9784L62.426 81.774C62.6923 75.0311 62.2253 67.791 62.8155 61.1861Z" fill="white"></path>
<path d="M36.9027 62.6068C35.7359 62.5407 33.9848 62.6039 33.1362 61.9529L33.1388 61.5734C33.8072 61.0578 43.9299 61.2727 45.8734 61.101C45.7663 62.9629 45.8853 65.6171 45.8926 67.5661C45.923 72.2302 45.917 76.8942 45.8742 81.5581L45.925 82.2771L45.9361 82.5867C45.955 83.611 45.9334 84.2724 45.8434 85.2926C45.9841 86.6771 45.9031 89.8803 45.9133 91.428L45.9952 103.925C43.5767 104.042 39.6591 103.863 37.0245 103.891C36.712 90.3785 36.9726 76.188 36.9027 62.6068Z" fill="white"></path>
<path d="M118.888 66.3841C120.374 64.9063 125.872 61.5619 127.787 60.8035C127.662 63.9535 127.76 67.3 127.873 70.4649C128.233 80.5698 127.322 91.4306 128.102 101.473C127.933 102.727 128.085 102.816 126.917 103.464C124.66 103.519 122.028 103.506 119.798 103.346C119.441 101.21 119.255 101.181 117.897 99.4358C117.766 99.2675 117.793 98.6467 117.781 98.3685C119.343 95.3062 119.021 83.3982 117.808 80.186C118.133 79.8047 118.436 79.4047 118.713 78.9878C119.127 78.3668 119.27 78.03 119.117 77.2769L118.818 77.1024C118.66 75.3417 118.621 68.1205 118.888 66.3841Z" fill="white"></path>
<path d="M198.989 66.9677C200.795 64.4442 204.955 62.1328 207.777 60.9775C208.129 64.2269 207.846 69.6008 207.955 72.9755C208.006 74.5151 207.75 76.4034 207.84 78.0161L209.228 77.5148C209.901 77.898 209.997 77.9669 210.522 78.5385C207.09 82.1742 208.018 89.5939 207.988 94.203C207.981 95.4041 208.07 97.227 208.443 98.3616C207.869 99.022 207.719 99.374 206.702 99.4564C206.552 99.4689 206.401 99.4753 206.249 99.4755L206.052 99.7652C204.541 101.319 200.951 103.077 198.882 103.79L198.798 80.4128C198.788 75.8965 198.696 71.4774 198.989 66.9677Z" fill="white"></path>
<path d="M147.834 75.7621C148.075 76.5375 148.253 77.3188 148.774 77.9372L149.13 78.054C149.856 77.5372 150.21 76.8832 150.842 76.2666C152.745 74.4089 155.126 74.4462 157.575 74.827C157.996 74.8924 158.522 74.9824 158.699 75.3551C159.518 77.0705 159.143 84.1548 158.841 85.822C156.048 83.6516 153.933 83.4571 150.515 80.2745C149.913 81.2879 148.691 83.6141 148.488 84.6423C148.062 86.7959 147.762 100.429 148.6 101.364C149.191 101.521 149.544 101.589 150.147 101.68C148.195 102.456 148.721 102.996 146.706 103.454C144.765 103.569 140.466 103.487 138.596 103.276C138.81 102.291 138.683 100.894 138.637 99.8585C138.377 97.1919 139.138 78.4286 138.322 77.6645C137.83 77.205 136.795 77.252 136.667 76.4784C136.852 75.9794 136.893 75.9335 137.339 75.6427C139.459 75.3432 145.483 75.6432 147.834 75.7621Z" fill="white"></path>
<path d="M82.5827 77.5356C81.8712 77.442 80.9427 77.3747 80.3223 77.0651C80.0502 76.2167 79.9229 76.2944 80.1462 75.5924C82.9159 75.7253 89.1376 75.6629 91.798 75.4875C91.8004 83.9082 91.8543 92.3288 91.9593 100.749C92.0871 102.788 92.6275 102.944 90.3249 103.456C88.1169 103.588 84.8136 103.416 82.6097 103.27C82.7567 102.727 82.4166 101.802 82.3959 100.889C82.1966 98.4105 82.3682 92.7551 82.3609 90.1025C82.3526 86.9875 82.1856 80.3343 82.5827 77.5356Z" fill="white"></path>
<path d="M268.447 75.716C270.455 75.6223 276.134 75.2126 277.719 76.2177C277.45 77.1843 277.298 77.535 277.292 78.5429L277.52 78.5759C278.338 77.8214 278.168 77.723 279.125 77.6198C279.996 77.8835 280.173 77.9241 280.673 78.6605C278.141 82.9962 277.713 83.2615 277.766 88.3929C277.819 93.4025 277.782 98.5086 277.852 103.535C275.094 103.62 271.392 103.547 268.655 103.343C268.574 94.8616 268.751 86.3553 268.652 77.8728C268.65 77.7145 268.476 77.4546 268.382 77.3326C268.572 76.8036 268.398 76.7048 268.16 76.0522L268.447 75.716Z" fill="white"></path>
<path d="M112.714 104.041C108.904 104.072 104.477 103.445 102.159 99.9231C96.2175 90.8977 99.2525 72.0485 113.434 74.9449C112.208 75.9702 111.975 75.5191 111.979 77.2565L111.907 77.4021C111.537 78.1383 110.533 79.4868 110.32 80.108C108.072 86.6528 107.386 95.9265 112.074 101.622C113.015 103.106 112.9 102.463 113.879 103.505C113.529 103.843 113.185 103.896 112.714 104.041Z" fill="white"></path>
<path d="M213.131 75.1609C215.089 74.4136 218.511 74.6959 220.467 75.597C229.728 79.8628 230.16 99.2424 220.502 103.232C218.87 103.906 215.249 104.29 213.43 103.974L212.641 103.535C212.873 102.949 214.172 102.684 214.447 101.534C215.032 100.471 215.946 100.902 216.91 98.3228C219.126 92.4017 218.773 84.1203 216.044 78.4171L214.437 77.5232V75.9745C213.967 75.3172 214.023 75.4933 213.131 75.1609Z" fill="white"></path>
<path d="M282.896 75.041C288.001 73.8672 293.633 75.5582 294.777 81.2868C295.567 85.2469 295.304 89.2627 295.382 93.2767C295.396 95.6241 295.491 98.7421 295.374 101.022C295.675 101.699 295.579 101.519 295.421 102.36C294.781 103.236 294.519 103.246 293.484 103.445C292.758 103.557 287.566 103.524 286.531 103.53C286.539 98.3923 287.109 84.3284 285.947 80.2074C285.602 78.9811 285.09 78.289 284.21 77.3821C284.341 75.7001 284.253 75.9347 282.896 75.041Z" fill="white"></path>
<path d="M338.556 60.978C338.622 61.0198 338.691 61.0579 338.755 61.1034C339.032 61.2994 342.901 71.0757 343.075 71.8482C342.79 73.553 340.002 76.0291 338.3 75.7925C335.614 74.7723 334.907 74.1876 333.125 72.0448C334.736 69.1273 336.555 63.331 338.556 60.978Z" fill="white"></path>
<path d="M90.6012 61.0063C90.878 61.0208 90.9959 61.0883 91.2602 61.1795C92.0565 62.5782 91.7738 69.05 91.7449 70.8569L91.6418 70.8343C88.7892 70.2248 86.699 70.412 83.7907 70.4819L83.4539 70.5758C82.7473 70.3548 82.9893 70.5178 82.5185 69.9788C81.4055 65.2853 87.212 63.6845 90.6012 61.0063Z" fill="white"></path>
<path d="M59.8288 82.2979C61.0592 82.319 61.1537 82.4226 62.3215 81.9785C62.0407 84.5659 62.0072 101.845 62.4882 103.879C62.2891 103.665 62.121 103.442 62.1102 103.135C61.8863 96.7594 62.2123 90.3099 62.0007 83.9381C59.1422 84.3164 47.459 83.8217 46.1381 84.43L45.8438 85.2927C45.9337 84.2725 45.9554 83.6111 45.9365 82.5868L46.2151 83.0044C47.0256 83.1209 47.3815 83.1315 48.2031 83.1236C50.111 83.021 59.6554 83.5504 60.4862 82.6793L59.8288 82.2979ZM60.6385 83.8081L60.7453 83.5309C59.9479 83.1543 48.0507 83.2312 46.5834 83.4147L46.586 83.7698C48.142 84.1745 58.6028 83.9621 60.6385 83.8081Z" fill="white"></path>
<path d="M46.5835 83.4147C48.0507 83.2312 59.9479 83.1542 60.7454 83.5308L60.6386 83.808C58.6029 83.962 48.1421 84.1744 46.586 83.7698L46.5835 83.4147Z" fill="white"></path>
<path d="M318.462 101.244C322.042 101.203 324.063 101.88 326.099 98.5263C326.386 98.0519 327.036 97.1666 327.557 96.9767C329.336 98.4998 324.547 102.468 322.802 102.888L322.605 102.878C320.838 102.764 320.678 101.691 319.011 102.101C318.61 102.459 318.61 102.339 318.558 102.747C319.11 103.258 319.434 103.4 320.098 103.747L318.931 103.885C318.439 103.666 317.988 103.265 317.82 102.745C318.113 102.162 319.015 101.949 319.696 101.696L319.573 101.488L318.462 101.244Z" fill="white"></path>
<path d="M208.443 98.3616C208.771 99.5821 209.255 99.9822 210.101 100.929C212.189 101.613 212.201 101.702 214.448 101.534C214.173 102.685 212.875 102.949 212.642 103.535L213.431 103.974C209.618 103.782 208.375 100.925 206.052 99.7652L206.249 99.4755C206.401 99.4753 206.551 99.4688 206.702 99.4563C207.719 99.374 207.869 99.022 208.443 98.3616Z" fill="white"></path>
<path d="M113.434 74.9447C115.445 75.0747 117.228 77.3275 118.57 77.4167L118.818 77.1022L119.117 77.2767C119.27 78.0299 119.128 78.3666 118.714 78.9876C118.436 79.4046 118.134 79.8046 117.809 80.1858C117.281 79.1996 116.962 78.8297 116.267 77.978C114.724 77.4866 113.594 76.9915 111.979 77.2562C111.975 75.5188 112.208 75.97 113.434 74.9447Z" fill="white"></path>
<path d="M45.874 81.5581C47.2878 81.3939 61.2798 81.4931 62.4257 81.774L62.3209 81.9784C61.1531 82.4225 61.0586 82.3188 59.8282 82.2977C57.9988 82.4773 50.1842 82.3003 48.0007 82.2942C47.2977 82.2747 46.6283 82.2507 45.9248 82.277L45.874 81.5581Z" fill="white"></path>
<path d="M177.894 100.092L178.36 100.384C179.471 100.059 179.474 99.201 180.243 99.2119C180.566 99.6351 180.603 99.9322 180.726 100.439C180.044 100.706 180.103 100.935 179.551 101.305C177.943 102.38 176.394 103.543 174.472 103.961C174.836 103.228 174.99 102.3 175.358 101.42C176.65 101.336 176.945 101.002 177.894 100.092Z" fill="white"></path>
<path d="M117.781 98.3687C117.793 98.6468 117.766 99.2676 117.897 99.4359C119.254 101.181 119.44 101.21 119.798 103.346L119.617 103.279C118.631 102.903 118.271 102.555 117.842 101.585L117.772 101.424L117.163 101.845C116.983 102.29 116.943 102.375 116.642 102.754L116.574 102.839C116.008 102.816 115.719 102.799 115.146 102.694C114.627 102.135 114.774 102.193 114.609 101.322C116.546 100.583 116.796 100.194 117.781 98.3687Z" fill="white"></path>
<path d="M48.0013 82.2946C50.1847 82.3006 57.9994 82.4777 59.8288 82.2981L60.4862 82.6795C59.6554 83.5506 50.111 83.0211 48.2031 83.1238L47.4307 82.8671L47.4092 82.6413L48.0013 82.2946Z" fill="white"></path>
<path d="M209.228 77.5147C209.454 77.381 209.831 76.6111 209.833 76.6101C210.739 76.1051 212.404 75.8103 213.132 75.161C214.024 75.4935 213.968 75.3174 214.438 75.9747V77.5233C212.711 77.4333 211.754 77.1223 210.522 78.5384C209.997 77.9668 209.902 77.8979 209.228 77.5147Z" fill="white"></path>
<path d="M249.202 101.159C250.707 101.211 255.121 100.959 256.101 101.755C255.691 102.446 254.83 102.588 254.016 102.734C252.714 102.28 250.916 101.809 249.583 102.314L249.319 102.661C249.475 103.085 249.485 103.094 249.842 103.357C249.323 103.269 249.089 103.258 248.634 102.967C248.583 102.455 248.53 102.65 248.794 102.236C249.479 101.884 250.215 101.799 250.972 101.666C250.233 101.616 249.885 101.437 249.202 101.159Z" fill="white"></path>
<path d="M257.225 97.8318C258.178 98.009 259.072 97.8146 259.347 98.7489C258.949 99.1905 258.836 99.0716 258.113 99.177C257.127 100.392 258.72 100.309 256.228 101.214C255.64 101.103 255.433 100.987 254.908 100.74C254.83 100.303 254.81 100.481 255.119 100.025C255.796 99.8527 256.056 99.8503 256.745 99.8175L257.071 99.407C257.001 98.998 256.93 98.5894 256.856 98.1812L257.225 97.8318Z" fill="white"></path>
<path d="M295.375 101.022C296.189 101.169 297.51 101.295 298.094 101.799C298.365 102.347 298.326 102.1 298.207 102.74C297.225 103.652 294.924 103.487 293.485 103.445C294.52 103.245 294.781 103.236 295.421 102.36C295.58 101.519 295.675 101.699 295.375 101.022Z" fill="white"></path>
<path d="M112.074 101.622C112.573 101.625 114.045 101.396 114.609 101.322C114.774 102.192 114.627 102.135 115.146 102.694C115.719 102.799 116.008 102.816 116.574 102.839C114.794 103.268 114.716 103.916 112.714 104.041C113.185 103.896 113.528 103.843 113.879 103.505C112.9 102.463 113.014 103.106 112.074 101.622Z" fill="white"></path>
<path d="M128.102 101.473C129.23 101.56 130.324 101.643 131.45 101.774L130.904 103.323C130.358 103.294 130.234 102.796 130.1 102.812C128.537 102.994 128.792 103.496 126.917 103.464C128.084 102.816 127.933 102.727 128.102 101.473Z" fill="white"></path>
<path d="M82.6097 103.27C81.5323 103.112 80.3485 103.317 79.5425 102.521C80.1109 101.42 81.4673 101.541 82.3959 100.889C82.4166 101.802 82.7567 102.727 82.6097 103.27Z" fill="white"></path>
<path d="M249.842 103.357C249.485 103.094 249.475 103.085 249.319 102.661L249.582 102.314C250.916 101.809 252.714 102.28 254.016 102.734C253.235 102.979 250.851 103.894 250.293 103.818L249.842 103.357Z" fill="white"></path>
<path d="M279.142 77.5361C279.585 77.3024 279.762 76.8167 280.53 76.3171C281.623 76.3872 283.163 76.3738 283.721 77.4672C282.833 77.4691 281.949 77.3721 281.211 77.8447C280.969 78.1611 280.863 78.3117 280.672 78.6605C280.172 77.9241 279.995 77.8835 279.124 77.6198L279.142 77.5361Z" fill="white"></path>
<path d="M91.9595 100.749C93.0533 102.18 95.3278 101.056 94.3363 103.235C94.0343 103.405 90.8607 103.505 90.3252 103.456C92.6278 102.944 92.0874 102.788 91.9595 100.749Z" fill="white"></path>
<path d="M150.147 101.68L151.096 101.685C151.5 102.124 151.382 102.056 151.482 102.747C150.935 103.685 147.884 103.471 146.706 103.454C148.721 102.996 148.195 102.457 150.147 101.68Z" fill="white"></path>
<path d="M138.596 103.276C137.673 103.264 137.258 103.366 136.546 102.882C136.528 102.15 137.336 101.636 137.91 101.265C138.516 100.873 138.471 100.511 138.636 99.8585C138.682 100.894 138.81 102.291 138.596 103.276Z" fill="white"></path>
<path d="M282.896 75.0411C284.253 75.9348 284.34 75.7002 284.21 77.3822L283.722 77.4671C283.163 76.3737 281.623 76.3871 280.53 76.3171C281.209 76.1427 282.179 75.4331 282.896 75.0411Z" fill="white"></path>
<path d="M320.098 103.747C319.435 103.4 319.111 103.258 318.558 102.747C318.611 102.339 318.611 102.459 319.011 102.101C320.678 101.691 320.838 102.764 322.605 102.878L322.802 102.888C321.707 103.139 321.125 103.355 320.098 103.747Z" fill="white"></path>
<path d="M268.382 77.3325C267.431 77.3665 266.232 77.5198 265.99 76.3637C266.554 75.4967 267.527 75.7164 268.446 75.716L268.159 76.0521C268.397 76.7047 268.571 76.8035 268.382 77.3325Z" fill="white"></path>
<path d="M179.469 97.7367C180.126 98.3534 181.266 99.635 180.931 100.611L180.726 100.439C180.602 99.9325 180.565 99.6354 180.242 99.2121C179.473 99.2012 179.471 100.059 178.359 100.384L177.893 100.092C178.426 99.2361 178.857 98.549 179.469 97.7367Z" fill="white"></path>
<path d="M277.719 76.2177C278.063 77.1004 278.08 77.3518 279.142 77.5359L279.125 77.6197C278.168 77.723 278.338 77.8213 277.52 78.5758L277.292 78.5429C277.297 77.535 277.45 77.1842 277.719 76.2177Z" fill="white"></path>
<path d="M45.9248 82.2771C46.6284 82.2508 47.2978 82.2748 48.0007 82.2943L47.4086 82.641L47.4301 82.8669L48.2026 83.1236C47.3809 83.1314 47.025 83.1209 46.2145 83.0043L45.9359 82.5867L45.9248 82.2771Z" fill="white"></path>
</g>
<defs>
<clipPath id="clip0_1049_6286">
<rect width="376.479" height="165" fill="white"></rect>
</clipPath>
</defs>
</svg>