<svg width="147" height="28" viewBox="0 0 147 28" fill="none" xmlns="http://www.w3.org/2000/svg">
<path d="M11.8288 0.129934C9.34926 0.51089 7.00337 1.55351 5.08522 3.13748C4.50376 3.61201 3.38762 4.75488 2.92647 5.34302C1.26229 7.48172 0.21967 10.2219 0.0325334 12.9555C-0.248171 17.1326 1.2957 21.0692 4.35004 23.9898C6.52884 26.0751 9.1688 27.3182 12.2833 27.7326C12.9583 27.8195 14.8096 27.8195 15.5381 27.7326C20.7713 27.0843 25.1422 23.6356 26.9869 18.7032C27.8624 16.3707 28.0696 13.5837 27.5616 11.1042C27.027 8.47756 25.7103 6.03142 23.7922 4.10658C21.5265 1.82753 18.7395 0.464106 15.5381 0.0630994C14.6492 -0.0438357 12.7511 -0.0104185 11.8288 0.129934ZM14.3953 2.10155C18.2917 2.66964 21.5933 5.01553 23.3845 8.48424C24.6543 10.9437 25.0353 13.6706 24.4873 16.3239C23.8056 19.6122 21.6802 22.5395 18.7128 24.2772C15.3176 26.2689 10.9266 26.3691 7.37096 24.5446C5.06517 23.3616 3.05345 21.2897 1.97742 18.9773C0.0325335 14.8001 0.640727 9.97465 3.55471 6.39901C4.09607 5.73735 5.19884 4.70141 5.91397 4.18679C6.7093 3.62538 8.19971 2.87683 9.13539 2.56939C9.78368 2.3622 10.9332 2.10823 11.5281 2.04808C12.1764 1.98125 13.747 2.00798 14.3953 2.10155Z" fill="white"></path>
<path d="M10.6124 3.87924C7.137 4.32703 4.06261 6.65287 2.63235 9.9077C1.64989 12.1333 1.53627 14.7933 2.31155 17.1325C3.49452 20.6814 6.55554 23.2946 10.2916 23.9363C10.9733 24.0499 11.274 24.0632 12.2632 24.0365C13.5063 23.9964 14.0076 23.9162 15.0702 23.5754C19.5415 22.1451 22.5022 17.6405 22.021 12.9888C21.7737 10.5894 20.7846 8.47745 19.1338 6.81327C18.2917 5.96447 17.5231 5.41643 16.4404 4.87507C15.3977 4.36044 14.4888 4.06637 13.4395 3.90597C12.711 3.79903 11.3208 3.78567 10.6124 3.87924ZM11.3944 5.94442C12.3434 6.04467 13.1989 6.29864 14.1011 6.74643C14.99 7.18086 15.4779 7.5284 16.1663 8.20343C17.884 9.88097 18.7929 12.3271 18.5523 14.6195C18.4521 15.6154 18.2048 16.4775 17.777 17.3464C16.4805 20.0131 13.9006 21.7174 10.9867 21.831C9.52299 21.8911 8.40685 21.6639 7.14368 21.049C4.97156 19.9997 3.43437 18.0548 2.82617 15.602C2.6123 14.7265 2.6123 13.069 2.83954 12.16C3.72844 8.51086 6.79614 6.01126 10.5255 5.89095C10.6525 5.88427 11.0468 5.911 11.3944 5.94442Z" fill="white"></path>
<path d="M8.88834 7.75561C6.42884 8.10983 4.37033 10.0079 3.76882 12.4674C3.58169 13.216 3.56832 14.4925 3.72872 15.2143C4.23667 17.5201 5.96768 19.2912 8.31357 19.9262C9.05543 20.1267 10.4723 20.1267 11.281 19.9262C13.9143 19.2712 15.8057 17.0122 15.9862 14.3121L16.0263 13.6972H12.7781H9.52327V14.6663V15.6354L11.0003 15.6488L12.4774 15.6688L12.1365 16.1834C11.6753 16.8718 11.1607 17.3196 10.4255 17.6738C9.72377 18.008 9.31608 18.1083 8.60096 18.1083C7.45809 18.1083 6.51572 17.7073 5.67361 16.8718C5.24587 16.4508 5.0721 16.2168 4.85154 15.7691C4.39707 14.8334 4.29013 14.0581 4.48395 13.1157C4.85823 11.3112 6.29517 9.98119 8.1398 9.74727C9.73714 9.54009 11.535 10.4557 12.2702 11.8392L12.3972 12.0932H14.0747H15.7456L15.6988 11.9394C15.6787 11.8592 15.5584 11.5719 15.4381 11.3112C14.3019 8.83164 11.6018 7.36797 8.88834 7.75561Z" fill="white"></path>
<path d="M80.1001 3.37125V6.47905L79.6523 6.16493C78.4559 5.34955 77.1727 5.02874 75.8561 5.23593C72.4876 5.75056 70.4893 8.317 70.0816 12.6546C69.9279 14.2586 70.3623 16.6045 71.1041 18.1417C72.0064 20.0197 73.323 21.0958 75.2211 21.4901C75.9831 21.6505 77.2997 21.6572 77.8945 21.4968C78.4292 21.3564 79.2847 20.9487 79.7325 20.6212L80.0666 20.3806L80.0867 20.9821L80.1067 21.5836H82.5395H84.979V10.9235V0.263446H82.5395H80.1001V3.37125ZM78.3089 9.35293C79.3649 9.68042 79.9129 10.3822 80.1001 11.6721C80.2003 12.3939 80.1803 14.8668 80.0666 15.4683C79.826 16.7248 79.2513 17.3798 78.1151 17.6738C77.1861 17.9144 76.4977 17.7273 75.8227 17.0456C75.0073 16.2235 74.6263 15.2344 74.5728 13.7974C74.506 12.0063 75.0407 10.4824 76.0165 9.70716C76.7182 9.15911 77.3598 9.05886 78.3089 9.35293Z" fill="white"></path>
<path d="M86.7837 2.33536V4.40723H89.3234H91.8631V2.33536V0.26349H89.3234H86.7837V2.33536Z" fill="white"></path>
<path d="M124.879 3.90608V6.2787H124.111H123.342V7.78248V9.28625H124.111H124.879L124.893 14.2454L124.913 19.2112L125.127 19.6656C125.541 20.5345 126.363 21.1895 127.286 21.3766C127.787 21.4835 131.235 21.5704 131.269 21.4835C131.289 21.4434 131.289 20.5612 131.282 19.5119L131.262 17.6071L130.694 17.5737C130.36 17.547 130.039 17.4868 129.919 17.4267C129.625 17.2663 129.311 16.8853 129.23 16.5913C129.184 16.4309 129.157 15.0674 129.157 12.8084V9.28625H130.226H131.296V7.78248V6.2787H130.226H129.157V3.90608V1.53346H127.018H124.879V3.90608Z" fill="white"></path>
<path d="M99.3818 5.51673C97.7845 5.79744 96.4946 6.4591 95.4653 7.52845C94.0752 8.96539 93.4269 10.6363 93.3533 12.9955C93.2865 15.0607 93.6274 16.5444 94.5363 18.1351C95.4252 19.6923 97.0894 20.9421 98.914 21.43C99.5489 21.5971 99.6692 21.6105 101.153 21.6105C102.617 21.6172 102.764 21.6038 103.292 21.4568C104.361 21.1493 105.15 20.7617 105.965 20.1401C106.74 19.552 108.017 18.0549 107.863 17.9145C107.696 17.7675 104.635 15.6355 104.582 15.6355C104.555 15.6355 104.448 15.7625 104.348 15.9229C104.107 16.3038 103.338 17.0323 102.931 17.2729C101.855 17.9012 100.879 17.9346 99.8296 17.3732C98.8338 16.8452 98.2122 15.8627 98.2122 14.8268V14.4325H103.091H107.97L107.983 13.978C108.024 12.2603 107.91 11.2378 107.562 10.2352C106.881 8.29036 105.263 6.6195 103.358 5.88432C102.202 5.43653 100.645 5.29618 99.3818 5.51673ZM101.394 9.05228C102.269 9.31293 102.844 10.008 102.984 10.9704L103.018 11.2244H100.645C99.3417 11.2244 98.279 11.1977 98.279 11.1709C98.279 11.0506 98.4996 10.3756 98.6132 10.1484C98.8538 9.6872 99.4754 9.17926 100.017 9.01218C100.304 8.92529 101.046 8.94534 101.394 9.05228Z" fill="white"></path>
<path d="M138.046 5.44987C137.07 5.63033 136.715 5.72389 136.134 5.95113C133.294 7.0539 131.629 9.8008 131.629 13.3965C131.629 17.4266 133.761 20.501 137.21 21.43C137.845 21.6038 137.959 21.6104 139.449 21.6104C140.873 21.6171 141.073 21.6038 141.561 21.4701C142.771 21.1359 143.773 20.5946 144.662 19.8059C145.431 19.1175 146.293 18.0348 146.159 17.9145C146.126 17.8811 145.377 17.3531 144.502 16.7315L142.904 15.6087L142.731 15.8426C142.644 15.9629 142.323 16.3105 142.022 16.6112C141.086 17.5603 139.997 17.9479 138.975 17.7073C137.584 17.3865 136.508 16.13 136.508 14.8334V14.4324H141.381H146.253L146.3 13.851C146.366 13.0556 146.239 11.5318 146.039 10.7899C145.364 8.27029 143.372 6.29199 140.866 5.63033C140.338 5.48997 140.03 5.45656 139.215 5.44319C138.667 5.42982 138.139 5.43651 138.046 5.44987ZM139.997 9.16587C140.692 9.48667 141.147 10.1082 141.287 10.937L141.334 11.2244H138.954H136.582L136.622 11.0038C136.796 10.0748 137.464 9.28617 138.313 9.01215C138.406 8.97873 138.734 8.96537 139.048 8.97205C139.496 8.98542 139.696 9.0322 139.997 9.16587Z" fill="white"></path>
<path d="M35.7755 5.61033C34.5457 5.83088 33.6301 6.34551 32.7212 7.32129C31.605 8.51094 30.8632 10.3155 30.6426 12.3272C30.4822 13.8644 30.8097 15.709 31.5115 17.146C32.3536 18.877 33.6301 19.9864 35.2542 20.3874C35.7287 20.5077 35.9493 20.5278 36.6911 20.4944C37.9142 20.4476 38.7764 20.1602 39.5851 19.5186L39.9326 19.2446V20.6949C39.9326 22.3991 39.8658 22.7467 39.4514 23.2212C39.1172 23.6022 38.6494 23.7826 37.834 23.8361C36.3636 23.9297 35.5483 23.4685 35.3143 22.4125L35.2275 22.0382L34.8933 22.0783C34.7061 22.0984 33.737 22.1184 32.7412 22.1184H30.9367L30.9901 22.6732C31.1038 23.8361 31.5382 24.8186 32.2801 25.5604C33.0687 26.3491 34.0779 26.8236 35.5015 27.0709C36.5708 27.2513 38.6627 27.2714 39.6252 27.0976C41.7104 26.7367 43.0939 25.8144 43.8357 24.3039C44.4172 23.1076 44.3704 23.9029 44.3971 14.379L44.4172 5.9445H42.1716H39.9326V6.34551C39.9326 6.56606 39.9192 6.74651 39.8992 6.74651C39.8791 6.74651 39.7187 6.63958 39.545 6.51259C39.0704 6.17174 38.4556 5.88435 37.8808 5.73731C37.2926 5.59028 36.2367 5.52344 35.7755 5.61033ZM37.8941 9.37979C38.382 9.50678 38.7429 9.70728 39.017 10.0147C39.3311 10.3623 39.4447 10.5895 39.6051 11.2111C39.7989 11.9529 39.8591 13.8443 39.7054 14.633C39.4247 16.1167 38.5759 16.9054 37.2659 16.9054C35.8557 16.9054 35.0671 15.8561 34.8599 13.6973C34.773 12.7416 34.9802 11.3915 35.3411 10.5962C35.5148 10.2152 35.829 9.82758 36.1431 9.60703C36.5575 9.30627 37.286 9.21271 37.8941 9.37979Z" fill="white"></path>
<path d="M53.2862 5.6103C52.7449 5.69719 52.0097 5.99794 51.4282 6.37222C51.1542 6.55267 50.9136 6.69302 50.8936 6.69302C50.8735 6.68634 50.8267 6.52594 50.7933 6.33212L50.7265 5.97789L48.3672 5.95784L46.0146 5.94448V13.7641V21.5837H48.4541H50.8936V16.4174C50.8936 12.9888 50.9203 11.1709 50.9671 11.0038C51.201 10.1617 52.2971 9.71394 54.3222 9.64042L55.3046 9.60032V7.64207V5.6905L54.9905 5.6504C54.3155 5.5702 53.6538 5.55684 53.2862 5.6103Z" fill="white"></path>
<path d="M60.431 5.65036C58.8871 5.93106 57.4836 6.78654 56.8486 7.84253C56.4075 8.57771 56.2939 9.01882 56.2538 10.0681L56.2204 11.0238H58.2989H60.3708L60.4176 10.6028C60.4911 9.89435 60.578 9.67379 60.8787 9.37972C61.2263 9.05223 61.6407 8.91856 62.289 8.92525C63.1845 8.93861 63.8796 9.29952 64.167 9.90771C64.4143 10.4491 64.3541 10.8969 64.0066 11.084C63.9398 11.1174 62.9573 11.3179 61.8211 11.5251C60.6782 11.7323 59.4819 11.9729 59.1544 12.0665C57.7375 12.4675 56.7818 13.2027 56.2471 14.3054C55.4384 15.9896 55.3983 17.7741 56.1536 19.3113C56.4543 19.9262 57.1494 20.6547 57.7442 20.9621C58.6933 21.4634 60.2772 21.7174 61.5471 21.5837C62.5362 21.4768 63.1979 21.2896 64.0267 20.8819C64.4277 20.6814 64.7685 20.5344 64.7819 20.5478C64.7952 20.5611 64.842 20.8017 64.8754 21.0758L64.949 21.5837H67.1211C69.1462 21.5837 69.2865 21.577 69.2464 21.4701C69.2197 21.4032 69.1328 21.0089 69.0593 20.5812C68.9256 19.8527 68.9122 19.5319 68.8721 14.8L68.832 9.78741L68.6783 9.31957C67.7894 6.63951 65.771 5.52337 61.8545 5.55011C61.36 5.55011 60.7183 5.59689 60.431 5.65036ZM64.3809 15.348C64.3608 16.5577 64.3541 16.6179 64.1804 16.9387C63.9531 17.3731 63.5388 17.7875 63.1378 17.988C62.4961 18.3021 61.3332 18.2019 60.8453 17.7942C60.3574 17.3865 60.1636 16.4642 60.451 15.9094C60.7183 15.3815 61.5538 14.8267 62.6231 14.4591C63.0576 14.3188 63.5789 14.2052 64.3475 14.1049C64.3809 14.0982 64.3942 14.6596 64.3809 15.348Z" fill="white"></path>
<path d="M86.7837 13.7641V21.5837H89.3234H91.8631V13.7641V5.94448H89.3234H86.7837V13.7641Z" fill="white"></path>
<path d="M109.307 13.7641V21.5837H111.646H113.986V16.384C113.986 11.4583 113.992 11.1776 114.113 10.917C114.44 10.2018 115.61 9.84092 116.692 10.1216C117.28 10.2753 117.575 10.4959 117.782 10.9437L117.962 11.3246L117.982 16.4509L118.009 21.5837H120.308H122.614L122.594 15.5152L122.574 9.45328L122.387 8.96539C121.819 7.49504 120.863 6.59277 119.399 6.13161C118.691 5.91106 117.18 5.91106 116.298 6.13161C115.603 6.30538 114.747 6.69302 114.306 7.03388L113.992 7.27448L113.952 6.99378C113.932 6.84006 113.892 6.54599 113.865 6.34548L113.818 5.97789L111.559 5.95784L109.307 5.94448V13.7641Z" fill="white"></path>
</svg>