<svg width="129" height="77" viewBox="0 0 129 77" fill="none" xmlns="http://www.w3.org/2000/svg">
<path d="M81.1402 0.667389C80.4728 1.03813 74.8693 3.96172 68.6938 7.16071L57.4655 12.9761L34.1616 13.0291L10.8576 13.082L10.1585 13.3574C8.79207 13.8871 7.56331 14.9781 6.93834 16.2069C6.63116 16.8107 2.89193 28.2296 2.80719 28.8546C2.6483 29.8714 3.29446 31.0684 4.27958 31.5981L4.71388 31.8311L31.5981 31.8629C46.9152 31.8735 58.4718 31.9264 58.4718 31.9794C58.4718 32.0641 55.4105 40.3264 53.9911 44.0657C52.9318 46.8515 52.8683 47.0316 52.9106 47.0316C52.9318 47.0316 55.0822 43.6208 57.6985 39.4578L62.4441 31.8841L90.1969 31.8629L117.95 31.8311L118.585 31.5875C119.867 31.1108 121.053 30.1257 121.721 28.9711C121.89 28.6745 122.939 25.7085 124.051 22.3612C126.011 16.4823 126.074 16.2492 126.021 15.6137C125.937 14.5226 125.365 13.7494 124.295 13.2727C123.903 13.0926 122.568 13.082 99.0948 13.0291L74.3079 12.9761L78.1954 6.77937C82.316 0.20131 82.4431 4.89652e-05 82.3901 4.89652e-05C82.3689 4.89652e-05 81.8075 0.307237 81.1402 0.667389ZM12.4995 18.7173C12.4995 18.8233 11.9169 20.5922 11.2072 22.6366L9.9043 26.3759H8.90858C7.93406 26.3759 7.92346 26.3759 7.97643 26.1322C8.06117 25.7721 10.4551 18.9928 10.5928 18.7491C10.6882 18.5585 10.8153 18.5373 11.5991 18.5373C12.383 18.5373 12.4995 18.5585 12.4995 18.7173ZM20.5288 18.7491C20.8889 18.9716 21.1855 19.5012 21.1855 19.9355C21.1855 20.0732 20.6983 21.5774 20.1051 23.2722L19.0246 26.3759H18.0395C17.3404 26.3759 17.0544 26.3335 17.0544 26.2487C17.0544 26.1746 17.4887 24.8611 18.0289 23.3146L19.0034 20.5181L18.7598 20.3274C18.5479 20.1579 18.3149 20.1262 17.1073 20.1262H15.6985L15.3172 21.2066C15.1053 21.8104 14.6075 23.1981 14.2155 24.3103L13.5058 26.3229L12.5207 26.3547C11.9911 26.3653 11.5462 26.3441 11.5462 26.3017C11.5462 26.217 13.3046 21.0901 13.9401 19.2999L14.2155 18.5373H17.2027C19.9991 18.5373 20.2004 18.5479 20.5288 18.7491ZM29.5961 18.6326C29.6385 18.6856 29.5538 19.0351 29.416 19.4059L29.183 20.0732L27.7954 20.105L26.4077 20.1368L25.3485 23.2298L24.2892 26.3229L23.3147 26.3547C22.785 26.3653 22.3507 26.3653 22.3507 26.3441C22.3507 26.3123 22.8062 24.9458 23.357 23.2934C23.9078 21.6515 24.3633 20.2639 24.3633 20.2109C24.3633 20.1685 23.8125 20.1262 23.1452 20.1262C22.4355 20.1262 21.927 20.0838 21.927 20.0202C21.927 19.9673 22.0118 19.6919 22.1177 19.4165C22.2342 19.141 22.3507 18.8233 22.3825 18.7173C22.4461 18.5479 22.7109 18.5373 25.9946 18.5373C28.0072 18.5373 29.5643 18.5796 29.5961 18.6326ZM37.2441 18.7703C37.869 19.1093 37.869 19.6707 37.2335 21.4714C36.5449 23.4311 36.8097 23.304 33.5366 23.304H30.8567L30.6766 23.7595C30.4753 24.2997 30.4647 24.5963 30.6342 24.7658C30.7295 24.8611 31.5028 24.8929 33.4413 24.8929C34.9137 24.8929 36.1212 24.9353 36.1212 24.9776C36.1212 25.02 36.0153 25.3484 35.8776 25.6873L35.634 26.3229L32.5621 26.3547C30.5495 26.3759 29.3631 26.3441 29.0983 26.2699C28.6534 26.1428 28.2826 25.6556 28.2826 25.2001C28.2826 24.9458 29.8503 20.2533 30.094 19.7766C30.2741 19.4271 30.6342 19.0669 30.9732 18.8868C31.5028 18.6114 32.1807 18.5479 34.5853 18.569C36.5449 18.5902 36.9686 18.622 37.2441 18.7703ZM46.3961 18.7067C46.3961 18.8127 46.2902 19.1622 46.1737 19.5012L45.9407 20.1262H43.4302C40.9621 20.1262 40.9197 20.1262 40.7079 20.3592C40.4854 20.6028 39.1931 24.0984 39.1931 24.448C39.1931 24.8399 39.405 24.8929 40.9409 24.8929C42.0955 24.8929 42.4768 24.8611 42.6569 24.734C42.8582 24.5963 43.3243 23.59 43.3243 23.304C43.3243 23.2404 42.8582 23.1981 42.212 23.1981C41.5976 23.1981 41.0998 23.1557 41.0998 23.1133C41.0998 23.0709 41.1951 22.732 41.3222 22.3718L41.5447 21.7151H43.7162H45.8771L45.8029 21.9481C45.7606 22.0858 45.4852 22.9015 45.178 23.7595C44.2776 26.2911 44.1399 26.3759 40.6867 26.3759C38.6847 26.3759 38.3457 26.3441 37.9644 26.1746C37.4241 25.931 37.0746 25.4967 37.0746 25.0624C37.0746 24.6069 38.7376 19.819 39.0342 19.4271C39.6062 18.675 40.2206 18.5585 43.6738 18.5479C46.1313 18.5373 46.3961 18.5585 46.3961 18.7067ZM54.0229 18.6326C54.5631 18.7385 54.8173 19.0033 54.9868 19.6283C55.0927 20.0308 55.0716 20.1791 54.7644 21.1325C54.5737 21.7151 54.3301 22.3612 54.2241 22.5731C54.0123 22.9968 53.4615 23.5158 53.2178 23.5158C53.0272 23.5158 53.0272 23.5158 53.3344 24.8293C53.7263 26.4924 53.7898 26.3759 52.5505 26.3759H51.5124L51.3323 25.4437C51.2264 24.9353 51.0993 24.2997 51.0357 24.0137L50.9298 23.5158H49.6269H48.324L48.0062 24.3844C47.8367 24.8717 47.6143 25.5179 47.5084 25.8144L47.3071 26.3759H46.322C45.7818 26.3759 45.3369 26.3335 45.3369 26.2805C45.3369 26.2276 45.411 25.9839 45.5064 25.7297C45.6017 25.4755 46.1419 23.9289 46.7139 22.2977C47.2753 20.6664 47.8156 19.1516 47.9109 18.9292L48.0804 18.5373H50.8133C52.3175 18.5479 53.7581 18.5902 54.0229 18.6326ZM62.9313 18.7703C63.4186 18.9822 63.747 19.3317 63.8635 19.766C63.9588 20.105 63.6516 21.0795 62.031 25.6344L61.7767 26.3229L58.6307 26.3547C55.8978 26.3759 55.4423 26.3547 55.1245 26.2064C54.7538 26.0263 54.4466 25.592 54.4466 25.2424C54.4466 24.8505 55.3999 22.2023 55.6224 21.9587C55.8554 21.7257 55.8872 21.7151 58.6201 21.6939L61.3848 21.6621L61.5861 21.0583C61.925 20.105 61.9674 20.1262 59.0438 20.1262C57.063 20.1262 56.5651 20.0944 56.5651 19.9885C56.5651 19.7766 56.8935 18.8233 57.0206 18.6644C57.2007 18.4419 62.4017 18.5373 62.9313 18.7703ZM67.518 18.622C67.5392 18.6644 67.1155 20.0097 66.554 21.6091C65.802 23.7595 65.5689 24.5433 65.6431 24.6704C65.7384 24.8187 66.1303 24.8399 68.4713 24.8717C69.9649 24.8823 71.1831 24.9353 71.1725 24.9776C71.1725 25.02 71.0665 25.3378 70.9394 25.6873L70.7064 26.3229L67.6875 26.3547C65.7596 26.3759 64.5308 26.3441 64.2766 26.2699C63.7682 26.1216 63.4504 25.7191 63.4504 25.2213C63.4504 24.9035 65.3994 19.0033 65.6219 18.6432C65.696 18.5161 67.4332 18.4949 67.518 18.622ZM81.3309 18.8233C81.6169 19.0033 81.8817 19.5648 81.8817 19.9991C81.8817 20.2427 80.7271 23.7277 79.9114 25.9204L79.742 26.3759H78.7462C78.0895 26.3759 77.7505 26.3335 77.7505 26.2593C77.7505 26.1958 78.1848 24.8823 78.7251 23.3358L79.6996 20.5181L79.4559 20.3274C79.3182 20.2109 79.064 20.1262 78.8734 20.1262H78.545L77.7611 22.3824C77.3374 23.6112 76.8396 25.02 76.6701 25.4967L76.3523 26.3759H75.5684C75.1341 26.3759 74.7846 26.3441 74.7846 26.3123C74.7846 26.2487 76.6595 20.8253 76.8501 20.3062C76.9137 20.1474 76.8501 20.1262 76.2887 20.1262H75.6532L75.1024 21.6833C74.8058 22.5519 74.3185 23.9501 74.0219 24.8081L73.4817 26.3759H72.486C71.9457 26.3759 71.5008 26.3441 71.5008 26.2911C71.5008 26.2064 74.1172 18.7809 74.1914 18.6644C74.2126 18.622 75.7803 18.6008 77.6658 18.622C80.4728 18.6538 81.1296 18.6856 81.3309 18.8233ZM90.3558 18.7385C90.7584 18.961 90.8749 19.1834 90.8855 19.6601C90.8855 20.2003 90.0063 22.7426 89.7097 23.0392C89.519 23.2404 89.3283 23.251 86.7331 23.304L83.9684 23.3569L83.7778 23.9078C83.6189 24.3844 83.6189 24.4798 83.746 24.6704C83.9049 24.8823 83.9896 24.8929 86.606 24.8929H89.3072L89.233 25.1259C89.2012 25.2636 89.0741 25.5814 88.9788 25.8462L88.7881 26.3229L85.7374 26.3547C83.7778 26.3759 82.5384 26.3441 82.2842 26.2699C81.7969 26.1322 81.458 25.7191 81.458 25.2636C81.458 24.7234 83.1634 19.8508 83.5024 19.4271C84.1273 18.6538 84.6676 18.5479 87.7606 18.569C89.5296 18.5902 90.1546 18.6326 90.3558 18.7385ZM99.1054 18.7703C99.4232 18.9398 99.6033 19.2364 99.7304 19.819C99.8045 20.1368 98.1097 25.1895 97.7919 25.6238C97.686 25.7721 97.4106 25.9839 97.1775 26.1005C96.7856 26.3123 96.5632 26.3229 93.3006 26.3547C91.3833 26.3653 89.8262 26.3441 89.8262 26.3017C89.8262 26.1852 92.1566 19.5012 92.379 18.9822L92.5803 18.5161L95.684 18.5585C98.3427 18.5902 98.8194 18.622 99.1054 18.7703ZM103.523 18.6114C103.554 18.6644 102.972 20.4228 102.251 22.5307L100.917 26.3759H99.9316C99.3808 26.3759 98.9359 26.3335 98.9359 26.2911C98.9359 26.2382 99.0736 25.825 99.2431 25.359C99.4126 24.9035 99.9634 23.3252 100.472 21.874C100.98 20.4122 101.457 19.0669 101.531 18.8762L101.679 18.5373H102.58C103.078 18.5373 103.501 18.569 103.523 18.6114ZM111.795 18.6326C111.838 18.6856 111.753 19.0351 111.615 19.4059L111.382 20.0732L108.988 20.105C106.669 20.1262 106.584 20.1368 106.34 20.3698C106.044 20.6346 104.603 24.501 104.698 24.7446C104.741 24.8717 105.228 24.8929 107.41 24.8929C108.861 24.8929 110.058 24.9353 110.058 24.9776C110.058 25.02 109.963 25.359 109.836 25.7191L109.613 26.3759H106.658C103.311 26.3759 103.004 26.3229 102.707 25.6873C102.612 25.4967 102.537 25.2636 102.537 25.1789C102.537 24.8717 104.264 20.0097 104.486 19.6707C104.836 19.1516 105.503 18.7385 106.15 18.6432C106.965 18.5267 111.732 18.5161 111.795 18.6326ZM119.295 18.8233C119.804 19.0563 120.227 19.5648 120.227 19.9567C120.227 20.0732 119.74 21.5562 119.147 23.2722L118.077 26.3759H114.973C113.035 26.3759 111.764 26.3335 111.573 26.2593C111.033 26.0581 110.8 25.7509 110.8 25.253C110.8 24.6493 111.679 22.1494 111.976 21.8952C112.177 21.7363 112.484 21.7151 114.931 21.7151H117.653L117.865 21.1537C118.003 20.7829 118.045 20.5075 117.992 20.3592C117.907 20.1262 117.865 20.1262 115.429 20.1262C114.062 20.1262 112.929 20.0944 112.887 20.0626C112.844 20.0097 113.003 19.4482 113.289 18.6644C113.331 18.5479 113.861 18.5267 116.075 18.5585C118.596 18.5902 118.829 18.6114 119.295 18.8233Z" fill="white"></path>
<path d="M32.1172 20.2002C31.9583 20.2638 31.8629 20.4438 31.5769 21.1747L31.3545 21.715H33.3141H35.2632L35.4539 21.1218C35.7399 20.2002 35.7081 20.179 33.8332 20.1578C32.9646 20.1472 32.1913 20.1684 32.1172 20.2002Z" fill="white"></path>
<path d="M49.4151 20.2531C49.3939 20.3272 49.2456 20.7297 49.0973 21.1429C48.949 21.556 48.8325 21.9373 48.8325 21.9691C48.8325 22.0115 49.5952 22.0326 50.5168 22.0115C52.4658 21.9797 52.5294 21.9479 52.826 21.0158C53.0908 20.1471 53.059 20.126 51.0888 20.126C49.8812 20.126 49.4469 20.1577 49.4151 20.2531Z" fill="white"></path>
<path d="M57.0206 23.3251C56.9571 23.3992 56.8405 23.6958 56.7452 23.9712C56.5863 24.4585 56.5863 24.4903 56.7876 24.6915C56.9782 24.8822 57.1159 24.8928 58.6519 24.8716L60.3043 24.8398L60.5586 24.1089C60.6857 23.6958 60.8022 23.3251 60.8022 23.2827C60.8022 23.1344 57.1371 23.1768 57.0206 23.3251Z" fill="white"></path>
<path d="M85.1973 20.285C85.0808 20.3697 84.8795 20.7298 84.763 21.0794L84.5405 21.715H86.479H88.4069L88.6081 21.1218C88.9153 20.2002 88.8941 20.1896 87.0086 20.1472C85.7375 20.1261 85.3879 20.1472 85.1973 20.285Z" fill="white"></path>
<path d="M93.915 20.571C93.8197 20.8252 93.4383 21.8845 93.0676 22.9331L92.3896 24.8398L94.0845 24.8716C95.398 24.8928 95.8429 24.861 96.0124 24.7551C96.1712 24.6492 96.4255 24.0348 96.9127 22.5306C97.4953 20.7828 97.5801 20.4333 97.4636 20.2956C97.347 20.1579 97.0504 20.1261 95.7052 20.1261H94.0845L93.915 20.571Z" fill="white"></path>
<path d="M113.267 23.3779C113.236 23.4839 113.14 23.7275 113.066 23.9288C112.706 24.7974 112.897 24.8927 115.015 24.8927H116.572L116.848 24.1088C117.007 23.6745 117.102 23.2932 117.07 23.2614C117.038 23.2296 116.191 23.1979 115.174 23.1979C113.522 23.1979 113.331 23.2191 113.267 23.3779Z" fill="white"></path>
<path d="M21.4503 62.6134C20.9842 62.963 20.5605 63.2913 20.5181 63.3337C20.4652 63.3867 20.5605 63.6197 20.7194 63.8633C21.0372 64.3506 20.9312 64.3612 21.8634 63.6939C22.3189 63.3549 22.3295 63.3549 22.5731 63.535C22.7108 63.6409 23.0074 63.8633 23.2193 64.0222L23.6006 64.3082L23.876 63.9057C24.0243 63.6833 24.1514 63.4714 24.1514 63.429C24.1514 63.3655 22.7214 62.2321 22.4036 62.052C22.3401 62.0096 21.9164 62.2744 21.4503 62.6134Z" fill="white"></path>
<path d="M0 65.5897C0 66.0558 0.94275 72.9093 1.11223 73.6931C1.1652 73.9368 1.18638 73.9368 2.99773 73.9368H4.81968L5.43405 69.7209C5.77302 67.4117 6.04843 65.4096 6.03784 65.2719C6.03784 65.0389 6.01665 65.0389 4.7879 65.0389H3.53796L3.35788 67.7083C3.12485 71.0767 3.06129 71.7123 2.97655 71.7123C2.93418 71.7123 2.81766 70.5365 2.71173 69.0853C2.6164 67.6447 2.49988 66.1511 2.4681 65.7486L2.40454 65.0389H1.20757H0V65.5897Z" fill="white"></path>
<path d="M7.06527 65.2297C6.70512 65.6217 6.67334 65.9924 6.67334 69.4986C6.67334 73.1531 6.70512 73.4603 7.15001 73.831C7.39364 74.0323 11.0693 74.1276 11.7472 73.9369C12.4993 73.7357 12.4993 73.7251 12.4993 69.4456V65.6958L12.2239 65.3674L11.9485 65.0391H9.59692C7.47838 65.0391 7.21357 65.0603 7.06527 65.2297ZM10.063 69.541V71.7125H9.63929H9.21559V69.541V67.3695H9.63929H10.063V69.541Z" fill="white"></path>
<path d="M13.8234 65.3037L13.5586 65.5579V69.4878V73.4177L13.8234 73.672C14.0776 73.9368 14.0776 73.9368 16.3657 73.9368H18.6431V72.8245V71.7123H17.319H15.9949V69.5408V67.3693H17.1495H18.3041L18.4736 66.8714C18.5689 66.596 18.6431 66.077 18.6431 65.7062V65.0389H16.3657C14.0776 65.0389 14.0776 65.0389 13.8234 65.3037Z" fill="white"></path>
<path d="M19.4907 69.5411V74.043H22.0859H24.6811V72.8778V71.7126H23.3041H21.927V71.13V70.5474H23.0922H24.2574V69.3822V68.217H23.0922H21.927V67.7933V67.3802L23.1134 67.3484L24.2892 67.3166L24.4799 66.787C24.5858 66.4904 24.6706 65.9819 24.6706 65.643L24.6811 65.0392H22.0859H19.4907V69.5411Z" fill="white"></path>
<path d="M28.2827 66.2044V67.3696H28.9712H29.6598V70.7063V74.043H30.9309H32.202V70.7169V67.3802L32.7528 67.3484L33.2931 67.3166L33.4837 66.787C33.5897 66.4904 33.6744 65.9819 33.6744 65.643L33.685 65.0392H30.9839H28.2827V66.2044Z" fill="white"></path>
<path d="M34.4263 69.5411V74.043H36.9685H39.5108V72.8778V71.7126H38.1867H36.8626V71.13V70.5474H38.0278H39.193V69.3822V68.217H38.0278H36.8626V67.7933V67.3696H38.0172H39.1718L39.3413 66.8717C39.4366 66.5963 39.5108 66.0773 39.5108 65.7065V65.0392H36.9685H34.4263V69.5411Z" fill="white"></path>
<path d="M40.888 65.219C40.888 65.3249 40.7185 67.0515 40.5172 69.0641C40.316 71.0767 40.1465 72.994 40.1465 73.3224V73.9368H41.3646H42.5828L42.5934 71.7865L42.604 69.6467L42.8476 71.331C42.9853 72.2525 43.123 73.2165 43.1654 73.4707L43.229 73.9368H44.2882C44.8602 73.9368 45.3369 73.905 45.3369 73.852C45.3369 73.8097 45.464 72.8457 45.6229 71.7123L45.9195 69.6467L45.9513 71.7865L45.9725 73.9368H47.1906H48.4088V73.5342C48.4088 73.3224 48.2393 71.3204 48.0169 69.0853L47.6249 65.0389H46.2373H44.8496L44.606 66.596C44.4789 67.4646 44.3412 68.2379 44.3094 68.3226C44.267 68.4074 44.1187 67.7189 43.9704 66.7867L43.6844 65.0919L42.2862 65.0601C41.0045 65.0389 40.888 65.0495 40.888 65.219Z" fill="white"></path>
<path d="M53.1225 65.3781C52.8683 66.9141 52.1162 72.8778 52.1162 73.3862V74.043H53.3238H54.5313L54.5949 73.7146C54.6267 73.5345 54.6585 73.1956 54.6585 72.9837C54.6585 72.3375 54.7326 72.2422 55.2516 72.2422H55.7177V72.8142C55.7177 73.1214 55.7495 73.5345 55.7813 73.7146L55.8554 74.043H57.0524H58.26V73.3756C58.26 72.8248 57.4126 66.0349 57.2431 65.2722C57.2007 65.0392 57.1901 65.0392 55.1881 65.0392H53.1861L53.1225 65.3781Z" fill="white"></path>
<path d="M62.1792 69.4878V73.9368H63.3444H64.5096V73.3224C64.5096 72.9834 64.4672 72.3055 64.4037 71.8182C64.3507 71.3204 64.2766 70.6848 64.2448 70.3882C64.2024 70.1022 64.2024 69.8904 64.2342 69.9115C64.2766 69.9645 64.8062 71.8394 65.2511 73.4813L65.3676 73.9368H66.6811H68.0052V69.4878V65.0389H66.84H65.6748V65.505C65.6748 65.7592 65.7489 66.6384 65.8443 67.4752C65.929 68.3015 65.9926 69.0006 65.9608 69.0218C65.9396 69.0429 65.6854 68.1743 65.3888 67.0833L64.8592 65.0919L63.5139 65.0601L62.1792 65.0283V69.4878Z" fill="white"></path>
<path d="M69.3293 65.3039L69.0645 65.5581V69.4562C69.0645 73.8098 69.0539 73.7251 69.7848 73.9369C70.2932 74.0747 73.5558 74.0747 74.0642 73.9264C74.7739 73.7357 74.7845 73.6827 74.7845 69.488C74.7845 65.5899 74.7527 65.2721 74.3078 65.1026C74.2125 65.0709 73.1109 65.0391 71.8609 65.0391C69.5835 65.0391 69.5835 65.0391 69.3293 65.3039ZM72.3482 69.541V71.7125H71.9245H71.5008V69.541V67.3695H71.9245H72.3482V69.541Z" fill="white"></path>
<path d="M76.0767 65.1131C76.0025 65.1448 75.8754 65.3037 75.7907 65.4626C75.5576 65.9075 75.5682 68.5239 75.8013 69.0112C75.8966 69.223 76.3945 69.6891 77.1148 70.2399C78.0787 70.9814 78.2694 71.1827 78.2694 71.4157L78.28 71.7123H76.9559H75.6318V72.8245V73.9368L77.9728 73.9156L80.3243 73.8838L80.5468 73.5872C80.748 73.3118 80.7692 73.1423 80.7692 71.6805C80.7692 69.7103 80.7904 69.7527 79.2333 68.5345C78.6189 68.0578 78.1105 67.6023 78.0893 67.5176C78.0575 67.4011 78.2694 67.3693 79.2121 67.3693H80.3773L80.5998 66.7125C80.7269 66.3524 80.8222 65.8228 80.8222 65.5474V65.0389L78.5236 65.0495C77.2525 65.0495 76.1508 65.0813 76.0767 65.1131Z" fill="white"></path>
<path d="M81.6592 65.3143C81.4156 65.5791 81.405 65.6427 81.405 67.1998C81.405 68.5769 81.4368 68.8523 81.5957 69.1065C81.7016 69.2654 82.3054 69.8056 82.9515 70.3035C83.8307 71.0026 84.1062 71.278 84.1062 71.4687C84.1062 71.7123 84.1062 71.7123 82.7291 71.7123H81.3521V72.8245V73.9368H83.6189C84.8688 73.9368 85.9705 73.905 86.0658 73.8732C86.4365 73.7249 86.5425 73.2588 86.5425 71.7123C86.5425 70.6848 86.5001 70.1128 86.3942 69.8692C86.2988 69.6361 85.8645 69.223 85.0701 68.598C84.4239 68.0896 83.8943 67.6023 83.8943 67.5176C83.8943 67.4011 84.1167 67.3693 85.0383 67.3693H86.1717L86.3624 66.7337C86.4577 66.3948 86.5425 65.8651 86.5425 65.5685V65.0389H84.2333H81.9135L81.6592 65.3143Z" fill="white"></path>
<path d="M87.6759 68.8208C87.4005 70.9075 87.1675 72.9307 87.1781 73.3227V74.043H88.3856H89.5932L89.6674 73.1426L89.7415 72.2422H90.197H90.6419L90.716 72.7295C90.7478 73.0049 90.7796 73.4074 90.7796 73.6299V74.043H92.0507H93.3218V73.5345C93.3218 73.2485 93.0888 71.2677 92.7922 69.128C92.5062 66.9882 92.2626 65.1875 92.2626 65.1345C92.2626 65.0815 91.4046 65.0392 90.2182 65.0392H88.1738L87.6759 68.8208Z" fill="white"></path>
<path d="M97.2407 69.5411V74.043H98.4589H99.677V72.507V70.9711H100.842H102.007V69.8059V68.6407H100.842H99.677V68.0051V67.3802L100.863 67.3484L102.05 67.3166L102.24 66.734C102.336 66.4162 102.421 65.8972 102.421 65.59L102.431 65.0392H99.8359H97.2407V69.5411Z" fill="white"></path>
<path d="M103.374 65.3144L103.12 65.5899V69.4986V73.4073L103.416 73.6933L103.702 73.9899H105.98H108.257L108.543 73.6933L108.84 73.4073V69.4986V65.5899L108.585 65.3144L108.331 65.039H105.98H103.628L103.374 65.3144ZM106.456 69.5409V71.7124H106.033H105.609V69.5409V67.3694H106.033H106.456V69.5409Z" fill="white"></path>
<path d="M109.952 69.5411V74.043H111.17H112.388V72.6024C112.388 71.2889 112.41 71.1723 112.579 71.2041C112.717 71.2359 112.833 71.5431 113.077 72.6447L113.395 74.043H114.592H115.778V73.3862C115.778 72.9201 115.672 72.4117 115.45 71.7338L115.121 70.7486L115.365 70.4732C115.609 70.219 115.619 70.1554 115.651 68.0793C115.683 65.7701 115.662 65.5582 115.354 65.251C115.153 65.0498 114.994 65.0392 112.547 65.0392H109.952V69.5411Z" fill="white"></path>
<path d="M117.07 65.1132C116.996 65.1449 116.869 65.3038 116.784 65.4627C116.657 65.7169 116.626 66.4161 116.626 69.4879C116.626 74.0534 116.594 73.9369 117.875 73.9369H118.469L117.95 74.4665L117.431 74.9962L118.003 75.5152C118.32 75.8118 118.606 76.0448 118.638 76.0554C118.67 76.0554 119.136 75.5787 119.687 74.9962L120.661 73.9369H121.244H121.816V72.8246V71.7124H120.439H119.062V69.5409V67.38L120.248 67.3482L121.435 67.3164L121.625 66.7338C121.721 66.4161 121.805 65.897 121.805 65.5898L121.816 65.039L119.517 65.0496C118.246 65.0496 117.145 65.0814 117.07 65.1132Z" fill="white"></path>
<path d="M123.405 65.1239C123.405 65.1769 123.172 66.967 122.875 69.1068C122.589 71.2465 122.346 73.2379 122.346 73.5239V74.043H123.617H124.888V73.5345C124.888 73.2591 124.92 72.8566 124.952 72.6341C125.015 72.2528 125.036 72.2422 125.471 72.2422H125.926L126 73.1426L126.074 74.043H127.282H128.489V73.3227C128.5 72.9307 128.267 70.9075 127.992 68.8314L127.483 65.0392H125.449C124.327 65.0392 123.405 65.0815 123.405 65.1239Z" fill="white"></path>
</svg>