<svg width="377" height="165" viewBox="0 0 377 165" fill="none" xmlns="http://www.w3.org/2000/svg">
<path d="M183.896 26.8317C201.127 25.4486 217.559 37.7148 221.929 54.3048C224.423 63.9627 223.016 74.2141 218.01 82.8421C214.485 88.8909 209.107 93.8766 202.908 97.1009C192.225 102.657 177.964 102.574 167.526 96.4899C173.408 96.4181 177.13 96.1274 182.599 98.7153C183.076 97.3081 183.464 95.891 183.996 94.4965C188.39 82.9913 196.057 77.7391 207.905 75.5255C206.746 72.1003 205.917 65.9711 206.298 62.4062C206.944 56.3553 211.955 51.6289 216.58 48.0517C208.74 46.6145 203.117 42.9116 201.403 34.8794C197.46 35.3307 194.624 36.2158 190.884 36.8696L179.924 38.8714C176.481 39.5181 173.892 39.555 171.029 41.8166C167.4 44.6825 164.301 47.9344 161.057 51.2175C159.21 53.0869 156.793 54.7635 155.448 57.051C152.915 61.7266 151.619 68.0998 149.218 72.785C149.16 70.7583 148.517 68.0298 148.384 65.6839C147.863 55.9283 151.255 46.368 157.808 39.1225C164.799 31.3342 173.54 27.394 183.896 26.8317Z" fill="white"></path>
<path d="M187.849 39.6028L187.921 39.6663C187.68 40.1351 184.872 41.3856 184.089 41.8057C179.139 44.436 174.729 47.9739 171.088 52.2351C170.494 52.9388 169.31 53.9533 169.702 54.7943C170.535 55.2839 176.38 52.6878 177.668 52.1825C188.35 47.9916 199.343 48.4303 210.543 48.8582C205.759 52.9766 203.259 57.4914 202.968 63.8786C202.817 67.1935 203.619 70.297 204.283 73.5195C196.599 68.6394 188.605 64.2658 180.352 60.4268C176.686 58.7627 173.29 57.5947 169.742 56.0447C169.213 56.6784 168.773 57.0166 168.144 57.5339C169.568 64.1118 170.276 68.6271 172.653 75.0964C174.416 80.969 178.236 88.7895 180.71 94.5409C169.956 92.7438 168.364 92.1712 158.114 96.7602C156.396 83.7788 159.874 67.5162 167.369 56.7057C161.973 59.0193 156.839 64.9596 153.246 69.4971C154.686 64.8206 155.739 58.772 159.519 55.6214C161.945 55.1223 164.258 55.2634 166.697 55.509L166.788 55.4003C167.648 54.3865 167.599 54.423 168.677 53.6089C168.781 51.5173 169.363 47.437 170.497 45.7208C173.121 41.7474 177.29 41.5918 181.496 40.9203C183.618 40.5815 185.786 40.0826 187.849 39.6028Z" fill="white"></path>
<path d="M229.629 110.926C237.391 109.213 245.069 114.132 246.757 121.9C248.444 129.668 243.5 137.329 235.726 138.991C227.989 140.646 220.371 135.73 218.69 127.998C217.01 120.266 221.902 112.631 229.629 110.926ZM233.958 116.77C233.141 116.559 231.654 116.689 230.781 116.768C224.82 120.256 224.791 129.594 230.733 133.142L230.801 133.182C232.018 133.197 233.349 133.239 234.554 133.172C237.055 132.036 238.542 129.888 238.896 127.082C239.416 122.977 238.664 117.982 233.958 116.77Z" fill="white"></path>
<path d="M138.489 110.998L147.407 110.975C149.608 114.636 151.485 118.736 153.441 122.545C154.683 124.964 155.464 127.555 156.501 130.063C155.861 123.357 155.965 117.743 155.967 110.996L162.768 110.976C162.73 113.629 162.862 138.365 162.664 138.836L162.155 138.92C159.705 138.925 157.255 138.918 154.806 138.898C151.257 132.164 148.181 125.332 144.746 118.752C145.055 120.879 144.962 124.294 144.966 126.543L144.979 138.895L138.501 138.94C138.507 129.681 138.606 120.243 138.489 110.998Z" fill="white"></path>
<path d="M116.313 110.967C119.568 111.037 123.039 110.979 126.312 110.984C126.78 113.72 128.518 118.737 129.419 121.573C131.205 127.367 133.059 133.141 134.98 138.892L126.805 138.924C126.73 137.548 125.736 134.88 125.269 133.465C125.127 133.078 124.978 132.694 124.823 132.312C123.985 131.747 118.691 132.004 117.286 132.023C116.593 134.484 116.233 136.33 115.82 138.857C113.519 139.012 110.382 138.901 108.063 138.866C108.42 137.074 109.194 135.046 109.719 133.25L114.655 116.573C115.126 114.926 115.986 112.524 116.313 110.967ZM120.639 116.487C119.95 120.719 119.455 122.172 118.191 126.402C119.152 126.432 120.331 126.498 121.278 126.483C122.117 126.494 123.018 126.488 123.851 126.522C123.191 124.675 121.544 117.063 120.639 116.487Z" fill="white"></path>
<path d="M183.781 110.968C186.729 120.03 189.974 129.732 192.573 138.861C189.884 138.921 187.195 138.931 184.506 138.893C184.065 137.087 183.603 135.348 183.164 133.502L182.782 132.384C182.024 131.718 176.578 131.997 175.25 132.009C174.57 134.308 173.918 136.615 173.293 138.93C171.118 138.914 167.846 138.801 165.763 138.963C168.17 130.461 171.009 122.008 173.31 113.466C173.528 112.656 173.713 111.797 173.885 110.976L183.781 110.968ZM178.542 116.471C177.566 119.825 177.164 122.914 176.076 126.492L178.873 126.487L181.736 126.494C181.133 124.624 180.551 122.754 179.99 120.872C179.678 119.824 179.25 117.052 178.542 116.471Z" fill="white"></path>
<path d="M203.491 110.837C208.208 110.655 209.994 110.41 214.385 112.032C214.241 114.39 213.475 116 212.903 118.269C210.694 117.111 205.807 115.838 203.541 117.619C202.443 118.483 203.701 119.886 204.395 120.601C206.984 121.387 210.405 122.446 212.546 124.061C216.174 126.798 216.697 132.045 213.756 135.513C211.788 137.833 209.328 138.779 206.372 139.111C201.558 139.191 200.094 139.371 195.67 137.505C195.723 135.489 196.505 132.871 197.013 130.87C199.157 132.448 205.444 134.528 207.738 131.957C207.979 131.686 208.048 130.768 207.927 130.387C207.447 128.874 205.39 128.499 204.1 127.956C202.782 127.437 201.191 126.958 199.959 126.217C198.294 125.217 196.223 123.414 195.844 121.401C194.765 115.677 198.261 112.14 203.491 110.837Z" fill="white"></path>
<path d="M250.691 110.994L257.914 110.978L257.909 132.344L269.222 132.351L269.219 138.882C263.522 139.127 256.551 138.868 250.698 138.938L250.691 110.994Z" fill="white"></path>
</svg>