<svg width="377" height="165" viewBox="0 0 377 165" fill="none" xmlns="http://www.w3.org/2000/svg">
<g clip-path="url(#clip0_1049_6466)">
<path d="M229.493 28.3549C227.863 29.2601 214.181 36.3986 199.102 44.2095L171.686 58.4089L114.785 58.5383L57.8842 58.6676L56.1772 59.34C52.8407 60.6332 49.8405 63.2973 48.3145 66.2975C47.5645 67.7717 38.4344 95.6532 38.2275 97.1792C37.8396 99.6622 39.4173 102.585 41.8226 103.878L42.8831 104.447L108.526 104.525C145.926 104.55 174.143 104.68 174.143 104.809C174.143 105.016 166.669 125.19 163.203 134.32C160.616 141.122 160.461 141.562 160.565 141.562C160.616 141.562 165.867 133.234 172.255 123.069L183.842 104.576L251.606 104.525L319.37 104.447L320.922 103.852C324.052 102.688 326.948 100.283 328.578 97.4637C328.992 96.7395 331.552 89.4976 334.268 81.3245C339.053 66.97 339.208 66.4009 339.079 64.8491C338.872 62.1851 337.475 60.297 334.863 59.1331C333.906 58.6934 330.647 58.6676 273.332 58.5383L212.81 58.4089L222.302 43.2784C232.363 27.2168 232.674 26.7254 232.545 26.7254C232.493 26.7254 231.122 27.4755 229.493 28.3549ZM61.8932 72.4273C61.8932 72.6859 60.4706 77.0052 58.7377 81.997L55.5565 91.127H53.1252C50.7457 91.127 50.7199 91.127 50.8492 90.5321C51.0561 89.6528 56.9014 73.0997 57.2376 72.5049C57.4704 72.0393 57.7808 71.9876 59.6947 71.9876C61.6087 71.9876 61.8932 72.0393 61.8932 72.4273ZM81.4982 72.5049C82.3775 73.048 83.1017 74.3412 83.1017 75.4016C83.1017 75.7379 81.912 79.4106 80.4636 83.5488L77.8255 91.127H75.4201C73.7131 91.127 73.0147 91.0236 73.0147 90.8167C73.0147 90.6356 74.0752 87.4285 75.3942 83.6523L77.7737 76.8242L77.1789 76.3586C76.6616 75.9448 76.0926 75.8672 73.1441 75.8672H69.7041L68.773 78.5053C68.2557 79.9796 67.0401 83.3678 66.0832 86.0835L64.3503 90.9977L61.9449 91.0753C60.6517 91.1012 59.5654 91.0494 59.5654 90.946C59.5654 90.7391 63.8588 78.2208 65.4107 73.8498L66.0832 71.9876H73.3768C80.205 71.9876 80.6964 72.0135 81.4982 72.5049ZM103.638 72.2204C103.741 72.3497 103.534 73.2032 103.198 74.1084L102.629 75.7379L99.2409 75.8155L95.8527 75.8931L93.2663 83.4454L90.6799 90.9977L88.3004 91.0753C87.0072 91.1012 85.9468 91.1012 85.9468 91.0494C85.9468 90.9718 87.0589 87.6354 88.4039 83.6006C89.7488 79.5916 90.861 76.2034 90.861 76.0741C90.861 75.9707 89.516 75.8672 87.8866 75.8672C86.1537 75.8672 84.9122 75.7637 84.9122 75.6086C84.9122 75.4792 85.1191 74.8068 85.3778 74.1343C85.6623 73.4618 85.9468 72.6859 86.0244 72.4273C86.1796 72.0135 86.8262 71.9876 94.844 71.9876C99.7582 71.9876 103.56 72.091 103.638 72.2204ZM122.312 72.5566C123.838 73.3842 123.838 74.755 122.286 79.1519C120.605 83.9368 121.251 83.6264 113.259 83.6264H106.716L106.276 84.7386C105.785 86.0577 105.759 86.7819 106.173 87.1957C106.405 87.4285 108.293 87.506 113.027 87.506C116.622 87.506 119.57 87.6095 119.57 87.713C119.57 87.8164 119.311 88.6182 118.975 89.4459L118.38 90.9977L110.88 91.0753C105.966 91.127 103.069 91.0494 102.422 90.8684C101.336 90.558 100.431 89.3683 100.431 88.2561C100.431 87.6354 104.259 76.1776 104.853 75.0137C105.293 74.1602 106.173 73.2808 107 72.8411C108.293 72.1686 109.949 72.0135 115.82 72.0652C120.605 72.1169 121.639 72.1945 122.312 72.5566ZM144.658 72.4014C144.658 72.6601 144.4 73.5136 144.115 74.3412L143.546 75.8672H137.416C131.39 75.8672 131.287 75.8672 130.769 76.4362C130.226 77.0311 127.071 85.5662 127.071 86.4198C127.071 87.3767 127.588 87.506 131.338 87.506C134.157 87.506 135.089 87.4285 135.528 87.1181C136.02 86.7819 137.158 84.3248 137.158 83.6264C137.158 83.4712 136.02 83.3678 134.442 83.3678C132.942 83.3678 131.726 83.2643 131.726 83.1609C131.726 83.0574 131.959 82.2298 132.269 81.3504L132.813 79.7468H138.115H143.391L143.21 80.3158C143.106 80.6521 142.434 82.6436 141.684 84.7386C139.485 90.9201 139.149 91.127 130.718 91.127C125.829 91.127 125.002 91.0494 124.07 90.6356C122.751 90.0407 121.898 88.9803 121.898 87.9199C121.898 86.8077 125.959 75.1171 126.683 74.1602C128.079 72.3238 129.58 72.0393 138.011 72.0135C144.012 71.9876 144.658 72.0393 144.658 72.4014ZM163.28 72.2204C164.6 72.479 165.22 73.1256 165.634 74.6516C165.893 75.6344 165.841 75.9965 165.091 78.3243C164.625 79.7468 164.031 81.3245 163.772 81.8418C163.255 82.8764 161.91 84.1437 161.315 84.1437C160.849 84.1437 160.849 84.1437 161.599 87.3509C162.556 91.4115 162.711 91.127 159.685 91.127H157.151L156.711 88.851C156.452 87.6095 156.142 86.0577 155.987 85.3593L155.728 84.1437H152.547H149.366L148.59 86.2646C148.176 87.4543 147.633 89.032 147.374 89.7562L146.883 91.127H144.477C143.158 91.127 142.072 91.0236 142.072 90.8942C142.072 90.7649 142.253 90.17 142.486 89.5493C142.718 88.9286 144.038 85.1524 145.434 81.1693C146.805 77.1863 148.124 73.4877 148.357 72.9446L148.771 71.9876H155.444C159.116 72.0135 162.634 72.1169 163.28 72.2204ZM185.032 72.5566C186.222 73.0739 187.024 73.9274 187.308 74.9878C187.541 75.8155 186.791 78.195 182.834 89.3165L182.213 90.9977L174.531 91.0753C167.858 91.127 166.746 91.0753 165.97 90.7132C165.065 90.2735 164.315 89.2131 164.315 88.3596C164.315 87.4026 166.643 80.9366 167.186 80.3417C167.755 79.7727 167.833 79.7468 174.505 79.6951L181.256 79.6175L181.747 78.1432C182.575 75.8155 182.679 75.8672 175.54 75.8672C170.703 75.8672 169.488 75.7896 169.488 75.531C169.488 75.0137 170.29 72.6859 170.6 72.298C171.04 71.7548 183.739 71.9876 185.032 72.5566ZM196.231 72.1945C196.283 72.298 195.248 75.5827 193.878 79.4882C192.041 84.7386 191.472 86.6525 191.653 86.9629C191.886 87.325 192.843 87.3767 198.559 87.4543C202.206 87.4802 205.18 87.6095 205.154 87.713C205.154 87.8164 204.896 88.5923 204.585 89.4459L204.016 90.9977L196.645 91.0753C191.938 91.127 188.938 91.0494 188.317 90.8684C187.075 90.5063 186.3 89.5234 186.3 88.3078C186.3 87.5319 191.058 73.1256 191.602 72.2462C191.783 71.9359 196.024 71.8841 196.231 72.1945ZM229.958 72.6859C230.656 73.1256 231.303 74.4964 231.303 75.5568C231.303 76.1517 228.484 84.661 226.492 90.0149L226.078 91.127H223.647C222.044 91.127 221.216 91.0236 221.216 90.8425C221.216 90.6873 222.276 87.4802 223.596 83.704L225.975 76.8242L225.38 76.3586C225.044 76.0741 224.423 75.8672 223.958 75.8672H223.156L221.242 81.3763C220.207 84.3765 218.992 87.8164 218.578 88.9803L217.802 91.127H215.888C214.828 91.127 213.974 91.0494 213.974 90.9718C213.974 90.8167 218.552 77.5742 219.018 76.3069C219.173 75.9189 219.018 75.8672 217.647 75.8672H216.095L214.75 79.6692C214.026 81.7901 212.836 85.2041 212.112 87.2991L210.793 91.127H208.362C207.043 91.127 205.956 91.0494 205.956 90.9201C205.956 90.7132 212.345 72.5825 212.526 72.298C212.577 72.1945 216.405 72.1428 221.009 72.1945C227.863 72.2721 229.467 72.3497 229.958 72.6859ZM251.994 72.479C252.977 73.0222 253.262 73.5653 253.288 74.7292C253.288 76.0483 251.141 82.2556 250.417 82.9798C249.951 83.4712 249.486 83.4971 243.149 83.6264L236.398 83.7558L235.933 85.1007C235.545 86.2646 235.545 86.4973 235.855 86.9629C236.243 87.4802 236.45 87.506 242.838 87.506H249.434L249.253 88.0751C249.175 88.4113 248.865 89.1872 248.632 89.8338L248.166 90.9977L240.718 91.0753C235.933 91.127 232.907 91.0494 232.286 90.8684C231.096 90.5321 230.268 89.5234 230.268 88.4113C230.268 87.0922 234.433 75.1947 235.26 74.1602C236.786 72.2721 238.105 72.0135 245.658 72.0652C249.977 72.1169 251.503 72.2204 251.994 72.479ZM273.358 72.5566C274.134 72.9704 274.574 73.6946 274.884 75.1171C275.065 75.8931 270.927 88.2302 270.151 89.2907C269.892 89.6528 269.22 90.17 268.651 90.4546C267.694 90.9718 267.151 90.9977 259.185 91.0753C254.503 91.1012 250.701 91.0494 250.701 90.946C250.701 90.6615 256.391 74.3412 256.934 73.0739L257.426 71.9359L265.004 72.0393C271.496 72.1169 272.66 72.1945 273.358 72.5566ZM284.143 72.1686C284.221 72.298 282.798 76.5914 281.04 81.7384L277.781 91.127H275.375C274.031 91.127 272.944 91.0236 272.944 90.9201C272.944 90.7908 273.28 89.7821 273.694 88.6441C274.108 87.5319 275.453 83.6782 276.695 80.1348C277.936 76.5655 279.1 73.2808 279.281 72.8152L279.643 71.9876H281.841C283.057 71.9876 284.092 72.0652 284.143 72.1686ZM304.343 72.2204C304.447 72.3497 304.24 73.2032 303.904 74.1084L303.335 75.7379L297.489 75.8155C291.825 75.8672 291.618 75.8931 291.023 76.4621C290.299 77.1087 286.782 86.5491 287.014 87.1439C287.118 87.4543 288.308 87.506 293.636 87.506C297.179 87.506 300.102 87.6095 300.102 87.713C300.102 87.8164 299.869 88.6441 299.558 89.5234L299.015 91.127H291.799C283.626 91.127 282.876 90.9977 282.152 89.4459C281.919 88.9803 281.738 88.4113 281.738 88.2044C281.738 87.4543 285.954 75.5827 286.497 74.755C287.351 73.4877 288.98 72.479 290.558 72.2462C292.549 71.9617 304.188 71.9359 304.343 72.2204ZM322.655 72.6859C323.897 73.2549 324.931 74.4964 324.931 75.4534C324.931 75.7379 323.741 79.3589 322.293 83.5488L319.681 91.127H312.102C307.369 91.127 304.266 91.0236 303.8 90.8425C302.481 90.3511 301.912 89.601 301.912 88.3854C301.912 86.9112 304.059 80.8072 304.783 80.1865C305.274 79.7985 306.024 79.7468 311.999 79.7468H318.646L319.163 78.376C319.5 77.4708 319.603 76.7983 319.474 76.4362C319.267 75.8672 319.163 75.8672 313.215 75.8672C309.878 75.8672 307.111 75.7896 307.007 75.712C306.904 75.5827 307.292 74.2119 307.99 72.298C308.094 72.0135 309.387 71.9617 314.792 72.0393C320.948 72.1169 321.517 72.1686 322.655 72.6859Z" fill="white"></path>
<path d="M109.794 76.0481C109.406 76.2033 109.173 76.643 108.475 78.4276L107.932 79.7467H112.716H117.475L117.941 78.2983C118.639 76.0481 118.562 75.9964 113.984 75.9447C111.863 75.9188 109.975 75.9705 109.794 76.0481Z" fill="white"></path>
<path d="M152.03 76.1771C151.978 76.3582 151.616 77.341 151.254 78.3497C150.892 79.3584 150.607 80.2895 150.607 80.3671C150.607 80.4706 152.47 80.5223 154.72 80.4706C159.479 80.393 159.634 80.3154 160.358 78.0393C161.005 75.9185 160.927 75.8667 156.116 75.8667C153.168 75.8667 152.108 75.9443 152.03 76.1771Z" fill="white"></path>
<path d="M170.599 83.6781C170.444 83.8591 170.159 84.5833 169.927 85.2558C169.539 86.4455 169.539 86.5231 170.03 87.0146C170.496 87.4801 170.832 87.506 174.582 87.4542L178.617 87.3767L179.238 85.592C179.548 84.5833 179.833 83.6781 179.833 83.5746C179.833 83.2125 170.884 83.316 170.599 83.6781Z" fill="white"></path>
<path d="M239.399 76.2551C239.114 76.462 238.623 77.3413 238.339 78.1949L237.795 79.7467H242.529H247.236L247.727 78.2983C248.477 76.0481 248.426 76.0223 243.822 75.9188C240.718 75.8671 239.865 75.9188 239.399 76.2551Z" fill="white"></path>
<path d="M260.684 76.9533C260.452 77.574 259.521 80.1604 258.615 82.721L256.96 87.3765L261.098 87.4541C264.305 87.5058 265.392 87.4282 265.805 87.1696C266.193 86.911 266.814 85.4108 268.004 81.7381C269.426 77.4706 269.633 76.6171 269.349 76.2808C269.064 75.9446 268.34 75.867 265.055 75.867H261.098L260.684 76.9533Z" fill="white"></path>
<path d="M307.937 83.807C307.859 84.0657 307.627 84.6606 307.446 85.152C306.566 87.2728 307.032 87.5056 312.205 87.5056H316.007L316.679 85.5917C317.067 84.5312 317.3 83.6001 317.222 83.5225C317.145 83.445 315.076 83.3674 312.593 83.3674C308.558 83.3674 308.092 83.4191 307.937 83.807Z" fill="white"></path>
</g>
<defs>
<clipPath id="clip0_1049_6466">
<rect width="376.479" height="165" fill="white"></rect>
</clipPath>
</defs>
</svg>