<svg width="377" height="165" viewBox="0 0 377 165" fill="none" xmlns="http://www.w3.org/2000/svg">
<path d="M183.924 18.6386C208.967 18.1037 235.029 22.0349 258.254 31.8456C260.167 32.6539 262.114 33.8034 263.984 34.7509C282.237 43.9995 301.616 59.0641 302.105 81.4208C302.342 92.2543 296.921 103.966 289.288 111.51C265.037 135.476 226.861 144.862 193.633 145.47L193.474 145.475C170.489 146.228 142.755 142.365 121.47 133.593C109.332 128.718 98.1811 121.676 88.5631 112.81C80.6406 105.38 74.732 94.3256 74.3844 83.3603C74.0215 71.9108 79.1947 61.1118 86.9459 52.9169C88.3924 51.3875 89.7814 50.2404 91.3219 48.8593C97.4822 43.1349 104.382 39.1326 111.722 35.1981C117.069 32.3323 120.706 30.7964 126.377 28.744C144.676 22.1203 163.697 19.2524 183.086 18.6659C183.365 18.6547 183.645 18.645 183.924 18.6386ZM242.342 31.914C224.028 26.2873 203.981 23.8824 184.875 24.2714L183.698 24.3007C166.601 24.7712 149.669 26.9551 133.322 32.1757C130.691 33.0822 128.177 34.2002 125.559 35.1561C110.925 40.499 96.8973 48.8538 87.1686 61.2421C85.4183 63.4709 83.8306 66.5713 82.7633 69.1718C70.6382 98.7172 101.523 120.375 125.504 128.951C130.19 130.627 134.495 132.228 139.23 133.658C155.835 138.158 175.383 140.376 192.583 139.829L192.713 139.825C207.286 139.576 221.78 137.634 235.903 134.039C239.303 133.151 242.396 131.966 245.728 130.856C259.682 126.212 273.462 119.425 283.963 108.933C285.21 107.686 288.334 104.311 289.235 103.018C293.791 96.4811 296.601 89.3214 296.381 81.2509C296.185 74.0081 293.434 66.9445 289.218 61.1298C287.75 59.1047 284.366 55.5454 282.564 53.8446C273.599 45.3869 262.029 39.1091 250.473 34.9696C247.726 33.9857 245.139 32.773 242.342 31.914Z" fill="white"></path>
<path d="M125.203 59.228L133.419 59.3148C133.283 62.7595 133.38 66.7149 133.379 70.2107L133.376 90.3251L133.383 97.4783C133.39 98.3626 133.468 100.47 133.382 101.203L133.155 101.333C130.548 101.392 127.861 101.363 125.247 101.365C125.083 95.5435 125.195 89.1567 125.196 83.2909L107.113 83.3C107.083 89.3124 107.098 95.3248 107.157 101.337C104.386 101.372 101.615 101.375 98.8438 101.347L98.8587 59.243C100.304 59.4058 105.438 59.2846 107.152 59.2747C107.019 64.8558 107.075 71.0502 107.161 76.6363L125.209 76.6022L125.203 59.228Z" fill="white"></path>
<path d="M152.85 70.3273C159.87 70.0898 165.111 73.5901 167.278 80.296C168.136 82.9558 168.193 85.2648 168.273 88.0177C160.771 88.1929 153.135 87.9319 145.632 88.0841C146.143 90.9283 146.73 93.9784 149.719 95.3116C153.339 96.9258 158.477 96.3647 160.335 92.3927C161.535 92.308 163.04 92.3492 164.264 92.3517L167.627 92.3878C165.331 97.9323 162.352 101.318 156.085 102.017C151.821 102.492 147.598 101.984 144.101 99.3302C137.048 93.9787 136.169 82.7565 141.412 75.8868C143.985 72.5205 147.556 70.9046 151.744 70.4073C152.112 70.3687 152.481 70.342 152.85 70.3273ZM160.595 83.0187C159.576 78.2117 157.968 75.5783 152.466 75.9044C148.079 76.5133 146.445 78.9712 145.779 83.048L154.241 83.0372L160.595 83.0187Z" fill="white"></path>
<path d="M250.189 70.3238C261.11 70.1836 265.301 78.1569 265.403 88.0348C257.928 88.1335 250.3 88.0602 242.814 88.0631C243.128 90.6663 243.375 92.7561 245.588 94.5465C247.298 95.93 249.793 96.3345 251.94 96.0426C255.013 95.625 255.865 94.6521 257.652 92.3951C258.733 92.3121 260.252 92.3516 261.365 92.3483L264.699 92.3834C262.636 97.8724 259.151 101.385 253.161 102.006C248.858 102.472 244.7 101.989 241.18 99.3219C231.868 92.2675 233.454 75.1994 244.937 71.2584C246.327 70.7812 247.375 70.5765 248.844 70.4059C249.291 70.3602 249.739 70.3327 250.189 70.3238ZM257.635 83.0221C256.699 78.2895 254.901 75.5259 249.549 75.9059C245.208 76.4867 243.425 78.9519 242.866 83.0367L251.212 83.0358L257.635 83.0221Z" fill="white"></path>
<path d="M209.267 59.2786L215.143 59.2695C215.111 60.5007 215.115 61.7946 215.133 63.0264C215.234 70.0036 214.975 77.0549 215.127 84.0221C216.631 82.4373 217.832 80.5727 219.264 79.0197C221.506 76.5866 223.695 73.4019 225.978 71.1181C229.024 71.0671 232.072 71.0777 235.118 71.1501C233.399 72.9275 231.461 75.378 229.839 77.2849C227.883 79.5853 225.75 82.0108 223.89 84.3688C224.691 85.1949 226.57 87.8239 227.326 88.8355L233.866 97.5868C234.73 98.7932 235.551 100.089 236.363 101.334C233.196 101.368 230.028 101.38 226.862 101.37C226.474 100.616 225.432 99.1267 224.933 98.3692C221.962 93.8644 217.933 89.3085 215.151 84.7105C214.997 90.0527 215.125 95.9674 215.129 101.348C212.575 101.363 210.021 101.365 207.466 101.353L207.461 59.3055L209.267 59.2786Z" fill="white"></path>
<path d="M188.352 70.4002C188.788 70.3499 189.227 70.3208 189.667 70.3133C201.634 70.1499 200.792 79.19 200.791 88.2375C200.776 92.6002 200.782 96.9628 200.81 101.326C198.258 101.373 195.705 101.379 193.153 101.343C193.121 97.2536 193.113 93.1641 193.129 89.0746C193.129 84.3952 194.127 75.922 187.301 76.3202C185.202 76.4426 184.359 76.451 182.635 77.8325C179.988 80.8139 180.486 86.9812 180.488 90.8047C180.475 94.3109 180.498 97.8171 180.556 101.323C177.996 101.374 175.435 101.379 172.875 101.338C172.728 91.3653 172.823 81.0764 172.854 71.0906C175.284 71.1117 177.714 71.0976 180.143 71.0485C180.157 72.4889 180.145 73.9984 180.248 75.4301C180.424 75.149 180.61 74.8743 180.806 74.607C182.737 72.0189 185.244 70.8626 188.352 70.4002Z" fill="white"></path>
<path d="M269.958 59.2184C271.754 59.3889 275.697 59.2863 277.666 59.3027L277.681 101.351C275.107 101.365 272.534 101.364 269.96 101.348C269.568 90.5764 270.115 79.5203 269.894 68.7207C269.831 65.6355 269.837 62.289 269.958 59.2184Z" fill="white"></path>
</svg>