<svg width="377" height="165" viewBox="0 0 377 165" fill="none" xmlns="http://www.w3.org/2000/svg">
<path d="M256.144 57.9332C261.669 57.8344 267.437 57.9355 272.973 57.932C280.066 57.9275 287.003 60.9206 291.926 66.1001C296.674 71.0934 299.237 77.771 299.055 84.6592C298.859 92.258 295.745 98.3888 290.3 103.55C288.9 104.779 287.379 105.864 285.762 106.79C277.852 111.288 271.224 110.019 262.489 110.24C260.938 110.279 255.79 110.344 254.517 109.992C253.678 109.36 253.899 103.323 253.901 101.934L253.911 90.4809L253.913 71.2117C253.908 69.2949 253.576 59.4564 254.39 58.2671C254.898 57.9248 255.523 57.9624 256.144 57.9332ZM262.548 102.163C270.474 102.133 278.289 103.155 284.373 97.0974C291.472 89.7717 291.646 78.0301 284.217 70.7301C277.97 64.5938 270.393 66.1444 262.537 65.9174L262.548 102.163Z" fill="white"></path>
<path d="M179.355 57.1349C179.701 57.1379 180.609 57.1272 180.835 57.3243C182.88 59.1134 185.084 61.671 186.934 63.6484L204.417 82.2358C205.964 83.8807 211.78 90.3132 213.324 91.2649C213.632 88.7512 213.544 85.6474 213.546 83.0637L213.534 67.4675C213.526 64.8282 213.485 62.1837 213.546 59.5464C213.564 58.7655 214.066 57.9013 214.919 57.9578C216.558 58.0661 220.845 57.4252 222.057 58.4655C222.532 60.4079 222.281 67.2691 222.283 69.5826L222.286 87.0313L222.283 101.991C222.283 103.546 222.552 109.869 221.824 110.685C221.245 111.052 220.621 110.979 219.931 110.979C217.661 108.864 213.725 104.266 211.509 101.832L195.076 83.79C193.832 82.4228 188.693 76.4699 187.476 75.8767L187.262 76.0076C186.495 78.0079 187.126 99.1834 186.945 102.709C186.872 104.148 187.092 107.542 186.838 109.159C186.796 109.427 186.649 109.899 186.337 109.975C184.611 110.4 181.564 110.335 179.774 110.13C179.259 110.071 178.692 109.665 178.502 109.311C178.311 108.957 178.178 108.373 178.192 107.987C178.319 104.357 178.281 100.696 178.28 97.0671L178.286 70.6374C178.301 66.6537 178.115 62.4527 178.334 58.4683C178.376 57.708 178.771 57.4806 179.355 57.1349Z" fill="white"></path>
<path d="M320.207 57.1399C320.66 57.1344 321.089 57.1527 321.542 57.1717C321.869 57.3854 321.903 57.3356 322.078 57.6953C324.004 61.6555 325.806 65.6978 327.638 69.702L337.273 90.7436L342.376 101.889C343.308 103.927 344.877 107.106 345.449 109.166C344.69 110.71 339.842 110.421 338.401 110.109C335.828 109.552 333.725 102.546 332.556 100.44C329.61 100.217 324.63 100.373 321.541 100.378C317.421 100.345 313.302 100.361 309.182 100.427C307.583 103.129 306.762 106.155 305.1 108.86C303.877 110.849 297.285 110.779 296.313 109.259C296.851 106.881 300.3 99.8644 301.562 97.1392L312.083 74.3757L317.347 62.9808C317.949 61.6784 319.472 58.1718 320.207 57.1399ZM321.361 93.1487C322.907 93.1645 327.445 93.396 328.612 92.8023C328.748 92.6027 329.015 92.2573 328.886 92.0226C327.722 89.884 321.965 75.4146 320.628 74.7737C319.599 76.2265 313.132 90.8815 312.902 92.5055C313.505 93.5678 319.983 93.1609 321.361 93.1487Z" fill="white"></path>
<path d="M69.6834 57.1465C70.0543 57.1325 71.1801 57.1008 71.3203 57.3949C79.1174 73.744 86.4951 90.3997 94.0733 106.872C94.4338 107.656 94.8259 108.841 94.8471 109.402C93.9847 110.552 88.6543 110.481 87.6881 110.09C85.1511 109.065 83.2903 102.903 82.0525 100.443C78.6412 100.258 74.3702 100.373 70.8952 100.378C67.0514 100.38 62.344 100.252 58.5718 100.455C56.8657 103.169 56.0121 108.015 53.4857 109.786C52.4588 110.506 46.468 110.743 45.708 109.224C45.8233 108.573 46.3518 107.255 46.643 106.622C51.8809 95.2356 57.1554 83.8423 62.41 72.4656L66.9386 62.6638C67.552 61.3364 68.9103 58.1931 69.6834 57.1465ZM70.7159 93.1487C72.0468 93.1627 77.6298 93.5305 78.2765 92.4773C78.1327 90.981 70.9778 75.086 70.0136 74.7604C68.8606 76.8369 62.6034 90.6713 62.3548 92.504C62.8279 93.5669 69.3944 93.1524 70.7159 93.1487Z" fill="white"></path>
<path d="M139.654 57.9396C148.42 57.709 157.356 58.0685 166.14 57.9005C167.249 57.8791 168.917 57.8621 169.961 58.1453C170.327 58.503 170.436 58.8891 170.471 59.3908C170.55 60.5163 170.96 64.6461 170.155 65.4798C169.422 66.239 148.566 65.9196 146.373 65.9209C146.523 70.2763 146.406 75.2523 146.406 79.6545C149.31 79.6294 165.029 79.2342 166.227 79.8645C166.415 79.9637 166.566 80.3853 166.615 80.5818C166.891 81.6814 166.956 86.3653 166.399 87.2974C165.371 87.8431 149.054 87.6396 146.411 87.6396L146.408 91.8302C146.415 95.239 146.477 98.853 146.368 102.243C152.549 102.352 158.783 102.161 164.969 102.243C166.559 102.265 168.328 102.159 169.889 102.433C170.872 103.28 170.746 108.617 170.128 109.78C169.835 110.331 166.775 110.237 166.019 110.233C157.243 110.183 148.457 110.267 139.682 110.199C139.222 110.195 138.412 110.13 138.055 109.832C137.621 107.977 137.752 103.976 137.752 101.955L137.757 90.4308L137.761 71.3651C137.755 69.2298 137.477 59.7843 138.085 58.3273C138.591 57.9037 138.901 58.0086 139.654 57.9396Z" fill="white"></path>
<path d="M86.5364 57.9367C87.9994 57.9101 92.4994 57.627 93.377 58.4777C94.5996 59.6627 96.5549 64.6161 97.3033 66.2991L104.452 82.3933C105.105 83.8623 108.05 91.1938 109.128 91.6198C109.521 91.5382 109.685 91.4972 109.943 91.164C111.149 89.6123 112.057 86.7523 112.891 84.8801C114.468 81.3432 123.72 59.5759 125.105 58.4192C126.224 57.4846 131.495 57.8702 133.028 58.0341C134.515 59.1688 132.035 63.4322 131.375 64.8593L127.65 72.8969C125.622 77.2971 110.534 110.52 109.835 110.921C109.259 110.992 108.981 111.059 108.42 110.869C107.842 110.406 93.5801 78.9962 92.0888 75.7494L87.0033 64.6679C86.258 63.0402 85.4087 61.269 84.7398 59.6006C84.539 59.1001 84.7195 58.7711 84.9458 58.3782C85.4914 57.9586 85.8607 57.9849 86.5364 57.9367Z" fill="white"></path>
<path d="M235.898 57.933C237.289 57.9068 241.264 57.6371 242.248 58.3713C242.62 58.648 242.537 64.8585 242.537 65.7533L242.542 77.5992L242.539 97.6771C242.537 99.3728 242.738 109.142 242.204 109.824C241.676 110.186 241.266 110.168 240.637 110.216C239.26 110.241 234.751 110.56 233.956 109.642C233.476 108.034 233.641 101.544 233.641 99.6115L233.651 83.5357C233.655 80.5003 233.388 59.5478 234.03 58.3519C234.553 57.9058 235.199 57.9648 235.898 57.933Z" fill="white"></path>
<path d="M54.0403 57.5598C57.3615 56.9954 60.5084 59.2402 61.0564 62.5647C61.6047 65.8891 59.3453 69.0257 56.0188 69.5579C52.7149 70.0866 49.6049 67.8454 49.0604 64.5435C48.5161 61.2416 50.7418 58.1203 54.0403 57.5598ZM55.8347 67.7059C58.0966 67.2857 59.6058 65.1317 59.229 62.8618C58.8519 60.5918 56.7275 59.0415 54.4513 59.3752C52.9397 59.5969 51.6657 60.6178 51.1199 62.0448C50.574 63.472 50.8415 65.0827 51.8193 66.2568C52.7972 67.4308 54.3326 67.9849 55.8347 67.7059Z" fill="white"></path>
<path d="M38.1726 89.0923C41.2805 88.8575 42.2788 90.1463 42.7184 93.0551C44.041 92.9199 46.7106 92.3773 47.6519 93.1421C47.6913 95.3951 43.5426 94.8145 42.0267 94.7999C41.6787 95.5931 41.328 96.2399 40.9141 97.0013C42.0126 97.4381 43.3018 98.0893 44.3872 98.6025C44.7879 98.7999 44.6598 98.6823 44.8982 99.0359C44.855 99.8048 44.8105 100.138 44.0686 100.402C41.643 99.6135 36.185 96.8553 33.6432 95.6442C34.6804 93.1898 35.5139 90.0592 38.1726 89.0923ZM36.0363 94.6622L38.9991 96.0066L39.4028 96.1558C40.7215 95.2656 42.0196 91.3532 38.8653 90.8141L38.7726 90.7992C37.1325 91.6241 36.8033 92.9723 36.0363 94.6622Z" fill="white"></path>
<path d="M47.5406 68.8193C50.2226 68.5241 52.3411 69.7313 52.2335 72.6883C52.1822 74.0994 51.6117 75.0378 50.9923 76.2721C51.9588 76.6883 53.8012 77.3871 54.5358 78.0313C54.7609 78.5719 54.7507 78.3514 54.5826 78.9067C53.794 79.7494 53.8053 79.6385 52.8635 79.1852L43.3252 74.7661C44.4509 72.19 44.9725 69.9413 47.5406 68.8193ZM48.9018 75.2426L49.2595 75.3678C50.8223 73.9361 51.2051 70.6772 48.0595 70.5716C46.7648 71.352 46.4179 72.4561 45.7727 73.8141L48.9018 75.2426Z" fill="white"></path>
<path d="M33.9672 98.522C35.7979 100.715 32.2745 101.239 31.8778 103.536C31.3388 106.655 35.3235 109.722 38.1516 107.818C39.8636 106.666 40.1634 105.592 40.6306 103.698L38.9154 102.835C38.8659 102.961 38.8155 103.086 38.7641 103.211C38.4162 104.057 38.4218 104.142 37.655 104.462L37.2702 104.302C36.5013 103.076 37.1272 101.648 38.1518 100.794C38.8042 100.635 38.765 100.757 39.4676 101.072L42.3706 102.4C42.3636 107.144 39.7826 111.72 34.4124 110.087C32.7939 109.597 31.4401 108.477 30.6539 106.98C28.8148 103.448 30.6762 100.207 33.9672 98.522Z" fill="white"></path>
<path d="M42.0291 77.4783C43.0325 77.6382 45.0734 78.7961 46.114 79.1684C49.3087 80.3112 52.8712 82.9306 50.9675 86.8784C50.4859 87.8821 49.6212 88.6501 48.5679 89.0098C45.8671 89.9502 42.3023 87.6832 39.7429 86.4656C39.182 86.2298 38.9082 86.1363 38.4275 85.7395C38.3834 85.1189 38.3714 85.3306 38.7117 84.7141C41.2407 83.277 46.7001 90.0915 49.3844 86.0063C51.7623 82.3876 43.4211 80.6987 41.5315 79.1246C41.3886 78.6627 41.8098 77.9583 42.0291 77.4783Z" fill="white"></path>
</svg>