<svg width="377" height="165" viewBox="0 0 377 165" fill="none" xmlns="http://www.w3.org/2000/svg">
<path d="M102.139 80.2963C105.014 80.2774 109.509 80.1783 112.222 80.5463C114.043 80.7955 115.82 81.2994 117.5 82.0434C125.072 85.3984 126.728 94.797 121.949 101.278C120.613 103.089 119.159 104.551 117.02 105.372C117.19 105.418 117.359 105.469 117.527 105.523C120.857 106.593 124.098 109.573 125.261 112.896C126.831 117.384 126.32 121.783 124.886 126.199C124.224 127.847 122.735 129.682 121.455 130.9C116.344 135.761 108.36 135.081 101.843 135.081C98.1404 135.1 94.4381 135.087 90.7361 135.039C90.5218 129.386 90.7107 122.245 90.7107 116.474L90.7176 80.3627C94.346 80.2047 98.4682 80.3207 102.139 80.2963ZM112.712 114.012C110.271 111.525 105.516 111.944 102.267 111.975L102.264 124.918C106.011 124.951 109.465 125.478 112.509 123.216C114.903 120.793 115.101 116.448 112.712 114.012ZM112.356 94.2651C111.619 89.8496 105.63 90.3564 102.267 90.3891L102.249 101.793C104.499 101.81 109.31 102.21 110.934 100.416C112.216 98.6404 112.729 96.4231 112.356 94.2651Z" fill="white"></path>
<path d="M217.725 80.6455C218.766 80.7613 220.809 80.7161 221.923 80.7178C224.354 80.7115 226.787 80.7287 229.218 80.7705L229.228 133.575C226.248 133.612 220.493 133.36 217.723 133.667C217.709 132.859 217.636 131.983 217.583 131.172C215.04 134.167 210.578 135.084 206.832 134.477C204.879 134.177 203.03 133.404 201.445 132.225C198.064 129.659 195.966 124.341 195.445 120.224C194.541 113.179 195.453 105.769 199.788 99.9463C203.892 94.4321 212.152 93.0693 217.661 97.3193C217.797 91.8467 217.674 86.1522 217.725 80.6455ZM211.923 105.435C210.069 107.013 209.4 110.116 209.276 112.457C209.131 115.199 208.604 124.05 212.946 123.948C214.918 122.286 215.424 119.503 215.626 117.044C215.842 114.419 216.301 105.116 211.923 105.435Z" fill="white"></path>
<path d="M196.604 42.0934C212.146 40.8839 213.977 61.9131 207.781 71.8141C203.84 78.1132 195.638 80.2898 189.315 76.1305C189.515 78.3036 189.402 82.0958 189.402 84.3795C189.415 85.3496 189.371 86.4061 189.347 87.3834L177.352 87.3277C177.163 82.2944 177.293 76.584 177.294 71.5064L177.301 43.193C180.781 43.5572 184.933 42.9642 188.475 43.2467C189.95 43.3642 188.943 43.7748 189.57 44.4068C189.995 44.3869 191.044 43.4628 191.648 43.2389C193.342 42.6113 194.827 42.2914 196.604 42.0934ZM198.708 56.1607C198.266 53.4797 196.583 51.9238 193.852 52.0856C190.983 52.8226 189.724 55.2513 189.443 58.0221C189.063 61.7789 189.143 68.2701 194.508 67.9068C199.32 67.0273 199.312 59.8394 198.708 56.1607Z" fill="white"></path>
<path d="M144.617 94.9653C161.531 94.5587 164.211 117.815 156.462 128.694C153.804 132.427 150.501 133.853 146.043 134.501C134.829 134.974 129.083 128.916 128.04 117.831C127.036 107.167 130.751 96.123 142.867 95.021C143.38 94.9478 144.086 94.978 144.617 94.9653ZM144.124 105.164C139.659 105.886 140.29 118.492 141.578 121.656C142.305 123.443 142.871 123.867 144.739 124C145.973 123.422 146.505 123.158 146.958 121.751C147.869 118.92 148.048 115.661 147.886 112.705C147.766 110.513 147.506 106.44 145.259 105.336C145.021 105.222 144.397 105.181 144.124 105.164Z" fill="white"></path>
<path d="M125.451 29.1515C130.861 28.7964 133.561 29.3435 138.455 31.1619C138.475 33.9841 138.474 36.8064 138.454 39.6286C138.452 41.1472 138.394 43.1321 138.593 44.5998C134.69 41.4737 133.339 39.9421 127.942 39.8287C123.875 39.7434 120.251 42.3959 124.435 45.8863C125.356 46.6548 126.947 47.2804 128.052 47.8484C131.227 49.4617 134.583 51.0965 137.158 53.6127C142.095 58.4382 142.149 68.5994 137.239 73.4383C132.858 77.7555 127.119 78.3264 121.228 78.2362C116.516 77.8918 113.699 77.1781 109.6 74.9281C109.727 70.5228 109.61 65.6378 109.649 61.1797C110.741 61.9732 111.722 62.9828 112.836 63.819C116.088 66.5131 124.373 69.6114 127.735 65.8162C131.075 62.0452 120.42 58.0792 118.228 56.9131C117.069 56.2922 115.976 55.5557 114.965 54.715C109.339 49.9774 108.288 40.8503 112.93 34.84C115.761 31.176 120.915 29.5412 125.451 29.1515Z" fill="white"></path>
<path d="M246.082 94.8851C249.703 94.4306 254.784 95.8138 257.363 98.5287C262.798 104.251 262.581 111.634 262.549 118.991C255.966 118.981 249.02 118.868 242.482 119.053C242.831 120.342 243.207 121.958 244.241 122.826C248.294 126.22 256.227 124.153 259.47 120.629L259.478 125.24C259.483 126.828 259.819 131.073 258.957 131.993C257.062 133.599 252.854 134.247 250.564 134.548C239.584 135.814 232.286 130.08 231.077 119.131C229.894 108.394 233.547 96.0181 246.082 94.8851ZM246.326 104.61C243.917 105.757 243.323 107.457 242.469 109.836C244.133 109.87 245.799 109.886 247.464 109.883L251.363 109.844C250.625 106.398 250.537 104.435 246.326 104.61Z" fill="white"></path>
<path d="M181.335 94.881C181.618 94.8525 181.901 94.8355 182.186 94.8299C194.423 94.6478 193.644 108.392 193.665 116.937L193.631 133.578L181.825 133.587C182.134 127.937 181.636 121.775 181.842 116.071C181.953 112.974 181.974 108.584 180.201 105.974C177.417 104.603 175.887 105.771 174.452 108.126C173.213 111.035 173.561 116.227 173.564 119.469L173.561 133.642C169.704 133.526 165.844 133.529 161.987 133.654C161.95 132.2 161.957 130.711 161.966 129.255C162.034 118.119 161.838 106.953 161.991 95.8211C165.685 95.9694 169.847 95.9102 173.572 95.9337L173.565 98.8811C175.617 96.4028 178.18 95.2036 181.335 94.881Z" fill="white"></path>
<path d="M229.236 42.0737C232.944 42.0419 236.47 42.9745 239.106 45.6694C244.033 50.7037 243.473 58.15 243.497 64.6069C242.71 64.6024 241.739 64.6827 240.936 64.7299C240.875 67.9513 241.083 72.3696 240.849 75.4711C236.962 77.8807 232.891 78.2862 228.466 78.2543C224.936 78.1816 221.537 76.8989 218.838 74.6215C215.595 71.8808 213.657 67.7648 213.353 63.56C212.912 57.4694 213.515 52.1445 217.605 47.352C220.763 43.65 223.817 42.4914 228.508 42.1039C228.75 42.0856 228.994 42.0758 229.236 42.0737ZM240.223 64.8315C239.885 64.768 239.834 64.7626 239.495 64.8129C234.705 64.9342 229.931 64.8044 225.156 64.8901C225.787 66.0506 226.258 67.0263 227.168 68.0063C229.608 69.1332 232.825 69.016 235.325 68.1205C236.734 67.6157 239.238 66.1473 240.198 65.019L240.223 64.8315ZM232.772 56.2231C232.009 53.1534 232.006 51.6209 228.464 51.8207C227.597 51.9527 227.354 51.9389 226.839 52.6508C226.097 53.6762 225.697 55.0467 225.202 56.224L229.501 56.2465L232.772 56.2231Z" fill="white"></path>
<path d="M162.264 43.179C165.71 43.3892 170.848 43.2422 174.427 43.2515L174.427 56.3194L174.432 78.2771C170.388 78.3585 166.345 78.2374 162.292 78.3573C162.269 77.295 162.233 76.2329 162.185 75.1715C162.091 75.2871 161.991 75.3975 161.886 75.5022C156.333 81.0179 145.666 77.9129 144 70.1936C142.992 65.5248 143.199 61.0184 143.203 56.2967L143.224 43.193C144.027 43.2895 146.375 43.2377 147.327 43.2387C149.939 43.2508 152.552 43.2457 155.164 43.2234L155.143 56.7045C155.139 59.257 154.683 64.8864 156.387 67.0863C157.587 68.6366 161.621 68.1108 161.981 65.4884C162.388 62.52 162.269 59.6084 162.265 56.5596L162.264 43.179Z" fill="white"></path>
<path d="M282.129 95.1496C283.676 94.9384 285.277 95.3127 286.787 95.6182C286.962 96.8373 286.912 99.1168 286.912 100.428L286.871 108.877C282.002 105.663 277.863 105.633 276.593 112.401C276.083 115.113 276.273 118.269 276.273 121.043L276.277 133.609C273.799 133.546 271.224 133.575 268.738 133.569L264.087 133.581C263.918 121.171 264.053 108.308 264.09 95.8689C267.635 96.0572 272.632 95.8998 276.344 95.9187L276.185 98.3734C278.086 96.3992 279.342 95.5139 282.129 95.1496Z" fill="white"></path>
<path d="M263.043 42.3742C264.912 42.2235 265.933 42.2943 267.679 42.9399C267.852 44.0565 267.777 46.0791 267.784 47.2458C267.797 50.0391 267.704 52.7993 267.841 55.5957C266.324 54.5888 264.49 53.2912 262.615 53.3416C256.908 53.4951 257.779 62.8604 257.78 66.6119L257.797 78.2409C255.683 78.3323 253.488 78.3049 251.366 78.3049C249.558 78.3014 247.483 78.2571 245.7 78.3571C245.588 73.9059 245.677 69.0372 245.675 64.5499L245.702 43.2042C249.364 43.4732 253.48 43.027 257.176 43.2637C257.752 43.3006 257.642 44.024 258.259 44.2054C259.028 43.4978 259.004 43.2953 260.096 42.965C261.129 42.6519 261.972 42.4978 263.043 42.3742Z" fill="white"></path>
</svg>