<svg width="377" height="165" viewBox="0 0 377 165" fill="none" xmlns="http://www.w3.org/2000/svg">
<g clip-path="url(#clip0_1049_6422)">
<g clip-path="url(#clip1_1049_6422)">
<path d="M199.673 58.3248C199.798 58.6235 199.748 58.6733 199.499 58.5239C199.25 58.3746 199.2 58.4243 199.325 58.7231C199.399 58.972 199.375 59.1463 199.25 59.1463C199.126 59.1463 199.101 59.3206 199.175 59.5695C199.3 59.8682 199.25 59.918 199.001 59.7687C198.752 59.6193 198.702 59.6691 198.827 59.9678C198.902 60.2168 198.877 60.391 198.752 60.391C198.628 60.391 198.603 60.5653 198.677 60.8143C198.777 61.0881 198.752 61.1628 198.553 61.0383C198.354 60.9138 198.304 60.9885 198.404 61.2375C198.478 61.4615 198.429 61.6358 198.254 61.6358C198.105 61.6358 198.055 61.7354 198.13 61.8847C198.204 62.0092 198.18 62.1337 198.03 62.1337C197.881 62.1337 197.856 62.308 197.931 62.5569C198.055 62.8556 198.005 62.9054 197.756 62.7561C197.507 62.6067 197.458 62.6565 197.582 62.9552C197.657 63.2042 197.632 63.3784 197.507 63.3784C197.383 63.3784 197.358 63.5527 197.433 63.8017C197.557 64.1004 197.507 64.1502 197.258 64.0008C197.01 63.8514 196.96 63.9012 197.084 64.2C197.159 64.4489 197.134 64.6232 197.01 64.6232C196.885 64.6232 196.86 64.7975 196.935 65.0464C197.034 65.3202 197.01 65.3949 196.81 65.2705C196.611 65.146 196.561 65.2207 196.661 65.4696C196.736 65.6937 196.686 65.8679 196.512 65.8679C196.362 65.8679 196.312 65.9675 196.387 66.1169C196.462 66.2414 196.437 66.3658 196.288 66.3658C196.138 66.3658 196.113 66.5401 196.188 66.789C196.312 67.0878 196.263 67.1376 196.014 66.9882C195.765 66.8388 195.715 66.8886 195.839 67.1874C195.914 67.4363 195.889 67.6106 195.765 67.6106C195.64 67.6106 195.615 67.7848 195.69 68.0338C195.815 68.3325 195.765 68.3823 195.516 68.233C195.267 68.0836 195.217 68.1334 195.342 68.4321C195.416 68.6811 195.391 68.8553 195.267 68.8553C195.142 68.8553 195.117 69.0296 195.192 69.2785C195.292 69.5524 195.267 69.6271 195.068 69.5026C194.869 69.3781 194.819 69.4528 194.918 69.7018C194.993 69.9258 194.943 70.1001 194.769 70.1001C194.62 70.1001 194.57 70.1997 194.644 70.349C194.719 70.4735 194.694 70.598 194.545 70.598C194.396 70.598 194.371 70.7722 194.445 71.0212C194.57 71.3199 194.52 71.3697 194.271 71.2204C194.022 71.071 193.972 71.1208 194.097 71.4195C194.171 71.6685 194.147 71.8427 194.022 71.8427C193.898 71.8427 193.873 72.017 193.947 72.2659C194.072 72.5647 194.022 72.6145 193.773 72.4651C193.524 72.3157 193.474 72.3655 193.599 72.6643C193.674 72.9132 193.649 73.0875 193.499 73.0875C193.35 73.0875 193.3 73.1871 193.375 73.3115C193.599 73.6601 193.25 74.3571 192.952 74.158C192.802 74.0584 192.752 74.158 192.852 74.4069C192.927 74.6559 192.902 74.8301 192.777 74.8301C192.653 74.8301 192.628 75.0044 192.703 75.2533C192.827 75.5521 192.777 75.6019 192.528 75.4525C192.279 75.3031 192.23 75.3529 192.354 75.6517C192.429 75.9006 192.404 76.0749 192.279 76.0749C192.155 76.0749 192.13 76.2491 192.205 76.4981C192.329 76.7968 192.279 76.8466 192.031 76.6972C191.782 76.5479 191.732 76.5977 191.856 76.8964C191.931 77.1454 191.906 77.3196 191.757 77.3196C191.607 77.3196 191.582 77.4192 191.657 77.5686C191.732 77.693 191.707 77.8175 191.558 77.8175C191.408 77.8175 191.383 77.9918 191.458 78.2407C191.582 78.5395 191.533 78.5893 191.284 78.4399C191.035 78.2905 190.985 78.3403 191.109 78.6391C191.184 78.888 191.159 79.0623 191.035 79.0623C190.91 79.0623 190.885 79.2365 190.96 79.4855C191.085 79.7842 191.035 79.834 190.786 79.6846C190.537 79.5353 190.487 79.5851 190.612 79.8838C190.686 80.1328 190.661 80.307 190.537 80.307C190.412 80.307 190.387 80.4813 190.462 80.7302C190.587 81.029 190.537 81.0788 190.288 80.9294C190.039 80.78 189.989 80.8298 190.114 81.1285C190.188 81.3775 190.163 81.5518 190.014 81.5518C189.865 81.5518 189.84 81.6513 189.914 81.8007C189.989 81.9252 189.964 82.0497 189.815 82.0497C189.665 82.0497 189.616 82.2239 189.69 82.4231C189.79 82.6222 189.715 82.7965 189.541 82.7965C189.392 82.7965 189.342 82.8961 189.417 83.0455C189.491 83.1699 189.466 83.2944 189.317 83.2944C189.168 83.2944 189.143 83.4687 189.217 83.7176C189.342 84.0164 189.292 84.0662 189.043 83.9168C188.794 83.7674 188.744 83.8172 188.869 84.1159C188.944 84.3649 188.919 84.5392 188.794 84.5392C188.67 84.5392 188.645 84.7134 188.719 84.9624C188.844 85.2611 188.794 85.3109 188.545 85.1615C188.296 85.0122 188.246 85.062 188.371 85.3607C188.446 85.6096 188.421 85.7839 188.271 85.7839C188.122 85.7839 188.097 85.8835 188.172 86.0329C188.246 86.1573 188.222 86.2818 188.072 86.2818C187.923 86.2818 187.873 86.4561 187.948 86.6552C188.047 86.8544 187.973 87.0287 187.798 87.0287C187.649 87.0287 187.599 87.1282 187.674 87.2776C187.749 87.4021 187.724 87.5266 187.574 87.5266C187.425 87.5266 187.4 87.7008 187.475 87.9498C187.599 88.2485 187.549 88.2983 187.3 88.1489C187.052 87.9996 187.002 88.0493 187.126 88.3481C187.201 88.597 187.176 88.7713 187.027 88.7713C186.877 88.7713 186.852 88.8709 186.927 89.0203C187.002 89.1447 186.952 89.2692 186.803 89.2692C186.628 89.2692 186.554 89.4435 186.653 89.6426C186.728 89.8418 186.678 90.0161 186.529 90.0161C186.379 90.0161 186.354 90.1156 186.429 90.265C186.504 90.3895 186.479 90.514 186.33 90.514C186.18 90.514 186.155 90.6882 186.23 90.9372C186.354 91.2359 186.305 91.2857 186.056 91.1363C185.807 90.987 185.757 91.0367 185.881 91.3355C185.956 91.5844 185.931 91.7587 185.807 91.7587C185.682 91.7587 185.657 91.933 185.732 92.1819C185.857 92.4807 185.807 92.5304 185.558 92.3811C185.309 92.2317 185.259 92.2815 185.384 92.5802C185.458 92.8292 185.433 93.0034 185.284 93.0034C185.135 93.0034 185.11 93.103 185.184 93.2524C185.259 93.3769 185.209 93.5013 185.06 93.5013C184.886 93.5013 184.811 93.6756 184.911 93.8748C184.985 94.0739 184.935 94.2482 184.786 94.2482C184.637 94.2482 184.612 94.3478 184.687 94.4971C184.761 94.6216 184.736 94.7461 184.587 94.7461C184.438 94.7461 184.413 94.9204 184.487 95.1693C184.612 95.468 184.562 95.5178 184.313 95.3685C184.064 95.2191 184.014 95.2689 184.139 95.5676C184.214 95.8166 184.189 95.9908 184.064 95.9908C183.94 95.9908 183.915 96.1651 183.989 96.4141C184.114 96.7128 184.064 96.7626 183.815 96.6132C183.566 96.4638 183.516 96.5136 183.641 96.8124C183.716 97.0613 183.691 97.2356 183.541 97.2356C183.392 97.2356 183.367 97.3352 183.442 97.4845C183.516 97.609 183.492 97.7335 183.342 97.7335C183.193 97.7335 183.168 97.9078 183.243 98.1567C183.367 98.4554 183.317 98.5052 183.068 98.3559C182.819 98.2065 182.77 98.2563 182.894 98.555C182.969 98.804 182.944 98.9782 182.819 98.9782C182.695 98.9782 182.67 99.1525 182.745 99.4015C182.869 99.7002 182.819 99.75 182.57 99.6006C182.321 99.4512 182.272 99.501 182.396 99.7998C182.471 100.049 182.446 100.223 182.321 100.223C182.197 100.223 182.172 100.397 182.247 100.646C182.371 100.945 182.321 100.995 182.073 100.845C181.824 100.696 181.774 100.746 181.898 101.045C181.973 101.293 181.948 101.468 181.799 101.468C181.649 101.468 181.624 101.567 181.699 101.717C181.774 101.841 181.749 101.966 181.6 101.966C181.45 101.966 181.425 102.14 181.5 102.389C181.624 102.688 181.575 102.737 181.326 102.588C181.077 102.439 181.027 102.488 181.151 102.787C181.226 103.036 181.201 103.21 181.077 103.21C180.952 103.21 180.927 103.385 181.002 103.634C181.127 103.932 181.077 103.982 180.828 103.833C180.579 103.683 180.529 103.733 180.654 104.032C180.728 104.281 180.703 104.455 180.579 104.455C180.454 104.455 180.429 104.629 180.504 104.878C180.629 105.177 180.579 105.227 180.33 105.078C180.081 104.928 180.031 104.978 180.156 105.277C180.23 105.526 180.205 105.7 180.056 105.7C179.907 105.7 179.882 105.824 179.956 105.949C180.031 106.098 180.006 106.198 179.907 106.198C179.782 106.198 179.683 106.397 179.683 106.646C179.683 107.019 179.857 107.069 180.853 106.945C181.5 106.845 182.645 106.87 183.417 106.945C184.164 107.019 184.711 106.994 184.662 106.895C184.587 106.795 184.612 106.696 184.736 106.696C184.836 106.696 184.96 106.347 184.96 105.899C184.985 105.451 185.11 105.053 185.259 105.003C185.384 104.978 185.433 104.704 185.359 104.405C185.259 104.032 185.309 103.932 185.533 104.082C185.782 104.206 185.807 104.131 185.682 103.733C185.583 103.434 185.633 103.21 185.782 103.21C185.931 103.21 185.981 103.036 185.906 102.837C185.807 102.638 185.881 102.464 186.031 102.464C186.18 102.464 186.23 102.289 186.155 102.09C186.056 101.891 186.13 101.717 186.28 101.717C186.429 101.717 186.479 101.542 186.404 101.343C186.305 101.144 186.379 100.97 186.529 100.97C186.678 100.97 186.728 100.796 186.653 100.596C186.554 100.397 186.628 100.223 186.778 100.223C186.927 100.223 186.977 100.049 186.902 99.8496C186.803 99.6504 186.877 99.4761 187.027 99.4761C187.176 99.4761 187.226 99.3019 187.151 99.1027C187.052 98.9036 187.126 98.7293 187.276 98.7293C187.425 98.7293 187.475 98.555 187.4 98.3559C187.3 98.1567 187.375 97.9824 187.525 97.9824C187.674 97.9824 187.724 97.8082 187.649 97.609C187.549 97.4099 187.624 97.2356 187.773 97.2356C187.923 97.2356 187.973 97.0613 187.898 96.8622C187.798 96.663 187.873 96.4887 188.022 96.4887C188.172 96.4887 188.222 96.3145 188.147 96.1153C188.047 95.9162 188.122 95.7419 188.271 95.7419C188.421 95.7419 188.471 95.5676 188.371 95.3187C188.246 95.0199 188.296 94.9701 188.545 95.1195C188.794 95.2689 188.844 95.2191 188.719 94.9204C188.645 94.6714 188.67 94.4971 188.794 94.4971C188.919 94.4971 188.968 94.3229 188.894 94.1237C188.794 93.9246 188.869 93.7503 189.018 93.7503C189.168 93.7503 189.217 93.576 189.143 93.3769C189.043 93.1777 189.118 93.0034 189.267 93.0034C189.417 93.0034 189.466 92.8292 189.367 92.5802C189.242 92.2815 189.292 92.2317 189.541 92.3811C189.79 92.5304 189.84 92.4807 189.715 92.1819C189.641 91.933 189.641 91.7587 189.765 91.7587C189.89 91.7587 189.989 91.6093 189.964 91.4351C189.939 90.5886 190.064 90.2401 190.338 90.4144C190.537 90.5388 190.562 90.4642 190.462 90.1903C190.363 89.9414 190.412 89.7671 190.562 89.7671C190.711 89.7671 190.786 89.5928 190.686 89.3937C190.612 89.1945 190.636 89.0203 190.761 89.0203C190.885 89.0203 190.96 88.8211 190.935 88.5721C190.91 88.1738 191.458 88.1489 199.126 88.1489C206.992 88.1489 207.341 88.1738 207.266 88.6219C207.216 88.9207 207.291 89.0203 207.49 88.8709C207.714 88.7464 207.739 88.8211 207.64 89.0949C207.565 89.3439 207.59 89.5182 207.714 89.5182C207.839 89.5182 207.889 89.6924 207.814 89.8916C207.714 90.0907 207.789 90.265 207.963 90.265C208.113 90.265 208.162 90.3895 208.088 90.514C208.013 90.6633 208.038 90.7629 208.187 90.7629C208.337 90.7629 208.387 90.9372 208.312 91.1363C208.212 91.3355 208.287 91.5097 208.461 91.5097C208.611 91.5097 208.66 91.6093 208.586 91.7587C208.511 91.8832 208.561 92.0076 208.71 92.0076C208.884 92.0076 208.959 92.1819 208.86 92.3811C208.785 92.5802 208.835 92.7545 208.959 92.7545C209.084 92.7545 209.133 92.9288 209.059 93.1279C208.959 93.3271 209.034 93.5013 209.208 93.5013C209.357 93.5013 209.407 93.6009 209.333 93.7503C209.258 93.8748 209.308 93.9992 209.457 93.9992C209.631 93.9992 209.706 94.1735 209.606 94.3727C209.532 94.5718 209.581 94.7461 209.706 94.7461C209.83 94.7461 209.88 94.9204 209.806 95.1195C209.706 95.3187 209.781 95.4929 209.955 95.4929C210.104 95.4929 210.154 95.5925 210.079 95.7419C210.005 95.8664 210.054 95.9908 210.204 95.9908C210.378 95.9908 210.453 96.1651 210.353 96.3643C210.279 96.5634 210.328 96.7377 210.478 96.7377C210.627 96.7377 210.702 96.912 210.602 97.1111C210.527 97.3103 210.577 97.4845 210.702 97.4845C210.826 97.4845 210.876 97.6588 210.801 97.858C210.702 98.0571 210.776 98.2314 210.926 98.2314C211.075 98.2314 211.125 98.4057 211.05 98.6048C210.951 98.804 211.025 98.9782 211.175 98.9782C211.324 98.9782 211.374 99.1525 211.274 99.4015C211.15 99.7002 211.2 99.75 211.449 99.6006C211.698 99.4512 211.747 99.501 211.623 99.7998C211.523 100.049 211.573 100.223 211.722 100.223C211.872 100.223 211.946 100.397 211.847 100.596C211.772 100.796 211.822 100.97 211.971 100.97C212.121 100.97 212.195 101.144 212.096 101.343C212.021 101.542 212.071 101.717 212.22 101.717C212.37 101.717 212.444 101.891 212.345 102.09C212.27 102.289 212.32 102.464 212.469 102.464C212.619 102.464 212.693 102.638 212.594 102.837C212.519 103.036 212.569 103.21 212.718 103.21C212.868 103.21 212.942 103.385 212.843 103.584C212.768 103.783 212.818 103.957 212.967 103.957C213.117 103.957 213.191 104.131 213.092 104.331C213.017 104.53 213.067 104.704 213.216 104.704C213.366 104.704 213.44 104.878 213.341 105.078C213.266 105.277 213.316 105.451 213.465 105.451C213.614 105.451 213.689 105.625 213.59 105.824C213.515 106.024 213.565 106.198 213.714 106.198C213.839 106.198 213.938 106.397 213.888 106.621C213.839 106.92 213.938 107.044 214.187 106.994C214.809 106.845 220.635 106.895 220.884 107.044C220.983 107.119 221.108 106.92 221.108 106.571C221.108 106.198 220.983 106.024 220.834 106.123C220.685 106.223 220.635 106.123 220.734 105.874C220.809 105.625 220.784 105.451 220.66 105.451C220.535 105.451 220.51 105.277 220.585 105.028C220.71 104.729 220.66 104.679 220.411 104.829C220.162 104.978 220.112 104.928 220.237 104.629C220.336 104.38 220.286 104.206 220.137 104.206C219.988 104.206 219.938 104.032 220.012 103.808C220.112 103.559 220.062 103.484 219.863 103.609C219.664 103.733 219.639 103.658 219.739 103.385C219.813 103.136 219.788 102.961 219.664 102.961C219.539 102.961 219.515 102.787 219.589 102.538C219.714 102.239 219.664 102.19 219.415 102.339C219.166 102.488 219.116 102.439 219.241 102.14C219.34 101.891 219.291 101.717 219.141 101.717C218.992 101.717 218.942 101.542 219.017 101.318C219.116 101.069 219.066 100.995 218.867 101.119C218.668 101.244 218.643 101.169 218.743 100.895C218.842 100.646 218.793 100.472 218.643 100.472C218.494 100.472 218.444 100.298 218.519 100.074C218.618 99.8247 218.569 99.75 218.369 99.8745C218.17 99.9989 218.145 99.9242 218.245 99.6504C218.344 99.4015 218.295 99.2272 218.145 99.2272C217.996 99.2272 217.946 99.0529 218.021 98.8289C218.12 98.5799 218.071 98.5052 217.871 98.6297C217.672 98.7542 217.647 98.6795 217.747 98.4057C217.847 98.1567 217.797 97.9824 217.647 97.9824C217.498 97.9824 217.423 97.8082 217.523 97.609C217.598 97.4099 217.548 97.2356 217.423 97.2356C217.299 97.2356 217.274 97.0613 217.349 96.8124C217.473 96.5136 217.423 96.4638 217.174 96.6132C216.925 96.7626 216.876 96.7128 217 96.4141C217.075 96.1651 217.05 95.9908 216.925 95.9908C216.801 95.9908 216.776 95.8166 216.851 95.5676C216.975 95.2689 216.925 95.2191 216.677 95.3685C216.428 95.5178 216.378 95.468 216.502 95.1693C216.577 94.9204 216.552 94.7461 216.428 94.7461C216.303 94.7461 216.278 94.5718 216.353 94.3229C216.477 94.0241 216.428 93.9744 216.179 94.1237C215.93 94.2731 215.88 94.2233 216.004 93.9246C216.079 93.6756 216.054 93.5013 215.93 93.5013C215.805 93.5013 215.78 93.3271 215.855 93.0781C215.979 92.7794 215.93 92.7296 215.681 92.879C215.432 93.0283 215.382 92.9786 215.506 92.6798C215.606 92.4309 215.556 92.2566 215.407 92.2566C215.258 92.2566 215.208 92.0823 215.282 91.8583C215.382 91.6093 215.332 91.5346 215.133 91.6591C214.934 91.7836 214.909 91.7089 215.009 91.4351C215.108 91.1861 215.058 91.0118 214.909 91.0118C214.76 91.0118 214.71 90.8376 214.785 90.6135C214.884 90.3646 214.834 90.2899 214.635 90.4144C214.436 90.5388 214.411 90.4642 214.511 90.1903C214.61 89.9414 214.56 89.7671 214.411 89.7671C214.262 89.7671 214.212 89.5928 214.287 89.3688C214.386 89.1198 214.336 89.0451 214.137 89.1696C213.938 89.2941 213.913 89.2194 214.013 88.9456C214.112 88.6966 214.063 88.5224 213.913 88.5224C213.764 88.5224 213.714 88.3481 213.789 88.124C213.888 87.8751 213.839 87.8004 213.639 87.9249C213.44 88.0493 213.415 87.9747 213.515 87.7008C213.614 87.4519 213.565 87.2776 213.415 87.2776C213.266 87.2776 213.216 87.1033 213.291 86.8793C213.39 86.6303 213.341 86.5557 213.141 86.6801C212.942 86.8046 212.917 86.7299 213.017 86.4561C213.117 86.2071 213.067 86.0329 212.917 86.0329C212.768 86.0329 212.693 85.8586 212.793 85.6594C212.868 85.4603 212.818 85.286 212.668 85.286C212.519 85.286 212.494 85.1615 212.569 85.0371C212.644 84.8877 212.594 84.7881 212.444 84.7881C212.27 84.7881 212.195 84.6138 212.295 84.4147C212.37 84.2155 212.32 84.0413 212.195 84.0413C212.071 84.0413 212.046 83.867 212.121 83.618C212.22 83.3442 212.195 83.2695 211.996 83.394C211.797 83.5185 211.747 83.4438 211.847 83.1948C211.922 82.9708 211.872 82.7965 211.722 82.7965C211.573 82.7965 211.523 82.6222 211.623 82.3733C211.747 82.0746 211.698 82.0248 211.449 82.1741C211.2 82.3235 211.15 82.2737 211.274 81.975C211.349 81.726 211.324 81.5518 211.2 81.5518C211.075 81.5518 211.05 81.3775 211.125 81.1285C211.225 80.8547 211.2 80.78 211 80.9045C210.801 81.029 210.752 80.9543 210.851 80.7053C210.926 80.4813 210.876 80.307 210.727 80.307C210.577 80.307 210.527 80.1328 210.627 79.8838C210.727 79.61 210.702 79.5353 210.503 79.6597C210.303 79.7842 210.254 79.7095 210.353 79.4606C210.428 79.2365 210.378 79.0623 210.229 79.0623C210.079 79.0623 210.03 78.888 210.129 78.6391C210.254 78.3403 210.204 78.2905 209.955 78.4399C209.706 78.5893 209.656 78.5395 209.781 78.2407C209.855 77.9918 209.83 77.8175 209.706 77.8175C209.581 77.8175 209.557 77.6433 209.631 77.3943C209.756 77.0956 209.706 77.0458 209.457 77.1951C209.208 77.3445 209.158 77.2947 209.283 76.996C209.357 76.747 209.333 76.5728 209.208 76.5728C209.084 76.5728 209.059 76.3985 209.133 76.1496C209.258 75.8508 209.208 75.801 208.959 75.9504C208.71 76.0998 208.66 76.05 208.785 75.7512C208.86 75.5023 208.835 75.328 208.71 75.328C208.586 75.328 208.561 75.1538 208.635 74.9048C208.76 74.6061 208.71 74.5563 208.461 74.7056C208.212 74.855 208.162 74.8052 208.287 74.5065C208.362 74.2575 208.337 74.0833 208.212 74.0833C208.088 74.0833 208.063 73.909 208.138 73.6601C208.262 73.3613 208.212 73.3115 207.963 73.4609C207.714 73.6103 207.665 73.5605 207.789 73.2617C207.864 73.0128 207.839 72.8385 207.714 72.8385C207.59 72.8385 207.565 72.6643 207.64 72.4153C207.764 72.1166 207.714 72.0668 207.465 72.2162C207.216 72.3655 207.167 72.3157 207.291 72.017C207.366 71.768 207.341 71.5938 207.216 71.5938C207.092 71.5938 207.042 71.4195 207.117 71.2204C207.216 71.0212 207.142 70.8469 206.967 70.8469C206.818 70.8469 206.768 70.7225 206.843 70.598C206.918 70.4486 206.893 70.349 206.743 70.349C206.594 70.349 206.544 70.1748 206.619 69.9756C206.719 69.7764 206.644 69.6022 206.47 69.6022C206.32 69.6022 206.27 69.4777 206.345 69.3532C206.42 69.2039 206.395 69.1043 206.246 69.1043C206.096 69.1043 206.046 68.93 206.121 68.7309C206.221 68.5317 206.146 68.3574 205.972 68.3574C205.822 68.3574 205.773 68.233 205.847 68.1085C205.922 67.9591 205.897 67.8595 205.748 67.8595C205.598 67.8595 205.548 67.6853 205.623 67.4861C205.723 67.2869 205.648 67.1127 205.474 67.1127C205.324 67.1127 205.275 66.9882 205.349 66.8637C205.424 66.7144 205.374 66.6148 205.225 66.6148C205.051 66.6148 204.976 66.4405 205.075 66.2414C205.15 66.0422 205.1 65.8679 204.951 65.8679C204.802 65.8679 204.777 65.7435 204.851 65.619C204.926 65.4696 204.876 65.37 204.727 65.37C204.553 65.37 204.478 65.1958 204.578 64.9966C204.652 64.7975 204.602 64.6232 204.478 64.6232C204.354 64.6232 204.329 64.4489 204.403 64.2C204.528 63.9012 204.478 63.8514 204.229 64.0008C203.98 64.1502 203.93 64.1004 204.055 63.8017C204.129 63.5527 204.105 63.3784 203.98 63.3784C203.856 63.3784 203.831 63.2042 203.905 62.9552C204.03 62.6565 203.98 62.6067 203.731 62.7561C203.482 62.9054 203.432 62.8556 203.557 62.5569C203.632 62.308 203.607 62.1337 203.482 62.1337C203.358 62.1337 203.333 61.9594 203.408 61.7105C203.532 61.4117 203.482 61.3619 203.233 61.5113C202.984 61.6607 202.935 61.6109 203.059 61.3122C203.159 61.0632 203.109 60.8889 202.959 60.8889C202.81 60.8889 202.76 60.7147 202.835 60.4906C202.935 60.2417 202.885 60.167 202.686 60.2915C202.486 60.4159 202.462 60.3413 202.561 60.0674C202.636 59.8185 202.611 59.6442 202.486 59.6442C202.362 59.6442 202.337 59.4699 202.412 59.221C202.536 58.9222 202.486 58.8725 202.237 59.0218C202.038 59.1463 201.964 59.0965 202.038 58.8725C202.237 58.2999 201.59 57.9015 200.52 57.9015C199.673 57.9015 199.549 57.9762 199.673 58.3248ZM199.599 68.9051C199.524 69.0047 199.574 69.1043 199.723 69.1043C199.872 69.1043 199.922 69.2785 199.848 69.4777C199.748 69.6769 199.823 69.8511 199.997 69.8511C200.146 69.8511 200.196 69.9507 200.121 70.1001C200.047 70.2246 200.072 70.349 200.221 70.349C200.37 70.349 200.42 70.5233 200.345 70.7225C200.246 70.9216 200.321 71.0959 200.495 71.0959C200.644 71.0959 200.694 71.1955 200.619 71.3448C200.545 71.4693 200.569 71.5938 200.719 71.5938C200.868 71.5938 200.918 71.768 200.843 71.9672C200.744 72.1664 200.818 72.3406 200.993 72.3406C201.142 72.3406 201.192 72.4402 201.117 72.5896C201.042 72.7141 201.067 72.8385 201.217 72.8385C201.366 72.8385 201.391 73.0128 201.316 73.2617C201.192 73.5605 201.242 73.6103 201.491 73.4609C201.74 73.3115 201.789 73.3613 201.665 73.6601C201.59 73.909 201.615 74.0833 201.74 74.0833C201.864 74.0833 201.889 74.2575 201.814 74.5065C201.69 74.8052 201.74 74.855 201.989 74.7056C202.237 74.5563 202.287 74.6061 202.163 74.9048C202.088 75.1538 202.113 75.328 202.237 75.328C202.362 75.328 202.387 75.5023 202.312 75.7512C202.188 76.05 202.237 76.0998 202.486 75.9504C202.735 75.801 202.785 75.8508 202.661 76.1496C202.586 76.3985 202.611 76.5728 202.735 76.5728C202.86 76.5728 202.885 76.747 202.81 76.996C202.686 77.2947 202.735 77.3445 202.984 77.1951C203.233 77.0458 203.283 77.0956 203.159 77.3943C203.084 77.6433 203.109 77.8175 203.233 77.8175C203.358 77.8175 203.383 77.9918 203.308 78.2407C203.183 78.5395 203.233 78.5893 203.482 78.4399C203.731 78.2905 203.781 78.3403 203.656 78.6391C203.582 78.888 203.607 79.0623 203.731 79.0623C203.856 79.0623 203.881 79.2365 203.806 79.4855C203.681 79.7842 203.731 79.834 203.98 79.6846C204.229 79.5353 204.279 79.5851 204.154 79.8838C204.08 80.1328 204.105 80.307 204.229 80.307C204.354 80.307 204.378 80.4813 204.304 80.7302C204.179 81.029 204.229 81.0788 204.478 80.9294C204.727 80.78 204.777 80.8298 204.652 81.1285C204.578 81.3775 204.602 81.5518 204.727 81.5518C204.851 81.5518 204.876 81.726 204.802 81.975C204.677 82.2737 204.727 82.3235 204.976 82.1741C205.225 82.0248 205.275 82.0746 205.15 82.3733C205.075 82.6222 205.1 82.7965 205.225 82.7965C205.349 82.7965 205.374 82.9708 205.3 83.2197C205.175 83.5185 205.225 83.5683 205.474 83.4189C205.723 83.2695 205.773 83.3193 205.648 83.618C205.573 83.867 205.598 84.0413 205.748 84.0413C205.897 84.0413 205.947 84.1408 205.872 84.2653C205.773 84.3898 205.872 84.5641 206.021 84.6138C206.196 84.6885 203.308 84.7632 199.599 84.7632C193.798 84.7881 192.802 84.7383 192.678 84.4147C192.603 84.2155 192.653 84.0413 192.777 84.0413C192.902 84.0413 192.927 83.867 192.852 83.618C192.752 83.3442 192.777 83.2695 193.001 83.394C193.201 83.5185 193.3 83.4687 193.25 83.2695C193.151 82.5227 193.3 82.0248 193.549 82.1741C193.698 82.2737 193.798 82.199 193.748 82.0248C193.649 81.2281 193.773 80.78 194.072 80.9543C194.271 81.0788 194.296 81.0041 194.196 80.7302C194.122 80.4813 194.147 80.307 194.271 80.307C194.396 80.307 194.42 80.1328 194.346 79.8838C194.221 79.5851 194.271 79.5353 194.52 79.6846C194.769 79.834 194.819 79.7842 194.694 79.4855C194.62 79.2365 194.644 79.0623 194.769 79.0623C194.893 79.0623 194.918 78.888 194.844 78.6391C194.719 78.3403 194.769 78.2905 195.018 78.4399C195.267 78.5893 195.317 78.5395 195.192 78.2407C195.117 77.9918 195.142 77.8175 195.267 77.8175C195.391 77.8175 195.441 77.6433 195.366 77.4441C195.267 77.2449 195.342 77.0707 195.491 77.0707C195.64 77.0707 195.69 76.8964 195.59 76.6475C195.491 76.3736 195.516 76.2989 195.715 76.4234C195.914 76.5479 195.964 76.4732 195.864 76.2242C195.79 76.0002 195.839 75.8259 195.989 75.8259C196.138 75.8259 196.188 75.6517 196.088 75.4027C195.964 75.104 196.014 75.0542 196.263 75.2035C196.512 75.3529 196.561 75.3031 196.437 75.0044C196.362 74.7554 196.387 74.5812 196.512 74.5812C196.636 74.5812 196.661 74.4069 196.586 74.158C196.462 73.8592 196.512 73.8094 196.761 73.9588C197.01 74.1082 197.059 74.0584 196.935 73.7596C196.86 73.5107 196.885 73.3364 197.01 73.3364C197.134 73.3364 197.159 73.1622 197.084 72.9132C196.96 72.6145 197.01 72.5647 197.258 72.7141C197.507 72.8634 197.557 72.8136 197.433 72.5149C197.358 72.2659 197.383 72.0917 197.507 72.0917C197.632 72.0917 197.657 71.9174 197.582 71.6685C197.458 71.3697 197.507 71.3199 197.756 71.4693C198.005 71.6187 198.055 71.5689 197.931 71.2701C197.856 71.0212 197.881 70.8469 198.005 70.8469C198.13 70.8469 198.18 70.6727 198.105 70.4735C198.005 70.2743 198.08 70.1001 198.229 70.1001C198.379 70.1001 198.429 69.9258 198.329 69.6769C198.229 69.403 198.254 69.3283 198.453 69.4528C198.653 69.5773 198.702 69.5026 198.603 69.2537C198.528 69.0296 198.578 68.8553 198.727 68.8553C198.877 68.8553 198.926 68.6811 198.827 68.457C198.702 68.1085 198.752 68.1085 199.2 68.3823C199.474 68.5566 199.648 68.8055 199.599 68.9051Z" fill="white"></path>
<path d="M269.827 58.1501C269.902 58.2746 269.877 58.399 269.728 58.399C269.578 58.399 269.554 58.5733 269.628 58.8223C269.753 59.121 269.703 59.1708 269.454 59.0214C269.205 58.8721 269.155 58.9218 269.28 59.2206C269.354 59.4695 269.33 59.6438 269.205 59.6438C269.081 59.6438 269.056 59.8181 269.13 60.067C269.255 60.3658 269.205 60.4155 268.956 60.2662C268.707 60.1168 268.657 60.1666 268.782 60.4653C268.857 60.7143 268.832 60.8885 268.707 60.8885C268.583 60.8885 268.558 61.0628 268.632 61.3118C268.757 61.6105 268.707 61.6603 268.458 61.5109C268.209 61.3615 268.159 61.4113 268.284 61.7101C268.359 61.959 268.334 62.1333 268.184 62.1333C268.035 62.1333 268.01 62.2329 268.085 62.3822C268.159 62.5067 268.135 62.6312 267.985 62.6312C267.836 62.6312 267.811 62.8055 267.886 63.0544C268.01 63.3531 267.96 63.4029 267.711 63.2536C267.462 63.1042 267.413 63.154 267.537 63.4527C267.612 63.7017 267.587 63.8759 267.462 63.8759C267.338 63.8759 267.313 64.0502 267.388 64.2992C267.512 64.5979 267.462 64.6477 267.213 64.4983C266.964 64.3489 266.915 64.3987 267.039 64.6975C267.114 64.9464 267.089 65.1207 266.964 65.1207C266.84 65.1207 266.815 65.295 266.89 65.5439C266.989 65.8177 266.964 65.8924 266.765 65.768C266.566 65.6435 266.516 65.7182 266.616 65.9671C266.691 66.1912 266.641 66.3654 266.467 66.3654C266.317 66.3654 266.267 66.465 266.342 66.6144C266.417 66.7389 266.392 66.8633 266.243 66.8633C266.093 66.8633 266.068 67.0376 266.143 67.2866C266.267 67.5853 266.218 67.6351 265.969 67.4857C265.72 67.3363 265.67 67.3861 265.794 67.6849C265.869 67.9338 265.844 68.1081 265.72 68.1081C265.595 68.1081 265.57 68.2823 265.645 68.5313C265.77 68.83 265.72 68.8798 265.471 68.7305C265.222 68.5811 265.172 68.6309 265.297 68.9296C265.371 69.1786 265.346 69.3528 265.197 69.3528C265.048 69.3528 264.998 69.4524 265.072 69.5769C265.297 69.9254 264.948 70.6225 264.649 70.4233C264.5 70.3237 264.45 70.4233 264.55 70.6723C264.624 70.9212 264.599 71.0955 264.475 71.0955C264.351 71.0955 264.326 71.2697 264.4 71.5187C264.525 71.8174 264.475 71.8672 264.226 71.7179C263.977 71.5685 263.927 71.6183 264.052 71.917C264.126 72.166 264.102 72.3402 263.977 72.3402C263.853 72.3402 263.828 72.5145 263.902 72.7634C264.027 73.0622 263.977 73.112 263.728 72.9626C263.479 72.8132 263.429 72.863 263.554 73.1618C263.629 73.4107 263.604 73.585 263.454 73.585C263.305 73.585 263.255 73.6846 263.33 73.809C263.554 74.1576 263.205 74.8546 262.907 74.6555C262.757 74.5559 262.707 74.6555 262.807 74.9044C262.882 75.1534 262.857 75.3276 262.732 75.3276C262.608 75.3276 262.583 75.5019 262.658 75.7508C262.782 76.0496 262.732 76.0994 262.483 75.95C262.234 75.8006 262.185 75.8504 262.309 76.1492C262.384 76.3981 262.359 76.5724 262.234 76.5724C262.11 76.5724 262.085 76.7466 262.16 76.9956C262.284 77.2943 262.234 77.3441 261.985 77.1947C261.737 77.0454 261.687 77.0952 261.811 77.3939C261.886 77.6429 261.861 77.8171 261.712 77.8171C261.562 77.8171 261.537 77.9167 261.612 78.0661C261.687 78.1905 261.662 78.315 261.512 78.315C261.363 78.315 261.338 78.4893 261.413 78.7382C261.537 79.037 261.488 79.0868 261.239 78.9374C260.99 78.788 260.94 78.8378 261.064 79.1366C261.139 79.3855 261.114 79.5598 260.99 79.5598C260.865 79.5598 260.84 79.734 260.915 79.983C261.039 80.2817 260.99 80.3315 260.741 80.1821C260.492 80.0328 260.442 80.0826 260.566 80.3813C260.641 80.6303 260.616 80.8045 260.492 80.8045C260.367 80.8045 260.342 80.9788 260.417 81.2277C260.542 81.5265 260.492 81.5763 260.243 81.4269C259.994 81.2775 259.944 81.3273 260.069 81.6261C260.143 81.875 260.118 82.0493 259.969 82.0493C259.82 82.0493 259.795 82.1488 259.869 82.2982C259.944 82.4227 259.919 82.5472 259.77 82.5472C259.62 82.5472 259.571 82.7214 259.645 82.9206C259.745 83.1197 259.67 83.294 259.496 83.294C259.347 83.294 259.297 83.4185 259.372 83.543C259.446 83.6923 259.421 83.7919 259.272 83.7919C259.123 83.7919 259.098 83.9662 259.172 84.2151C259.297 84.5139 259.247 84.5637 258.998 84.4143C258.749 84.2649 258.699 84.3147 258.824 84.6134C258.899 84.8624 258.874 85.0367 258.749 85.0367C258.625 85.0367 258.6 85.2109 258.674 85.4599C258.799 85.7586 258.749 85.8084 258.5 85.659C258.251 85.5097 258.201 85.5595 258.326 85.8582C258.401 86.1071 258.376 86.2814 258.226 86.2814C258.077 86.2814 258.052 86.381 258.127 86.5304C258.201 86.6548 258.177 86.7793 258.027 86.7793C257.878 86.7793 257.853 86.9536 257.928 87.2025C258.052 87.5013 258.002 87.5511 257.753 87.4017C257.504 87.2523 257.455 87.3021 257.579 87.6008C257.654 87.8498 257.629 88.0241 257.504 88.0241C257.38 88.0241 257.355 88.1983 257.43 88.4473C257.554 88.746 257.504 88.7958 257.255 88.6464C257.007 88.4971 256.957 88.5469 257.081 88.8456C257.156 89.0945 257.131 89.2688 256.982 89.2688C256.832 89.2688 256.807 89.3933 256.882 89.5178C256.957 89.6671 256.907 89.7667 256.758 89.7667C256.583 89.7667 256.509 89.941 256.608 90.1401C256.683 90.3393 256.633 90.5136 256.484 90.5136C256.334 90.5136 256.309 90.638 256.384 90.7625C256.459 90.9119 256.434 91.0115 256.285 91.0115C256.135 91.0115 256.11 91.1857 256.185 91.4347C256.309 91.7334 256.26 91.7832 256.011 91.6338C255.762 91.4845 255.712 91.5342 255.836 91.833C255.911 92.0819 255.886 92.2562 255.762 92.2562C255.637 92.2562 255.612 92.4305 255.687 92.6794C255.812 92.9782 255.762 93.0279 255.513 92.8786C255.264 92.7292 255.214 92.779 255.339 93.0777C255.413 93.3267 255.388 93.501 255.239 93.501C255.09 93.501 255.065 93.6005 255.139 93.7499C255.214 93.8744 255.164 93.9988 255.015 93.9988C254.841 93.9988 254.766 94.1731 254.866 94.3723C254.94 94.5714 254.89 94.7457 254.741 94.7457C254.592 94.7457 254.567 94.8453 254.641 94.9946C254.716 95.1191 254.691 95.2436 254.542 95.2436C254.393 95.2436 254.368 95.4179 254.442 95.6668C254.567 95.9656 254.517 96.0153 254.268 95.866C254.019 95.7166 253.969 95.7664 254.094 96.0651C254.168 96.3141 254.144 96.4883 254.019 96.4883C253.895 96.4883 253.87 96.6626 253.944 96.9116C254.069 97.2103 254.019 97.2601 253.77 97.1107C253.521 96.9614 253.471 97.0111 253.596 97.3099C253.671 97.5588 253.646 97.7331 253.496 97.7331C253.347 97.7331 253.322 97.8327 253.397 97.982C253.471 98.1065 253.447 98.231 253.297 98.231C253.148 98.231 253.123 98.4053 253.198 98.6542C253.322 98.9529 253.272 99.0027 253.023 98.8534C252.774 98.704 252.725 98.7538 252.849 99.0525C252.924 99.3015 252.899 99.4757 252.774 99.4757C252.65 99.4757 252.625 99.65 252.7 99.899C252.824 100.198 252.774 100.247 252.525 100.098C252.276 99.9487 252.227 99.9985 252.351 100.297C252.426 100.546 252.401 100.72 252.276 100.72C252.152 100.72 252.127 100.895 252.202 101.144C252.326 101.442 252.276 101.492 252.028 101.343C251.779 101.193 251.729 101.243 251.853 101.542C251.928 101.791 251.903 101.965 251.754 101.965C251.604 101.965 251.579 102.09 251.654 102.214C251.729 102.364 251.704 102.463 251.555 102.463C251.405 102.463 251.38 102.637 251.455 102.886C251.579 103.185 251.53 103.235 251.281 103.086C251.032 102.936 250.982 102.986 251.106 103.285C251.181 103.534 251.156 103.708 251.032 103.708C250.907 103.708 250.882 103.882 250.957 104.131C251.081 104.43 251.032 104.48 250.783 104.33C250.534 104.181 250.484 104.231 250.608 104.529C250.683 104.778 250.658 104.953 250.534 104.953C250.409 104.953 250.384 105.127 250.459 105.376C250.584 105.675 250.534 105.724 250.285 105.575C250.036 105.426 249.986 105.475 250.111 105.774C250.185 106.023 250.185 106.197 250.086 106.197C249.986 106.197 249.887 106.397 249.862 106.645C249.837 107.044 249.961 107.069 251.032 106.944C251.704 106.87 252.824 106.845 253.571 106.944C254.841 107.069 254.89 107.044 254.94 106.471C254.94 106.148 255.114 105.799 255.264 105.699C255.438 105.6 255.513 105.401 255.438 105.276C255.239 104.953 255.787 103.21 256.06 103.21C256.185 103.21 256.21 102.986 256.135 102.712C256.036 102.438 256.085 102.214 256.235 102.214C256.384 102.214 256.434 102.04 256.359 101.841C256.26 101.642 256.334 101.467 256.484 101.467C256.633 101.467 256.683 101.293 256.608 101.094C256.509 100.895 256.583 100.72 256.733 100.72C256.882 100.72 256.932 100.546 256.857 100.347C256.758 100.148 256.832 99.9736 256.982 99.9736C257.131 99.9736 257.181 99.7994 257.106 99.6002C257.007 99.4011 257.081 99.2268 257.231 99.2268C257.38 99.2268 257.43 99.0525 257.355 98.8534C257.255 98.6542 257.33 98.4799 257.48 98.4799C257.629 98.4799 257.679 98.3057 257.604 98.1065C257.504 97.9074 257.579 97.7331 257.728 97.7331C257.878 97.7331 257.928 97.5588 257.828 97.3099C257.704 97.0111 257.753 96.9614 258.002 97.1107C258.251 97.2601 258.301 97.2103 258.177 96.9116C258.077 96.6626 258.127 96.4883 258.276 96.4883C258.426 96.4883 258.5 96.3141 258.401 96.1149C258.326 95.9158 258.376 95.7415 258.5 95.7415C258.625 95.7415 258.674 95.5672 258.6 95.3681C258.5 95.1689 258.575 94.9946 258.724 94.9946C258.874 94.9946 258.923 94.8204 258.849 94.6212C258.749 94.4221 258.824 94.2478 258.973 94.2478C259.123 94.2478 259.172 94.0735 259.073 93.8246C258.948 93.5258 258.998 93.4761 259.247 93.6254C259.496 93.7748 259.546 93.725 259.421 93.4263C259.347 93.1773 259.347 93.0031 259.446 93.0031C259.546 93.0031 259.645 92.7043 259.67 92.3309C259.67 91.9575 259.82 91.6089 259.969 91.5591C260.118 91.5094 260.193 91.36 260.093 91.2355C260.019 91.111 260.093 91.0115 260.243 91.0115C260.417 91.0115 260.492 90.8372 260.392 90.638C260.318 90.4389 260.342 90.2646 260.467 90.2646C260.591 90.2646 260.691 90.1152 260.666 89.941C260.641 89.1443 260.766 88.746 261.015 88.8954C261.164 88.995 261.239 88.8954 261.189 88.6215C261.114 88.1734 261.463 88.1485 269.33 88.1485C276.997 88.1485 277.545 88.1734 277.52 88.5717C277.495 88.8207 277.57 89.0199 277.694 89.0199C277.819 89.0199 277.819 89.1941 277.744 89.4431C277.62 89.7418 277.669 89.7916 277.918 89.6422C278.167 89.4929 278.217 89.5427 278.093 89.8414C278.018 90.0903 278.043 90.2646 278.167 90.2646C278.292 90.2646 278.317 90.4389 278.242 90.6878C278.117 90.9866 278.167 91.0363 278.416 90.887C278.665 90.7376 278.715 90.7874 278.59 91.0861C278.516 91.3351 278.541 91.5094 278.665 91.5094C278.79 91.5094 278.839 91.6836 278.765 91.8828C278.665 92.0819 278.74 92.2562 278.914 92.2562C279.063 92.2562 279.113 92.3558 279.039 92.5052C278.964 92.6296 279.014 92.7541 279.163 92.7541C279.337 92.7541 279.412 92.9284 279.312 93.1275C279.238 93.3267 279.287 93.501 279.412 93.501C279.536 93.501 279.586 93.6752 279.512 93.8744C279.412 94.0735 279.487 94.2478 279.636 94.2478C279.785 94.2478 279.835 94.4221 279.736 94.671C279.611 94.9698 279.661 95.0195 279.91 94.8702C280.159 94.7208 280.209 94.7706 280.084 95.0693C279.985 95.3183 280.034 95.4925 280.184 95.4925C280.333 95.4925 280.408 95.6668 280.308 95.866C280.233 96.0651 280.283 96.2394 280.408 96.2394C280.532 96.2394 280.582 96.4137 280.507 96.6128C280.408 96.812 280.482 96.9862 280.632 96.9862C280.781 96.9862 280.831 97.1605 280.731 97.4095C280.607 97.7082 280.657 97.758 280.906 97.6086C281.155 97.4593 281.204 97.509 281.08 97.8078C280.98 98.0567 281.03 98.231 281.18 98.231C281.329 98.231 281.404 98.4053 281.304 98.6044C281.229 98.8036 281.279 98.9778 281.428 98.9778C281.578 98.9778 281.653 99.1521 281.553 99.3513C281.478 99.5504 281.528 99.7247 281.677 99.7247C281.827 99.7247 281.901 99.899 281.802 100.098C281.727 100.297 281.777 100.472 281.926 100.472C282.076 100.472 282.15 100.646 282.051 100.845C281.976 101.044 282.026 101.218 282.15 101.218C282.275 101.218 282.325 101.393 282.25 101.592C282.15 101.791 282.225 101.965 282.399 101.965C282.574 101.965 282.648 102.14 282.549 102.339C282.474 102.538 282.524 102.712 282.648 102.712C282.773 102.712 282.823 102.886 282.748 103.086C282.648 103.285 282.723 103.459 282.897 103.459C283.072 103.459 283.146 103.633 283.047 103.832C282.972 104.032 283.022 104.206 283.146 104.206C283.271 104.206 283.32 104.38 283.246 104.579C283.146 104.778 283.221 104.953 283.395 104.953C283.569 104.953 283.644 105.127 283.545 105.326C283.47 105.525 283.52 105.699 283.669 105.699C283.818 105.699 283.893 105.874 283.793 106.073C283.719 106.272 283.769 106.446 283.918 106.446C284.067 106.446 284.142 106.596 284.067 106.77C283.993 106.994 284.391 107.044 285.86 106.944C286.905 106.87 288.548 106.87 289.494 106.944C291.063 107.044 291.262 107.019 291.262 106.621C291.262 106.397 291.162 106.197 291.063 106.197C290.963 106.197 290.963 106.023 291.038 105.774C291.162 105.475 291.113 105.426 290.864 105.575C290.615 105.724 290.565 105.675 290.689 105.376C290.764 105.127 290.739 104.953 290.615 104.953C290.49 104.953 290.465 104.778 290.54 104.529C290.664 104.231 290.615 104.181 290.366 104.33C290.117 104.48 290.067 104.43 290.191 104.131C290.266 103.882 290.241 103.708 290.117 103.708C289.992 103.708 289.967 103.534 290.042 103.285C290.167 102.986 290.117 102.936 289.868 103.086C289.619 103.235 289.569 103.185 289.694 102.886C289.768 102.637 289.743 102.463 289.619 102.463C289.494 102.463 289.47 102.289 289.544 102.04C289.669 101.741 289.619 101.691 289.37 101.841C289.121 101.99 289.071 101.94 289.196 101.642C289.27 101.393 289.245 101.218 289.121 101.218C288.997 101.218 288.972 101.044 289.046 100.795C289.171 100.496 289.121 100.447 288.872 100.596C288.623 100.745 288.573 100.696 288.698 100.397C288.797 100.148 288.748 99.9736 288.598 99.9736C288.449 99.9736 288.374 99.7994 288.474 99.6002C288.548 99.4011 288.499 99.2268 288.374 99.2268C288.25 99.2268 288.225 99.0525 288.299 98.8036C288.424 98.5048 288.374 98.455 288.125 98.6044C287.876 98.7538 287.826 98.704 287.951 98.4053C288.026 98.1563 288.001 97.982 287.876 97.982C287.752 97.982 287.727 97.8078 287.802 97.5588C287.926 97.2601 287.876 97.2103 287.627 97.3597C287.378 97.509 287.329 97.4593 287.453 97.1605C287.528 96.9116 287.503 96.7373 287.378 96.7373C287.254 96.7373 287.229 96.563 287.304 96.3141C287.428 96.0153 287.378 95.9656 287.129 96.1149C286.88 96.2643 286.831 96.2145 286.955 95.9158C287.03 95.6668 287.005 95.4925 286.88 95.4925C286.756 95.4925 286.731 95.3183 286.806 95.0693C286.93 94.7706 286.88 94.7208 286.632 94.8702C286.383 95.0195 286.333 94.9698 286.457 94.671C286.557 94.4221 286.507 94.2478 286.358 94.2478C286.208 94.2478 286.159 94.0735 286.233 93.8495C286.333 93.6005 286.283 93.5258 286.084 93.6503C285.885 93.7748 285.86 93.7001 285.959 93.4263C286.059 93.1773 286.009 93.0031 285.86 93.0031C285.71 93.0031 285.661 92.8288 285.735 92.6047C285.835 92.3558 285.785 92.2811 285.586 92.4056C285.387 92.53 285.362 92.4554 285.461 92.1815C285.561 91.9326 285.511 91.7583 285.362 91.7583C285.212 91.7583 285.163 91.584 285.237 91.36C285.337 91.111 285.287 91.0363 285.088 91.1608C284.889 91.2853 284.864 91.2106 284.964 90.9368C285.063 90.6878 285.013 90.5136 284.864 90.5136C284.715 90.5136 284.665 90.3393 284.739 90.1152C284.839 89.8663 284.789 89.7916 284.59 89.9161C284.391 90.0405 284.366 89.9659 284.466 89.692C284.565 89.4431 284.515 89.2688 284.366 89.2688C284.217 89.2688 284.167 89.0945 284.242 88.8705C284.341 88.6215 284.291 88.5469 284.092 88.6713C283.893 88.7958 283.868 88.7211 283.968 88.4473C284.067 88.1983 284.018 88.0241 283.868 88.0241C283.719 88.0241 283.669 87.8498 283.744 87.6257C283.843 87.3768 283.793 87.3021 283.594 87.4266C283.395 87.5511 283.37 87.4764 283.47 87.2025C283.569 86.9536 283.52 86.7793 283.37 86.7793C283.221 86.7793 283.146 86.605 283.246 86.4059C283.32 86.2067 283.271 86.0325 283.121 86.0325C282.972 86.0325 282.947 85.908 283.022 85.7835C283.096 85.6341 283.047 85.5346 282.897 85.5346C282.723 85.5346 282.648 85.3603 282.748 85.1611C282.823 84.962 282.773 84.7877 282.648 84.7877C282.524 84.7877 282.499 84.6134 282.574 84.3645C282.698 84.0658 282.648 84.016 282.399 84.1653C282.15 84.3147 282.101 84.2649 282.225 83.9662C282.3 83.7172 282.275 83.543 282.15 83.543C282.026 83.543 282.001 83.3687 282.076 83.1197C282.2 82.821 282.15 82.7712 281.901 82.9206C281.653 83.07 281.603 83.0202 281.727 82.7214C281.802 82.4725 281.777 82.2982 281.653 82.2982C281.528 82.2982 281.503 82.124 281.578 81.875C281.702 81.5763 281.653 81.5265 281.404 81.6758C281.155 81.8252 281.105 81.7754 281.229 81.4767C281.304 81.2277 281.279 81.0535 281.155 81.0535C281.03 81.0535 281.005 80.8792 281.08 80.6303C281.204 80.3315 281.155 80.2817 280.906 80.4311C280.657 80.5805 280.607 80.5307 280.731 80.2319C280.831 79.983 280.781 79.8087 280.632 79.8087C280.482 79.8087 280.433 79.6345 280.507 79.4104C280.607 79.1615 280.557 79.0868 280.358 79.2112C280.159 79.3357 280.134 79.261 280.233 78.9872C280.333 78.7382 280.283 78.564 280.134 78.564C279.985 78.564 279.935 78.3897 280.009 78.1657C280.109 77.9167 280.059 77.842 279.86 77.9665C279.661 78.091 279.636 78.0163 279.736 77.7424C279.835 77.4935 279.785 77.3192 279.636 77.3192C279.487 77.3192 279.437 77.145 279.512 76.9209C279.611 76.672 279.561 76.5973 279.362 76.7217C279.163 76.8462 279.138 76.7715 279.238 76.4977C279.312 76.2487 279.287 76.0745 279.163 76.0745C279.039 76.0745 279.014 75.9002 279.088 75.6513C279.213 75.3525 279.163 75.3027 278.914 75.4521C278.665 75.6015 278.615 75.5517 278.74 75.2529C278.814 75.004 278.79 74.8297 278.665 74.8297C278.541 74.8297 278.516 74.6555 278.59 74.4065C278.715 74.1078 278.665 74.058 278.416 74.2074C278.167 74.3567 278.117 74.3069 278.242 74.0082C278.317 73.7592 278.292 73.585 278.167 73.585C278.043 73.585 277.993 73.4107 278.068 73.2116C278.167 73.0124 278.093 72.8381 277.918 72.8381C277.769 72.8381 277.719 72.7137 277.794 72.5892C277.868 72.4398 277.844 72.3402 277.694 72.3402C277.545 72.3402 277.495 72.166 277.57 71.9668C277.669 71.7676 277.595 71.5934 277.42 71.5934C277.271 71.5934 277.221 71.4689 277.296 71.3444C277.371 71.1951 277.346 71.0955 277.196 71.0955C277.047 71.0955 276.997 70.9212 277.072 70.7221C277.171 70.5229 277.097 70.3486 276.922 70.3486C276.773 70.3486 276.723 70.2242 276.798 70.0997C276.873 69.9503 276.848 69.8507 276.698 69.8507C276.549 69.8507 276.499 69.6765 276.574 69.4773C276.674 69.2781 276.599 69.1039 276.449 69.1039C276.3 69.1039 276.25 68.9296 276.35 68.6807C276.449 68.4068 276.425 68.3321 276.225 68.4566C276.026 68.5811 275.976 68.5064 276.076 68.2575C276.151 68.0334 276.101 67.8591 275.952 67.8591C275.802 67.8591 275.752 67.6849 275.852 67.4359C275.976 67.1372 275.927 67.0874 275.678 67.2368C275.429 67.3861 275.379 67.3363 275.503 67.0376C275.578 66.7887 275.553 66.6144 275.429 66.6144C275.304 66.6144 275.279 66.4401 275.354 66.1912C275.479 65.8924 275.429 65.8426 275.18 65.992C274.931 66.1414 274.881 66.0916 275.006 65.7929C275.08 65.5439 275.055 65.3696 274.931 65.3696C274.806 65.3696 274.782 65.1954 274.856 64.9464C274.981 64.6477 274.931 64.5979 274.682 64.7473C274.433 64.8966 274.383 64.8468 274.508 64.5481C274.582 64.2992 274.557 64.1249 274.433 64.1249C274.308 64.1249 274.284 63.9506 274.358 63.7017C274.483 63.4029 274.433 63.3531 274.184 63.5025C273.935 63.6519 273.885 63.6021 274.01 63.3034C274.084 63.0544 274.06 62.8801 273.935 62.8801C273.811 62.8801 273.786 62.7059 273.86 62.4569C273.985 62.1582 273.935 62.1084 273.686 62.2578C273.437 62.4071 273.387 62.3573 273.512 62.0586C273.587 61.8097 273.562 61.6354 273.437 61.6354C273.313 61.6354 273.288 61.4611 273.362 61.2122C273.487 60.9134 273.437 60.8636 273.188 61.013C272.939 61.1624 272.889 61.1126 273.014 60.8139C273.089 60.5649 273.064 60.3906 272.939 60.3906C272.815 60.3906 272.79 60.2164 272.865 59.9674C272.989 59.6687 272.939 59.6189 272.69 59.7683C272.441 59.9176 272.392 59.8679 272.516 59.5691C272.591 59.3202 272.566 59.1459 272.441 59.1459C272.317 59.1459 272.292 58.9716 272.367 58.7227C272.491 58.4239 272.441 58.3742 272.192 58.5235C271.943 58.6729 271.894 58.6231 272.018 58.3244C272.143 57.9509 271.993 57.9011 270.923 57.9011C270.151 57.9011 269.728 58.0007 269.827 58.1501ZM269.578 68.357C269.504 68.5064 269.529 68.606 269.678 68.606C269.827 68.606 269.852 68.7802 269.778 69.0292C269.653 69.3279 269.703 69.3777 269.952 69.2284C270.201 69.079 270.251 69.1288 270.126 69.4275C270.051 69.6765 270.076 69.8507 270.201 69.8507C270.325 69.8507 270.35 70.025 270.276 70.2739C270.151 70.5727 270.201 70.6225 270.45 70.4731C270.699 70.3237 270.749 70.3735 270.624 70.6723C270.549 70.9212 270.574 71.0955 270.699 71.0955C270.823 71.0955 270.848 71.2697 270.773 71.5187C270.649 71.8174 270.699 71.8672 270.948 71.7179C271.197 71.5685 271.246 71.6183 271.122 71.917C271.047 72.166 271.072 72.3402 271.197 72.3402C271.321 72.3402 271.346 72.5145 271.271 72.7634C271.147 73.0622 271.197 73.112 271.446 72.9626C271.695 72.8132 271.744 72.863 271.62 73.1618C271.545 73.4107 271.57 73.585 271.695 73.585C271.819 73.585 271.844 73.7592 271.769 74.0082C271.645 74.3069 271.695 74.3567 271.943 74.2074C272.192 74.058 272.242 74.1078 272.118 74.4065C272.043 74.6555 272.068 74.8297 272.192 74.8297C272.317 74.8297 272.342 75.004 272.267 75.2529C272.143 75.5517 272.192 75.6015 272.441 75.4521C272.69 75.3027 272.74 75.3525 272.616 75.6513C272.541 75.9002 272.566 76.0745 272.69 76.0745C272.815 76.0745 272.84 76.2487 272.765 76.4977C272.641 76.7964 272.69 76.8462 272.939 76.6968C273.188 76.5475 273.238 76.5973 273.114 76.896C273.039 77.145 273.064 77.3192 273.188 77.3192C273.313 77.3192 273.338 77.4935 273.263 77.7424C273.138 78.0412 273.188 78.091 273.437 77.9416C273.686 77.7922 273.736 77.842 273.611 78.1408C273.537 78.3897 273.562 78.564 273.686 78.564C273.811 78.564 273.835 78.7382 273.761 78.9872C273.636 79.2859 273.686 79.3357 273.935 79.1863C274.184 79.037 274.234 79.0868 274.109 79.3855C274.035 79.6345 274.06 79.8087 274.184 79.8087C274.308 79.8087 274.333 79.983 274.259 80.2319C274.134 80.5307 274.184 80.5805 274.433 80.4311C274.682 80.2817 274.732 80.3315 274.607 80.6303C274.533 80.8792 274.557 81.0535 274.707 81.0535C274.856 81.0535 274.881 81.153 274.806 81.3024C274.732 81.4269 274.782 81.5514 274.931 81.5514C275.105 81.5514 275.18 81.7256 275.08 81.9248C275.006 82.124 275.055 82.2982 275.205 82.2982C275.354 82.2982 275.379 82.3978 275.304 82.5472C275.23 82.6716 275.279 82.7961 275.429 82.7961C275.603 82.7961 275.678 82.9704 275.578 83.1695C275.503 83.3687 275.553 83.543 275.703 83.543C275.852 83.543 275.902 83.6425 275.827 83.767C275.728 83.8915 275.802 84.0409 275.976 84.0907C276.126 84.1404 276.176 84.3396 276.076 84.489C275.952 84.713 274.109 84.7877 269.13 84.7628C265.396 84.7628 262.508 84.6881 262.683 84.6134C262.832 84.5637 262.932 84.3894 262.832 84.2649C262.757 84.1404 262.832 84.0409 262.981 84.0409C263.156 84.0409 263.23 83.8666 263.131 83.6674C263.056 83.4683 263.106 83.294 263.23 83.294C263.355 83.294 263.38 83.1197 263.305 82.8708C263.205 82.597 263.23 82.5223 263.454 82.6467C263.653 82.7712 263.753 82.7214 263.703 82.5223C263.604 81.7256 263.728 81.2775 264.027 81.4518C264.226 81.5763 264.251 81.5016 264.151 81.2277C264.077 80.9788 264.102 80.8045 264.226 80.8045C264.351 80.8045 264.375 80.6303 264.301 80.3813C264.176 80.0826 264.226 80.0328 264.475 80.1821C264.724 80.3315 264.774 80.2817 264.649 79.983C264.575 79.734 264.599 79.5598 264.724 79.5598C264.848 79.5598 264.873 79.3855 264.799 79.1366C264.674 78.8378 264.724 78.788 264.973 78.9374C265.222 79.0868 265.272 79.037 265.147 78.7382C265.072 78.4893 265.097 78.315 265.222 78.315C265.346 78.315 265.371 78.1408 265.297 77.8918C265.172 77.5931 265.222 77.5433 265.471 77.6926C265.72 77.842 265.77 77.7922 265.645 77.4935C265.57 77.2445 265.595 77.0703 265.72 77.0703C265.844 77.0703 265.894 76.896 265.819 76.6968C265.72 76.4977 265.794 76.3234 265.944 76.3234C266.093 76.3234 266.143 76.1492 266.043 75.9002C265.944 75.6264 265.969 75.5517 266.168 75.6762C266.367 75.8006 266.417 75.7259 266.317 75.477C266.243 75.2529 266.292 75.0787 266.442 75.0787C266.591 75.0787 266.641 74.9044 266.541 74.6555C266.442 74.4065 266.491 74.3069 266.641 74.4065C266.79 74.5061 266.915 74.4314 266.89 74.2571C266.865 73.4107 266.989 73.0622 267.263 73.2364C267.462 73.3609 267.487 73.2862 267.388 73.0124C267.313 72.7634 267.338 72.5892 267.462 72.5892C267.587 72.5892 267.612 72.4149 267.537 72.166C267.413 71.8672 267.462 71.8174 267.711 71.9668C267.96 72.1162 268.01 72.0664 267.886 71.7676C267.811 71.5187 267.836 71.3444 267.96 71.3444C268.085 71.3444 268.11 71.1702 268.035 70.9212C267.91 70.6225 267.96 70.5727 268.209 70.7221C268.458 70.8714 268.508 70.8216 268.383 70.5229C268.309 70.2739 268.334 70.0997 268.458 70.0997C268.583 70.0997 268.632 69.9254 268.558 69.7263C268.458 69.5271 268.533 69.3528 268.682 69.3528C268.832 69.3528 268.881 69.1786 268.782 68.9296C268.682 68.6558 268.707 68.5811 268.906 68.7056C269.105 68.83 269.155 68.7554 269.056 68.5064C268.981 68.2823 269.031 68.1081 269.18 68.1081C269.33 68.1081 269.379 67.9089 269.305 67.66C269.18 67.2617 269.18 67.2617 269.454 67.6849C269.603 67.9089 269.653 68.2326 269.578 68.357Z" fill="white"></path>
<path d="M90.4595 82.9212V107.094L92.0279 106.945C92.8743 106.845 94.2435 106.845 95.065 106.92L96.5587 107.069V82.9212V58.7731L94.9904 58.8976C94.119 58.9723 92.7498 58.9723 91.9283 58.8976L90.4595 58.7482V82.9212Z" fill="white"></path>
<path d="M108.533 60.8892C108.259 64.5985 104.4 94.2235 102.832 104.854L102.508 107.094L103.753 106.92C104.45 106.845 105.595 106.845 106.292 106.92C107.512 107.094 107.537 107.069 107.438 106.522C107.263 105.576 107.886 96.6384 108.632 89.145C110.002 75.6768 110.475 71.594 110.674 71.594C110.773 71.594 110.773 71.7683 110.699 72.0172C110.599 72.2911 110.624 72.3658 110.823 72.2413C111.022 72.1168 111.072 72.2164 110.948 72.4902C110.823 72.8139 110.873 72.8637 111.122 72.7143C111.321 72.5898 111.396 72.6147 111.271 72.789C111.047 73.1624 111.894 74.8553 112.192 74.6561C112.342 74.5565 112.392 74.6561 112.292 74.905C112.217 75.154 112.242 75.3283 112.392 75.3283C112.541 75.3283 112.566 75.4278 112.491 75.5772C112.416 75.7017 112.466 75.8262 112.616 75.8262C112.765 75.8262 112.815 75.9257 112.74 76.0751C112.665 76.1996 112.715 76.3241 112.865 76.3241C113.014 76.3241 113.064 76.4236 112.989 76.573C112.914 76.6975 112.964 76.822 113.114 76.822C113.263 76.822 113.313 76.9215 113.238 77.0709C113.163 77.1954 113.213 77.3199 113.363 77.3199C113.512 77.3199 113.562 77.4443 113.487 77.5688C113.412 77.6933 113.462 77.8178 113.611 77.8178C113.761 77.8178 113.811 77.9173 113.736 78.0667C113.661 78.1912 113.711 78.3157 113.86 78.3157C114.01 78.3157 114.06 78.4152 113.985 78.5646C113.91 78.6891 113.96 78.8136 114.109 78.8136C114.259 78.8136 114.309 78.9131 114.234 79.0625C114.159 79.187 114.209 79.3115 114.358 79.3115C114.508 79.3115 114.582 79.411 114.483 79.5355C114.309 79.8591 115.379 82.0499 115.653 81.9005C115.752 81.8258 115.777 81.9752 115.678 82.1993C115.578 82.498 115.603 82.5727 115.802 82.4482C116.001 82.3486 116.051 82.3984 115.952 82.6225C115.877 82.8216 116.001 83.1453 116.201 83.3693C116.4 83.5685 116.499 83.7925 116.425 83.8921C116.325 83.9668 116.4 84.0415 116.574 84.0415C116.748 84.0415 116.798 84.1411 116.723 84.2904C116.649 84.4149 116.698 84.5394 116.848 84.5394C116.997 84.5394 117.047 84.639 116.972 84.7883C116.898 84.9128 116.947 85.0373 117.097 85.0373C117.246 85.0373 117.296 85.1369 117.221 85.2862C117.147 85.4107 117.196 85.5352 117.346 85.5352C117.495 85.5352 117.545 85.6348 117.47 85.7841C117.395 85.9086 117.445 86.0331 117.595 86.0331C117.744 86.0331 117.794 86.1327 117.719 86.282C117.644 86.4065 117.694 86.531 117.844 86.531C117.993 86.531 118.043 86.6306 117.968 86.7799C117.893 86.9044 117.943 87.0289 118.093 87.0289C118.242 87.0289 118.317 87.1285 118.242 87.2529C118.043 87.5766 118.341 88.2985 118.615 88.1243C118.74 88.0496 118.765 88.199 118.665 88.423C118.566 88.7218 118.59 88.7964 118.79 88.672C118.989 88.5475 119.039 88.6222 118.939 88.8711C118.864 89.0952 118.914 89.2694 119.088 89.2694C119.238 89.2694 119.288 89.369 119.213 89.5184C119.138 89.6429 119.188 89.7673 119.337 89.7673C119.487 89.7673 119.536 89.8669 119.462 90.0163C119.387 90.1408 119.437 90.2652 119.586 90.2652C119.736 90.2652 119.785 90.3648 119.711 90.5142C119.636 90.6387 119.686 90.7631 119.835 90.7631C119.985 90.7631 120.034 90.8627 119.96 91.0121C119.885 91.1366 119.935 91.261 120.084 91.261C120.234 91.261 120.283 91.3606 120.209 91.51C120.134 91.6345 120.184 91.7589 120.333 91.7589C120.482 91.7589 120.557 91.8585 120.482 91.983C120.258 92.3315 120.607 93.0286 120.906 92.8294C121.055 92.7298 121.105 92.8294 121.005 93.0784C120.931 93.3273 120.955 93.5016 121.105 93.5016C121.254 93.5016 121.279 93.6012 121.204 93.7505C121.13 93.875 121.18 93.9995 121.329 93.9995C121.478 93.9995 121.528 94.0991 121.453 94.2484C121.379 94.3729 121.428 94.4974 121.578 94.4974C121.727 94.4974 121.777 94.597 121.702 94.7463C121.628 94.8708 121.677 94.9953 121.827 94.9953C121.976 94.9953 122.051 95.0949 121.976 95.2193C121.752 95.5679 122.101 96.2649 122.399 96.0658C122.549 95.9662 122.599 96.0658 122.499 96.3147C122.424 96.5637 122.449 96.7379 122.599 96.7379C122.748 96.7379 122.773 96.8375 122.698 96.9869C122.623 97.1114 122.673 97.2358 122.823 97.2358C122.972 97.2358 123.022 97.3354 122.947 97.4848C122.872 97.6093 122.897 97.7337 123.047 97.7337C123.196 97.7337 123.221 97.908 123.146 98.1569C123.047 98.4308 123.072 98.5055 123.271 98.381C123.47 98.2565 123.52 98.3312 123.42 98.5802C123.345 98.8042 123.395 98.9785 123.569 98.9785C123.719 98.9785 123.769 99.0781 123.694 99.2274C123.619 99.3519 123.669 99.4764 123.818 99.4764C123.968 99.4764 124.018 99.576 123.943 99.7253C123.868 99.8498 123.918 99.9743 124.067 99.9743C124.217 99.9743 124.291 100.074 124.217 100.198C123.993 100.547 124.341 101.244 124.64 101.045C124.789 100.945 124.839 101.045 124.74 101.294C124.665 101.543 124.69 101.717 124.839 101.717C124.988 101.717 125.013 101.841 124.939 101.966C124.864 102.115 124.914 102.215 125.063 102.215C125.213 102.215 125.287 102.314 125.213 102.439C125.013 102.763 125.312 103.484 125.586 103.31C125.71 103.236 125.735 103.36 125.661 103.559C125.586 103.783 125.636 103.957 125.81 103.957C125.959 103.957 126.009 104.057 125.934 104.206C125.86 104.356 125.91 104.455 126.059 104.455C126.208 104.455 126.258 104.58 126.183 104.704C126.109 104.854 126.159 104.953 126.308 104.953C126.457 104.953 126.507 105.053 126.432 105.202C126.358 105.327 126.383 105.65 126.532 105.899C126.856 106.497 128.2 106.447 128.1 105.825C128.051 105.551 128.125 105.451 128.324 105.601C128.548 105.725 128.573 105.65 128.474 105.376C128.399 105.128 128.424 104.953 128.548 104.953C128.673 104.953 128.698 104.779 128.623 104.53C128.499 104.231 128.548 104.182 128.797 104.331C129.046 104.48 129.096 104.43 128.972 104.132C128.897 103.883 128.922 103.709 129.071 103.709C129.221 103.709 129.27 103.609 129.196 103.484C128.972 103.136 129.32 102.439 129.619 102.638C129.768 102.738 129.818 102.638 129.718 102.389C129.644 102.14 129.669 101.966 129.818 101.966C129.967 101.966 130.017 101.866 129.943 101.742C129.718 101.393 130.067 100.696 130.366 100.895C130.515 100.995 130.565 100.895 130.465 100.646C130.391 100.397 130.416 100.223 130.565 100.223C130.714 100.223 130.739 100.099 130.665 99.9743C130.59 99.8249 130.64 99.7253 130.789 99.7253C130.938 99.7253 131.013 99.6257 130.938 99.5013C130.714 99.1527 131.063 98.4557 131.362 98.6548C131.511 98.7544 131.561 98.6548 131.461 98.4059C131.386 98.1569 131.411 97.9827 131.561 97.9827C131.71 97.9827 131.735 97.8582 131.66 97.7337C131.586 97.5844 131.635 97.4848 131.785 97.4848C131.934 97.4848 132.009 97.3852 131.909 97.2607C131.735 96.962 132.283 95.7172 132.532 95.8666C132.781 96.016 133.079 95.2691 132.88 94.9704C132.805 94.8459 132.88 94.7463 133.03 94.7463C133.179 94.7463 133.229 94.6219 133.154 94.4974C133.079 94.348 133.129 94.2484 133.278 94.2484C133.428 94.2484 133.478 94.124 133.403 93.9995C133.328 93.8501 133.378 93.7505 133.527 93.7505C133.677 93.7505 133.751 93.651 133.652 93.5265C133.478 93.2277 134.025 91.983 134.274 92.1324C134.498 92.2817 135.32 90.5391 135.146 90.2403C135.046 90.1159 135.121 90.0163 135.27 90.0163C135.419 90.0163 135.469 89.8918 135.395 89.7673C135.32 89.618 135.37 89.5184 135.519 89.5184C135.668 89.5184 135.718 89.3939 135.644 89.2694C135.569 89.145 135.619 89.0205 135.768 89.0205C135.917 89.0205 135.967 88.9209 135.892 88.7715C135.818 88.6471 135.868 88.5226 136.017 88.5226C136.166 88.5226 136.216 88.423 136.141 88.2736C136.067 88.1243 136.117 88.0247 136.266 88.0247C136.415 88.0247 136.465 87.9002 136.39 87.7757C136.316 87.6264 136.365 87.5268 136.515 87.5268C136.664 87.5268 136.714 87.4023 136.639 87.2778C136.565 87.1285 136.614 87.0289 136.764 87.0289C136.913 87.0289 136.963 86.9044 136.888 86.7799C136.814 86.6306 136.863 86.531 137.013 86.531C137.162 86.531 137.212 86.4065 137.137 86.282C137.063 86.1576 137.112 86.0331 137.262 86.0331C137.411 86.0331 137.461 85.9086 137.386 85.7841C137.311 85.6348 137.361 85.5352 137.511 85.5352C137.66 85.5352 137.71 85.4356 137.635 85.2862C137.56 85.1618 137.61 85.0373 137.76 85.0373C137.909 85.0373 137.959 84.9377 137.884 84.7883C137.809 84.639 137.859 84.5394 138.009 84.5394C138.158 84.5394 138.208 84.4398 138.133 84.2904C138.058 84.166 138.108 84.0415 138.257 84.0415C138.407 84.0415 138.457 83.9419 138.382 83.7925C138.307 83.6681 138.357 83.5436 138.506 83.5436C138.656 83.5436 138.706 83.4191 138.631 83.2946C138.556 83.1453 138.606 83.0457 138.755 83.0457C138.905 83.0457 138.955 82.9212 138.88 82.7967C138.805 82.6723 138.855 82.5478 139.004 82.5478C139.154 82.5478 139.203 82.4233 139.129 82.2988C139.054 82.1744 139.104 82.0499 139.253 82.0499C139.403 82.0499 139.452 81.9254 139.378 81.8009C139.303 81.6765 139.353 81.552 139.502 81.552C139.652 81.552 139.701 81.4275 139.627 81.3031C139.552 81.1537 139.602 81.0541 139.751 81.0541C139.901 81.0541 139.95 80.9296 139.876 80.8051C139.801 80.6558 139.851 80.5562 140 80.5562C140.149 80.5562 140.199 80.4317 140.125 80.3073C140.05 80.1579 140.1 80.0583 140.249 80.0583C140.398 80.0583 140.448 79.9338 140.374 79.8094C140.299 79.66 140.349 79.5604 140.498 79.5604C140.647 79.5604 140.697 79.4359 140.622 79.3115C140.548 79.1621 140.598 79.0625 140.747 79.0625C140.896 79.0625 140.946 78.938 140.871 78.8136C140.797 78.6642 140.847 78.5646 140.996 78.5646C141.145 78.5646 141.195 78.4401 141.12 78.3157C141.046 78.1663 141.095 78.0667 141.245 78.0667C141.394 78.0667 141.444 77.9422 141.369 77.8178C141.295 77.6684 141.344 77.5688 141.469 77.5688C141.618 77.5688 142.191 76.6726 142.739 75.5523C143.311 74.4569 143.635 73.6105 143.461 73.735C143.311 73.8346 143.485 73.3118 143.884 72.5898L144.606 71.2704L144.78 72.2413C145.253 74.7059 148.066 106.596 147.842 106.945C147.792 107.02 148.514 107.02 149.41 106.945C150.332 106.845 151.8 106.845 152.697 106.92L154.315 107.069L153.892 103.709C152.921 96.3396 149.386 63.5778 149.161 59.8934L149.087 58.7731L148.116 58.798C147.469 58.8229 147.07 58.9723 146.896 59.271C146.722 59.5946 146.747 59.6693 146.946 59.52C147.12 59.4204 147.021 59.7938 146.747 60.3664C146.448 60.939 146.099 61.3871 145.95 61.3871C145.801 61.3871 145.776 61.4867 145.85 61.636C145.925 61.7605 145.875 61.885 145.726 61.885C145.577 61.885 145.527 61.9846 145.601 62.1339C145.676 62.2584 145.626 62.3829 145.477 62.3829C145.328 62.3829 145.278 62.4825 145.353 62.6318C145.427 62.7563 145.377 62.8808 145.228 62.8808C145.079 62.8808 145.029 62.9804 145.104 63.1297C145.178 63.2542 145.128 63.3787 144.979 63.3787C144.83 63.3787 144.78 63.4783 144.855 63.6276C144.929 63.7521 144.88 63.8766 144.73 63.8766C144.581 63.8766 144.531 63.9761 144.606 64.1255C144.68 64.25 144.631 64.3745 144.506 64.3745C144.357 64.3745 143.784 65.2707 143.236 66.391C142.664 67.4863 142.34 68.3328 142.465 68.2332C142.664 68.1336 142.639 68.283 142.465 68.7062C142.29 69.0547 142.066 69.2788 141.967 69.2041C141.842 69.1294 141.817 69.2788 141.917 69.5028C142.017 69.8016 141.992 69.8763 141.793 69.7518C141.593 69.6273 141.544 69.7269 141.668 70.0007C141.768 70.2995 141.743 70.3742 141.544 70.2497C141.344 70.1252 141.295 70.2248 141.419 70.4986C141.519 70.7974 141.494 70.8721 141.295 70.7476C141.095 70.6231 141.046 70.7227 141.17 70.9965C141.27 71.2953 141.245 71.37 141.046 71.2455C140.847 71.121 140.797 71.2206 140.921 71.4944C141.021 71.7932 140.996 71.8679 140.797 71.7434C140.598 71.6189 140.548 71.7185 140.672 71.9923C140.772 72.2911 140.747 72.3658 140.548 72.2413C140.349 72.1168 140.299 72.2164 140.423 72.4902C140.523 72.789 140.498 72.8637 140.299 72.7392C140.1 72.6396 140.05 72.6894 140.149 72.9383C140.224 73.1375 140.075 73.5109 139.801 73.7848C139.527 74.0586 139.353 74.3574 139.428 74.432C139.527 74.5067 139.452 74.5814 139.278 74.5814C139.104 74.5814 139.054 74.681 139.129 74.8304C139.203 74.9548 139.154 75.0793 139.004 75.0793C138.855 75.0793 138.805 75.1789 138.88 75.3283C138.955 75.4527 138.905 75.5772 138.755 75.5772C138.606 75.5772 138.556 75.6768 138.631 75.8262C138.706 75.9506 138.656 76.0751 138.506 76.0751C138.357 76.0751 138.307 76.1747 138.382 76.3241C138.457 76.4485 138.407 76.573 138.257 76.573C138.108 76.573 138.058 76.6726 138.133 76.822C138.208 76.9464 138.158 77.0709 138.009 77.0709C137.859 77.0709 137.809 77.1705 137.884 77.3199C137.959 77.4443 137.909 77.5688 137.76 77.5688C137.61 77.5688 137.56 77.6684 137.635 77.8178C137.71 77.9422 137.66 78.0667 137.511 78.0667C137.361 78.0667 137.311 78.1663 137.386 78.3157C137.461 78.4401 137.411 78.5646 137.262 78.5646C137.112 78.5646 137.063 78.6642 137.137 78.8136C137.212 78.938 137.162 79.0625 137.013 79.0625C136.863 79.0625 136.814 79.1621 136.888 79.3115C136.963 79.4359 136.913 79.5604 136.764 79.5604C136.614 79.5604 136.565 79.66 136.639 79.8094C136.714 79.9338 136.664 80.0583 136.515 80.0583C136.365 80.0583 136.316 80.1579 136.39 80.3073C136.465 80.4317 136.415 80.5562 136.266 80.5562C136.117 80.5562 136.067 80.6558 136.141 80.8051C136.216 80.9296 136.166 81.0541 136.017 81.0541C135.868 81.0541 135.818 81.1537 135.892 81.3031C135.967 81.4275 135.917 81.552 135.768 81.552C135.619 81.552 135.569 81.6516 135.644 81.8009C135.718 81.9254 135.668 82.0499 135.519 82.0499C135.37 82.0499 135.32 82.1495 135.395 82.2988C135.469 82.4233 135.419 82.5478 135.27 82.5478C135.121 82.5478 135.071 82.6474 135.146 82.7967C135.22 82.9212 135.17 83.0457 135.021 83.0457C134.872 83.0457 134.822 83.1453 134.897 83.2946C134.971 83.4191 134.922 83.5436 134.772 83.5436C134.623 83.5436 134.573 83.6432 134.648 83.7925C134.722 83.917 134.673 84.0415 134.523 84.0415C134.374 84.0415 134.324 84.1411 134.399 84.2904C134.473 84.4149 134.424 84.5394 134.274 84.5394C134.125 84.5394 134.075 84.639 134.15 84.7883C134.224 84.9128 134.175 85.0373 134.025 85.0373C133.876 85.0373 133.826 85.1369 133.901 85.2862C133.976 85.4107 133.926 85.5352 133.776 85.5352C133.627 85.5352 133.577 85.6348 133.652 85.7841C133.727 85.9086 133.677 86.0331 133.527 86.0331C133.378 86.0331 133.328 86.1327 133.403 86.282C133.478 86.4065 133.428 86.531 133.278 86.531C133.129 86.531 133.079 86.6306 133.154 86.7799C133.229 86.9044 133.179 87.0289 133.03 87.0289C132.88 87.0289 132.83 87.1285 132.905 87.2778C132.98 87.4023 132.93 87.5268 132.805 87.5268C132.656 87.5268 131.859 88.8711 131.038 90.5391C130.192 92.1822 129.644 93.4767 129.793 93.3771C129.943 93.3024 129.793 93.7256 129.494 94.3729C128.997 95.3936 128.797 95.4932 128.748 94.821C128.723 94.6965 128.548 94.4725 128.324 94.2982C128.1 94.0991 128.075 94.0493 128.25 94.124C128.474 94.2484 128.399 93.9248 128.075 93.2775C127.777 92.7049 127.403 92.2568 127.254 92.2568C127.105 92.2568 127.055 92.1822 127.129 92.0826C127.229 92.0079 127.105 91.7838 126.856 91.5847C126.632 91.3855 126.582 91.3108 126.756 91.3855C126.93 91.4851 126.731 90.8876 126.308 90.0412C125.91 89.1948 125.437 88.5226 125.287 88.5226C125.163 88.5226 125.113 88.3981 125.188 88.2736C125.262 88.1243 125.213 88.0247 125.088 88.0247C124.939 88.0247 124.839 87.95 124.839 87.8255C124.914 87.3276 124.789 87.0289 124.515 87.1783C124.341 87.2778 124.316 87.2529 124.416 87.0787C124.615 86.755 122.424 82.2988 122.051 82.2988C121.926 82.2988 121.877 82.1744 121.951 82.0499C122.026 81.9254 121.976 81.8009 121.827 81.8009C121.677 81.8009 121.628 81.6765 121.702 81.552C121.777 81.4026 121.727 81.3031 121.578 81.3031C121.428 81.3031 121.379 81.1786 121.453 81.0541C121.528 80.9047 121.478 80.8051 121.329 80.8051C121.18 80.8051 121.13 80.6807 121.204 80.5562C121.279 80.4068 121.229 80.3073 121.08 80.3073C120.931 80.3073 120.881 80.1828 120.955 80.0583C121.03 79.9089 120.98 79.8094 120.831 79.8094C120.682 79.8094 120.632 79.6849 120.707 79.5604C120.781 79.411 120.731 79.3115 120.582 79.3115C120.433 79.3115 120.383 79.187 120.458 79.0625C120.532 78.9131 120.482 78.8136 120.333 78.8136C120.184 78.8136 120.134 78.6891 120.209 78.5646C120.283 78.4152 120.234 78.3157 120.084 78.3157C119.935 78.3157 119.885 78.1912 119.96 78.0667C120.034 77.9173 119.985 77.8178 119.835 77.8178C119.686 77.8178 119.636 77.6933 119.711 77.5688C119.785 77.4443 119.736 77.3199 119.586 77.3199C119.437 77.3199 119.387 77.1954 119.462 77.0709C119.536 76.9215 119.487 76.822 119.337 76.822C119.188 76.822 119.113 76.7224 119.213 76.5979C119.387 76.2992 117.321 72.067 117.072 72.2413C116.848 72.3658 116.549 71.6189 116.748 71.3202C116.823 71.1957 116.748 71.0961 116.599 71.0961C116.449 71.0961 116.4 70.9716 116.474 70.8472C116.549 70.6978 116.499 70.5982 116.35 70.5982C116.201 70.5982 116.151 70.4737 116.225 70.3493C116.3 70.1999 116.25 70.1003 116.101 70.1003C115.952 70.1003 115.902 69.9758 115.976 69.8514C116.051 69.702 116.001 69.6024 115.852 69.6024C115.703 69.6024 115.653 69.4779 115.728 69.3535C115.802 69.2041 115.752 69.1045 115.603 69.1045C115.454 69.1045 115.379 69.0049 115.479 68.8805C115.653 68.5817 114.831 66.8391 114.582 66.9884C114.358 67.1378 114.06 66.391 114.259 66.0922C114.333 65.9677 114.259 65.8682 114.109 65.8682C113.96 65.8682 113.91 65.7437 113.985 65.6192C114.06 65.4698 114.01 65.3703 113.86 65.3703C113.711 65.3703 113.661 65.2458 113.736 65.1213C113.811 64.972 113.761 64.8724 113.611 64.8724C113.462 64.8724 113.387 64.7728 113.487 64.6483C113.686 64.2998 112.815 62.6318 112.541 62.8061C112.392 62.9057 112.342 62.8061 112.441 62.5571C112.516 62.3082 112.491 62.1339 112.342 62.1339C112.192 62.1339 112.168 62.0094 112.242 61.885C112.317 61.7356 112.267 61.636 112.118 61.636C111.968 61.636 111.919 61.5115 111.993 61.3871C112.068 61.2377 112.018 61.1381 111.869 61.1381C111.719 61.1381 111.67 61.0385 111.744 60.8892C111.819 60.7647 111.67 60.2419 111.421 59.744C110.997 58.8976 110.873 58.8229 109.827 58.798L108.707 58.7731L108.533 60.8892Z" fill="white"></path>
<path d="M159.542 82.9211V107.069L161.036 106.92C161.858 106.845 163.252 106.845 164.148 106.92L165.766 107.069L165.692 96.0905L165.642 85.087L169.55 85.1119C172.488 85.1368 173.857 85.0372 174.952 84.7135C175.774 84.4895 176.521 84.365 176.62 84.4397C176.72 84.4895 176.894 84.4148 176.969 84.2654C177.069 84.141 177.293 84.0663 177.492 84.141C177.691 84.2156 177.84 84.1658 177.84 84.0165C177.84 83.8671 178.015 83.7924 178.214 83.892C178.413 83.9667 178.587 83.9169 178.587 83.7924C178.587 83.6679 178.761 83.6182 178.961 83.6928C179.16 83.7924 179.334 83.7177 179.334 83.5435C179.334 83.3941 179.434 83.3194 179.583 83.419C179.907 83.6182 182.496 82.2738 183.989 81.1038C185.209 80.1329 186.778 78.2657 186.031 78.6641C185.856 78.7636 185.956 78.6143 186.305 78.3155C186.653 78.0168 186.778 77.8425 186.603 77.9421C186.404 78.0417 186.429 77.8176 186.703 77.2202C186.952 76.7471 187.251 76.4235 187.375 76.4982C187.524 76.5978 187.574 76.4982 187.475 76.2492C187.4 76.0003 187.425 75.826 187.524 75.826C187.649 75.826 187.748 75.5771 187.748 75.2534C187.748 74.9547 187.873 73.7349 188.047 72.515C188.296 70.7973 188.296 69.901 188.047 68.1584C187.873 66.9634 187.724 65.7934 187.724 65.5444C187.699 65.3204 187.599 65.1212 187.475 65.1212C187.375 65.1212 187.35 64.9967 187.425 64.8722C187.5 64.7229 187.475 64.6233 187.325 64.6233C187.176 64.6233 187.126 64.4739 187.201 64.2748C187.275 64.1005 187.027 63.752 186.678 63.5279C186.329 63.3039 186.105 63.0051 186.18 62.8807C186.354 62.5819 185.359 61.5861 185.06 61.7604C184.935 61.8351 184.661 61.6359 184.437 61.3123C184.064 60.7148 182.869 60.0177 182.645 60.2418C182.57 60.3165 182.222 60.2418 181.848 60.0924C179.608 59.246 177.89 59.0717 168.754 58.9224L159.542 58.773V82.9211ZM176.023 62.0342C176.521 62.1338 176.77 62.3081 176.67 62.4574C176.571 62.6068 176.67 62.6566 176.919 62.557C177.168 62.4823 177.342 62.5072 177.342 62.6566C177.342 62.806 177.442 62.8309 177.591 62.7562C177.865 62.5819 180.853 65.5195 180.629 65.7187C180.554 65.7934 180.629 65.868 180.803 65.868C180.977 65.868 181.027 65.9676 180.952 66.117C180.877 66.2415 180.927 66.3659 181.077 66.3659C181.226 66.3659 181.276 66.4904 181.176 66.6398C181.102 66.7892 181.151 66.9883 181.301 67.0879C181.475 67.1875 181.724 68.0339 181.848 68.955C182.147 70.847 181.823 74.2825 181.301 74.5813C181.151 74.6809 181.102 74.9049 181.176 75.0543C181.276 75.2037 181.251 75.3281 181.102 75.3281C180.952 75.3281 180.927 75.5024 181.002 75.7513C181.102 76.0003 181.052 76.0999 180.902 76.0003C180.604 75.8011 180.255 76.4982 180.454 76.8218C180.529 76.9463 180.454 77.1206 180.305 77.2202C180.106 77.3446 180.081 77.2948 180.205 77.0708C180.355 76.8467 180.305 76.7969 180.106 76.9214C179.931 77.0459 179.857 77.2699 179.931 77.4442C180.006 77.6434 179.857 77.9172 179.633 78.1164C179.259 78.3902 179.234 78.3902 179.458 78.0666C179.608 77.8425 179.508 77.8923 179.259 78.1911C179.01 78.4649 178.537 78.913 178.239 79.1869C177.94 79.4607 177.865 79.5603 178.089 79.4358C178.413 79.2117 178.413 79.2366 178.114 79.6101C177.94 79.859 177.691 79.9835 177.566 79.9088C177.268 79.7345 176.297 80.4316 176.521 80.6557C176.62 80.7552 176.496 80.7552 176.247 80.6557C175.923 80.5312 175.824 80.5561 175.948 80.7552C176.073 80.9544 175.998 81.0042 175.749 80.9046C175.525 80.8299 175.351 80.8797 175.351 81.0291C175.351 81.1785 175.276 81.278 175.177 81.2531C175.052 81.2282 174.654 81.3776 174.231 81.5519C173.758 81.7759 172.065 81.9253 169.575 82L165.642 82.0996V72.0171V61.9097L166.214 61.7853C166.886 61.6359 174.903 61.8351 176.023 62.0342Z" fill="white"></path>
<path d="M224.767 82.7963V106.82H236.866H248.965L248.716 106.098C248.591 105.725 248.541 104.704 248.616 103.857L248.765 102.289L247.471 102.488C245.454 102.812 238.334 103.21 234.401 103.21H230.866L230.916 80.979L230.99 58.7727L229.447 58.8971C228.576 58.9718 227.181 58.9718 226.335 58.8971L224.767 58.7727V82.7963Z" fill="white"></path>
</g>
</g>
<defs>
<clipPath id="clip0_1049_6422">
<rect width="214.965" height="61.5845" fill="white" transform="translate(81.3379 52.2887)"></rect>
</clipPath>
<clipPath id="clip1_1049_6422">
<rect width="211.607" height="51.7815" fill="white" transform="translate(84.2354 57.9014)"></rect>
</clipPath>
</defs>
</svg>