<svg width="377" height="165" viewBox="0 0 377 165" fill="none" xmlns="http://www.w3.org/2000/svg">
<g clip-path="url(#clip0_1049_6533)">
<path d="M177.703 55.4794C175.269 56.0723 172.918 58.4963 170.987 62.4223C169.138 66.2033 167.942 70.6694 167.357 76.0181C167.044 78.8901 167.153 84.7922 167.561 87.3744C168.2 91.4057 169.233 95.661 170.09 97.8479L170.43 98.7043L169.927 99.4288C168.091 102.024 165.182 103.816 162.205 104.172C157.161 104.778 153.341 101.537 152.946 96.3065C152.878 95.437 152.919 95.0945 153.232 94.0933C154.306 90.5362 154.197 86.2546 152.96 83.791C151.954 81.8148 150.105 81.2879 148.229 82.434C145.986 83.8173 144.341 88.2571 143.974 93.9615C143.892 95.3975 143.878 95.4239 143.09 96.9257C141.717 99.5342 140.452 100.904 139.066 101.286C136.959 101.853 134.865 99.9558 133.179 95.9508C132.88 95.2394 132.241 93.4477 131.738 91.9459C129.06 83.7646 128.53 82.434 127.428 81.2879C126.395 80.1944 125.607 80.0627 124.234 80.7345C122.575 81.525 120.808 83.3957 116.879 88.4942C114.404 91.6955 113.018 93.2501 112.338 93.5795C111.957 93.7771 111.93 93.7771 111.427 93.2633C110.639 92.4465 110.081 90.8129 108.79 85.4114C108.463 84.0808 108.3 83.8832 107.484 83.8832C107.077 83.8832 106.56 83.9886 106.207 84.1599C105.336 84.5551 104.33 85.6485 103.963 86.5839C103.787 87.0187 103.039 89.6799 102.291 92.5123C101.557 95.3316 100.578 98.8624 100.13 100.351C98.5389 105.581 98.1854 107.017 98.1854 108.348C98.1718 109.362 98.2126 109.613 98.4573 109.916C98.9739 110.601 99.409 110.811 100.252 110.825C102.033 110.825 103.963 109.415 111.427 102.67C119.584 95.2789 121.963 93.7244 123.839 94.528C125.566 95.2658 126.721 96.9653 129.155 102.301C131.738 107.979 133.206 110.047 135.15 110.746C137.434 111.576 139.107 110.443 142.193 105.95C144.572 102.498 145.564 101.405 146.353 101.405C146.856 101.405 147.753 102.367 148.664 103.855C151.002 107.729 152.307 109.231 154.088 110.14C155.788 111.009 157.446 111.193 160.233 110.825C163.591 110.39 165.712 109.494 169.478 106.899C171.544 105.476 172.102 105.186 172.809 105.186C173.529 105.186 174.114 105.555 175.868 107.136C178.152 109.204 179.484 110.06 181.251 110.574C182.23 110.864 184.691 110.904 186.2 110.64C188.28 110.284 190.809 109.283 192.957 107.966L193.813 107.439L194.914 108.44C196.723 110.087 199.02 111.009 201.331 111.022C203.738 111.022 206.919 110.443 209.189 109.586C213.173 108.084 216.109 105.792 220.31 100.904C222.934 97.8479 223.668 97.2946 224.388 97.8084C224.959 98.23 225.313 98.9546 226.183 101.603C227.706 106.253 228.549 107.926 230.03 109.283C232.913 111.918 237.684 111.207 241.79 107.518C246.249 103.5 250.07 95.6742 251.47 87.6379C251.891 85.2665 251.918 81.8017 251.538 80.6687C251.021 79.1405 249.811 78.3632 248.275 78.5476C245.95 78.8243 243.938 80.9453 243 84.0808C242.728 85.0162 242.687 85.4114 242.687 87.7037C242.687 90.0883 242.715 90.3781 243.068 91.7219C243.585 93.6453 243.693 94.752 243.558 96.2934C243.286 99.1522 242.171 101.971 240.743 103.381C239.465 104.646 238.405 104.725 237.141 103.631C235.373 102.13 234 98.836 231.866 90.9578C230.126 84.5287 229.432 82.5262 228.549 81.3537C227.964 80.5896 227.434 80.4447 226.482 80.7872C225.123 81.301 224.429 82.3682 222.975 86.2546C219.032 96.8335 215.225 102.235 210.399 104.132C208.618 104.817 206.484 105.015 204.92 104.62C204.037 104.396 202.786 103.829 202.256 103.421L201.929 103.157L203.479 102.13C205.722 100.654 207.177 99.4947 208.564 98.0982C211.188 95.4766 212.207 93.3423 212.194 90.5494C212.167 86.3731 209.923 82.2759 206.892 80.8268C206.035 80.4184 205.913 80.392 204.485 80.392C203.153 80.392 202.881 80.4447 202.038 80.7741C197.008 82.7634 192.739 89.1661 191.72 96.2538C191.42 98.3222 191.434 101.418 191.76 102.92C192.046 104.277 192.046 104.303 191.067 104.778C189.096 105.753 187.07 105.66 184.704 104.501C182.475 103.407 180.082 101.076 179.402 99.3235L179.158 98.7043L180.436 96.267C182.312 92.71 183.291 90.7338 184.038 88.9816C186.146 84.0018 187.233 78.7979 187.491 72.2898C187.587 69.8262 187.369 65.5314 187.084 63.99C186.472 60.7887 185.017 58.1538 183.073 56.731C182.135 56.0459 181.414 55.7297 180.245 55.4926C179.158 55.2686 178.614 55.2686 177.703 55.4794ZM179.769 64.6619C180.395 64.8859 181.156 65.7027 181.455 66.4931C182.434 69.0358 182.502 73.9366 181.632 79.0746C180.789 83.9359 179.076 89.0212 177.676 90.826C176.982 91.7351 176.099 91.2081 175.596 89.5745C174.821 87.0055 174.427 80.1944 174.78 75.3858C175.378 67.3626 177.091 63.687 179.769 64.6619ZM203.194 87.9672C203.819 88.2834 204.268 88.8235 204.784 89.8775C205.138 90.6284 205.165 90.7733 205.165 92.4465C205.151 94.0406 205.111 94.3304 204.771 95.2789C204.05 97.2814 202.732 98.7701 200.828 99.6923C199.836 100.18 199.618 100.18 199.278 99.7187C198.354 98.4671 197.797 96.6491 197.674 94.6202C197.497 91.5375 198.639 89.1397 200.774 88.1121C201.753 87.6379 202.432 87.5983 203.194 87.9672Z" fill="white"></path>
<path d="M150.948 57.5873C148.188 58.3646 146.271 61.5923 146.76 64.7014C146.951 65.9661 147.304 66.7566 148.066 67.5339C148.963 68.4692 149.792 68.7854 151.328 68.7986C152.443 68.7986 152.634 68.7591 153.463 68.3638C156.957 66.7039 158.303 61.2234 155.801 58.7993C154.659 57.6927 152.511 57.1525 150.948 57.5873Z" fill="white"></path>
<path d="M89.5387 60.5513C88.0841 60.9861 86.6566 62.2772 85.8681 63.8844C85.2019 65.2282 84.9164 66.4534 84.9164 68.0212C84.9164 69.747 85.2019 71.0117 86.4119 74.5951C86.9965 76.3341 87.5675 78.2049 87.6898 78.745C88.3832 81.8805 88.3288 85.543 87.5539 90.4306C86.5478 96.7411 84.6989 101.207 82.0343 103.737C80.9467 104.777 80.4572 105.133 79.3152 105.7C77.6431 106.516 76.5554 106.74 74.1763 106.74C72.2186 106.727 71.9875 106.701 70.9815 106.372C68.0721 105.383 65.7882 103.131 64.3743 99.8239C63.8305 98.5592 63.2323 96.2932 62.974 94.4751C62.4302 90.7205 62.3622 83.0267 62.8244 78.8768C63.0963 76.4659 63.2731 75.3197 64.2111 70.1817C64.8501 66.7037 64.9724 65.7684 64.986 64.3851C64.9996 62.9886 64.9589 62.6592 64.7277 62.2245C64.1567 61.131 63.3138 60.9071 61.5193 61.3418C59.0722 61.9478 57.5903 62.9359 56.6115 64.6485C55.2656 67.0067 53.4846 73.6729 52.6825 79.3379C52.329 81.841 52.1795 88.494 52.4106 91.1552C53.2399 100.43 56.7066 106.451 62.974 109.494C66.1552 111.035 69.418 111.641 73.9452 111.509C76.7322 111.43 77.8742 111.246 79.9678 110.548C86.4255 108.4 91.442 102.577 93.9435 94.3434C95.371 89.627 95.7925 85.6352 95.7925 76.8348C95.7925 71.0381 95.507 68.0343 94.7185 65.0043C94.1203 62.7515 93.0735 61.0388 92.0266 60.6172C91.5644 60.4196 90.1097 60.3933 89.5387 60.5513Z" fill="white"></path>
<path d="M312.104 78.0207C309.426 78.6003 307.291 79.7333 305.171 81.6963C302.384 84.2785 300.072 88.0463 297.272 94.6203C295.994 97.624 295.586 98.4013 295.124 98.8097C294.865 99.0337 294.811 99.0468 294.39 98.8492C293.207 98.2959 292.581 96.4252 291.902 91.3926C290.95 84.2916 290.719 83.1323 290.107 82.4209C289.482 81.6963 288.095 81.973 287.008 83.0269C286.192 83.8174 285.675 84.8977 284.982 87.2427C282.494 95.6874 277.994 102.156 273.045 104.356C271.536 105.041 270.489 105.265 268.858 105.265C265.867 105.278 263.325 104.093 263.447 102.736C263.488 102.314 263.57 102.222 264.168 101.906C264.548 101.708 265.772 101.221 266.887 100.799C271.618 99.0732 274.418 97.2156 275.792 94.9101C276.77 93.2633 277.246 90.6416 276.893 88.8763C276.213 85.5432 273.684 82.5131 270.721 81.5119C269.429 81.0639 267.213 80.9981 265.718 81.3669C260.456 82.6317 256.187 87.572 254.733 94.0538C254.325 95.9114 254.135 98.5462 254.298 100.338C254.814 105.924 257.52 109.323 262.455 110.588C263.583 110.877 264.059 110.93 266.003 110.943C270.245 110.956 273.372 109.968 276.879 107.478C279.843 105.397 282.847 101.8 284.982 97.8085L285.811 96.2407L286.097 97.2815C286.26 97.848 286.695 99.6397 287.075 101.273C288.557 107.61 289.563 109.955 291.154 110.732C292.541 111.404 293.927 110.877 295.11 109.231C295.708 108.387 296.524 106.727 298.835 101.669C302.805 92.9735 305.021 89.1529 307.468 86.7816C308.936 85.3588 310.554 84.5419 311.927 84.5419C312.729 84.5419 313.069 84.8186 313.79 86.0702C314.728 87.6774 315.598 88.2571 317.501 88.5074C319.894 88.8236 321.838 87.8882 322.749 86.0043C322.98 85.5037 323.034 85.148 323.034 83.9491C323.034 82.5922 323.007 82.4472 322.599 81.6041C321.838 80.0627 320.261 78.8507 318.154 78.1919C317.039 77.8362 313.396 77.7308 312.104 78.0207ZM267.499 87.5457C268.206 87.8619 268.94 88.6918 269.293 89.5218C269.524 90.1147 269.592 90.5494 269.606 91.5375C269.606 92.7232 269.579 92.8417 269.089 93.8166C268.002 95.9377 265.527 97.7031 262.618 98.4408C262.088 98.5726 261.707 98.6121 261.626 98.533C261.326 98.2432 261.082 96.0694 261.15 94.2909C261.258 91.5507 261.857 89.7326 263.067 88.5206C264.277 87.2822 266.058 86.9001 267.499 87.5457Z" fill="white"></path>
</g>
<defs>
<clipPath id="clip0_1049_6533">
<rect width="271.901" height="58.0986" fill="white" transform="translate(52.2888 53.4507)"></rect>
</clipPath>
</defs>
</svg>