<svg width="139" height="43" viewBox="0 0 139 43" fill="none" xmlns="http://www.w3.org/2000/svg">
<path d="M0 14.1894V28.361H3.29778H6.59556V14.1894V0.0178792H3.29778H0V14.1894Z" fill="white"></path>
<path d="M12.9773 0.249389C11.4086 0.766338 9.85778 2.38849 9.42996 3.99281C9.32301 4.38498 9.26953 6.3993 9.30518 8.93057L9.35866 13.1731L9.91126 13.8683C10.3391 14.3853 10.856 14.7061 12.2286 15.2944C13.8686 15.9718 17.7546 17.487 19.3055 18.0396L19.965 18.2713V19.5726C19.965 21.3552 19.7333 21.5869 17.9685 21.5869C17.2555 21.5869 16.5781 21.5156 16.4712 21.4443C16.0612 21.1769 15.8651 20.5174 15.8651 19.4656V18.3783H12.5673H9.26953L9.28736 21.2661C9.28736 23.5834 9.35866 24.3321 9.5904 24.9203C10.0717 26.0969 11.1056 27.2021 12.2464 27.7725L13.2803 28.2716H17.9151C22.532 28.2716 22.5498 28.2716 23.5302 27.8081C24.7067 27.2555 25.5267 26.4534 26.1684 25.2412C26.6497 24.3499 26.6497 24.3143 26.7032 20.0717C26.7567 15.847 26.7567 15.7757 26.3289 14.9914C26.0971 14.5457 25.6515 14.0109 25.3484 13.8149C24.7958 13.4405 22.7815 12.6027 18.2716 10.9271L15.9542 10.0536L15.9007 9.18013C15.776 7.18364 16.2038 6.70234 18.1111 6.70234C19.6976 6.70234 19.965 6.98756 19.965 8.69884V10.0001H23.3698H26.7745L26.7032 7.00538C26.6497 4.36716 26.5962 3.93934 26.2576 3.2263C25.7406 2.17458 24.5998 1.03373 23.548 0.516776C22.7637 0.124608 22.5141 0.106782 18.1825 0.0711304C15.0273 0.0533046 13.4408 0.106782 12.9773 0.249389Z" fill="white"></path>
<path d="M29.2344 14.1892V28.3607L32.5856 28.3251L35.9191 28.2716L36.0082 21.4978L36.0973 14.724L36.436 16.5957C36.6143 17.6296 36.8282 18.8596 36.9173 19.3587C36.9886 19.84 37.1847 20.8917 37.3273 21.676C37.4699 22.4604 37.773 24.1004 37.9869 25.3303C38.5573 28.6816 38.2364 28.3607 41.1777 28.3607C42.5503 28.3607 43.6733 28.3251 43.6733 28.2538C43.6733 28.2003 44.1546 25.5442 44.725 22.3356C45.3133 19.1269 45.8481 16.0966 45.9372 15.6153C46.0263 15.027 46.1154 17.0057 46.1689 21.4978L46.2581 28.2716L49.6093 28.3251L52.9427 28.3607V14.1892V0.0176474H48.2189C43.5307 0.0176474 43.495 0.0176474 43.495 0.39199C43.495 0.6059 43.1207 2.78065 42.6751 5.25844C42.2294 7.71841 41.7125 10.6062 41.5342 11.6757C41.3381 12.7453 41.1599 13.6366 41.1242 13.6901C41.0707 13.7257 40.9103 13.0127 40.7499 12.1036C40.5894 11.1944 40.3755 10.0358 40.2686 9.55447C39.9834 8.1284 38.8425 1.78241 38.7177 0.908939L38.5929 0.106777L33.9047 0.0532991L29.2344 0.0176474V14.1892Z" fill="white"></path>
<path d="M60.269 1.12308C60.162 1.74699 59.7877 3.85043 59.449 5.81128C59.1103 7.77212 58.5399 10.9451 58.2012 12.8525C57.8625 14.7598 57.1673 18.6102 56.686 21.4089C56.2047 24.2075 55.7234 26.8636 55.6521 27.3271C55.563 27.7905 55.5273 28.2184 55.5808 28.2718C55.6343 28.3253 57.1495 28.361 58.932 28.361H62.1942L62.3011 27.5053C62.3724 27.0418 62.4972 26.3823 62.5685 26.0436C62.6576 25.7049 62.7824 24.9562 62.8359 24.3858L62.9607 23.3697H65.2246H67.4885L67.8984 25.8653L68.3263 28.361H71.7132H75.0823L74.9575 27.8618C74.8862 27.5945 74.7614 26.9349 74.6901 26.4001C74.601 25.8653 74.3692 24.5284 74.1731 23.4589C73.9771 22.3715 73.5314 19.858 73.1749 17.8437C72.8362 15.8294 72.3727 13.2981 72.1766 12.2286C71.9806 11.1412 71.7488 9.82209 71.6597 9.28732C71.5706 8.75254 71.3032 7.18387 71.0536 5.81128C70.8041 4.43869 70.5723 3.03045 70.501 2.69175C70.4475 2.35306 70.3049 1.60438 70.198 1.03395L70.0019 0.0178792H65.2424H60.4651L60.269 1.12308ZM65.9198 14.6707C66.2406 16.4711 66.4902 18.0398 66.4902 18.1468C66.4902 18.432 64.2441 18.4676 64.0837 18.2002C64.0302 18.1111 64.1907 16.8455 64.4581 15.4016C64.7076 13.9577 64.9572 12.4603 65.0107 12.086C65.0641 11.7295 65.1711 11.4264 65.2246 11.4264C65.2959 11.4264 65.5989 12.8881 65.9198 14.6707Z" fill="white"></path>
<path d="M81.3572 0.267322C80.3412 0.588188 79.129 1.46165 78.5586 2.28164C77.5247 3.77901 77.5425 3.45815 77.5425 16.4354V28.343L80.8938 28.3074L84.2272 28.2717L84.2807 22.9596L84.3163 17.6653H88.6836H93.051V14.6349V11.6046H88.6836H84.3163V9.55458C84.3163 6.52419 84.1024 6.61332 90.698 6.61332H95.0118V3.31554V0.0177607L88.5589 0.0355866C83.8172 0.0355866 81.892 0.10689 81.3572 0.267322Z" fill="white"></path>
<path d="M101.25 0.285041C100.074 0.659383 98.7904 1.72893 98.1487 2.86979L97.5961 3.85021L97.5426 13.0305C97.5069 19.1448 97.5604 22.5852 97.6852 23.3517C98.0417 25.4551 99.1291 27.006 100.823 27.8438L101.696 28.2716H108.381H115.065V24.9738V21.676L110.021 21.5869C103.96 21.48 104.281 21.6226 104.281 19.1626V17.6652H108.648H113.015V14.6348V11.6044H108.648H104.281V9.66143C104.281 7.8432 104.316 7.66494 104.709 7.20147L105.136 6.70234L110.145 6.64886L115.155 6.59539V3.29761V0.0176529L108.612 0.0354788C103.496 0.0354788 101.874 0.0889563 101.25 0.285041Z" fill="white"></path>
<path d="M117.65 14.1894V28.361H120.948H124.246V24.6354V20.8919L125.44 20.268C126.1 19.9115 126.724 19.6263 126.831 19.6263C126.92 19.6263 127.936 21.2485 129.059 23.2271C130.182 25.188 131.323 27.1488 131.59 27.5766L132.089 28.361H135.262C137.009 28.361 138.489 28.3075 138.56 28.254C138.614 28.2005 138.471 27.844 138.239 27.4875C138.025 27.131 136.884 25.2058 135.726 23.1915C134.585 21.1771 133.284 18.9489 132.856 18.2359C132.446 17.505 132.089 16.8989 132.089 16.8455C132.089 16.8098 132.731 16.4533 133.515 16.0611C135.209 15.2055 136.064 14.3855 136.706 13.0486C137.17 12.0681 137.17 11.979 137.17 8.12863C137.17 4.42086 137.152 4.15347 136.76 3.31566C136.243 2.19263 135.28 1.19438 134.139 0.588303L133.248 0.107005L125.458 0.0535279L117.65 5.04088e-05V14.1894ZM130.146 7.13039C130.414 7.46908 130.485 7.82559 130.485 9.09123C130.485 10.8382 130.396 10.9808 128.97 11.7295C128.578 11.9255 127.401 12.5494 126.367 13.102C125.333 13.6546 124.424 14.0468 124.371 13.9755C124.192 13.8151 124.21 6.88082 124.389 6.72039C124.46 6.64909 125.708 6.61344 127.152 6.64909C129.683 6.70257 129.825 6.72039 130.146 7.13039Z" fill="white"></path>
<path d="M127.936 35.5447C126.599 35.9547 125.975 37.0243 126.385 38.2542C126.634 39.0386 127.347 39.5377 128.649 39.8764C129.879 40.1973 130.306 40.5359 130.021 40.9816C129.754 41.4094 128.613 41.4629 127.775 41.0885L127.08 40.7677L126.652 41.3025C126.42 41.5877 126.224 41.9085 126.207 42.0155C126.207 42.3185 127.419 42.7998 128.488 42.9068C130.538 43.1207 131.715 42.4077 131.875 40.8746C131.946 40.0903 131.893 39.9655 131.34 39.3773C130.895 38.896 130.431 38.6464 129.451 38.3612C128.114 37.9512 127.775 37.6482 128.167 37.1847C128.453 36.8282 129.415 36.846 130.306 37.2025C131.091 37.5234 131.18 37.4699 131.733 36.5251C131.982 36.1151 131.394 35.723 130.146 35.4912C128.987 35.2773 128.809 35.2773 127.936 35.5447Z" fill="white"></path>
<path d="M52.9424 39.1455V42.7998H53.7445H54.5467V41.4629V40.1438L56.1154 40.0903L57.6662 40.0368L57.7197 39.2703L57.7732 38.5216H56.1689H54.5467V37.8086V37.0955H56.2402H57.9336V36.2934V35.4912H55.438H52.9424V39.1455Z" fill="white"></path>
<path d="M59.1816 39.1455V42.7998H61.8733H64.5472L64.4937 42.0333L64.4403 41.2846L62.7112 41.2311L60.9642 41.1777V40.5716V39.9477H62.4794H63.9946V39.1455V38.3433H62.4794H60.9642V37.7194V37.0955H62.6577H64.3511V36.2934V35.4912H61.7664H59.1816V39.1455Z" fill="white"></path>
<path d="M65.7773 39.1455V42.7998H66.5795H67.3817V41.552V40.3042H68.0591C68.7186 40.3042 68.7543 40.3398 69.3425 41.552L69.9486 42.7998H70.8934C71.4103 42.7998 71.8381 42.7463 71.8381 42.6572C71.8381 42.5859 71.5173 41.9798 71.1429 41.3381L70.4477 40.1259L71.0538 39.5199C71.5886 38.9851 71.6599 38.8068 71.6599 37.9868C71.6599 36.0438 70.7864 35.4912 67.7382 35.4912H65.7773V39.1455Z" fill="white"></path>
<path d="M73.0859 39.1455V42.7998H73.8881H74.6903V41.552V40.3042H75.4033C76.0985 40.3042 76.1163 40.322 76.7402 41.552L77.3641 42.7998H78.3624H79.3428L78.7724 41.7659C78.4515 41.2133 78.095 40.5894 77.9702 40.4111C77.7741 40.1259 77.792 40.019 78.1841 39.7338C79.1824 38.9316 79.4319 37.559 78.7367 36.5429C78.1841 35.7229 77.4533 35.509 75.1003 35.509L73.0859 35.4912V39.1455Z" fill="white"></path>
<path d="M82.7298 35.7943C82.3911 36.436 79.8599 42.4611 79.8599 42.6215C79.8599 42.7285 80.252 42.7998 80.7155 42.7998C81.5177 42.7998 81.589 42.7642 81.8742 42.1759L82.1772 41.552H83.6033H85.0294L85.2789 42.1759C85.5285 42.7642 85.582 42.7998 86.4376 42.7998C86.9367 42.7998 87.3467 42.7642 87.3467 42.7107C87.3467 42.6572 87.1863 42.2829 87.008 41.855C86.8119 41.445 86.4376 40.5894 86.188 39.9477C85.9206 39.3059 85.5107 38.3433 85.2611 37.8086C85.0115 37.2738 84.6907 36.5251 84.5481 36.1508C84.2985 35.5447 84.2094 35.4912 83.5855 35.4912C83.122 35.4912 82.8546 35.5803 82.7298 35.7943Z" fill="white"></path>
<path d="M88.5406 36.7747C88.4693 37.4877 88.3623 39.1455 88.3089 40.429L88.1841 42.7998H88.9862H89.7884L89.9132 41.7124C89.9667 41.1064 90.0201 40.1259 90.0201 39.5199V38.4325L91.161 40.2864L92.3019 42.1224L92.801 41.3559C93.0684 40.9281 93.5497 40.1438 93.8527 39.6268C94.3696 38.7712 94.441 38.7177 94.5479 39.092C94.6014 39.3238 94.6549 40.2507 94.6549 41.142V42.7998H95.564H96.4909L96.384 41.6768C96.3127 41.0707 96.2235 39.4307 96.1522 38.0225L96.0275 35.4912H95.2788H94.5301L93.4071 37.2916L92.284 39.0742L91.6423 38.0403C91.268 37.4699 90.7867 36.6677 90.5549 36.2399C90.1627 35.5447 90.0736 35.4912 89.3962 35.4912H88.6476L88.5406 36.7747Z" fill="white"></path>
<path d="M98.0066 39.1455L98.0601 42.7998H100.645H103.23L103.176 42.0333L103.123 41.2846H101.376H99.6466V40.6072V39.9477H101.251H102.855V39.1455V38.3433H101.251H99.6466V37.7194V37.0955H101.322H102.998L103.069 36.2934L103.123 35.4912H100.538H97.9531L98.0066 39.1455Z" fill="white"></path>
<path d="M104.459 39.1455V42.7998H105.262H106.046L106.099 40.6785L106.153 38.5394L107.722 40.6785L109.308 42.7998H110.092H110.877L110.841 39.1812L110.788 35.5803L109.95 35.5269L109.112 35.4734L109.059 37.559L109.005 39.6625L107.436 37.5768C105.903 35.5269 105.868 35.4912 105.173 35.4912H104.459V39.1455Z" fill="white"></path>
<path d="M111.768 36.2934V37.0955H112.838H113.907V39.9477V42.7998H114.709H115.511V39.9477V37.1134L116.635 37.0599L117.74 37.0064L117.793 36.2399L117.847 35.4912H114.816H111.768V36.2934Z" fill="white"></path>
<path d="M120.592 36.6855C120.307 37.3629 119.95 38.2186 119.772 38.6107C119.594 39.0029 119.166 40.0011 118.809 40.839C118.453 41.6768 118.114 42.4611 118.061 42.5681C117.989 42.7463 118.221 42.7998 118.934 42.7998C119.879 42.7998 119.897 42.782 120.128 42.1759L120.342 41.552H121.84H123.319L123.533 42.1759C123.729 42.782 123.765 42.7998 124.71 42.7998H125.672L125.458 42.2829C125.334 41.9976 124.621 40.3577 123.89 38.6286L122.553 35.4912H121.822H121.091L120.592 36.6855Z" fill="white"></path>
</svg>