<svg width="377" height="165" viewBox="0 0 377 165" fill="none" xmlns="http://www.w3.org/2000/svg">
<path d="M70.3897 59.8941C62.8967 61.3725 54.2758 66.0075 47.6691 72.081C35.6643 83.0293 32.4415 96.415 40.3373 102.369C43.0767 104.446 45.816 105.206 50.2473 105.246C55.2426 105.246 60.7213 103.887 66.2 101.17L70.5508 99.0123V83.6687C70.5508 75.2377 70.3897 68.3251 70.2285 68.3251C69.9868 68.3251 68.6977 70.0832 67.328 72.2009C63.1384 78.634 55.8066 87.7443 51.9393 91.3005C46.5411 96.2153 42.271 96.8546 40.8207 92.9388C38.8065 87.4646 45.4132 77.1956 55.5649 70.203C66.5223 62.6112 78.4466 60.8131 82.7168 66.1274C85.1338 69.2041 83.039 76.4763 77.8826 82.9095C75.6267 85.7065 75.385 86.3458 75.385 90.6212C75.385 93.4182 75.7072 95.0964 76.1101 94.8967C77.5603 94.1375 81.1054 90.7011 83.7642 87.4246C88.276 81.8306 90.2097 77.1956 90.2097 71.7214C90.2097 66.6069 89.404 64.4891 86.4229 62.2915C82.4751 59.3746 77.0769 58.5355 70.3897 59.8941Z" fill="white"></path>
<path d="M160.707 66.4469C157.243 67.6057 153.859 70.9221 152.248 74.798C151.281 76.9956 151.039 79.1933 151.361 83.7085C151.845 91.3803 153.617 94.3371 159.338 97.214C162.722 98.8923 163.527 99.092 166.831 99.092C171.907 99.092 176.096 97.6536 179.077 94.8566L181.333 92.6989H186.812H192.21V95.6957V98.6925H196.158H200.186L200.428 90.3813C200.589 85.8262 200.589 78.4741 200.428 73.9988L200.186 65.8875L194.466 66.0074L188.826 66.1273L186.812 69.3238C175.29 87.7442 174.404 89.0228 171.745 90.2615C167.959 92.0196 164.575 91.5801 161.755 88.9029C159.982 87.2647 159.499 78.7937 160.949 76.3563C162.158 74.3984 165.3 72.92 167.475 73.3595C169.248 73.6792 170.94 75.2775 171.665 77.2354C172.148 78.514 172.551 78.7138 174.404 78.7138C178.836 78.7138 180.125 78.3142 180.125 76.9157C180.125 74.6781 178.594 71.4016 176.499 69.3238C172.954 65.7277 166.347 64.529 160.707 66.4469ZM192.21 80.7117V85.9061H188.907C186.087 85.9061 185.603 85.7863 186.006 85.1869C187.94 81.7506 191.807 75.5172 191.968 75.5172C192.129 75.5172 192.21 77.8347 192.21 80.7117Z" fill="white"></path>
<path d="M289.215 66.4071C281.4 69.1242 277.372 77.1156 279.144 86.146C280.675 93.8578 285.67 98.3729 293.324 98.9723C297.433 99.292 300.012 98.8125 303.315 97.0943C315.561 90.7011 313.386 69.5238 300.092 66.0874C296.789 65.2483 292.116 65.3682 289.215 66.4071ZM299.045 74.5184C301.462 75.837 302.912 80.0725 302.348 84.1881C301.784 87.9441 300.012 90.2216 297.031 90.9808C294.13 91.6601 291.955 91.0607 289.779 88.943C288.087 87.3048 287.846 86.4257 287.765 82.5898C287.685 79.1135 288.007 77.675 289.135 76.1966C291.632 73.08 295.258 72.4406 299.045 74.5184Z" fill="white"></path>
<path d="M99.5557 82.3501V98.8125L107.21 98.6127C115.508 98.373 117.442 98.0134 120.907 95.7358C125.016 93.0586 126.385 90.2616 126.788 83.7885C127.272 75.4375 124.935 70.4828 119.215 67.8456C115.911 66.3272 113.172 65.9276 105.921 65.9276H99.5557V82.3501ZM114.542 74.1988C117.281 75.5573 118.248 77.5552 118.328 81.9106C118.409 88.4636 116.072 91.1007 110.433 91.1007H107.613V82.3101V73.5195H110.352C111.883 73.5195 113.736 73.8392 114.542 74.1988Z" fill="white"></path>
<path d="M128.561 82.31V98.7324L139.679 98.6125L150.717 98.4927L150.959 94.7766L151.201 91.1006H144.272H137.423V88.2636V85.4266L143.466 85.5865L149.509 85.7063V82.31V78.9136L143.466 79.0335L137.423 79.1933V76.3563V73.5593L144.11 73.4394L150.717 73.3196V69.7234V66.1273L139.679 66.0074L128.561 65.8875V82.31Z" fill="white"></path>
<path d="M202.684 69.7235V73.5194H206.713H210.741V86.106V98.6925H214.77H218.798V86.1459V73.5594L223.068 73.4395L227.258 73.3196V69.7235V66.1273L215.011 66.0074L202.684 65.8875V69.7235Z" fill="white"></path>
<path d="M228.628 82.1901L228.87 98.4927L233.14 98.6125L237.329 98.7324V92.0995V85.4666L242.808 85.5865L248.206 85.7063L248.448 92.2194L248.609 98.6925H252.638H256.666V82.31V65.9275H252.638H248.609V72.1209V78.3142H242.969H237.329V72.1209V65.9275H232.898H228.467L228.628 82.1901Z" fill="white"></path>
<path d="M258.922 66.2072C258.761 66.407 258.761 73.7591 258.922 82.6296L259.244 98.7324L269.396 98.6125L279.628 98.4927L279.87 94.7766L280.112 91.1006H273.585H267.14V78.514V65.9275H263.192C260.936 65.9275 259.083 66.0473 258.922 66.2072Z" fill="white"></path>
<path d="M313.064 82.31V98.6925H317.092H321.121L321.201 89.782L321.282 80.9115L322.732 83.3089C325.794 88.3835 330.225 95.7756 331.031 97.1741C331.756 98.6925 331.756 98.6925 336.107 98.6925H340.458V82.27V65.8875L336.268 66.0074L331.998 66.1273L331.595 73.9989L331.192 81.8705L326.438 73.879L321.685 65.9275H317.415H313.064V82.31Z" fill="white"></path>
</svg>