<svg width="121" height="39" viewBox="0 0 121 39" fill="none" xmlns="http://www.w3.org/2000/svg">
<path d="M17.3091 19.5227C15.1645 24.1716 13.4211 28.0872 13.4488 28.2118C13.4903 28.3916 13.7117 28.4331 14.8739 28.4331C16.4512 28.4331 16.2022 28.6407 17.1569 26.5238L17.7103 25.32H21.5153H25.334L25.9428 26.6621C26.2887 27.4093 26.6208 28.1149 26.6761 28.2256C26.773 28.3916 27.105 28.4331 28.1704 28.4331C29.4433 28.4331 29.5402 28.4055 29.5679 28.1564C29.5955 28.0042 27.8799 24.1163 25.7629 19.5089C22.2347 11.8022 21.9027 11.138 21.5706 11.0965C21.2247 11.055 21.0725 11.3594 17.3091 19.5227ZM22.8574 19.7856C23.5215 21.2522 24.0749 22.539 24.0749 22.6358C24.0749 22.788 23.5907 22.8295 21.5153 22.8295C19.5644 22.8295 18.9556 22.788 18.9556 22.6497C18.9556 22.3314 21.3769 17.0184 21.5153 17.0599C21.5844 17.0875 22.1932 18.3051 22.8574 19.7856Z" fill="white"></path>
<path d="M57.0184 11.2627C56.9077 11.3872 56.8801 13.7809 56.8939 19.9379L56.9354 28.4333H58.319H59.7026L59.7441 22.968C59.758 19.9656 59.8272 17.4613 59.8963 17.3921C59.9517 17.3367 62.3592 19.8687 65.2509 23.0372C70.135 28.4056 70.5086 28.793 70.9099 28.7515L71.325 28.71V20.0625V11.4149H69.9413H68.5577L68.4886 16.7003C68.447 19.6059 68.3779 22.0133 68.3225 22.0687C68.281 22.1102 65.8874 19.6612 63.0095 16.6173C57.7241 10.986 57.4474 10.7508 57.0184 11.2627Z" fill="white"></path>
<path d="M103.024 11.7885C102.844 12.1898 101.1 15.967 99.1495 20.187C97.1986 24.4071 95.6074 27.9906 95.6351 28.1428C95.6766 28.4057 95.7873 28.4334 96.9219 28.4749C97.6137 28.4887 98.2363 28.461 98.3332 28.4057C98.4162 28.3365 98.8036 27.6309 99.1772 26.8007L99.8828 25.3202H103.66H107.451L108.212 26.8699L108.959 28.4334L110.301 28.4749C111.491 28.5025 111.643 28.4887 111.713 28.2673C111.768 28.1013 110.384 24.919 107.935 19.5783C104.352 11.7609 104.047 11.1382 103.715 11.0967C103.397 11.0552 103.314 11.1382 103.024 11.7885ZM105.002 19.7996C105.694 21.3216 106.234 22.636 106.192 22.7052C106.095 22.8574 101.183 22.8712 101.1 22.7191C101.017 22.5945 103.494 17.0186 103.632 17.0186C103.688 17.0186 104.31 18.2638 105.002 19.7996Z" fill="white"></path>
<path d="M15.5379 11.4288C14.182 12.1206 14.1958 14.3482 15.5517 14.9985C16.5618 15.4689 17.807 15.1369 18.2913 14.2375C18.485 13.8916 18.5403 13.5734 18.4988 13.0338C18.4573 12.4112 18.3743 12.2174 17.9454 11.8024C17.5303 11.3734 17.3366 11.2904 16.714 11.2489C16.2159 11.2213 15.8423 11.2766 15.5379 11.4288ZM17.4473 12.3005C17.7378 12.6049 17.8485 12.8401 17.8485 13.2136C17.8485 13.5872 17.7378 13.8224 17.4473 14.1268C17.1429 14.4174 16.9077 14.5281 16.5341 14.5281C16.1605 14.5281 15.9253 14.4174 15.6209 14.1268C15.3304 13.8224 15.2197 13.5872 15.2197 13.2136C15.2197 12.8401 15.3304 12.6049 15.6209 12.3005C15.9253 12.0099 16.1605 11.8992 16.5341 11.8992C16.9077 11.8992 17.1429 12.0099 17.4473 12.3005Z" fill="white"></path>
<path d="M26.2194 11.5947C26.1779 11.7608 27.5062 14.8324 30.0105 20.2838C33.774 28.4747 33.8985 28.71 34.2721 28.71C34.6456 28.71 34.7702 28.4747 38.4921 20.4083C40.8027 15.3996 42.3108 11.9683 42.297 11.7608C42.2693 11.4148 42.2416 11.4148 40.941 11.3733C39.9172 11.3457 39.5574 11.3872 39.4052 11.5394C39.2946 11.6362 38.16 14.0852 36.8732 16.9631C35.5865 19.8549 34.4658 22.2485 34.3966 22.3039C34.3136 22.3592 34.2167 22.373 34.1752 22.3454C34.1199 22.3177 33.0268 19.9379 31.7539 17.06C30.4671 14.1821 29.3326 11.7192 29.2219 11.5809C29.042 11.3872 28.7791 11.3457 27.6584 11.3457C26.4685 11.3457 26.3025 11.3733 26.2194 11.5947Z" fill="white"></path>
<path d="M43.6529 11.5118C43.6114 11.6087 43.5976 15.4551 43.6114 20.0625L43.6529 28.4333H48.9798H54.3067V27.1881V25.9429L50.4049 25.9013L46.4893 25.8737V23.5215V21.1694L49.7823 21.1417L53.0614 21.1002V19.7858V18.4714L49.7823 18.4299L46.4893 18.4022V16.1884V13.9746L50.4049 13.947L54.3067 13.9055V12.6602V11.415L49.0075 11.3735C44.8428 11.3458 43.6944 11.3735 43.6529 11.5118Z" fill="white"></path>
<path d="M75.1575 11.5118C75.033 11.6363 74.9915 13.5734 74.9915 19.9103C74.9915 24.4485 75.0468 28.2396 75.1021 28.3365C75.1852 28.461 75.5864 28.5025 76.5964 28.4748L77.9662 28.4333V19.9241V11.4149L76.6518 11.3734C75.7386 11.3458 75.282 11.3873 75.1575 11.5118Z" fill="white"></path>
<path d="M81.7988 11.5116C81.6743 11.6361 81.6328 13.6839 81.6328 19.8686C81.6328 24.3792 81.6743 28.1564 81.7158 28.2809C81.785 28.4746 82.2554 28.5023 85.4931 28.5023C88.3295 28.5023 89.381 28.4608 90.0036 28.2948C94.4589 27.1602 97.2676 22.7188 96.3821 18.2636C96.0223 16.4788 95.3444 15.2197 94.0161 13.8914C92.7709 12.6462 91.5395 11.9405 89.9345 11.5669C88.7722 11.2902 82.0617 11.2487 81.7988 11.5116ZM88.3295 14.1128C90.0313 14.3618 91.2904 15.0951 92.2451 16.3681C94.4174 19.3152 93.3797 23.6874 90.1697 25.1817C89.1596 25.6659 87.9006 25.8735 85.9635 25.8735H84.5384V19.9239V13.9744H85.9635C86.7383 13.9744 87.8037 14.0436 88.3295 14.1128Z" fill="white"></path>
<path d="M14.0437 14.9015C13.8915 14.943 13.6839 15.0399 13.5871 15.1229C13.3519 15.3028 12.7292 16.5203 12.7292 16.7832C12.7292 16.8939 13.4626 17.3228 14.4726 17.7933C15.9115 18.4574 16.2298 18.5543 16.3405 18.3882C16.5618 18.0423 16.4788 17.8901 15.8977 17.6411C15.4273 17.4197 15.3581 17.3367 15.4411 17.1015C15.4826 16.9354 15.5656 16.5619 15.5933 16.2436C15.6487 15.787 15.5933 15.6072 15.3304 15.3304C14.9984 14.9569 14.5141 14.8047 14.0437 14.9015Z" fill="white"></path>
<path d="M12.1065 18.0009C11.982 18.3606 11.982 18.3606 13.3241 19.0248C14.5555 19.6336 14.7492 19.8411 14.6108 20.3945C14.431 21.1002 14.002 21.1279 12.6461 20.4914C11.387 19.8964 11.0134 19.8549 11.0965 20.3392C11.1656 20.782 13.3241 21.7505 14.0436 21.6675C15.1366 21.5429 15.7592 20.1455 15.1228 19.2462C14.9429 18.9833 12.5769 17.7103 12.2725 17.7103C12.231 17.7103 12.148 17.8349 12.1065 18.0009Z" fill="white"></path>
<path d="M10.4047 21.8888C10.1003 22.2209 9.56071 23.3278 9.54688 23.6322C9.54688 23.8121 12.5631 25.3202 12.9229 25.3202C13.0889 25.3202 13.2826 25.0435 13.2826 24.8221C13.2826 24.7944 13.0197 24.6422 12.7015 24.4762C11.9544 24.1026 11.982 24.1441 12.1757 23.8121C12.3003 23.563 12.4525 23.5215 13.1304 23.5215C13.9606 23.5215 14.1128 23.4246 14.1128 22.885C14.1128 22.719 13.9606 22.6913 13.2826 22.7743C12.4663 22.8574 12.4525 22.8574 12.4525 22.5253C12.4525 21.6675 11.0273 21.2385 10.4047 21.8888Z" fill="white"></path>
<path d="M9.07647 24.9189C7.48532 26.178 8.49535 28.793 10.5016 28.5993C11.5393 28.4886 12.2311 27.7276 12.3971 26.5516L12.4801 25.9428L11.8437 25.6245C11.4839 25.4585 11.1242 25.3201 11.0274 25.3201C10.7783 25.3201 10.3771 26.3717 10.5569 26.5516C10.7921 26.7868 11.0412 26.7314 11.138 26.4409C11.2487 26.0673 11.6223 26.2333 11.6223 26.6622C11.6223 27.188 10.9167 27.8106 10.3079 27.8106C9.93431 27.8106 9.69909 27.7 9.3947 27.4094C8.82742 26.8283 8.85509 26.261 9.47771 25.6384C9.87896 25.2371 9.93431 25.1126 9.82362 24.8912C9.64375 24.5592 9.53306 24.5592 9.07647 24.9189Z" fill="white"></path>
</svg>