<svg width="377" height="165" viewBox="0 0 377 165" fill="none" xmlns="http://www.w3.org/2000/svg">
<g clip-path="url(#clip0_1049_7248)">
<path d="M318.93 103.885C317.449 103.962 316.063 104.039 314.618 103.958C305.624 103.453 300.783 96.1637 301.621 87.5679C301.781 83.99 303.604 80.204 306.382 77.8285C311.821 73.1771 323.215 73.7623 327.836 79.4009C330.649 82.8332 330.731 85.3232 330.397 89.4647C328.131 89.6232 324.693 89.492 322.354 89.4578C318.694 89.3932 315.034 89.3917 311.375 89.4531C310.936 93.3434 312.662 99.7908 317.089 101.037C317.454 101.139 318.075 101.196 318.462 101.244L319.573 101.488L319.696 101.696C319.014 101.949 318.112 102.162 317.82 102.746C317.987 103.265 318.438 103.666 318.93 103.885ZM311.239 87.7364C313.179 87.7839 315.202 87.8629 317.136 87.8434C318.028 87.8217 319.155 87.8719 319.957 87.5428C320.758 86.1973 318.987 79.3468 318.149 77.7207L314.823 77.6169C312.623 80.1205 311.563 84.4621 311.239 87.7364Z" fill="white"></path>
<path d="M250.293 103.818C240.085 105.544 231.804 98.8144 232.54 88.2425C232.852 83.7422 234.246 80.9262 237.649 77.9488C243.125 73.1606 253.565 73.7066 258.435 79.0688C260.971 81.9345 261.787 85.5339 261.457 89.3832C255.003 89.2432 248.548 89.2889 242.096 89.5198C242.599 94.0465 243.878 100.129 249.202 101.16C249.885 101.437 250.232 101.616 250.972 101.666C250.215 101.799 249.479 101.884 248.794 102.236C248.53 102.65 248.583 102.456 248.634 102.968C249.088 103.258 249.323 103.269 249.842 103.357L250.293 103.818ZM242.113 87.6141C243.794 87.7277 245.448 87.8572 247.132 87.8523C248.464 87.8343 249.846 87.8454 251.166 87.7133C250.8 85.0763 250.683 79.8678 248.762 78.0086C248.187 77.4496 247.039 77.6193 246.281 77.7196C243.482 80.0398 242.678 84.1848 242.113 87.6141Z" fill="white"></path>
<path d="M179.966 89.739C180.004 86.8252 180.419 82.2786 179.604 79.5495C179.478 79.1304 178.076 77.0933 177.76 76.6344C176.309 75.9273 174.098 76.2775 173.305 77.8244C172.492 79.3838 173.407 80.9691 173.88 82.4977C174.48 84.4319 172.566 85.2252 171.023 85.633C169.342 86.0687 167.557 85.8247 166.055 84.9537C162.384 82.7807 165.753 75.2915 170.628 74.7605C196.2 71.9756 186.708 86.6396 189.581 101.015C190.456 101.169 192.593 101.372 193.202 101.74L193.246 102.072C191.807 104.054 185.9 104.703 183.79 103.587C182.205 102.749 181.609 102.227 180.931 100.611C181.266 99.635 180.127 98.3534 179.47 97.7368C180.351 96.087 180.089 92.4462 180.08 90.4275C177.872 90.5968 175.618 90.7939 173.412 90.9357C173.009 94.38 172.679 97.3428 173.722 100.673L175.358 101.421C174.99 102.301 174.836 103.228 174.472 103.961C170.938 104.413 166.174 104.079 164.248 100.594C162.656 97.7672 162.657 92.4093 166.046 90.8386C169.537 89.2215 176.319 88.6819 179.966 89.739Z" fill="white"></path>
<path d="M62.8153 61.1861C65.298 61.2172 69.1527 61.3993 71.4822 61.0518C71.2978 71.0406 71.6605 81.3846 71.5178 91.4158C71.4582 95.6137 71.6462 100.088 71.4453 104.255C68.5085 103.68 65.4862 103.847 62.4877 103.879C62.0067 101.845 62.0403 84.5659 62.321 81.9785L62.4258 81.7741C62.6921 75.0312 62.2251 67.791 62.8153 61.1861Z" fill="white"></path>
<path d="M36.9027 62.6069C35.7359 62.5407 33.9848 62.6039 33.1362 61.9529L33.1388 61.5734C33.8072 61.0578 43.9299 61.2728 45.8734 61.101C45.7663 62.9629 45.8853 65.6171 45.8926 67.5661C45.923 72.2302 45.917 76.8943 45.8742 81.5582L45.925 82.2771L45.9361 82.5867C45.955 83.611 45.9334 84.2724 45.8434 85.2926C45.9841 86.6771 45.9031 89.8804 45.9133 91.428L45.9952 103.925C43.5767 104.042 39.6591 103.863 37.0245 103.891C36.712 90.3786 36.9726 76.188 36.9027 62.6069Z" fill="white"></path>
<path d="M118.888 66.3841C120.374 64.9063 125.872 61.5619 127.787 60.8035C127.662 63.9535 127.76 67.3 127.873 70.4649C128.233 80.5698 127.322 91.4306 128.102 101.473C127.933 102.727 128.085 102.817 126.917 103.464C124.66 103.519 122.028 103.506 119.798 103.346C119.441 101.21 119.255 101.181 117.897 99.4358C117.766 99.2675 117.793 98.6467 117.781 98.3685C119.343 95.3062 119.021 83.3983 117.808 80.186C118.133 79.8047 118.436 79.4047 118.713 78.9878C119.127 78.3668 119.27 78.03 119.117 77.2769L118.818 77.1024C118.66 75.3417 118.621 68.1205 118.888 66.3841Z" fill="white"></path>
<path d="M198.989 66.9677C200.795 64.4442 204.955 62.1328 207.777 60.9775C208.129 64.2269 207.846 69.6008 207.955 72.9755C208.006 74.5151 207.75 76.4034 207.84 78.0161L209.228 77.5148C209.901 77.898 209.997 77.9669 210.522 78.5385C207.09 82.1742 208.018 89.5939 207.988 94.203C207.98 95.4041 208.07 97.227 208.443 98.3616C207.869 99.022 207.719 99.374 206.702 99.4564C206.551 99.4689 206.401 99.4753 206.249 99.4755L206.052 99.7652C204.541 101.319 200.951 103.077 198.881 103.79L198.798 80.4128C198.788 75.8965 198.696 71.4774 198.989 66.9677Z" fill="white"></path>
<path d="M147.834 75.7622C148.075 76.5376 148.253 77.3188 148.774 77.9373L149.13 78.054C149.856 77.5373 150.21 76.8833 150.842 76.2666C152.745 74.4089 155.126 74.4462 157.575 74.8271C157.996 74.8925 158.522 74.9825 158.699 75.3551C159.518 77.0705 159.143 84.1549 158.841 85.822C156.048 83.6516 153.933 83.4572 150.515 80.2746C149.913 81.2879 148.691 83.6141 148.488 84.6423C148.062 86.7959 147.762 100.429 148.6 101.364C149.191 101.521 149.544 101.589 150.147 101.68C148.195 102.456 148.721 102.996 146.706 103.454C144.765 103.569 140.466 103.487 138.596 103.276C138.81 102.291 138.683 100.894 138.637 99.8585C138.377 97.1919 139.138 78.4286 138.322 77.6645C137.83 77.205 136.795 77.2521 136.667 76.4784C136.852 75.9794 136.893 75.9336 137.339 75.6427C139.459 75.3432 145.483 75.6433 147.834 75.7622Z" fill="white"></path>
<path d="M82.5828 77.5356C81.8712 77.4421 80.9428 77.3748 80.3224 77.0652C80.0502 76.2168 79.923 76.2945 80.1463 75.5925C82.916 75.7254 89.1377 75.6629 91.7981 75.4876C91.8004 83.9082 91.8543 92.3288 91.9593 100.749C92.0872 102.788 92.6276 102.944 90.325 103.456C88.1169 103.588 84.8137 103.416 82.6097 103.27C82.7567 102.727 82.4166 101.802 82.3959 100.889C82.1966 98.4106 82.3682 92.7552 82.361 90.1026C82.3526 86.9876 82.1857 80.3344 82.5828 77.5356Z" fill="white"></path>
<path d="M268.446 75.7161C270.455 75.6224 276.134 75.2126 277.719 76.2178C277.45 77.1843 277.298 77.5351 277.292 78.543L277.52 78.576C278.338 77.8215 278.168 77.7231 279.125 77.6198C279.995 77.8836 280.173 77.9242 280.673 78.6605C278.141 82.9963 277.713 83.2616 277.766 88.393C277.819 93.4026 277.782 98.5086 277.852 103.535C275.094 103.62 271.392 103.547 268.655 103.343C268.573 94.8616 268.751 86.3553 268.651 77.8728C268.65 77.7145 268.476 77.4547 268.382 77.3327C268.571 76.8037 268.398 76.7049 268.16 76.0523L268.446 75.7161Z" fill="white"></path>
<path d="M112.714 104.041C108.904 104.072 104.477 103.445 102.158 99.9231C96.2173 90.8978 99.2523 72.0486 113.434 74.945C112.208 75.9702 111.975 75.5191 111.979 77.2565L111.906 77.4021C111.536 78.1383 110.533 79.4868 110.32 80.108C108.072 86.6528 107.386 95.9265 112.074 101.622C113.014 103.106 112.9 102.463 113.879 103.505C113.528 103.843 113.185 103.896 112.714 104.041Z" fill="white"></path>
<path d="M213.131 75.161C215.089 74.4137 218.511 74.696 220.467 75.5971C229.728 79.8629 230.16 99.2425 220.502 103.232C218.87 103.906 215.249 104.29 213.43 103.974L212.641 103.535C212.873 102.949 214.172 102.685 214.447 101.534C215.033 100.471 215.946 100.902 216.91 98.3229C219.126 92.4018 218.773 84.1204 216.044 78.4172L214.437 77.5233V75.9746C213.967 75.3173 214.023 75.4934 213.131 75.161Z" fill="white"></path>
<path d="M282.896 75.0411C288.001 73.8673 293.633 75.5583 294.777 81.2868C295.567 85.247 295.304 89.2627 295.382 93.2768C295.395 95.6242 295.491 98.7422 295.374 101.022C295.675 101.699 295.579 101.519 295.421 102.36C294.78 103.236 294.519 103.246 293.484 103.445C292.758 103.557 287.565 103.524 286.531 103.53C286.538 98.3924 287.109 84.3285 285.947 80.2075C285.601 78.9812 285.09 78.2891 284.21 77.3822C284.34 75.7002 284.253 75.9348 282.896 75.0411Z" fill="white"></path>
<path d="M338.556 60.9781C338.622 61.0199 338.69 61.0579 338.755 61.1034C339.032 61.2994 342.901 71.0758 343.075 71.8483C342.79 73.5531 340.002 76.0292 338.3 75.7926C335.614 74.7724 334.907 74.1877 333.125 72.0448C334.735 69.1274 336.555 63.331 338.556 60.9781Z" fill="white"></path>
<path d="M90.6008 61.0064C90.8776 61.0208 90.9955 61.0884 91.2598 61.1795C92.0561 62.5782 91.7735 69.05 91.7446 70.8569L91.6415 70.8343C88.7888 70.2248 86.6986 70.412 83.7903 70.4819L83.4536 70.5758C82.7469 70.3548 82.989 70.5178 82.5181 69.9788C81.4052 65.2853 87.2117 63.6845 90.6008 61.0064Z" fill="white"></path>
<path d="M59.8286 82.298C61.059 82.319 61.1535 82.4227 62.3213 81.9786C62.0405 84.566 62.007 101.845 62.488 103.879C62.2889 103.665 62.1208 103.442 62.11 103.135C61.8861 96.7595 62.2121 90.31 62.0005 83.9381C59.142 84.3165 47.4588 83.8218 46.1379 84.4301L45.8435 85.2927C45.9335 84.2726 45.9552 83.6112 45.9363 82.5869L46.2148 83.0044C47.0254 83.121 47.3813 83.1315 48.2029 83.1237C50.1108 83.021 59.6552 83.5504 60.486 82.6794L59.8286 82.298ZM60.6383 83.8081L60.7451 83.5309C59.9476 83.1544 48.0505 83.2313 46.5832 83.4148L46.5858 83.7699C48.1418 84.1746 58.6026 83.9622 60.6383 83.8081Z" fill="white"></path>
<path d="M46.5834 83.4147C48.0507 83.2312 59.9479 83.1543 60.7453 83.5308L60.6385 83.808C58.6028 83.9621 48.142 84.1745 46.586 83.7698L46.5834 83.4147Z" fill="white"></path>
<path d="M318.462 101.244C322.042 101.203 324.062 101.88 326.099 98.5263C326.385 98.0519 327.036 97.1666 327.557 96.9767C329.335 98.4998 324.547 102.468 322.801 102.888L322.604 102.878C320.837 102.764 320.677 101.691 319.01 102.101C318.61 102.459 318.61 102.339 318.557 102.747C319.11 103.258 319.434 103.4 320.098 103.747L318.93 103.885C318.438 103.666 317.987 103.265 317.819 102.745C318.112 102.162 319.014 101.949 319.695 101.696L319.572 101.488L318.462 101.244Z" fill="white"></path>
<path d="M208.443 98.3616C208.771 99.5821 209.255 99.9823 210.1 100.929C212.189 101.614 212.201 101.702 214.448 101.534C214.173 102.685 212.874 102.949 212.642 103.535L213.431 103.974C209.618 103.782 208.375 100.925 206.052 99.7652L206.249 99.4755C206.401 99.4753 206.551 99.4689 206.702 99.4564C207.719 99.374 207.869 99.0221 208.443 98.3616Z" fill="white"></path>
<path d="M113.434 74.9447C115.445 75.0747 117.228 77.3275 118.569 77.4167L118.818 77.1022L119.117 77.2768C119.27 78.0299 119.128 78.3666 118.714 78.9876C118.436 79.4046 118.134 79.8046 117.809 80.1859C117.281 79.1996 116.962 78.8297 116.267 77.978C114.724 77.4866 113.594 76.9916 111.979 77.2563C111.975 75.5189 112.208 75.97 113.434 74.9447Z" fill="white"></path>
<path d="M45.8739 81.5582C47.2876 81.394 61.2796 81.4932 62.4256 81.7741L62.3207 81.9785C61.1529 82.4226 61.0585 82.3189 59.828 82.2978C57.9987 82.4774 50.184 82.3004 48.0005 82.2943C47.2976 82.2748 46.6282 82.2508 45.9246 82.2771L45.8739 81.5582Z" fill="white"></path>
<path d="M177.893 100.092L178.36 100.384C179.471 100.059 179.474 99.201 180.243 99.2119C180.565 99.6352 180.602 99.9323 180.726 100.439C180.044 100.706 180.102 100.936 179.551 101.305C177.943 102.38 176.394 103.543 174.472 103.961C174.836 103.228 174.989 102.3 175.358 101.42C176.65 101.336 176.945 101.002 177.893 100.092Z" fill="white"></path>
<path d="M117.781 98.3687C117.793 98.6468 117.765 99.2676 117.896 99.4359C119.254 101.181 119.44 101.21 119.798 103.346L119.617 103.279C118.631 102.903 118.271 102.555 117.842 101.585L117.772 101.424L117.163 101.845C116.983 102.29 116.943 102.375 116.642 102.754L116.573 102.839C116.008 102.816 115.719 102.799 115.146 102.694C114.627 102.135 114.774 102.193 114.609 101.322C116.546 100.583 116.796 100.194 117.781 98.3687Z" fill="white"></path>
<path d="M48.0011 82.2946C50.1846 82.3006 57.9993 82.4777 59.8286 82.2981L60.4861 82.6795C59.6553 83.5506 50.1108 83.0211 48.203 83.1238L47.4305 82.8671L47.409 82.6413L48.0011 82.2946Z" fill="white"></path>
<path d="M209.228 77.5148C209.454 77.3811 209.831 76.6112 209.833 76.6102C210.739 76.1052 212.404 75.8104 213.132 75.1611C214.024 75.4936 213.968 75.3175 214.438 75.9748V77.5234C212.71 77.4334 211.754 77.1224 210.522 78.5385C209.997 77.9669 209.901 77.898 209.228 77.5148Z" fill="white"></path>
<path d="M249.202 101.159C250.707 101.211 255.121 100.959 256.101 101.755C255.691 102.447 254.83 102.588 254.016 102.734C252.714 102.28 250.916 101.809 249.582 102.314L249.319 102.661C249.475 103.085 249.485 103.094 249.842 103.357C249.323 103.269 249.089 103.258 248.634 102.968C248.583 102.456 248.53 102.65 248.794 102.236C249.479 101.884 250.215 101.799 250.972 101.666C250.233 101.616 249.885 101.437 249.202 101.159Z" fill="white"></path>
<path d="M257.225 97.8319C258.178 98.0091 259.072 97.8147 259.347 98.749C258.949 99.1906 258.835 99.0717 258.113 99.1771C257.127 100.392 258.72 100.309 256.227 101.215C255.64 101.103 255.433 100.987 254.908 100.74C254.83 100.303 254.81 100.482 255.118 100.025C255.796 99.8527 256.056 99.8504 256.745 99.8176L257.071 99.4071C257 98.9981 256.93 98.5895 256.856 98.1813L257.225 97.8319Z" fill="white"></path>
<path d="M295.374 101.022C296.188 101.169 297.51 101.295 298.094 101.799C298.365 102.347 298.326 102.1 298.207 102.74C297.225 103.652 294.923 103.487 293.485 103.445C294.519 103.245 294.781 103.236 295.421 102.36C295.579 101.519 295.675 101.699 295.374 101.022Z" fill="white"></path>
<path d="M112.074 101.622C112.573 101.625 114.045 101.396 114.609 101.322C114.774 102.193 114.627 102.135 115.146 102.694C115.72 102.799 116.008 102.816 116.574 102.839C114.794 103.268 114.716 103.916 112.714 104.041C113.185 103.896 113.528 103.843 113.879 103.505C112.9 102.464 113.014 103.106 112.074 101.622Z" fill="white"></path>
<path d="M128.102 101.473C129.231 101.56 130.324 101.643 131.45 101.774L130.904 103.323C130.358 103.294 130.234 102.796 130.1 102.812C128.537 102.994 128.792 103.496 126.917 103.464C128.084 102.817 127.933 102.728 128.102 101.473Z" fill="white"></path>
<path d="M82.6097 103.27C81.5323 103.112 80.3485 103.317 79.5425 102.521C80.1109 101.421 81.4673 101.541 82.3959 100.889C82.4166 101.803 82.7567 102.727 82.6097 103.27Z" fill="white"></path>
<path d="M249.842 103.357C249.485 103.094 249.475 103.085 249.319 102.661L249.582 102.314C250.916 101.809 252.714 102.28 254.016 102.734C253.235 102.979 250.851 103.894 250.293 103.818L249.842 103.357Z" fill="white"></path>
<path d="M279.142 77.5361C279.585 77.3024 279.762 76.8167 280.529 76.3171C281.623 76.3872 283.163 76.3737 283.721 77.4671C282.833 77.4691 281.949 77.3721 281.211 77.8447C280.969 78.1611 280.863 78.3116 280.672 78.6605C280.172 77.9241 279.995 77.8835 279.124 77.6198L279.142 77.5361Z" fill="white"></path>
<path d="M91.9594 100.749C93.0532 102.18 95.3277 101.056 94.3362 103.235C94.0342 103.405 90.8605 103.505 90.3251 103.456C92.6276 102.944 92.0873 102.788 91.9594 100.749Z" fill="white"></path>
<path d="M150.147 101.68L151.096 101.685C151.5 102.124 151.382 102.056 151.482 102.747C150.935 103.685 147.884 103.471 146.706 103.454C148.721 102.996 148.195 102.457 150.147 101.68Z" fill="white"></path>
<path d="M138.595 103.276C137.673 103.264 137.258 103.366 136.545 102.882C136.527 102.15 137.336 101.636 137.91 101.265C138.515 100.873 138.471 100.511 138.636 99.8586C138.682 100.894 138.81 102.291 138.595 103.276Z" fill="white"></path>
<path d="M282.896 75.0412C284.253 75.9349 284.34 75.7002 284.21 77.3822L283.722 77.4671C283.163 76.3737 281.623 76.3872 280.53 76.3171C281.209 76.1428 282.179 75.4332 282.896 75.0412Z" fill="white"></path>
<path d="M320.098 103.747C319.434 103.4 319.11 103.258 318.558 102.747C318.611 102.339 318.611 102.459 319.011 102.101C320.678 101.691 320.838 102.764 322.605 102.878L322.802 102.888C321.707 103.139 321.125 103.355 320.098 103.747Z" fill="white"></path>
<path d="M268.382 77.3326C267.431 77.3665 266.232 77.5198 265.99 76.3637C266.554 75.4968 267.526 75.7164 268.446 75.716L268.159 76.0522C268.397 76.7048 268.571 76.8035 268.382 77.3326Z" fill="white"></path>
<path d="M179.469 97.7367C180.126 98.3534 181.266 99.635 180.931 100.611L180.726 100.439C180.602 99.9325 180.565 99.6354 180.242 99.2121C179.473 99.2012 179.471 100.059 178.359 100.384L177.893 100.092C178.426 99.2362 178.857 98.549 179.469 97.7367Z" fill="white"></path>
<path d="M277.719 76.2177C278.063 77.1005 278.08 77.3519 279.142 77.536L279.125 77.6197C278.168 77.723 278.338 77.8214 277.52 78.5759L277.292 78.5429C277.297 77.535 277.45 77.1842 277.719 76.2177Z" fill="white"></path>
<path d="M45.9249 82.2772C46.6284 82.2508 47.2978 82.2748 48.0008 82.2944L47.4087 82.6411L47.4302 82.8669L48.2026 83.1236C47.381 83.1314 47.0251 83.1209 46.2146 83.0044L45.936 82.5868L45.9249 82.2772Z" fill="white"></path>
</g>
<defs>
<clipPath id="clip0_1049_7248">
<rect width="376.479" height="165" fill="white"></rect>
</clipPath>
</defs>
</svg>