<svg width="123" height="112" viewBox="0 0 123 112" fill="none" xmlns="http://www.w3.org/2000/svg">
<rect width="123" height="112" rx="15" fill="#1A2C46"></rect>
<path d="M83.427 42.415C84.7538 42.5023 86.328 42.4357 87.6732 42.4507C90.9629 42.487 94.3181 42.3727 97.6025 42.4959C97.4273 43.6261 97.4748 45.6537 97.4745 46.848L97.4736 53.4868L97.4758 84.0987L97.4767 91.9145C97.4765 92.5053 97.5715 94.1794 97.3429 94.5831L88.7254 94.5666C87.1076 94.5657 84.8411 94.5196 83.2811 94.6641L83.2602 62.9342V50.0407C83.2601 49.0559 83.1607 42.7719 83.427 42.415Z" fill="#65A9EF"></path>
<path d="M58.3346 94.553C57.4548 94.5823 55.0263 94.7291 54.2838 94.5012C54.1684 94.1863 54.1333 93.6956 54.1333 93.3549C54.1307 82.066 54.1303 70.776 54.1307 59.487C54.1307 59.1291 54.1344 58.2302 54.2884 57.9342C54.8664 57.609 66.6299 57.768 68.3644 57.7788C68.2136 58.3649 68.2992 60.4907 68.2985 61.2538L68.327 70.7165L68.3154 86.9617C68.3161 88.9513 68.1839 92.2998 68.302 94.1742C68.1651 94.1932 67.705 94.2348 67.5992 94.2554C66.6681 94.4365 58.5645 94.2734 58.3346 94.553Z" fill="#65A9EF"></path>
<path d="M75.6717 13.6962C80.9704 13.6212 86.655 13.8278 91.9084 13.6406C92.0361 16.0743 91.9784 18.8519 91.987 21.2976C91.9972 24.1968 92.0255 27.2376 91.9242 30.1273C90.8078 29.9941 89.682 29.9579 88.5594 30.0191C88.4473 27.1284 88.6572 23.1312 88.3246 20.4275C88.0273 20.6473 87.6973 20.9273 87.418 21.171C85.2879 23.0299 82.8258 24.3415 80.4829 25.8878L68.1332 34.153C66.9605 34.9485 65.9587 36.0193 64.6767 36.8919L34.5547 57.1457C32.4476 58.5525 28.2212 61.8005 26.0873 62.2682C25.5978 61.5473 24.8108 60.5237 24.6345 59.6742C24.5268 59.1555 25.4851 58.7189 25.9752 58.4198C31.6719 54.9429 37.0959 51.0439 42.5074 47.1496C45.7501 44.8161 49.2901 42.6876 52.5482 40.2813C54.0894 39.143 56.3684 37.9529 58.0739 36.7864C60.3527 35.2277 62.583 33.3904 64.861 31.9285C69.7581 28.7857 74.5426 25.5983 79.3451 22.3075C80.1127 21.7815 81.0133 20.9365 81.7979 20.352C83.1035 19.3791 85.347 18.4626 86.3242 17.2321C82.8629 17.294 78.9573 17.0533 75.542 17.247C75.6449 16.4291 75.4948 14.0356 75.6717 13.6962Z" fill="#65A9EF"></path>
<path d="M25.6882 74.6556C30.295 74.5824 35.1107 74.7629 39.6786 74.6069C39.7945 75.9687 39.8228 94.0374 39.6506 94.5182L39.4331 94.6028C34.7746 94.5495 30.1156 94.5575 25.4574 94.6268L25.4684 81.6272C25.4685 79.6715 25.369 76.6901 25.4897 74.8177L25.6882 74.6556Z" fill="#65A9EF"></path>
<path d="M68.3644 57.7788C68.5328 58.0013 68.5785 58.1522 68.5798 58.4331C68.5894 60.5527 68.5573 62.685 68.5528 64.8043L68.5505 77.9033L68.5529 89.066C68.5534 90.6582 68.6344 93.0905 68.5468 94.6247L61.4897 94.578C60.8288 94.5753 58.8369 94.6184 58.3346 94.553C58.5645 94.2735 66.6681 94.4366 67.5993 94.2554C67.705 94.2348 68.1651 94.1932 68.3021 94.1742C68.1839 92.2998 68.3162 88.9513 68.3154 86.9618L68.3271 70.7165L68.2986 61.2539C68.2992 60.4907 68.2136 58.365 68.3644 57.7788Z" fill="#65A9EF"></path>
</svg>