<svg width="377" height="165" viewBox="0 0 377 165" fill="none" xmlns="http://www.w3.org/2000/svg">
<g clip-path="url(#clip0_1049_7292)">
<g clip-path="url(#clip1_1049_7292)">
<path d="M199.673 58.3247C199.798 58.6235 199.748 58.6733 199.499 58.5239C199.25 58.3745 199.2 58.4243 199.325 58.7231C199.4 58.972 199.375 59.1463 199.25 59.1463C199.126 59.1463 199.101 59.3205 199.175 59.5695C199.3 59.8682 199.25 59.918 199.001 59.7686C198.752 59.6193 198.702 59.6691 198.827 59.9678C198.902 60.2168 198.877 60.391 198.752 60.391C198.628 60.391 198.603 60.5653 198.678 60.8142C198.777 61.0881 198.752 61.1628 198.553 61.0383C198.354 60.9138 198.304 60.9885 198.404 61.2374C198.478 61.4615 198.429 61.6358 198.254 61.6358C198.105 61.6358 198.055 61.7353 198.13 61.8847C198.205 62.0092 198.18 62.1337 198.03 62.1337C197.881 62.1337 197.856 62.3079 197.931 62.5569C198.055 62.8556 198.005 62.9054 197.756 62.756C197.508 62.6067 197.458 62.6565 197.582 62.9552C197.657 63.2042 197.632 63.3784 197.508 63.3784C197.383 63.3784 197.358 63.5527 197.433 63.8016C197.557 64.1004 197.508 64.1502 197.259 64.0008C197.01 63.8514 196.96 63.9012 197.084 64.2C197.159 64.4489 197.134 64.6232 197.01 64.6232C196.885 64.6232 196.86 64.7974 196.935 65.0464C197.035 65.3202 197.01 65.3949 196.81 65.2704C196.611 65.146 196.562 65.2206 196.661 65.4696C196.736 65.6936 196.686 65.8679 196.512 65.8679C196.362 65.8679 196.313 65.9675 196.387 66.1169C196.462 66.2413 196.437 66.3658 196.288 66.3658C196.138 66.3658 196.113 66.5401 196.188 66.789C196.313 67.0878 196.263 67.1376 196.014 66.9882C195.765 66.8388 195.715 66.8886 195.84 67.1873C195.914 67.4363 195.889 67.6106 195.765 67.6106C195.64 67.6106 195.616 67.7848 195.69 68.0338C195.815 68.3325 195.765 68.3823 195.516 68.2329C195.267 68.0836 195.217 68.1334 195.342 68.4321C195.416 68.681 195.391 68.8553 195.267 68.8553C195.143 68.8553 195.118 69.0296 195.192 69.2785C195.292 69.5524 195.267 69.6271 195.068 69.5026C194.869 69.3781 194.819 69.4528 194.918 69.7017C194.993 69.9258 194.943 70.1001 194.769 70.1001C194.62 70.1001 194.57 70.1996 194.645 70.349C194.719 70.4735 194.694 70.598 194.545 70.598C194.396 70.598 194.371 70.7722 194.445 71.0212C194.57 71.3199 194.52 71.3697 194.271 71.2203C194.022 71.071 193.972 71.1208 194.097 71.4195C194.172 71.6684 194.147 71.8427 194.022 71.8427C193.898 71.8427 193.873 72.017 193.948 72.2659C194.072 72.5647 194.022 72.6144 193.773 72.4651C193.524 72.3157 193.475 72.3655 193.599 72.6642C193.674 72.9132 193.649 73.0875 193.499 73.0875C193.35 73.0875 193.3 73.187 193.375 73.3115C193.599 73.66 193.25 74.3571 192.952 74.1579C192.802 74.0584 192.753 74.1579 192.852 74.4069C192.927 74.6558 192.902 74.8301 192.777 74.8301C192.653 74.8301 192.628 75.0044 192.703 75.2533C192.827 75.5521 192.777 75.6018 192.529 75.4525C192.28 75.3031 192.23 75.3529 192.354 75.6516C192.429 75.9006 192.404 76.0748 192.28 76.0748C192.155 76.0748 192.13 76.2491 192.205 76.4981C192.329 76.7968 192.28 76.8466 192.031 76.6972C191.782 76.5479 191.732 76.5976 191.856 76.8964C191.931 77.1453 191.906 77.3196 191.757 77.3196C191.607 77.3196 191.583 77.4192 191.657 77.5685C191.732 77.693 191.707 77.8175 191.558 77.8175C191.408 77.8175 191.383 77.9918 191.458 78.2407C191.583 78.5394 191.533 78.5892 191.284 78.4399C191.035 78.2905 190.985 78.3403 191.11 78.639C191.184 78.888 191.159 79.0622 191.035 79.0622C190.91 79.0622 190.885 79.2365 190.96 79.4855C191.085 79.7842 191.035 79.834 190.786 79.6846C190.537 79.5352 190.487 79.585 190.612 79.8838C190.686 80.1327 190.661 80.307 190.537 80.307C190.412 80.307 190.388 80.4813 190.462 80.7302C190.587 81.0289 190.537 81.0787 190.288 80.9294C190.039 80.78 189.989 80.8298 190.114 81.1285C190.188 81.3775 190.164 81.5517 190.014 81.5517C189.865 81.5517 189.84 81.6513 189.915 81.8007C189.989 81.9252 189.964 82.0496 189.815 82.0496C189.666 82.0496 189.616 82.2239 189.691 82.4231C189.79 82.6222 189.715 82.7965 189.541 82.7965C189.392 82.7965 189.342 82.8961 189.417 83.0454C189.491 83.1699 189.466 83.2944 189.317 83.2944C189.168 83.2944 189.143 83.4687 189.218 83.7176C189.342 84.0163 189.292 84.0661 189.043 83.9168C188.794 83.7674 188.745 83.8172 188.869 84.1159C188.944 84.3649 188.919 84.5391 188.794 84.5391C188.67 84.5391 188.645 84.7134 188.72 84.9624C188.844 85.2611 188.794 85.3109 188.545 85.1615C188.296 85.0121 188.247 85.0619 188.371 85.3607C188.446 85.6096 188.421 85.7839 188.272 85.7839C188.122 85.7839 188.097 85.8835 188.172 86.0328C188.247 86.1573 188.222 86.2818 188.072 86.2818C187.923 86.2818 187.873 86.456 187.948 86.6552C188.047 86.8544 187.973 87.0286 187.798 87.0286C187.649 87.0286 187.599 87.1282 187.674 87.2776C187.749 87.4021 187.724 87.5265 187.574 87.5265C187.425 87.5265 187.4 87.7008 187.475 87.9497C187.599 88.2485 187.55 88.2983 187.301 88.1489C187.052 87.9995 187.002 88.0493 187.126 88.3481C187.201 88.597 187.176 88.7713 187.027 88.7713C186.877 88.7713 186.852 88.8709 186.927 89.0202C187.002 89.1447 186.952 89.2692 186.803 89.2692C186.628 89.2692 186.554 89.4434 186.653 89.6426C186.728 89.8418 186.678 90.016 186.529 90.016C186.379 90.016 186.355 90.1156 186.429 90.265C186.504 90.3895 186.479 90.5139 186.33 90.5139C186.18 90.5139 186.155 90.6882 186.23 90.9371C186.355 91.2359 186.305 91.2857 186.056 91.1363C185.807 90.9869 185.757 91.0367 185.882 91.3355C185.956 91.5844 185.931 91.7587 185.807 91.7587C185.682 91.7587 185.658 91.9329 185.732 92.1819C185.857 92.4806 185.807 92.5304 185.558 92.381C185.309 92.2317 185.259 92.2815 185.384 92.5802C185.458 92.8292 185.433 93.0034 185.284 93.0034C185.135 93.0034 185.11 93.103 185.185 93.2524C185.259 93.3768 185.209 93.5013 185.06 93.5013C184.886 93.5013 184.811 93.6756 184.911 93.8747C184.985 94.0739 184.936 94.2482 184.786 94.2482C184.637 94.2482 184.612 94.3478 184.687 94.4971C184.761 94.6216 184.736 94.7461 184.587 94.7461C184.438 94.7461 184.413 94.9203 184.487 95.1693C184.612 95.468 184.562 95.5178 184.313 95.3684C184.064 95.2191 184.014 95.2689 184.139 95.5676C184.214 95.8166 184.189 95.9908 184.064 95.9908C183.94 95.9908 183.915 96.1651 183.99 96.414C184.114 96.7128 184.064 96.7626 183.815 96.6132C183.566 96.4638 183.517 96.5136 183.641 96.8124C183.716 97.0613 183.691 97.2356 183.541 97.2356C183.392 97.2356 183.367 97.3351 183.442 97.4845C183.517 97.609 183.492 97.7335 183.342 97.7335C183.193 97.7335 183.168 97.9077 183.243 98.1567C183.367 98.4554 183.317 98.5052 183.068 98.3558C182.82 98.2065 182.77 98.2563 182.894 98.555C182.969 98.804 182.944 98.9782 182.82 98.9782C182.695 98.9782 182.67 99.1525 182.745 99.4014C182.869 99.7002 182.82 99.75 182.571 99.6006C182.322 99.4512 182.272 99.501 182.396 99.7997C182.471 100.049 182.446 100.223 182.322 100.223C182.197 100.223 182.172 100.397 182.247 100.646C182.371 100.945 182.322 100.995 182.073 100.845C181.824 100.696 181.774 100.746 181.898 101.044C181.973 101.293 181.948 101.468 181.799 101.468C181.649 101.468 181.625 101.567 181.699 101.717C181.774 101.841 181.749 101.966 181.6 101.966C181.45 101.966 181.425 102.14 181.5 102.389C181.625 102.688 181.575 102.737 181.326 102.588C181.077 102.439 181.027 102.488 181.152 102.787C181.226 103.036 181.201 103.21 181.077 103.21C180.952 103.21 180.927 103.385 181.002 103.634C181.127 103.932 181.077 103.982 180.828 103.833C180.579 103.683 180.529 103.733 180.654 104.032C180.728 104.281 180.703 104.455 180.579 104.455C180.454 104.455 180.43 104.629 180.504 104.878C180.629 105.177 180.579 105.227 180.33 105.077C180.081 104.928 180.031 104.978 180.156 105.277C180.23 105.526 180.206 105.7 180.056 105.7C179.907 105.7 179.882 105.824 179.957 105.949C180.031 106.098 180.006 106.198 179.907 106.198C179.782 106.198 179.683 106.397 179.683 106.646C179.683 107.019 179.857 107.069 180.853 106.945C181.5 106.845 182.645 106.87 183.417 106.945C184.164 107.019 184.712 106.994 184.662 106.895C184.587 106.795 184.612 106.696 184.736 106.696C184.836 106.696 184.96 106.347 184.96 105.899C184.985 105.451 185.11 105.053 185.259 105.003C185.384 104.978 185.433 104.704 185.359 104.405C185.259 104.032 185.309 103.932 185.533 104.082C185.782 104.206 185.807 104.131 185.682 103.733C185.583 103.434 185.633 103.21 185.782 103.21C185.931 103.21 185.981 103.036 185.906 102.837C185.807 102.638 185.882 102.464 186.031 102.464C186.18 102.464 186.23 102.289 186.155 102.09C186.056 101.891 186.131 101.717 186.28 101.717C186.429 101.717 186.479 101.542 186.404 101.343C186.305 101.144 186.379 100.97 186.529 100.97C186.678 100.97 186.728 100.796 186.653 100.596C186.554 100.397 186.628 100.223 186.778 100.223C186.927 100.223 186.977 100.049 186.902 99.8495C186.803 99.6504 186.877 99.4761 187.027 99.4761C187.176 99.4761 187.226 99.3018 187.151 99.1027C187.052 98.9035 187.126 98.7293 187.276 98.7293C187.425 98.7293 187.475 98.555 187.4 98.3558C187.301 98.1567 187.375 97.9824 187.525 97.9824C187.674 97.9824 187.724 97.8082 187.649 97.609C187.55 97.4098 187.624 97.2356 187.774 97.2356C187.923 97.2356 187.973 97.0613 187.898 96.8621C187.798 96.663 187.873 96.4887 188.023 96.4887C188.172 96.4887 188.222 96.3145 188.147 96.1153C188.047 95.9161 188.122 95.7419 188.272 95.7419C188.421 95.7419 188.471 95.5676 188.371 95.3187C188.247 95.0199 188.296 94.9701 188.545 95.1195C188.794 95.2689 188.844 95.2191 188.72 94.9203C188.645 94.6714 188.67 94.4971 188.794 94.4971C188.919 94.4971 188.969 94.3229 188.894 94.1237C188.794 93.9245 188.869 93.7503 189.018 93.7503C189.168 93.7503 189.218 93.576 189.143 93.3768C189.043 93.1777 189.118 93.0034 189.267 93.0034C189.417 93.0034 189.466 92.8292 189.367 92.5802C189.242 92.2815 189.292 92.2317 189.541 92.381C189.79 92.5304 189.84 92.4806 189.715 92.1819C189.641 91.9329 189.641 91.7587 189.765 91.7587C189.89 91.7587 189.989 91.6093 189.964 91.435C189.939 90.5886 190.064 90.2401 190.338 90.4143C190.537 90.5388 190.562 90.4641 190.462 90.1903C190.363 89.9413 190.412 89.7671 190.562 89.7671C190.711 89.7671 190.786 89.5928 190.686 89.3937C190.612 89.1945 190.637 89.0202 190.761 89.0202C190.885 89.0202 190.96 88.8211 190.935 88.5721C190.91 88.1738 191.458 88.1489 199.126 88.1489C206.993 88.1489 207.341 88.1738 207.266 88.6219C207.217 88.9206 207.291 89.0202 207.49 88.8709C207.714 88.7464 207.739 88.8211 207.64 89.0949C207.565 89.3439 207.59 89.5181 207.714 89.5181C207.839 89.5181 207.889 89.6924 207.814 89.8916C207.714 90.0907 207.789 90.265 207.963 90.265C208.113 90.265 208.163 90.3895 208.088 90.5139C208.013 90.6633 208.038 90.7629 208.187 90.7629C208.337 90.7629 208.387 90.9371 208.312 91.1363C208.212 91.3355 208.287 91.5097 208.461 91.5097C208.611 91.5097 208.66 91.6093 208.586 91.7587C208.511 91.8832 208.561 92.0076 208.71 92.0076C208.885 92.0076 208.959 92.1819 208.86 92.381C208.785 92.5802 208.835 92.7545 208.959 92.7545C209.084 92.7545 209.133 92.9287 209.059 93.1279C208.959 93.3271 209.034 93.5013 209.208 93.5013C209.358 93.5013 209.407 93.6009 209.333 93.7503C209.258 93.8747 209.308 93.9992 209.457 93.9992C209.631 93.9992 209.706 94.1735 209.606 94.3726C209.532 94.5718 209.582 94.7461 209.706 94.7461C209.831 94.7461 209.88 94.9203 209.806 95.1195C209.706 95.3187 209.781 95.4929 209.955 95.4929C210.104 95.4929 210.154 95.5925 210.079 95.7419C210.005 95.8663 210.055 95.9908 210.204 95.9908C210.378 95.9908 210.453 96.1651 210.353 96.3642C210.279 96.5634 210.328 96.7377 210.478 96.7377C210.627 96.7377 210.702 96.9119 210.602 97.1111C210.528 97.3103 210.577 97.4845 210.702 97.4845C210.826 97.4845 210.876 97.6588 210.801 97.8579C210.702 98.0571 210.777 98.2314 210.926 98.2314C211.075 98.2314 211.125 98.4056 211.05 98.6048C210.951 98.804 211.025 98.9782 211.175 98.9782C211.324 98.9782 211.374 99.1525 211.274 99.4014C211.15 99.7002 211.2 99.75 211.449 99.6006C211.698 99.4512 211.747 99.501 211.623 99.7997C211.523 100.049 211.573 100.223 211.723 100.223C211.872 100.223 211.947 100.397 211.847 100.596C211.772 100.796 211.822 100.97 211.972 100.97C212.121 100.97 212.196 101.144 212.096 101.343C212.021 101.542 212.071 101.717 212.22 101.717C212.37 101.717 212.445 101.891 212.345 102.09C212.27 102.289 212.32 102.464 212.469 102.464C212.619 102.464 212.693 102.638 212.594 102.837C212.519 103.036 212.569 103.21 212.718 103.21C212.868 103.21 212.942 103.385 212.843 103.584C212.768 103.783 212.818 103.957 212.967 103.957C213.117 103.957 213.191 104.131 213.092 104.331C213.017 104.53 213.067 104.704 213.216 104.704C213.366 104.704 213.44 104.878 213.341 105.077C213.266 105.277 213.316 105.451 213.465 105.451C213.615 105.451 213.689 105.625 213.59 105.824C213.515 106.023 213.565 106.198 213.714 106.198C213.839 106.198 213.938 106.397 213.888 106.621C213.839 106.92 213.938 107.044 214.187 106.994C214.81 106.845 220.635 106.895 220.884 107.044C220.983 107.119 221.108 106.92 221.108 106.571C221.108 106.198 220.983 106.023 220.834 106.123C220.685 106.223 220.635 106.123 220.735 105.874C220.809 105.625 220.784 105.451 220.66 105.451C220.535 105.451 220.51 105.277 220.585 105.028C220.71 104.729 220.66 104.679 220.411 104.829C220.162 104.978 220.112 104.928 220.237 104.629C220.336 104.38 220.286 104.206 220.137 104.206C219.988 104.206 219.938 104.032 220.013 103.808C220.112 103.559 220.062 103.484 219.863 103.609C219.664 103.733 219.639 103.658 219.739 103.385C219.813 103.136 219.789 102.961 219.664 102.961C219.54 102.961 219.515 102.787 219.589 102.538C219.714 102.239 219.664 102.19 219.415 102.339C219.166 102.488 219.116 102.439 219.241 102.14C219.34 101.891 219.291 101.717 219.141 101.717C218.992 101.717 218.942 101.542 219.017 101.318C219.116 101.069 219.067 100.995 218.867 101.119C218.668 101.244 218.643 101.169 218.743 100.895C218.843 100.646 218.793 100.472 218.643 100.472C218.494 100.472 218.444 100.298 218.519 100.074C218.618 99.8246 218.569 99.75 218.37 99.8744C218.17 99.9989 218.145 99.9242 218.245 99.6504C218.345 99.4014 218.295 99.2272 218.145 99.2272C217.996 99.2272 217.946 99.0529 218.021 98.8288C218.121 98.5799 218.071 98.5052 217.872 98.6297C217.672 98.7542 217.648 98.6795 217.747 98.4056C217.847 98.1567 217.797 97.9824 217.648 97.9824C217.498 97.9824 217.424 97.8082 217.523 97.609C217.598 97.4098 217.548 97.2356 217.424 97.2356C217.299 97.2356 217.274 97.0613 217.349 96.8124C217.473 96.5136 217.424 96.4638 217.175 96.6132C216.926 96.7626 216.876 96.7128 217 96.414C217.075 96.1651 217.05 95.9908 216.926 95.9908C216.801 95.9908 216.776 95.8166 216.851 95.5676C216.975 95.2689 216.926 95.2191 216.677 95.3684C216.428 95.5178 216.378 95.468 216.502 95.1693C216.577 94.9203 216.552 94.7461 216.428 94.7461C216.303 94.7461 216.278 94.5718 216.353 94.3229C216.477 94.0241 216.428 93.9743 216.179 94.1237C215.93 94.2731 215.88 94.2233 216.004 93.9245C216.079 93.6756 216.054 93.5013 215.93 93.5013C215.805 93.5013 215.78 93.3271 215.855 93.0781C215.98 92.7794 215.93 92.7296 215.681 92.8789C215.432 93.0283 215.382 92.9785 215.507 92.6798C215.606 92.4308 215.556 92.2566 215.407 92.2566C215.258 92.2566 215.208 92.0823 215.283 91.8583C215.382 91.6093 215.332 91.5346 215.133 91.6591C214.934 91.7836 214.909 91.7089 215.009 91.435C215.108 91.1861 215.058 91.0118 214.909 91.0118C214.76 91.0118 214.71 90.8376 214.785 90.6135C214.884 90.3646 214.834 90.2899 214.635 90.4143C214.436 90.5388 214.411 90.4641 214.511 90.1903C214.61 89.9413 214.561 89.7671 214.411 89.7671C214.262 89.7671 214.212 89.5928 214.287 89.3688C214.386 89.1198 214.337 89.0451 214.137 89.1696C213.938 89.2941 213.913 89.2194 214.013 88.9455C214.112 88.6966 214.063 88.5223 213.913 88.5223C213.764 88.5223 213.714 88.3481 213.789 88.124C213.888 87.8751 213.839 87.8004 213.639 87.9249C213.44 88.0493 213.415 87.9746 213.515 87.7008C213.615 87.4518 213.565 87.2776 213.415 87.2776C213.266 87.2776 213.216 87.1033 213.291 86.8793C213.391 86.6303 213.341 86.5556 213.142 86.6801C212.942 86.8046 212.918 86.7299 213.017 86.456C213.117 86.2071 213.067 86.0328 212.918 86.0328C212.768 86.0328 212.693 85.8586 212.793 85.6594C212.868 85.4602 212.818 85.286 212.669 85.286C212.519 85.286 212.494 85.1615 212.569 85.037C212.644 84.8877 212.594 84.7881 212.445 84.7881C212.27 84.7881 212.196 84.6138 212.295 84.4147C212.37 84.2155 212.32 84.0412 212.196 84.0412C212.071 84.0412 212.046 83.867 212.121 83.618C212.22 83.3442 212.196 83.2695 211.996 83.394C211.797 83.5184 211.747 83.4438 211.847 83.1948C211.922 82.9708 211.872 82.7965 211.723 82.7965C211.573 82.7965 211.523 82.6222 211.623 82.3733C211.747 82.0745 211.698 82.0247 211.449 82.1741C211.2 82.3235 211.15 82.2737 211.274 81.975C211.349 81.726 211.324 81.5517 211.2 81.5517C211.075 81.5517 211.05 81.3775 211.125 81.1285C211.225 80.8547 211.2 80.78 211.001 80.9045C210.801 81.0289 210.752 80.9543 210.851 80.7053C210.926 80.4813 210.876 80.307 210.727 80.307C210.577 80.307 210.528 80.1327 210.627 79.8838C210.727 79.6099 210.702 79.5352 210.503 79.6597C210.304 79.7842 210.254 79.7095 210.353 79.4606C210.428 79.2365 210.378 79.0622 210.229 79.0622C210.079 79.0622 210.03 78.888 210.129 78.639C210.254 78.3403 210.204 78.2905 209.955 78.4399C209.706 78.5892 209.656 78.5394 209.781 78.2407C209.855 77.9918 209.831 77.8175 209.706 77.8175C209.582 77.8175 209.557 77.6432 209.631 77.3943C209.756 77.0955 209.706 77.0458 209.457 77.1951C209.208 77.3445 209.158 77.2947 209.283 76.996C209.358 76.747 209.333 76.5727 209.208 76.5727C209.084 76.5727 209.059 76.3985 209.133 76.1495C209.258 75.8508 209.208 75.801 208.959 75.9504C208.71 76.0997 208.66 76.05 208.785 75.7512C208.86 75.5023 208.835 75.328 208.71 75.328C208.586 75.328 208.561 75.1537 208.636 74.9048C208.76 74.606 208.71 74.5563 208.461 74.7056C208.212 74.855 208.163 74.8052 208.287 74.5065C208.362 74.2575 208.337 74.0833 208.212 74.0833C208.088 74.0833 208.063 73.909 208.138 73.66C208.262 73.3613 208.212 73.3115 207.963 73.4609C207.714 73.6102 207.665 73.5605 207.789 73.2617C207.864 73.0128 207.839 72.8385 207.714 72.8385C207.59 72.8385 207.565 72.6642 207.64 72.4153C207.764 72.1165 207.714 72.0668 207.466 72.2161C207.217 72.3655 207.167 72.3157 207.291 72.017C207.366 71.768 207.341 71.5938 207.217 71.5938C207.092 71.5938 207.042 71.4195 207.117 71.2203C207.217 71.0212 207.142 70.8469 206.968 70.8469C206.818 70.8469 206.768 70.7224 206.843 70.598C206.918 70.4486 206.893 70.349 206.744 70.349C206.594 70.349 206.544 70.1747 206.619 69.9756C206.719 69.7764 206.644 69.6022 206.47 69.6022C206.32 69.6022 206.271 69.4777 206.345 69.3532C206.42 69.2038 206.395 69.1043 206.246 69.1043C206.096 69.1043 206.047 68.93 206.121 68.7308C206.221 68.5317 206.146 68.3574 205.972 68.3574C205.822 68.3574 205.773 68.2329 205.847 68.1085C205.922 67.9591 205.897 67.8595 205.748 67.8595C205.598 67.8595 205.549 67.6852 205.623 67.4861C205.723 67.2869 205.648 67.1127 205.474 67.1127C205.325 67.1127 205.275 66.9882 205.349 66.8637C205.424 66.7143 205.374 66.6148 205.225 66.6148C205.051 66.6148 204.976 66.4405 205.076 66.2413C205.15 66.0422 205.1 65.8679 204.951 65.8679C204.802 65.8679 204.777 65.7434 204.852 65.619C204.926 65.4696 204.876 65.37 204.727 65.37C204.553 65.37 204.478 65.1957 204.578 64.9966C204.652 64.7974 204.603 64.6232 204.478 64.6232C204.354 64.6232 204.329 64.4489 204.403 64.2C204.528 63.9012 204.478 63.8514 204.229 64.0008C203.98 64.1502 203.93 64.1004 204.055 63.8016C204.13 63.5527 204.105 63.3784 203.98 63.3784C203.856 63.3784 203.831 63.2042 203.906 62.9552C204.03 62.6565 203.98 62.6067 203.731 62.756C203.482 62.9054 203.433 62.8556 203.557 62.5569C203.632 62.3079 203.607 62.1337 203.482 62.1337C203.358 62.1337 203.333 61.9594 203.408 61.7105C203.532 61.4117 203.482 61.3619 203.233 61.5113C202.984 61.6607 202.935 61.6109 203.059 61.3121C203.159 61.0632 203.109 60.8889 202.96 60.8889C202.81 60.8889 202.76 60.7147 202.835 60.4906C202.935 60.2417 202.885 60.167 202.686 60.2914C202.487 60.4159 202.462 60.3412 202.561 60.0674C202.636 59.8184 202.611 59.6442 202.487 59.6442C202.362 59.6442 202.337 59.4699 202.412 59.221C202.536 58.9222 202.487 58.8724 202.238 59.0218C202.038 59.1463 201.964 59.0965 202.038 58.8724C202.238 58.2998 201.59 57.9015 200.52 57.9015C199.673 57.9015 199.549 57.9762 199.673 58.3247ZM199.599 68.9051C199.524 69.0047 199.574 69.1043 199.723 69.1043C199.873 69.1043 199.922 69.2785 199.848 69.4777C199.748 69.6768 199.823 69.8511 199.997 69.8511C200.146 69.8511 200.196 69.9507 200.122 70.1001C200.047 70.2245 200.072 70.349 200.221 70.349C200.37 70.349 200.42 70.5233 200.346 70.7224C200.246 70.9216 200.321 71.0959 200.495 71.0959C200.644 71.0959 200.694 71.1954 200.619 71.3448C200.545 71.4693 200.57 71.5938 200.719 71.5938C200.868 71.5938 200.918 71.768 200.843 71.9672C200.744 72.1663 200.819 72.3406 200.993 72.3406C201.142 72.3406 201.192 72.4402 201.117 72.5896C201.043 72.714 201.068 72.8385 201.217 72.8385C201.366 72.8385 201.391 73.0128 201.316 73.2617C201.192 73.5605 201.242 73.6102 201.491 73.4609C201.74 73.3115 201.789 73.3613 201.665 73.66C201.59 73.909 201.615 74.0833 201.74 74.0833C201.864 74.0833 201.889 74.2575 201.814 74.5065C201.69 74.8052 201.74 74.855 201.989 74.7056C202.238 74.5563 202.287 74.606 202.163 74.9048C202.088 75.1537 202.113 75.328 202.238 75.328C202.362 75.328 202.387 75.5023 202.312 75.7512C202.188 76.05 202.238 76.0997 202.487 75.9504C202.735 75.801 202.785 75.8508 202.661 76.1495C202.586 76.3985 202.611 76.5727 202.735 76.5727C202.86 76.5727 202.885 76.747 202.81 76.996C202.686 77.2947 202.735 77.3445 202.984 77.1951C203.233 77.0458 203.283 77.0955 203.159 77.3943C203.084 77.6432 203.109 77.8175 203.233 77.8175C203.358 77.8175 203.383 77.9918 203.308 78.2407C203.184 78.5394 203.233 78.5892 203.482 78.4399C203.731 78.2905 203.781 78.3403 203.657 78.639C203.582 78.888 203.607 79.0622 203.731 79.0622C203.856 79.0622 203.881 79.2365 203.806 79.4855C203.681 79.7842 203.731 79.834 203.98 79.6846C204.229 79.5352 204.279 79.585 204.154 79.8838C204.08 80.1327 204.105 80.307 204.229 80.307C204.354 80.307 204.379 80.4813 204.304 80.7302C204.179 81.0289 204.229 81.0787 204.478 80.9294C204.727 80.78 204.777 80.8298 204.652 81.1285C204.578 81.3775 204.603 81.5517 204.727 81.5517C204.852 81.5517 204.876 81.726 204.802 81.975C204.677 82.2737 204.727 82.3235 204.976 82.1741C205.225 82.0247 205.275 82.0745 205.15 82.3733C205.076 82.6222 205.1 82.7965 205.225 82.7965C205.349 82.7965 205.374 82.9708 205.3 83.2197C205.175 83.5184 205.225 83.5682 205.474 83.4189C205.723 83.2695 205.773 83.3193 205.648 83.618C205.574 83.867 205.598 84.0412 205.748 84.0412C205.897 84.0412 205.947 84.1408 205.872 84.2653C205.773 84.3898 205.872 84.564 206.022 84.6138C206.196 84.6885 203.308 84.7632 199.599 84.7632C193.798 84.7881 192.802 84.7383 192.678 84.4147C192.603 84.2155 192.653 84.0412 192.777 84.0412C192.902 84.0412 192.927 83.867 192.852 83.618C192.753 83.3442 192.777 83.2695 193.002 83.394C193.201 83.5184 193.3 83.4687 193.25 83.2695C193.151 82.5226 193.3 82.0247 193.549 82.1741C193.699 82.2737 193.798 82.199 193.748 82.0247C193.649 81.2281 193.773 80.78 194.072 80.9543C194.271 81.0787 194.296 81.0041 194.197 80.7302C194.122 80.4813 194.147 80.307 194.271 80.307C194.396 80.307 194.421 80.1327 194.346 79.8838C194.221 79.585 194.271 79.5352 194.52 79.6846C194.769 79.834 194.819 79.7842 194.694 79.4855C194.62 79.2365 194.645 79.0622 194.769 79.0622C194.894 79.0622 194.918 78.888 194.844 78.639C194.719 78.3403 194.769 78.2905 195.018 78.4399C195.267 78.5892 195.317 78.5394 195.192 78.2407C195.118 77.9918 195.143 77.8175 195.267 77.8175C195.391 77.8175 195.441 77.6432 195.367 77.4441C195.267 77.2449 195.342 77.0706 195.491 77.0706C195.64 77.0706 195.69 76.8964 195.591 76.6474C195.491 76.3736 195.516 76.2989 195.715 76.4234C195.914 76.5479 195.964 76.4732 195.864 76.2242C195.79 76.0002 195.84 75.8259 195.989 75.8259C196.138 75.8259 196.188 75.6516 196.089 75.4027C195.964 75.1039 196.014 75.0542 196.263 75.2035C196.512 75.3529 196.562 75.3031 196.437 75.0044C196.362 74.7554 196.387 74.5812 196.512 74.5812C196.636 74.5812 196.661 74.4069 196.586 74.1579C196.462 73.8592 196.512 73.8094 196.761 73.9588C197.01 74.1081 197.059 74.0584 196.935 73.7596C196.86 73.5107 196.885 73.3364 197.01 73.3364C197.134 73.3364 197.159 73.1621 197.084 72.9132C196.96 72.6144 197.01 72.5647 197.259 72.714C197.508 72.8634 197.557 72.8136 197.433 72.5149C197.358 72.2659 197.383 72.0917 197.508 72.0917C197.632 72.0917 197.657 71.9174 197.582 71.6684C197.458 71.3697 197.508 71.3199 197.756 71.4693C198.005 71.6186 198.055 71.5689 197.931 71.2701C197.856 71.0212 197.881 70.8469 198.005 70.8469C198.13 70.8469 198.18 70.6726 198.105 70.4735C198.005 70.2743 198.08 70.1001 198.229 70.1001C198.379 70.1001 198.429 69.9258 198.329 69.6768C198.229 69.403 198.254 69.3283 198.454 69.4528C198.653 69.5773 198.702 69.5026 198.603 69.2536C198.528 69.0296 198.578 68.8553 198.727 68.8553C198.877 68.8553 198.927 68.681 198.827 68.457C198.702 68.1085 198.752 68.1085 199.2 68.3823C199.474 68.5566 199.649 68.8055 199.599 68.9051Z" fill="white"></path>
<path d="M269.828 58.1501C269.902 58.2746 269.877 58.3991 269.728 58.3991C269.579 58.3991 269.554 58.5733 269.628 58.8223C269.753 59.121 269.703 59.1708 269.454 59.0214C269.205 58.8721 269.155 58.9219 269.28 59.2206C269.355 59.4695 269.33 59.6438 269.205 59.6438C269.081 59.6438 269.056 59.8181 269.13 60.067C269.255 60.3658 269.205 60.4156 268.956 60.2662C268.707 60.1168 268.657 60.1666 268.782 60.4653C268.857 60.7143 268.832 60.8886 268.707 60.8886C268.583 60.8886 268.558 61.0628 268.633 61.3118C268.757 61.6105 268.707 61.6603 268.458 61.5109C268.209 61.3616 268.16 61.4114 268.284 61.7101C268.359 61.959 268.334 62.1333 268.184 62.1333C268.035 62.1333 268.01 62.2329 268.085 62.3823C268.16 62.5067 268.135 62.6312 267.985 62.6312C267.836 62.6312 267.811 62.8055 267.886 63.0544C268.01 63.3532 267.96 63.403 267.711 63.2536C267.463 63.1042 267.413 63.154 267.537 63.4527C267.612 63.7017 267.587 63.876 267.463 63.876C267.338 63.876 267.313 64.0502 267.388 64.2992C267.512 64.5979 267.463 64.6477 267.214 64.4983C266.965 64.349 266.915 64.3988 267.039 64.6975C267.114 64.9464 267.089 65.1207 266.965 65.1207C266.84 65.1207 266.815 65.295 266.89 65.5439C266.99 65.8178 266.965 65.8924 266.765 65.768C266.566 65.6435 266.516 65.7182 266.616 65.9671C266.691 66.1912 266.641 66.3655 266.467 66.3655C266.317 66.3655 266.268 66.465 266.342 66.6144C266.417 66.7389 266.392 66.8634 266.243 66.8634C266.093 66.8634 266.068 67.0376 266.143 67.2866C266.268 67.5853 266.218 67.6351 265.969 67.4857C265.72 67.3364 265.67 67.3861 265.795 67.6849C265.869 67.9338 265.844 68.1081 265.72 68.1081C265.595 68.1081 265.57 68.2824 265.645 68.5313C265.77 68.8301 265.72 68.8798 265.471 68.7305C265.222 68.5811 265.172 68.6309 265.297 68.9296C265.371 69.1786 265.346 69.3528 265.197 69.3528C265.048 69.3528 264.998 69.4524 265.073 69.5769C265.297 69.9254 264.948 70.6225 264.649 70.4233C264.5 70.3238 264.45 70.4233 264.55 70.6723C264.624 70.9212 264.6 71.0955 264.475 71.0955C264.351 71.0955 264.326 71.2698 264.4 71.5187C264.525 71.8175 264.475 71.8672 264.226 71.7179C263.977 71.5685 263.927 71.6183 264.052 71.917C264.127 72.166 264.102 72.3402 263.977 72.3402C263.853 72.3402 263.828 72.5145 263.903 72.7635C264.027 73.0622 263.977 73.112 263.728 72.9626C263.479 72.8132 263.43 72.863 263.554 73.1618C263.629 73.4107 263.604 73.585 263.454 73.585C263.305 73.585 263.255 73.6846 263.33 73.809C263.554 74.1576 263.205 74.8546 262.907 74.6555C262.757 74.5559 262.708 74.6555 262.807 74.9044C262.882 75.1534 262.857 75.3276 262.732 75.3276C262.608 75.3276 262.583 75.5019 262.658 75.7509C262.782 76.0496 262.732 76.0994 262.484 75.95C262.235 75.8006 262.185 75.8504 262.309 76.1492C262.384 76.3981 262.359 76.5724 262.235 76.5724C262.11 76.5724 262.085 76.7467 262.16 76.9956C262.284 77.2943 262.235 77.3441 261.986 77.1948C261.737 77.0454 261.687 77.0952 261.811 77.3939C261.886 77.6429 261.861 77.8171 261.712 77.8171C261.562 77.8171 261.538 77.9167 261.612 78.0661C261.687 78.1906 261.662 78.315 261.513 78.315C261.363 78.315 261.338 78.4893 261.413 78.7383C261.538 79.037 261.488 79.0868 261.239 78.9374C260.99 78.788 260.94 78.8378 261.065 79.1366C261.139 79.3855 261.114 79.5598 260.99 79.5598C260.865 79.5598 260.84 79.7341 260.915 79.983C261.04 80.2817 260.99 80.3315 260.741 80.1822C260.492 80.0328 260.442 80.0826 260.567 80.3813C260.641 80.6303 260.616 80.8045 260.492 80.8045C260.367 80.8045 260.343 80.9788 260.417 81.2277C260.542 81.5265 260.492 81.5763 260.243 81.4269C259.994 81.2775 259.944 81.3273 260.069 81.6261C260.143 81.875 260.118 82.0493 259.969 82.0493C259.82 82.0493 259.795 82.1489 259.87 82.2982C259.944 82.4227 259.919 82.5472 259.77 82.5472C259.621 82.5472 259.571 82.7214 259.645 82.9206C259.745 83.1198 259.67 83.294 259.496 83.294C259.347 83.294 259.297 83.4185 259.372 83.543C259.446 83.6923 259.421 83.7919 259.272 83.7919C259.123 83.7919 259.098 83.9662 259.172 84.2151C259.297 84.5139 259.247 84.5637 258.998 84.4143C258.749 84.2649 258.699 84.3147 258.824 84.6135C258.899 84.8624 258.874 85.0367 258.749 85.0367C258.625 85.0367 258.6 85.2109 258.675 85.4599C258.799 85.7586 258.749 85.8084 258.5 85.6591C258.251 85.5097 258.202 85.5595 258.326 85.8582C258.401 86.1072 258.376 86.2814 258.226 86.2814C258.077 86.2814 258.052 86.381 258.127 86.5304C258.202 86.6548 258.177 86.7793 258.027 86.7793C257.878 86.7793 257.853 86.9536 257.928 87.2025C258.052 87.5013 258.002 87.5511 257.753 87.4017C257.505 87.2523 257.455 87.3021 257.579 87.6009C257.654 87.8498 257.629 88.0241 257.505 88.0241C257.38 88.0241 257.355 88.1983 257.43 88.4473C257.554 88.746 257.505 88.7958 257.256 88.6464C257.007 88.4971 256.957 88.5469 257.081 88.8456C257.156 89.0946 257.131 89.2688 256.982 89.2688C256.832 89.2688 256.807 89.3933 256.882 89.5178C256.957 89.6671 256.907 89.7667 256.758 89.7667C256.583 89.7667 256.509 89.941 256.608 90.1401C256.683 90.3393 256.633 90.5136 256.484 90.5136C256.334 90.5136 256.31 90.638 256.384 90.7625C256.459 90.9119 256.434 91.0115 256.285 91.0115C256.135 91.0115 256.11 91.1857 256.185 91.4347C256.31 91.7334 256.26 91.7832 256.011 91.6338C255.762 91.4845 255.712 91.5343 255.837 91.833C255.911 92.082 255.886 92.2562 255.762 92.2562C255.637 92.2562 255.613 92.4305 255.687 92.6794C255.812 92.9782 255.762 93.028 255.513 92.8786C255.264 92.7292 255.214 92.779 255.339 93.0778C255.413 93.3267 255.388 93.501 255.239 93.501C255.09 93.501 255.065 93.6005 255.139 93.7499C255.214 93.8744 255.164 93.9989 255.015 93.9989C254.841 93.9989 254.766 94.1731 254.866 94.3723C254.94 94.5715 254.891 94.7457 254.741 94.7457C254.592 94.7457 254.567 94.8453 254.642 94.9947C254.716 95.1191 254.691 95.2436 254.542 95.2436C254.393 95.2436 254.368 95.4179 254.442 95.6668C254.567 95.9656 254.517 96.0154 254.268 95.866C254.019 95.7166 253.969 95.7664 254.094 96.0651C254.169 96.3141 254.144 96.4884 254.019 96.4884C253.895 96.4884 253.87 96.6626 253.945 96.9116C254.069 97.2103 254.019 97.2601 253.77 97.1107C253.521 96.9614 253.472 97.0112 253.596 97.3099C253.671 97.5588 253.646 97.7331 253.496 97.7331C253.347 97.7331 253.322 97.8327 253.397 97.9821C253.472 98.1065 253.447 98.231 253.297 98.231C253.148 98.231 253.123 98.4053 253.198 98.6542C253.322 98.953 253.272 99.0028 253.023 98.8534C252.774 98.704 252.725 98.7538 252.849 99.0525C252.924 99.3015 252.899 99.4758 252.774 99.4758C252.65 99.4758 252.625 99.65 252.7 99.899C252.824 100.198 252.774 100.248 252.526 100.098C252.277 99.9488 252.227 99.9986 252.351 100.297C252.426 100.546 252.401 100.721 252.277 100.721C252.152 100.721 252.127 100.895 252.202 101.144C252.326 101.442 252.277 101.492 252.028 101.343C251.779 101.194 251.729 101.243 251.853 101.542C251.928 101.791 251.903 101.965 251.754 101.965C251.604 101.965 251.58 102.09 251.654 102.214C251.729 102.364 251.704 102.463 251.555 102.463C251.405 102.463 251.38 102.637 251.455 102.886C251.58 103.185 251.53 103.235 251.281 103.086C251.032 102.936 250.982 102.986 251.107 103.285C251.181 103.534 251.156 103.708 251.032 103.708C250.907 103.708 250.882 103.882 250.957 104.131C251.082 104.43 251.032 104.48 250.783 104.33C250.534 104.181 250.484 104.231 250.609 104.529C250.683 104.778 250.658 104.953 250.534 104.953C250.409 104.953 250.385 105.127 250.459 105.376C250.584 105.675 250.534 105.724 250.285 105.575C250.036 105.426 249.986 105.475 250.111 105.774C250.185 106.023 250.185 106.197 250.086 106.197C249.986 106.197 249.887 106.397 249.862 106.646C249.837 107.044 249.961 107.069 251.032 106.944C251.704 106.87 252.824 106.845 253.571 106.944C254.841 107.069 254.891 107.044 254.94 106.471C254.94 106.148 255.115 105.799 255.264 105.7C255.438 105.6 255.513 105.401 255.438 105.276C255.239 104.953 255.787 103.21 256.061 103.21C256.185 103.21 256.21 102.986 256.135 102.712C256.036 102.438 256.086 102.214 256.235 102.214C256.384 102.214 256.434 102.04 256.359 101.841C256.26 101.642 256.334 101.467 256.484 101.467C256.633 101.467 256.683 101.293 256.608 101.094C256.509 100.895 256.583 100.721 256.733 100.721C256.882 100.721 256.932 100.546 256.857 100.347C256.758 100.148 256.832 99.9737 256.982 99.9737C257.131 99.9737 257.181 99.7994 257.106 99.6002C257.007 99.4011 257.081 99.2268 257.231 99.2268C257.38 99.2268 257.43 99.0525 257.355 98.8534C257.256 98.6542 257.33 98.48 257.48 98.48C257.629 98.48 257.679 98.3057 257.604 98.1065C257.505 97.9074 257.579 97.7331 257.729 97.7331C257.878 97.7331 257.928 97.5588 257.828 97.3099C257.704 97.0112 257.753 96.9614 258.002 97.1107C258.251 97.2601 258.301 97.2103 258.177 96.9116C258.077 96.6626 258.127 96.4884 258.276 96.4884C258.426 96.4884 258.5 96.3141 258.401 96.1149C258.326 95.9158 258.376 95.7415 258.5 95.7415C258.625 95.7415 258.675 95.5672 258.6 95.3681C258.5 95.1689 258.575 94.9947 258.724 94.9947C258.874 94.9947 258.924 94.8204 258.849 94.6212C258.749 94.4221 258.824 94.2478 258.973 94.2478C259.123 94.2478 259.172 94.0736 259.073 93.8246C258.948 93.5259 258.998 93.4761 259.247 93.6254C259.496 93.7748 259.546 93.725 259.421 93.4263C259.347 93.1773 259.347 93.0031 259.446 93.0031C259.546 93.0031 259.645 92.7043 259.67 92.3309C259.67 91.9575 259.82 91.6089 259.969 91.5592C260.118 91.5094 260.193 91.36 260.094 91.2355C260.019 91.111 260.094 91.0115 260.243 91.0115C260.417 91.0115 260.492 90.8372 260.392 90.638C260.318 90.4389 260.343 90.2646 260.467 90.2646C260.591 90.2646 260.691 90.1153 260.666 89.941C260.641 89.1443 260.766 88.746 261.015 88.8954C261.164 88.995 261.239 88.8954 261.189 88.6216C261.114 88.1734 261.463 88.1485 269.33 88.1485C276.997 88.1485 277.545 88.1734 277.52 88.5718C277.495 88.8207 277.57 89.0199 277.694 89.0199C277.819 89.0199 277.819 89.1941 277.744 89.4431C277.62 89.7418 277.669 89.7916 277.918 89.6422C278.167 89.4929 278.217 89.5427 278.093 89.8414C278.018 90.0904 278.043 90.2646 278.167 90.2646C278.292 90.2646 278.317 90.4389 278.242 90.6878C278.118 90.9866 278.167 91.0364 278.416 90.887C278.665 90.7376 278.715 90.7874 278.591 91.0862C278.516 91.3351 278.541 91.5094 278.665 91.5094C278.79 91.5094 278.84 91.6836 278.765 91.8828C278.665 92.082 278.74 92.2562 278.914 92.2562C279.064 92.2562 279.113 92.3558 279.039 92.5052C278.964 92.6296 279.014 92.7541 279.163 92.7541C279.337 92.7541 279.412 92.9284 279.313 93.1275C279.238 93.3267 279.288 93.501 279.412 93.501C279.537 93.501 279.586 93.6752 279.512 93.8744C279.412 94.0736 279.487 94.2478 279.636 94.2478C279.786 94.2478 279.835 94.4221 279.736 94.671C279.611 94.9698 279.661 95.0196 279.91 94.8702C280.159 94.7208 280.209 94.7706 280.084 95.0693C279.985 95.3183 280.034 95.4926 280.184 95.4926C280.333 95.4926 280.408 95.6668 280.308 95.866C280.234 96.0651 280.283 96.2394 280.408 96.2394C280.532 96.2394 280.582 96.4137 280.507 96.6128C280.408 96.812 280.483 96.9863 280.632 96.9863C280.781 96.9863 280.831 97.1605 280.732 97.4095C280.607 97.7082 280.657 97.758 280.906 97.6086C281.155 97.4593 281.205 97.5091 281.08 97.8078C280.98 98.0567 281.03 98.231 281.18 98.231C281.329 98.231 281.404 98.4053 281.304 98.6044C281.229 98.8036 281.279 98.9779 281.429 98.9779C281.578 98.9779 281.653 99.1521 281.553 99.3513C281.478 99.5504 281.528 99.7247 281.678 99.7247C281.827 99.7247 281.902 99.899 281.802 100.098C281.727 100.297 281.777 100.472 281.926 100.472C282.076 100.472 282.151 100.646 282.051 100.845C281.976 101.044 282.026 101.218 282.151 101.218C282.275 101.218 282.325 101.393 282.25 101.592C282.151 101.791 282.225 101.965 282.399 101.965C282.574 101.965 282.648 102.14 282.549 102.339C282.474 102.538 282.524 102.712 282.648 102.712C282.773 102.712 282.823 102.886 282.748 103.086C282.648 103.285 282.723 103.459 282.897 103.459C283.072 103.459 283.146 103.633 283.047 103.832C282.972 104.032 283.022 104.206 283.146 104.206C283.271 104.206 283.321 104.38 283.246 104.579C283.146 104.778 283.221 104.953 283.395 104.953C283.57 104.953 283.644 105.127 283.545 105.326C283.47 105.525 283.52 105.7 283.669 105.7C283.818 105.7 283.893 105.874 283.794 106.073C283.719 106.272 283.769 106.446 283.918 106.446C284.067 106.446 284.142 106.596 284.067 106.77C283.993 106.994 284.391 107.044 285.86 106.944C286.905 106.87 288.549 106.87 289.495 106.944C291.063 107.044 291.262 107.019 291.262 106.621C291.262 106.397 291.163 106.197 291.063 106.197C290.963 106.197 290.963 106.023 291.038 105.774C291.163 105.475 291.113 105.426 290.864 105.575C290.615 105.724 290.565 105.675 290.69 105.376C290.764 105.127 290.739 104.953 290.615 104.953C290.49 104.953 290.465 104.778 290.54 104.529C290.665 104.231 290.615 104.181 290.366 104.33C290.117 104.48 290.067 104.43 290.192 104.131C290.266 103.882 290.241 103.708 290.117 103.708C289.992 103.708 289.968 103.534 290.042 103.285C290.167 102.986 290.117 102.936 289.868 103.086C289.619 103.235 289.569 103.185 289.694 102.886C289.768 102.637 289.743 102.463 289.619 102.463C289.495 102.463 289.47 102.289 289.544 102.04C289.669 101.741 289.619 101.691 289.37 101.841C289.121 101.99 289.071 101.94 289.196 101.642C289.27 101.393 289.246 101.218 289.121 101.218C288.997 101.218 288.972 101.044 289.046 100.795C289.171 100.496 289.121 100.447 288.872 100.596C288.623 100.745 288.573 100.696 288.698 100.397C288.797 100.148 288.748 99.9737 288.598 99.9737C288.449 99.9737 288.374 99.7994 288.474 99.6002C288.549 99.4011 288.499 99.2268 288.374 99.2268C288.25 99.2268 288.225 99.0525 288.3 98.8036C288.424 98.5049 288.374 98.4551 288.125 98.6044C287.876 98.7538 287.827 98.704 287.951 98.4053C288.026 98.1563 288.001 97.9821 287.876 97.9821C287.752 97.9821 287.727 97.8078 287.802 97.5588C287.926 97.2601 287.876 97.2103 287.627 97.3597C287.378 97.5091 287.329 97.4593 287.453 97.1605C287.528 96.9116 287.503 96.7373 287.378 96.7373C287.254 96.7373 287.229 96.563 287.304 96.3141C287.428 96.0154 287.378 95.9656 287.13 96.1149C286.881 96.2643 286.831 96.2145 286.955 95.9158C287.03 95.6668 287.005 95.4926 286.881 95.4926C286.756 95.4926 286.731 95.3183 286.806 95.0693C286.93 94.7706 286.881 94.7208 286.632 94.8702C286.383 95.0196 286.333 94.9698 286.457 94.671C286.557 94.4221 286.507 94.2478 286.358 94.2478C286.208 94.2478 286.159 94.0736 286.233 93.8495C286.333 93.6005 286.283 93.5259 286.084 93.6503C285.885 93.7748 285.86 93.7001 285.959 93.4263C286.059 93.1773 286.009 93.0031 285.86 93.0031C285.711 93.0031 285.661 92.8288 285.735 92.6047C285.835 92.3558 285.785 92.2811 285.586 92.4056C285.387 92.5301 285.362 92.4554 285.462 92.1815C285.561 91.9326 285.511 91.7583 285.362 91.7583C285.213 91.7583 285.163 91.5841 285.238 91.36C285.337 91.111 285.287 91.0364 285.088 91.1608C284.889 91.2853 284.864 91.2106 284.964 90.9368C285.063 90.6878 285.013 90.5136 284.864 90.5136C284.715 90.5136 284.665 90.3393 284.74 90.1153C284.839 89.8663 284.789 89.7916 284.59 89.9161C284.391 90.0406 284.366 89.9659 284.466 89.692C284.565 89.4431 284.516 89.2688 284.366 89.2688C284.217 89.2688 284.167 89.0946 284.242 88.8705C284.341 88.6216 284.292 88.5469 284.092 88.6713C283.893 88.7958 283.868 88.7211 283.968 88.4473C284.067 88.1983 284.018 88.0241 283.868 88.0241C283.719 88.0241 283.669 87.8498 283.744 87.6258C283.843 87.3768 283.794 87.3021 283.594 87.4266C283.395 87.5511 283.37 87.4764 283.47 87.2025C283.57 86.9536 283.52 86.7793 283.37 86.7793C283.221 86.7793 283.146 86.6051 283.246 86.4059C283.321 86.2067 283.271 86.0325 283.121 86.0325C282.972 86.0325 282.947 85.908 283.022 85.7835C283.097 85.6342 283.047 85.5346 282.897 85.5346C282.723 85.5346 282.648 85.3603 282.748 85.1612C282.823 84.962 282.773 84.7877 282.648 84.7877C282.524 84.7877 282.499 84.6135 282.574 84.3645C282.698 84.0658 282.648 84.016 282.399 84.1654C282.151 84.3147 282.101 84.2649 282.225 83.9662C282.3 83.7172 282.275 83.543 282.151 83.543C282.026 83.543 282.001 83.3687 282.076 83.1198C282.2 82.821 282.151 82.7712 281.902 82.9206C281.653 83.07 281.603 83.0202 281.727 82.7214C281.802 82.4725 281.777 82.2982 281.653 82.2982C281.528 82.2982 281.503 82.124 281.578 81.875C281.702 81.5763 281.653 81.5265 281.404 81.6759C281.155 81.8252 281.105 81.7754 281.229 81.4767C281.304 81.2277 281.279 81.0535 281.155 81.0535C281.03 81.0535 281.005 80.8792 281.08 80.6303C281.205 80.3315 281.155 80.2817 280.906 80.4311C280.657 80.5805 280.607 80.5307 280.732 80.2319C280.831 79.983 280.781 79.8087 280.632 79.8087C280.483 79.8087 280.433 79.6345 280.507 79.4104C280.607 79.1615 280.557 79.0868 280.358 79.2113C280.159 79.3357 280.134 79.261 280.234 78.9872C280.333 78.7383 280.283 78.564 280.134 78.564C279.985 78.564 279.935 78.3897 280.01 78.1657C280.109 77.9167 280.059 77.842 279.86 77.9665C279.661 78.091 279.636 78.0163 279.736 77.7425C279.835 77.4935 279.786 77.3192 279.636 77.3192C279.487 77.3192 279.437 77.145 279.512 76.9209C279.611 76.672 279.561 76.5973 279.362 76.7218C279.163 76.8462 279.138 76.7715 279.238 76.4977C279.313 76.2488 279.288 76.0745 279.163 76.0745C279.039 76.0745 279.014 75.9002 279.088 75.6513C279.213 75.3525 279.163 75.3027 278.914 75.4521C278.665 75.6015 278.615 75.5517 278.74 75.253C278.815 75.004 278.79 74.8297 278.665 74.8297C278.541 74.8297 278.516 74.6555 278.591 74.4065C278.715 74.1078 278.665 74.058 278.416 74.2074C278.167 74.3567 278.118 74.3069 278.242 74.0082C278.317 73.7593 278.292 73.585 278.167 73.585C278.043 73.585 277.993 73.4107 278.068 73.2116C278.167 73.0124 278.093 72.8381 277.918 72.8381C277.769 72.8381 277.719 72.7137 277.794 72.5892C277.869 72.4398 277.844 72.3402 277.694 72.3402C277.545 72.3402 277.495 72.166 277.57 71.9668C277.669 71.7677 277.595 71.5934 277.42 71.5934C277.271 71.5934 277.221 71.4689 277.296 71.3444C277.371 71.1951 277.346 71.0955 277.196 71.0955C277.047 71.0955 276.997 70.9212 277.072 70.7221C277.172 70.5229 277.097 70.3486 276.923 70.3486C276.773 70.3486 276.723 70.2242 276.798 70.0997C276.873 69.9503 276.848 69.8507 276.699 69.8507C276.549 69.8507 276.499 69.6765 276.574 69.4773C276.674 69.2782 276.599 69.1039 276.45 69.1039C276.3 69.1039 276.25 68.9296 276.35 68.6807C276.45 68.4068 276.425 68.3322 276.226 68.4566C276.026 68.5811 275.977 68.5064 276.076 68.2575C276.151 68.0334 276.101 67.8592 275.952 67.8592C275.802 67.8592 275.753 67.6849 275.852 67.4359C275.977 67.1372 275.927 67.0874 275.678 67.2368C275.429 67.3861 275.379 67.3364 275.504 67.0376C275.578 66.7887 275.553 66.6144 275.429 66.6144C275.304 66.6144 275.28 66.4401 275.354 66.1912C275.479 65.8924 275.429 65.8427 275.18 65.992C274.931 66.1414 274.881 66.0916 275.006 65.7929C275.08 65.5439 275.055 65.3697 274.931 65.3697C274.807 65.3697 274.782 65.1954 274.856 64.9464C274.981 64.6477 274.931 64.5979 274.682 64.7473C274.433 64.8966 274.383 64.8469 274.508 64.5481C274.582 64.2992 274.558 64.1249 274.433 64.1249C274.309 64.1249 274.284 63.9506 274.358 63.7017C274.483 63.403 274.433 63.3532 274.184 63.5025C273.935 63.6519 273.885 63.6021 274.01 63.3034C274.085 63.0544 274.06 62.8802 273.935 62.8802C273.811 62.8802 273.786 62.7059 273.861 62.4569C273.985 62.1582 273.935 62.1084 273.686 62.2578C273.437 62.4072 273.388 62.3574 273.512 62.0586C273.587 61.8097 273.562 61.6354 273.437 61.6354C273.313 61.6354 273.288 61.4611 273.363 61.2122C273.487 60.9135 273.437 60.8637 273.188 61.013C272.939 61.1624 272.89 61.1126 273.014 60.8139C273.089 60.5649 273.064 60.3907 272.939 60.3907C272.815 60.3907 272.79 60.2164 272.865 59.9674C272.989 59.6687 272.939 59.6189 272.69 59.7683C272.441 59.9177 272.392 59.8679 272.516 59.5691C272.591 59.3202 272.566 59.1459 272.441 59.1459C272.317 59.1459 272.292 58.9716 272.367 58.7227C272.491 58.424 272.441 58.3742 272.193 58.5235C271.944 58.6729 271.894 58.6231 272.018 58.3244C272.143 57.951 271.993 57.9012 270.923 57.9012C270.151 57.9012 269.728 58.0007 269.828 58.1501ZM269.579 68.357C269.504 68.5064 269.529 68.606 269.678 68.606C269.828 68.606 269.852 68.7803 269.778 69.0292C269.653 69.328 269.703 69.3777 269.952 69.2284C270.201 69.079 270.251 69.1288 270.126 69.4275C270.052 69.6765 270.076 69.8507 270.201 69.8507C270.325 69.8507 270.35 70.025 270.276 70.274C270.151 70.5727 270.201 70.6225 270.45 70.4731C270.699 70.3238 270.749 70.3735 270.624 70.6723C270.549 70.9212 270.574 71.0955 270.699 71.0955C270.823 71.0955 270.848 71.2698 270.774 71.5187C270.649 71.8175 270.699 71.8672 270.948 71.7179C271.197 71.5685 271.247 71.6183 271.122 71.917C271.047 72.166 271.072 72.3402 271.197 72.3402C271.321 72.3402 271.346 72.5145 271.271 72.7635C271.147 73.0622 271.197 73.112 271.446 72.9626C271.695 72.8132 271.744 72.863 271.62 73.1618C271.545 73.4107 271.57 73.585 271.695 73.585C271.819 73.585 271.844 73.7593 271.769 74.0082C271.645 74.3069 271.695 74.3567 271.944 74.2074C272.193 74.058 272.242 74.1078 272.118 74.4065C272.043 74.6555 272.068 74.8297 272.193 74.8297C272.317 74.8297 272.342 75.004 272.267 75.253C272.143 75.5517 272.193 75.6015 272.441 75.4521C272.69 75.3027 272.74 75.3525 272.616 75.6513C272.541 75.9002 272.566 76.0745 272.69 76.0745C272.815 76.0745 272.84 76.2488 272.765 76.4977C272.641 76.7964 272.69 76.8462 272.939 76.6969C273.188 76.5475 273.238 76.5973 273.114 76.896C273.039 77.145 273.064 77.3192 273.188 77.3192C273.313 77.3192 273.338 77.4935 273.263 77.7425C273.139 78.0412 273.188 78.091 273.437 77.9416C273.686 77.7922 273.736 77.842 273.612 78.1408C273.537 78.3897 273.562 78.564 273.686 78.564C273.811 78.564 273.836 78.7383 273.761 78.9872C273.636 79.2859 273.686 79.3357 273.935 79.1864C274.184 79.037 274.234 79.0868 274.109 79.3855C274.035 79.6345 274.06 79.8087 274.184 79.8087C274.309 79.8087 274.334 79.983 274.259 80.2319C274.134 80.5307 274.184 80.5805 274.433 80.4311C274.682 80.2817 274.732 80.3315 274.607 80.6303C274.533 80.8792 274.558 81.0535 274.707 81.0535C274.856 81.0535 274.881 81.1531 274.807 81.3024C274.732 81.4269 274.782 81.5514 274.931 81.5514C275.105 81.5514 275.18 81.7256 275.08 81.9248C275.006 82.124 275.055 82.2982 275.205 82.2982C275.354 82.2982 275.379 82.3978 275.304 82.5472C275.23 82.6717 275.28 82.7961 275.429 82.7961C275.603 82.7961 275.678 82.9704 275.578 83.1696C275.504 83.3687 275.553 83.543 275.703 83.543C275.852 83.543 275.902 83.6426 275.827 83.767C275.728 83.8915 275.802 84.0409 275.977 84.0907C276.126 84.1405 276.176 84.3396 276.076 84.489C275.952 84.713 274.109 84.7877 269.13 84.7628C265.396 84.7628 262.508 84.6881 262.683 84.6135C262.832 84.5637 262.932 84.3894 262.832 84.2649C262.757 84.1405 262.832 84.0409 262.981 84.0409C263.156 84.0409 263.23 83.8666 263.131 83.6675C263.056 83.4683 263.106 83.294 263.23 83.294C263.355 83.294 263.38 83.1198 263.305 82.8708C263.205 82.597 263.23 82.5223 263.454 82.6468C263.654 82.7712 263.753 82.7214 263.703 82.5223C263.604 81.7256 263.728 81.2775 264.027 81.4518C264.226 81.5763 264.251 81.5016 264.151 81.2277C264.077 80.9788 264.102 80.8045 264.226 80.8045C264.351 80.8045 264.376 80.6303 264.301 80.3813C264.176 80.0826 264.226 80.0328 264.475 80.1822C264.724 80.3315 264.774 80.2817 264.649 79.983C264.575 79.7341 264.6 79.5598 264.724 79.5598C264.849 79.5598 264.873 79.3855 264.799 79.1366C264.674 78.8378 264.724 78.788 264.973 78.9374C265.222 79.0868 265.272 79.037 265.147 78.7383C265.073 78.4893 265.097 78.315 265.222 78.315C265.346 78.315 265.371 78.1408 265.297 77.8918C265.172 77.5931 265.222 77.5433 265.471 77.6927C265.72 77.842 265.77 77.7922 265.645 77.4935C265.57 77.2446 265.595 77.0703 265.72 77.0703C265.844 77.0703 265.894 76.896 265.819 76.6969C265.72 76.4977 265.795 76.3234 265.944 76.3234C266.093 76.3234 266.143 76.1492 266.043 75.9002C265.944 75.6264 265.969 75.5517 266.168 75.6762C266.367 75.8006 266.417 75.726 266.317 75.477C266.243 75.253 266.292 75.0787 266.442 75.0787C266.591 75.0787 266.641 74.9044 266.541 74.6555C266.442 74.4065 266.492 74.3069 266.641 74.4065C266.79 74.5061 266.915 74.4314 266.89 74.2572C266.865 73.4107 266.99 73.0622 267.263 73.2365C267.463 73.3609 267.487 73.2863 267.388 73.0124C267.313 72.7635 267.338 72.5892 267.463 72.5892C267.587 72.5892 267.612 72.4149 267.537 72.166C267.413 71.8672 267.463 71.8175 267.711 71.9668C267.96 72.1162 268.01 72.0664 267.886 71.7677C267.811 71.5187 267.836 71.3444 267.96 71.3444C268.085 71.3444 268.11 71.1702 268.035 70.9212C267.911 70.6225 267.96 70.5727 268.209 70.7221C268.458 70.8714 268.508 70.8217 268.384 70.5229C268.309 70.274 268.334 70.0997 268.458 70.0997C268.583 70.0997 268.633 69.9254 268.558 69.7263C268.458 69.5271 268.533 69.3528 268.682 69.3528C268.832 69.3528 268.882 69.1786 268.782 68.9296C268.682 68.6558 268.707 68.5811 268.906 68.7056C269.106 68.8301 269.155 68.7554 269.056 68.5064C268.981 68.2824 269.031 68.1081 269.18 68.1081C269.33 68.1081 269.379 67.9089 269.305 67.66C269.18 67.2617 269.18 67.2617 269.454 67.6849C269.603 67.9089 269.653 68.2326 269.579 68.357Z" fill="white"></path>
<path d="M90.4594 82.9212V107.094L92.0278 106.945C92.8742 106.845 94.2434 106.845 95.065 106.92L96.5587 107.069V82.9212V58.7731L94.9903 58.8976C94.119 58.9722 92.7497 58.9722 91.9282 58.8976L90.4594 58.7482V82.9212Z" fill="white"></path>
<path d="M108.533 60.8891C108.259 64.5984 104.4 94.2235 102.832 104.854L102.508 107.094L103.753 106.92C104.45 106.845 105.595 106.845 106.292 106.92C107.512 107.094 107.537 107.069 107.437 106.522C107.263 105.576 107.886 96.6383 108.632 89.1449C110.002 75.6767 110.475 71.5939 110.674 71.5939C110.773 71.5939 110.773 71.7682 110.699 72.0171C110.599 72.291 110.624 72.3657 110.823 72.2412C111.022 72.1167 111.072 72.2163 110.948 72.4902C110.823 72.8138 110.873 72.8636 111.122 72.7142C111.321 72.5897 111.396 72.6146 111.271 72.7889C111.047 73.1623 111.894 74.8552 112.192 74.656C112.342 74.5564 112.392 74.656 112.292 74.905C112.217 75.1539 112.242 75.3282 112.392 75.3282C112.541 75.3282 112.566 75.4278 112.491 75.5771C112.416 75.7016 112.466 75.8261 112.616 75.8261C112.765 75.8261 112.815 75.9257 112.74 76.075C112.665 76.1995 112.715 76.324 112.865 76.324C113.014 76.324 113.064 76.4236 112.989 76.5729C112.914 76.6974 112.964 76.8219 113.113 76.8219C113.263 76.8219 113.313 76.9215 113.238 77.0708C113.163 77.1953 113.213 77.3198 113.362 77.3198C113.512 77.3198 113.562 77.4443 113.487 77.5687C113.412 77.6932 113.462 77.8177 113.611 77.8177C113.761 77.8177 113.811 77.9173 113.736 78.0666C113.661 78.1911 113.711 78.3156 113.86 78.3156C114.01 78.3156 114.06 78.4152 113.985 78.5645C113.91 78.689 113.96 78.8135 114.109 78.8135C114.259 78.8135 114.308 78.9131 114.234 79.0624C114.159 79.1869 114.209 79.3114 114.358 79.3114C114.508 79.3114 114.582 79.411 114.483 79.5354C114.308 79.8591 115.379 82.0498 115.653 81.9005C115.752 81.8258 115.777 81.9751 115.678 82.1992C115.578 82.4979 115.603 82.5726 115.802 82.4481C116.001 82.3486 116.051 82.3984 115.952 82.6224C115.877 82.8216 116.001 83.1452 116.2 83.3693C116.4 83.5684 116.499 83.7925 116.425 83.8921C116.325 83.9667 116.4 84.0414 116.574 84.0414C116.748 84.0414 116.798 84.141 116.723 84.2904C116.649 84.4148 116.698 84.5393 116.848 84.5393C116.997 84.5393 117.047 84.6389 116.972 84.7883C116.898 84.9127 116.947 85.0372 117.097 85.0372C117.246 85.0372 117.296 85.1368 117.221 85.2862C117.146 85.4106 117.196 85.5351 117.346 85.5351C117.495 85.5351 117.545 85.6347 117.47 85.7841C117.395 85.9085 117.445 86.033 117.595 86.033C117.744 86.033 117.794 86.1326 117.719 86.282C117.644 86.4064 117.694 86.5309 117.844 86.5309C117.993 86.5309 118.043 86.6305 117.968 86.7799C117.893 86.9043 117.943 87.0288 118.092 87.0288C118.242 87.0288 118.317 87.1284 118.242 87.2529C118.043 87.5765 118.341 88.2985 118.615 88.1242C118.74 88.0495 118.765 88.1989 118.665 88.4229C118.565 88.7217 118.59 88.7964 118.79 88.6719C118.989 88.5474 119.038 88.6221 118.939 88.871C118.864 89.0951 118.914 89.2694 119.088 89.2694C119.238 89.2694 119.287 89.3689 119.213 89.5183C119.138 89.6428 119.188 89.7673 119.337 89.7673C119.487 89.7673 119.536 89.8668 119.462 90.0162C119.387 90.1407 119.437 90.2652 119.586 90.2652C119.736 90.2652 119.785 90.3647 119.711 90.5141C119.636 90.6386 119.686 90.7631 119.835 90.7631C119.985 90.7631 120.034 90.8626 119.96 91.012C119.885 91.1365 119.935 91.261 120.084 91.261C120.233 91.261 120.283 91.3605 120.209 91.5099C120.134 91.6344 120.184 91.7589 120.333 91.7589C120.482 91.7589 120.557 91.8584 120.482 91.9829C120.258 92.3314 120.607 93.0285 120.906 92.8293C121.055 92.7298 121.105 92.8293 121.005 93.0783C120.931 93.3272 120.955 93.5015 121.105 93.5015C121.254 93.5015 121.279 93.6011 121.204 93.7505C121.13 93.8749 121.179 93.9994 121.329 93.9994C121.478 93.9994 121.528 94.099 121.453 94.2484C121.379 94.3728 121.428 94.4973 121.578 94.4973C121.727 94.4973 121.777 94.5969 121.702 94.7463C121.628 94.8707 121.677 94.9952 121.827 94.9952C121.976 94.9952 122.051 95.0948 121.976 95.2193C121.752 95.5678 122.101 96.2649 122.399 96.0657C122.549 95.9661 122.598 96.0657 122.499 96.3146C122.424 96.5636 122.449 96.7379 122.598 96.7379C122.748 96.7379 122.773 96.8374 122.698 96.9868C122.623 97.1113 122.673 97.2358 122.823 97.2358C122.972 97.2358 123.022 97.3353 122.947 97.4847C122.872 97.6092 122.897 97.7337 123.047 97.7337C123.196 97.7337 123.221 97.9079 123.146 98.1569C123.047 98.4307 123.071 98.5054 123.271 98.3809C123.47 98.2564 123.52 98.3311 123.42 98.5801C123.345 98.8041 123.395 98.9784 123.569 98.9784C123.719 98.9784 123.769 99.078 123.694 99.2274C123.619 99.3518 123.669 99.4763 123.818 99.4763C123.968 99.4763 124.017 99.5759 123.943 99.7253C123.868 99.8497 123.918 99.9742 124.067 99.9742C124.217 99.9742 124.291 100.074 124.217 100.198C123.993 100.547 124.341 101.244 124.64 101.045C124.789 100.945 124.839 101.045 124.739 101.294C124.665 101.543 124.69 101.717 124.839 101.717C124.988 101.717 125.013 101.841 124.939 101.966C124.864 102.115 124.914 102.215 125.063 102.215C125.212 102.215 125.287 102.314 125.212 102.439C125.013 102.762 125.312 103.484 125.586 103.31C125.71 103.235 125.735 103.36 125.661 103.559C125.586 103.783 125.636 103.957 125.81 103.957C125.959 103.957 126.009 104.057 125.934 104.206C125.86 104.356 125.91 104.455 126.059 104.455C126.208 104.455 126.258 104.58 126.183 104.704C126.109 104.854 126.158 104.953 126.308 104.953C126.457 104.953 126.507 105.053 126.432 105.202C126.358 105.327 126.383 105.65 126.532 105.899C126.856 106.497 128.2 106.447 128.1 105.825C128.05 105.551 128.125 105.451 128.324 105.6C128.548 105.725 128.573 105.65 128.474 105.376C128.399 105.127 128.424 104.953 128.548 104.953C128.673 104.953 128.698 104.779 128.623 104.53C128.499 104.231 128.548 104.181 128.797 104.331C129.046 104.48 129.096 104.43 128.972 104.132C128.897 103.883 128.922 103.708 129.071 103.708C129.221 103.708 129.27 103.609 129.196 103.484C128.972 103.136 129.32 102.439 129.619 102.638C129.768 102.738 129.818 102.638 129.718 102.389C129.644 102.14 129.669 101.966 129.818 101.966C129.967 101.966 130.017 101.866 129.942 101.742C129.718 101.393 130.067 100.696 130.366 100.895C130.515 100.995 130.565 100.895 130.465 100.646C130.391 100.397 130.415 100.223 130.565 100.223C130.714 100.223 130.739 100.099 130.664 99.9742C130.59 99.8248 130.64 99.7253 130.789 99.7253C130.938 99.7253 131.013 99.6257 130.938 99.5012C130.714 99.1527 131.063 98.4556 131.362 98.6548C131.511 98.7543 131.561 98.6548 131.461 98.4058C131.386 98.1569 131.411 97.9826 131.561 97.9826C131.71 97.9826 131.735 97.8581 131.66 97.7337C131.586 97.5843 131.635 97.4847 131.785 97.4847C131.934 97.4847 132.009 97.3851 131.909 97.2606C131.735 96.9619 132.283 95.7172 132.532 95.8665C132.781 96.0159 133.079 95.2691 132.88 94.9703C132.805 94.8458 132.88 94.7463 133.029 94.7463C133.179 94.7463 133.229 94.6218 133.154 94.4973C133.079 94.3479 133.129 94.2484 133.278 94.2484C133.428 94.2484 133.478 94.1239 133.403 93.9994C133.328 93.85 133.378 93.7505 133.527 93.7505C133.677 93.7505 133.751 93.6509 133.652 93.5264C133.478 93.2277 134.025 91.9829 134.274 92.1323C134.498 92.2817 135.32 90.539 135.146 90.2403C135.046 90.1158 135.121 90.0162 135.27 90.0162C135.419 90.0162 135.469 89.8917 135.394 89.7673C135.32 89.6179 135.37 89.5183 135.519 89.5183C135.668 89.5183 135.718 89.3938 135.643 89.2694C135.569 89.1449 135.619 89.0204 135.768 89.0204C135.917 89.0204 135.967 88.9208 135.892 88.7715C135.818 88.647 135.867 88.5225 136.017 88.5225C136.166 88.5225 136.216 88.4229 136.141 88.2736C136.067 88.1242 136.116 88.0246 136.266 88.0246C136.415 88.0246 136.465 87.9001 136.39 87.7757C136.316 87.6263 136.365 87.5267 136.515 87.5267C136.664 87.5267 136.714 87.4022 136.639 87.2778C136.565 87.1284 136.614 87.0288 136.764 87.0288C136.913 87.0288 136.963 86.9043 136.888 86.7799C136.814 86.6305 136.863 86.5309 137.013 86.5309C137.162 86.5309 137.212 86.4064 137.137 86.282C137.062 86.1575 137.112 86.033 137.262 86.033C137.411 86.033 137.461 85.9085 137.386 85.7841C137.311 85.6347 137.361 85.5351 137.511 85.5351C137.66 85.5351 137.71 85.4355 137.635 85.2862C137.56 85.1617 137.61 85.0372 137.76 85.0372C137.909 85.0372 137.959 84.9376 137.884 84.7883C137.809 84.6389 137.859 84.5393 138.008 84.5393C138.158 84.5393 138.208 84.4397 138.133 84.2904C138.058 84.1659 138.108 84.0414 138.257 84.0414C138.407 84.0414 138.457 83.9418 138.382 83.7925C138.307 83.668 138.357 83.5435 138.506 83.5435C138.656 83.5435 138.706 83.419 138.631 83.2946C138.556 83.1452 138.606 83.0456 138.755 83.0456C138.905 83.0456 138.954 82.9211 138.88 82.7967C138.805 82.6722 138.855 82.5477 139.004 82.5477C139.154 82.5477 139.203 82.4232 139.129 82.2988C139.054 82.1743 139.104 82.0498 139.253 82.0498C139.403 82.0498 139.452 81.9253 139.378 81.8009C139.303 81.6764 139.353 81.5519 139.502 81.5519C139.652 81.5519 139.701 81.4274 139.627 81.303C139.552 81.1536 139.602 81.054 139.751 81.054C139.9 81.054 139.95 80.9295 139.876 80.8051C139.801 80.6557 139.851 80.5561 140 80.5561C140.149 80.5561 140.199 80.4316 140.125 80.3072C140.05 80.1578 140.1 80.0582 140.249 80.0582C140.398 80.0582 140.448 79.9337 140.373 79.8093C140.299 79.6599 140.349 79.5603 140.498 79.5603C140.647 79.5603 140.697 79.4359 140.622 79.3114C140.548 79.162 140.598 79.0624 140.747 79.0624C140.896 79.0624 140.946 78.938 140.871 78.8135C140.797 78.6641 140.846 78.5645 140.996 78.5645C141.145 78.5645 141.195 78.4401 141.12 78.3156C141.046 78.1662 141.095 78.0666 141.245 78.0666C141.394 78.0666 141.444 77.9422 141.369 77.8177C141.295 77.6683 141.344 77.5687 141.469 77.5687C141.618 77.5687 142.191 76.6725 142.739 75.5522C143.311 74.4569 143.635 73.6104 143.46 73.7349C143.311 73.8345 143.485 73.3117 143.884 72.5897L144.606 71.2703L144.78 72.2412C145.253 74.7058 148.066 106.596 147.842 106.945C147.792 107.019 148.514 107.019 149.41 106.945C150.331 106.845 151.8 106.845 152.696 106.92L154.315 107.069L153.891 103.708C152.921 96.3395 149.385 63.5778 149.161 59.8933L149.087 58.773L148.116 58.7979C147.469 58.8228 147.07 58.9722 146.896 59.2709C146.722 59.5946 146.747 59.6692 146.946 59.5199C147.12 59.4203 147.02 59.7937 146.747 60.3663C146.448 60.9389 146.099 61.387 145.95 61.387C145.801 61.387 145.776 61.4866 145.85 61.6359C145.925 61.7604 145.875 61.8849 145.726 61.8849C145.577 61.8849 145.527 61.9845 145.601 62.1338C145.676 62.2583 145.626 62.3828 145.477 62.3828C145.328 62.3828 145.278 62.4824 145.352 62.6317C145.427 62.7562 145.377 62.8807 145.228 62.8807C145.079 62.8807 145.029 62.9803 145.104 63.1296C145.178 63.2541 145.128 63.3786 144.979 63.3786C144.83 63.3786 144.78 63.4782 144.855 63.6275C144.929 63.752 144.879 63.8765 144.73 63.8765C144.581 63.8765 144.531 63.9761 144.606 64.1254C144.68 64.2499 144.631 64.3744 144.506 64.3744C144.357 64.3744 143.784 65.2706 143.236 66.3909C142.664 67.4863 142.34 68.3327 142.465 68.2331C142.664 68.1335 142.639 68.2829 142.465 68.7061C142.29 69.0546 142.066 69.2787 141.967 69.204C141.842 69.1293 141.817 69.2787 141.917 69.5028C142.017 69.8015 141.992 69.8762 141.792 69.7517C141.593 69.6272 141.544 69.7268 141.668 70.0007C141.768 70.2994 141.743 70.3741 141.544 70.2496C141.344 70.1251 141.295 70.2247 141.419 70.4986C141.519 70.7973 141.494 70.872 141.295 70.7475C141.095 70.623 141.046 70.7226 141.17 70.9965C141.27 71.2952 141.245 71.3699 141.046 71.2454C140.846 71.1209 140.797 71.2205 140.921 71.4944C141.021 71.7931 140.996 71.8678 140.797 71.7433C140.598 71.6188 140.548 71.7184 140.672 71.9923C140.772 72.291 140.747 72.3657 140.548 72.2412C140.349 72.1167 140.299 72.2163 140.423 72.4902C140.523 72.7889 140.498 72.8636 140.299 72.7391C140.1 72.6395 140.05 72.6893 140.149 72.9383C140.224 73.1374 140.075 73.5108 139.801 73.7847C139.527 74.0585 139.353 74.3573 139.427 74.432C139.527 74.5066 139.452 74.5813 139.278 74.5813C139.104 74.5813 139.054 74.6809 139.129 74.8303C139.203 74.9548 139.154 75.0792 139.004 75.0792C138.855 75.0792 138.805 75.1788 138.88 75.3282C138.954 75.4527 138.905 75.5771 138.755 75.5771C138.606 75.5771 138.556 75.6767 138.631 75.8261C138.706 75.9506 138.656 76.075 138.506 76.075C138.357 76.075 138.307 76.1746 138.382 76.324C138.457 76.4485 138.407 76.5729 138.257 76.5729C138.108 76.5729 138.058 76.6725 138.133 76.8219C138.208 76.9464 138.158 77.0708 138.008 77.0708C137.859 77.0708 137.809 77.1704 137.884 77.3198C137.959 77.4443 137.909 77.5687 137.76 77.5687C137.61 77.5687 137.56 77.6683 137.635 77.8177C137.71 77.9422 137.66 78.0666 137.511 78.0666C137.361 78.0666 137.311 78.1662 137.386 78.3156C137.461 78.4401 137.411 78.5645 137.262 78.5645C137.112 78.5645 137.062 78.6641 137.137 78.8135C137.212 78.938 137.162 79.0624 137.013 79.0624C136.863 79.0624 136.814 79.162 136.888 79.3114C136.963 79.4359 136.913 79.5603 136.764 79.5603C136.614 79.5603 136.565 79.6599 136.639 79.8093C136.714 79.9337 136.664 80.0582 136.515 80.0582C136.365 80.0582 136.316 80.1578 136.39 80.3072C136.465 80.4316 136.415 80.5561 136.266 80.5561C136.116 80.5561 136.067 80.6557 136.141 80.8051C136.216 80.9295 136.166 81.054 136.017 81.054C135.867 81.054 135.818 81.1536 135.892 81.303C135.967 81.4274 135.917 81.5519 135.768 81.5519C135.619 81.5519 135.569 81.6515 135.643 81.8009C135.718 81.9253 135.668 82.0498 135.519 82.0498C135.37 82.0498 135.32 82.1494 135.394 82.2988C135.469 82.4232 135.419 82.5477 135.27 82.5477C135.121 82.5477 135.071 82.6473 135.146 82.7967C135.22 82.9211 135.17 83.0456 135.021 83.0456C134.872 83.0456 134.822 83.1452 134.897 83.2946C134.971 83.419 134.921 83.5435 134.772 83.5435C134.623 83.5435 134.573 83.6431 134.648 83.7925C134.722 83.9169 134.673 84.0414 134.523 84.0414C134.374 84.0414 134.324 84.141 134.399 84.2904C134.473 84.4148 134.424 84.5393 134.274 84.5393C134.125 84.5393 134.075 84.6389 134.15 84.7883C134.224 84.9127 134.175 85.0372 134.025 85.0372C133.876 85.0372 133.826 85.1368 133.901 85.2862C133.975 85.4106 133.926 85.5351 133.776 85.5351C133.627 85.5351 133.577 85.6347 133.652 85.7841C133.727 85.9085 133.677 86.033 133.527 86.033C133.378 86.033 133.328 86.1326 133.403 86.282C133.478 86.4064 133.428 86.5309 133.278 86.5309C133.129 86.5309 133.079 86.6305 133.154 86.7799C133.229 86.9043 133.179 87.0288 133.029 87.0288C132.88 87.0288 132.83 87.1284 132.905 87.2778C132.98 87.4022 132.93 87.5267 132.805 87.5267C132.656 87.5267 131.859 88.871 131.038 90.539C130.191 92.1821 129.644 93.4766 129.793 93.377C129.942 93.3023 129.793 93.7256 129.494 94.3728C128.996 95.3935 128.797 95.4931 128.748 94.8209C128.723 94.6965 128.548 94.4724 128.324 94.2981C128.1 94.099 128.075 94.0492 128.25 94.1239C128.474 94.2484 128.399 93.9247 128.075 93.2775C127.777 92.7049 127.403 92.2568 127.254 92.2568C127.104 92.2568 127.055 92.1821 127.129 92.0825C127.229 92.0078 127.104 91.7838 126.856 91.5846C126.631 91.3854 126.582 91.3108 126.756 91.3854C126.93 91.485 126.731 90.8875 126.308 90.0411C125.91 89.1947 125.437 88.5225 125.287 88.5225C125.163 88.5225 125.113 88.398 125.188 88.2736C125.262 88.1242 125.212 88.0246 125.088 88.0246C124.939 88.0246 124.839 87.9499 124.839 87.8255C124.914 87.3276 124.789 87.0288 124.515 87.1782C124.341 87.2778 124.316 87.2529 124.416 87.0786C124.615 86.755 122.424 82.2988 122.051 82.2988C121.926 82.2988 121.877 82.1743 121.951 82.0498C122.026 81.9253 121.976 81.8009 121.827 81.8009C121.677 81.8009 121.628 81.6764 121.702 81.5519C121.777 81.4026 121.727 81.303 121.578 81.303C121.428 81.303 121.379 81.1785 121.453 81.054C121.528 80.9047 121.478 80.8051 121.329 80.8051C121.179 80.8051 121.13 80.6806 121.204 80.5561C121.279 80.4068 121.229 80.3072 121.08 80.3072C120.931 80.3072 120.881 80.1827 120.955 80.0582C121.03 79.9089 120.98 79.8093 120.831 79.8093C120.682 79.8093 120.632 79.6848 120.706 79.5603C120.781 79.411 120.731 79.3114 120.582 79.3114C120.433 79.3114 120.383 79.1869 120.458 79.0624C120.532 78.9131 120.482 78.8135 120.333 78.8135C120.184 78.8135 120.134 78.689 120.209 78.5645C120.283 78.4152 120.233 78.3156 120.084 78.3156C119.935 78.3156 119.885 78.1911 119.96 78.0666C120.034 77.9173 119.985 77.8177 119.835 77.8177C119.686 77.8177 119.636 77.6932 119.711 77.5687C119.785 77.4443 119.736 77.3198 119.586 77.3198C119.437 77.3198 119.387 77.1953 119.462 77.0708C119.536 76.9215 119.487 76.8219 119.337 76.8219C119.188 76.8219 119.113 76.7223 119.213 76.5978C119.387 76.2991 117.321 72.0669 117.072 72.2412C116.848 72.3657 116.549 71.6188 116.748 71.3201C116.823 71.1956 116.748 71.096 116.599 71.096C116.449 71.096 116.4 70.9716 116.474 70.8471C116.549 70.6977 116.499 70.5981 116.35 70.5981C116.2 70.5981 116.151 70.4737 116.225 70.3492C116.3 70.1998 116.25 70.1002 116.101 70.1002C115.952 70.1002 115.902 69.9758 115.976 69.8513C116.051 69.7019 116.001 69.6023 115.852 69.6023C115.703 69.6023 115.653 69.4779 115.727 69.3534C115.802 69.204 115.752 69.1044 115.603 69.1044C115.454 69.1044 115.379 69.0049 115.479 68.8804C115.653 68.5816 114.831 66.839 114.582 66.9884C114.358 67.1377 114.06 66.3909 114.259 66.0921C114.333 65.9677 114.259 65.8681 114.109 65.8681C113.96 65.8681 113.91 65.7436 113.985 65.6191C114.06 65.4698 114.01 65.3702 113.86 65.3702C113.711 65.3702 113.661 65.2457 113.736 65.1212C113.811 64.9719 113.761 64.8723 113.611 64.8723C113.462 64.8723 113.387 64.7727 113.487 64.6482C113.686 64.2997 112.815 62.6317 112.541 62.806C112.392 62.9056 112.342 62.806 112.441 62.5571C112.516 62.3081 112.491 62.1338 112.342 62.1338C112.192 62.1338 112.167 62.0094 112.242 61.8849C112.317 61.7355 112.267 61.6359 112.118 61.6359C111.968 61.6359 111.919 61.5115 111.993 61.387C112.068 61.2376 112.018 61.138 111.869 61.138C111.719 61.138 111.67 61.0385 111.744 60.8891C111.819 60.7646 111.67 60.2418 111.421 59.7439C110.997 58.8975 110.873 58.8228 109.827 58.7979L108.707 58.773L108.533 60.8891Z" fill="white"></path>
<path d="M159.543 82.9211V107.069L161.036 106.92C161.858 106.845 163.252 106.845 164.148 106.92L165.766 107.069L165.692 96.0905L165.642 85.087L169.55 85.1119C172.488 85.1368 173.857 85.0372 174.953 84.7135C175.774 84.4895 176.521 84.365 176.621 84.4397C176.72 84.4895 176.894 84.4148 176.969 84.2654C177.069 84.141 177.293 84.0663 177.492 84.141C177.691 84.2156 177.84 84.1658 177.84 84.0165C177.84 83.8671 178.015 83.7924 178.214 83.892C178.413 83.9667 178.587 83.9169 178.587 83.7924C178.587 83.6679 178.762 83.6182 178.961 83.6928C179.16 83.7924 179.334 83.7177 179.334 83.5435C179.334 83.3941 179.434 83.3194 179.583 83.419C179.907 83.6182 182.496 82.2738 183.989 81.1038C185.209 80.1329 186.778 78.2657 186.031 78.6641C185.857 78.7636 185.956 78.6143 186.305 78.3155C186.653 78.0168 186.778 77.8425 186.603 77.9421C186.404 78.0417 186.429 77.8176 186.703 77.2202C186.952 76.7471 187.251 76.4235 187.375 76.4982C187.525 76.5978 187.574 76.4982 187.475 76.2492C187.4 76.0003 187.425 75.826 187.525 75.826C187.649 75.826 187.749 75.5771 187.749 75.2534C187.749 74.9547 187.873 73.7349 188.047 72.515C188.296 70.7973 188.296 69.901 188.047 68.1584C187.873 66.9634 187.724 65.7934 187.724 65.5444C187.699 65.3204 187.599 65.1212 187.475 65.1212C187.375 65.1212 187.35 64.9967 187.425 64.8722C187.5 64.7229 187.475 64.6233 187.325 64.6233C187.176 64.6233 187.126 64.4739 187.201 64.2748C187.276 64.1005 187.027 63.752 186.678 63.5279C186.33 63.3039 186.106 63.0051 186.18 62.8807C186.354 62.5819 185.359 61.5861 185.06 61.7604C184.935 61.8351 184.662 61.6359 184.438 61.3123C184.064 60.7148 182.869 60.0177 182.645 60.2418C182.57 60.3165 182.222 60.2418 181.848 60.0924C179.608 59.246 177.89 59.0717 168.754 58.9224L159.543 58.773V82.9211ZM176.023 62.0342C176.521 62.1338 176.77 62.3081 176.67 62.4574C176.571 62.6068 176.67 62.6566 176.919 62.557C177.168 62.4823 177.342 62.5072 177.342 62.6566C177.342 62.806 177.442 62.8309 177.591 62.7562C177.865 62.5819 180.853 65.5195 180.629 65.7187C180.554 65.7934 180.629 65.868 180.803 65.868C180.977 65.868 181.027 65.9676 180.952 66.117C180.878 66.2415 180.927 66.3659 181.077 66.3659C181.226 66.3659 181.276 66.4904 181.176 66.6398C181.102 66.7892 181.151 66.9883 181.301 67.0879C181.475 67.1875 181.724 68.0339 181.848 68.955C182.147 70.847 181.824 74.2825 181.301 74.5813C181.151 74.6809 181.102 74.9049 181.176 75.0543C181.276 75.2037 181.251 75.3281 181.102 75.3281C180.952 75.3281 180.927 75.5024 181.002 75.7513C181.102 76.0003 181.052 76.0999 180.902 76.0003C180.604 75.8011 180.255 76.4982 180.454 76.8218C180.529 76.9463 180.454 77.1206 180.305 77.2202C180.106 77.3446 180.081 77.2948 180.205 77.0708C180.355 76.8467 180.305 76.7969 180.106 76.9214C179.932 77.0459 179.857 77.2699 179.932 77.4442C180.006 77.6434 179.857 77.9172 179.633 78.1164C179.259 78.3902 179.235 78.3902 179.459 78.0666C179.608 77.8425 179.508 77.8923 179.259 78.1911C179.01 78.4649 178.537 78.913 178.239 79.1869C177.94 79.4607 177.865 79.5603 178.089 79.4358C178.413 79.2117 178.413 79.2366 178.114 79.6101C177.94 79.859 177.691 79.9835 177.567 79.9088C177.268 79.7345 176.297 80.4316 176.521 80.6557C176.621 80.7552 176.496 80.7552 176.247 80.6557C175.923 80.5312 175.824 80.5561 175.948 80.7552C176.073 80.9544 175.998 81.0042 175.749 80.9046C175.525 80.8299 175.351 80.8797 175.351 81.0291C175.351 81.1785 175.276 81.278 175.177 81.2531C175.052 81.2282 174.654 81.3776 174.231 81.5519C173.758 81.7759 172.065 81.9253 169.575 82L165.642 82.0996V72.0171V61.9097L166.214 61.7853C166.887 61.6359 174.903 61.8351 176.023 62.0342Z" fill="white"></path>
<path d="M224.767 82.7963V106.82H236.866H248.965L248.716 106.098C248.591 105.725 248.541 104.704 248.616 103.857L248.765 102.289L247.471 102.488C245.454 102.812 238.334 103.21 234.401 103.21H230.866L230.916 80.979L230.99 58.7727L229.447 58.8971C228.576 58.9718 227.181 58.9718 226.335 58.8971L224.767 58.7727V82.7963Z" fill="white"></path>
</g>
</g>
<defs>
<clipPath id="clip0_1049_7292">
<rect width="214.965" height="61.5845" fill="white" transform="translate(81.3378 52.2887)"></rect>
</clipPath>
<clipPath id="clip1_1049_7292">
<rect width="211.607" height="51.7815" fill="white" transform="translate(84.2352 57.9014)"></rect>
</clipPath>
</defs>
</svg>