<svg width="377" height="165" viewBox="0 0 377 165" fill="none" xmlns="http://www.w3.org/2000/svg">
<path d="M49.9646 67.825V96.1074H56.546H63.1275V67.825V39.5426H56.546H49.9646V67.825Z" fill="white"></path>
<path d="M75.8635 40.0046C72.7329 41.0363 69.6379 44.2737 68.784 47.4754C68.5706 48.2581 68.4639 52.2781 68.535 57.3298L68.6417 65.7967L69.7446 67.1842C70.5984 68.2159 71.6301 68.8562 74.3694 70.0302C77.6423 71.3821 85.3977 74.406 88.4928 75.5088L89.8091 75.9713V78.5683C89.8091 82.1258 89.3466 82.5883 85.8246 82.5883C84.4016 82.5883 83.0498 82.446 82.8363 82.3037C82.0181 81.7701 81.6267 80.4538 81.6267 78.3548V76.1847H75.0453H68.4639L68.4994 81.9479C68.4994 86.5727 68.6417 88.0669 69.1042 89.2409C70.0648 91.5889 72.1281 93.7945 74.405 94.933L76.4683 95.9291H85.7179C94.9319 95.9291 94.9675 95.9291 96.9241 95.0041C99.2721 93.9013 100.909 92.3004 102.189 89.8813C103.15 88.1025 103.15 88.0313 103.257 79.5644C103.363 71.133 103.363 70.9907 102.509 69.4254C102.047 68.536 101.158 67.4688 100.553 67.0775C99.45 66.3304 95.43 64.6583 86.4294 61.3142L81.8046 59.5711L81.6979 57.8279C81.4489 53.8434 82.3027 52.8829 86.1092 52.8829C89.2754 52.8829 89.8091 53.4521 89.8091 56.8673V59.4643H96.604H103.399L103.257 53.4877C103.15 48.2225 103.043 47.3687 102.367 45.9457C101.335 43.8468 99.0587 41.5699 96.9597 40.5382C95.3944 39.7556 94.8964 39.72 86.2515 39.6489C79.9547 39.6133 76.7885 39.72 75.8635 40.0046Z" fill="white"></path>
<path d="M108.308 67.8245V96.1069L114.996 96.0358L121.649 95.929L121.826 82.4104L122.004 68.8918L122.68 72.6272C123.036 74.6906 123.463 77.1453 123.641 78.1414C123.783 79.1019 124.174 81.2008 124.459 82.7662C124.744 84.3315 125.348 87.6044 125.775 90.0591C126.914 96.7473 126.273 96.1069 132.143 96.1069C134.883 96.1069 137.124 96.0358 137.124 95.8935C137.124 95.7867 138.084 90.486 139.223 84.0824C140.397 77.6789 141.464 71.6311 141.642 70.6705C141.82 69.4966 141.998 73.4454 142.104 82.4104L142.282 95.929L148.97 96.0358L155.623 96.1069V67.8245V39.5421H146.196C136.839 39.5421 136.768 39.5421 136.768 40.2892C136.768 40.7161 136.021 45.0563 135.132 50.0013C134.242 54.9107 133.211 60.6739 132.855 62.8084C132.464 64.9429 132.108 66.7217 132.037 66.8284C131.93 66.8996 131.61 65.4765 131.29 63.6622C130.969 61.8479 130.542 59.5355 130.329 58.5749C129.76 55.7289 127.483 43.0641 127.234 41.3209L126.985 39.72L117.629 39.6133L108.308 39.5421V67.8245Z" fill="white"></path>
<path d="M170.244 41.7482C170.031 42.9934 169.284 47.1913 168.608 51.1046C167.932 55.0179 166.794 61.3503 166.118 65.1568C165.442 68.9634 164.054 76.6477 163.094 82.233C162.133 87.8183 161.173 93.1191 161.03 94.044C160.852 94.969 160.781 95.8228 160.888 95.9295C160.995 96.0362 164.019 96.1074 167.576 96.1074H174.086L174.3 94.3998C174.442 93.4748 174.691 92.1585 174.834 91.4826C175.011 90.8067 175.26 89.3125 175.367 88.1741L175.616 86.1463H180.134H184.652L185.471 91.1268L186.324 96.1074H193.084H199.807L199.558 95.1113C199.416 94.5776 199.167 93.2614 199.025 92.1941C198.847 91.1268 198.384 88.4587 197.993 86.3242C197.602 84.1541 196.712 79.1379 196.001 75.1179C195.325 71.0979 194.4 66.0462 194.009 63.9117C193.617 61.7416 193.155 59.109 192.977 58.0418C192.799 56.9745 192.265 53.8439 191.767 51.1046C191.269 48.3653 190.807 45.5548 190.665 44.8789C190.558 44.2029 190.273 42.7088 190.06 41.5704L189.668 39.5426H180.17H170.636L170.244 41.7482ZM181.522 68.7855C182.162 72.3786 182.66 75.5093 182.66 75.7227C182.66 76.2919 178.178 76.3631 177.857 75.8294C177.751 75.6516 178.071 73.1257 178.605 70.2441C179.103 67.3625 179.601 64.3742 179.707 63.6271C179.814 62.9156 180.028 62.3108 180.134 62.3108C180.277 62.3108 180.881 65.228 181.522 68.7855Z" fill="white"></path>
<path d="M212.33 40.0402C210.302 40.6805 207.883 42.4237 206.745 44.0602C204.682 47.0485 204.717 46.4082 204.717 72.307V96.0714L211.405 96.0002L218.058 95.929L218.165 85.3276L218.236 74.7617H226.952H235.668V68.7139V62.6661H226.952H218.236V58.5749C218.236 52.5271 217.809 52.705 230.972 52.705H239.581V46.1236V39.5421L226.703 39.5777C217.24 39.5777 213.397 39.72 212.33 40.0402Z" fill="white"></path>
<path d="M252.032 40.0758C249.684 40.8228 247.123 42.9574 245.842 45.2342L244.739 47.1908L244.632 65.5121C244.561 77.7145 244.668 84.5805 244.917 86.1103C245.629 90.3082 247.799 93.4032 251.178 95.0753L252.922 95.9291H266.262H279.603V89.3476V82.7662L269.535 82.5883C257.44 82.3749 258.08 82.6595 258.08 77.7501V74.7617H266.796H275.512V68.7139V62.6661H266.796H258.08V58.7884C258.08 55.1597 258.151 54.804 258.934 53.879L259.788 52.8829L269.784 52.7762L279.781 52.6694V46.088V39.5421L266.725 39.5777C256.515 39.5777 253.277 39.6844 252.032 40.0758Z" fill="white"></path>
<path d="M284.762 67.825V96.1074H291.343H297.925V88.6721V81.2013L300.308 79.9562C301.624 79.2447 302.87 78.6755 303.083 78.6755C303.261 78.6755 305.289 81.9128 307.53 85.8617C309.771 89.775 312.048 93.6883 312.582 94.5421L313.578 96.1074H319.91C323.397 96.1074 326.349 96.0007 326.492 95.8939C326.598 95.7872 326.314 95.0757 325.851 94.3642C325.424 93.6527 323.148 89.8105 320.835 85.7905C318.558 81.7705 315.961 77.3236 315.107 75.9006C314.289 74.442 313.578 73.2324 313.578 73.1257C313.578 73.0546 314.858 72.343 316.424 71.5604C319.803 69.8528 321.511 68.2163 322.792 65.5482C323.717 63.5915 323.717 63.4136 323.717 55.7294C323.717 48.3297 323.681 47.7961 322.899 46.124C321.867 43.8828 319.946 41.8905 317.669 40.681L315.89 39.7204L300.344 39.6137L284.762 39.507V67.825ZM309.7 53.7371C310.234 54.4131 310.376 55.1246 310.376 57.6504C310.376 61.1368 310.198 61.4214 307.352 62.9156C306.569 63.3069 304.221 64.552 302.158 65.6549C300.095 66.7577 298.28 67.5404 298.174 67.3981C297.818 67.0779 297.853 53.2391 298.209 52.9189C298.352 52.7766 300.842 52.7055 303.723 52.7766C308.775 52.8833 309.06 52.9189 309.7 53.7371Z" fill="white"></path>
<path d="M305.289 110.444C302.621 111.262 301.376 113.397 302.194 115.852C302.692 117.417 304.115 118.413 306.712 119.089C309.167 119.729 310.02 120.405 309.451 121.295C308.918 122.148 306.641 122.255 304.969 121.508L303.581 120.868L302.728 121.935C302.265 122.504 301.874 123.144 301.838 123.358C301.838 123.963 304.257 124.923 306.392 125.137C310.483 125.564 312.831 124.141 313.151 121.081C313.293 119.516 313.187 119.267 312.084 118.093C311.194 117.132 310.269 116.634 308.313 116.065C305.645 115.247 304.969 114.642 305.751 113.717C306.321 113.005 308.242 113.041 310.02 113.753C311.586 114.393 311.764 114.286 312.866 112.401C313.365 111.582 312.191 110.8 309.7 110.337C307.388 109.91 307.032 109.91 305.289 110.444Z" fill="white"></path>
<path d="M155.623 117.63V124.923H157.224H158.825V122.255V119.623L161.956 119.516L165.051 119.409L165.157 117.879L165.264 116.385H162.062H158.825V114.962V113.539H162.205H165.584V111.938V110.337H160.604H155.623V117.63Z" fill="white"></path>
<path d="M168.074 117.63V124.923H173.446H178.783L178.676 123.394L178.569 121.899L175.118 121.793L171.632 121.686V120.476V119.231H174.656H177.68V117.63V116.03H174.656H171.632V114.784V113.539H175.012H178.391V111.938V110.337H173.233H168.074V117.63Z" fill="white"></path>
<path d="M199.026 119.942H200.449C201.836 119.942 201.872 119.978 203.117 122.433L204.362 124.923H208.311L207.172 122.859C206.532 121.757 205.821 120.512 205.572 120.156C205.18 119.587 205.216 119.374 205.999 118.805C207.991 117.204 208.488 114.464 207.101 112.436C205.998 110.8 204.54 110.373 199.844 110.373L195.824 110.337V124.923H199.026V119.942ZM198.697 112.711H203.345C204.629 112.711 205.669 113.752 205.669 115.035C205.669 116.319 204.629 117.359 203.345 117.359H198.697V112.711Z" fill="white"></path>
<path d="M184.439 119.942H185.792C187.107 119.942 187.179 120.014 188.353 122.433L189.562 124.923H191.448C192.479 124.923 193.333 124.816 193.333 124.639C193.333 124.496 192.693 123.287 191.946 122.006L190.558 119.587L191.768 118.377C192.835 117.31 192.977 116.954 192.977 115.317C192.977 111.44 191.234 110.337 185.151 110.337H181.238V124.923H184.439V119.942ZM183.591 112.711H188.239C189.522 112.711 190.563 113.752 190.563 115.035C190.563 116.319 189.522 117.359 188.239 117.359H183.591V112.711Z" fill="white"></path>
<path d="M226.667 112.899C226.525 114.322 226.311 117.63 226.205 120.192L225.956 124.923H227.556H229.157L229.406 122.753C229.513 121.544 229.62 119.587 229.62 118.377V116.207L231.897 119.907L234.173 123.571L235.17 122.042C235.703 121.188 236.664 119.623 237.269 118.591C238.3 116.883 238.443 116.777 238.656 117.524C238.763 117.986 238.869 119.836 238.869 121.615V124.923H240.684H242.534L242.32 122.682C242.178 121.473 242 118.2 241.858 115.389L241.609 110.337H240.115H238.62L236.379 113.931L234.138 117.488L232.857 115.425C232.11 114.286 231.15 112.685 230.687 111.832C229.904 110.444 229.727 110.337 228.375 110.337H226.881L226.667 112.899Z" fill="white"></path>
<path d="M245.558 117.63L245.664 124.923H250.823H255.981L255.875 123.394L255.768 121.899H252.281H248.831V120.548V119.231H252.032H255.234V117.63V116.03H252.032H248.831V114.784V113.539H252.175H255.519L255.661 111.938L255.768 110.337H250.609H245.451L245.558 117.63Z" fill="white"></path>
<path d="M258.436 117.63V124.923H260.037H261.602L261.709 120.69L261.816 116.421L264.946 120.69L268.113 124.923H269.678H271.243L271.172 117.702L271.065 110.515L269.393 110.409L267.721 110.302L267.614 114.464L267.508 118.662L264.377 114.5C261.318 110.409 261.246 110.337 259.859 110.337H258.436V117.63Z" fill="white"></path>
<path d="M273.022 111.938V113.539H275.156H277.291V119.231V124.923H278.892H280.493V119.231V113.575L282.734 113.468L284.94 113.361L285.046 111.832L285.153 110.337H279.105H273.022V111.938Z" fill="white"></path>
<path d="M216.777 110.337C218.022 110.337 218.2 110.444 218.698 111.654C218.983 112.401 219.623 113.895 220.121 114.962C220.619 116.029 221.437 117.95 221.971 119.231C222.469 120.511 223.216 122.219 223.607 123.038C223.963 123.891 224.283 124.639 224.283 124.746C224.283 124.852 223.465 124.923 222.469 124.923C220.762 124.923 220.655 124.852 220.157 123.678L219.659 122.433H213.967L213.362 123.678C212.793 124.852 212.65 124.923 211.05 124.923C210.125 124.923 209.342 124.781 209.342 124.568C209.342 124.248 214.393 112.223 215.069 110.942C215.318 110.515 215.853 110.337 216.777 110.337ZM216.708 113.292C216.359 113.292 216.047 113.511 215.928 113.838L213.803 119.683H219.612L217.487 113.838C217.368 113.511 217.057 113.293 216.708 113.292Z" fill="white"></path>
<path d="M294.545 110.337L297.213 116.599C298.672 120.05 300.095 123.323 300.344 123.892L300.771 124.923H298.85C296.964 124.923 296.893 124.888 296.502 123.678L296.074 122.433H290.134L289.707 123.678C289.245 124.888 289.209 124.923 287.323 124.923C285.9 124.923 285.438 124.816 285.58 124.46C285.688 124.245 286.363 122.681 287.074 121.01C287.786 119.338 288.64 117.346 288.995 116.563C289.351 115.78 290.063 114.073 290.632 112.721L291.628 110.337H294.545ZM293.398 113.873C293.049 113.874 292.737 114.092 292.618 114.419L290.493 120.264H296.303L294.177 114.419C294.058 114.092 293.746 113.873 293.398 113.873Z" fill="white"></path>
</svg>