<svg width="2122" height="457" viewBox="0 0 2122 457" fill="none" xmlns="http://www.w3.org/2000/svg">
<path d="M488.1 320V302.566H539.891C553.736 302.566 565.956 299.574 576.553 293.592C587.151 287.439 595.441 279.063 601.423 268.466C607.405 257.698 610.396 245.391 610.396 231.546C610.396 217.701 607.405 205.48 601.423 194.883C595.441 184.285 587.151 175.996 576.553 170.013C565.956 163.86 553.736 160.783 539.891 160.783H488.612V143.605H540.404C553.223 143.605 565.016 145.827 575.784 150.271C586.723 154.544 596.21 160.698 604.243 168.731C612.448 176.594 618.772 185.909 623.216 196.678C627.66 207.275 629.883 218.983 629.883 231.803C629.883 244.28 627.66 255.903 623.216 266.671C618.772 277.44 612.533 286.841 604.5 294.874C596.466 302.737 586.981 308.89 576.042 313.334C565.273 317.778 553.564 320 540.915 320H488.1ZM476.562 320V143.605H495.279V320H476.562ZM661.74 320V199.498H679.944V320H661.74ZM670.714 173.346C667.295 173.346 664.389 172.15 661.997 169.757C659.604 167.193 658.407 164.202 658.407 160.783C658.407 157.194 659.604 154.203 661.997 151.81C664.389 149.417 667.295 148.22 670.714 148.22C674.474 148.22 677.466 149.417 679.688 151.81C682.08 154.203 683.277 157.194 683.277 160.783C683.277 164.202 682.08 167.193 679.688 169.757C677.466 172.15 674.474 173.346 670.714 173.346ZM766.062 373.329C753.927 373.329 743.072 371.021 733.501 366.406C724.1 361.962 716.494 355.638 710.682 347.433L722.477 335.64C727.263 342.135 733.33 347.177 740.68 350.767C748.029 354.356 756.662 356.151 766.576 356.151C780.25 356.151 791.102 352.476 799.136 345.126C807.34 337.776 811.443 327.777 811.443 315.129V285.131L815.032 257.698L811.443 230.521V199.498H829.391V315.129C829.391 326.752 826.741 336.922 821.443 345.639C816.144 354.356 808.708 361.107 799.136 365.893C789.735 370.85 778.71 373.329 766.062 373.329ZM767.344 318.718C756.234 318.718 746.235 316.069 737.346 310.77C728.458 305.471 721.45 298.207 716.323 288.977C711.195 279.747 708.631 269.321 708.631 257.698C708.631 246.075 711.109 235.734 716.066 226.675C721.194 217.445 728.203 210.181 737.091 204.882C745.979 199.583 755.977 196.934 767.087 196.934C776.488 196.934 784.865 198.729 792.214 202.318C799.735 205.907 805.717 211.035 810.161 217.701C814.776 224.196 817.596 231.888 818.621 240.776V274.876C817.596 283.593 814.776 291.285 810.161 297.951C805.546 304.446 799.564 309.574 792.214 313.334C784.865 316.923 776.574 318.718 767.344 318.718ZM770.677 301.54C779.052 301.54 786.317 299.745 792.47 296.156C798.794 292.567 803.665 287.524 807.084 281.029C810.673 274.363 812.469 266.586 812.469 257.698C812.469 248.981 810.673 241.374 807.084 234.879C803.665 228.384 798.794 223.256 792.47 219.496C786.146 215.736 778.796 213.855 770.42 213.855C762.045 213.855 754.524 215.736 747.858 219.496C741.363 223.256 736.235 228.384 732.475 234.879C728.886 241.374 727.091 248.981 727.091 257.698C727.091 266.244 728.972 273.85 732.732 280.516C736.493 287.182 741.62 292.396 748.115 296.156C754.61 299.745 762.131 301.54 770.677 301.54ZM865.551 320V199.498H883.75V320H865.551ZM874.521 173.346C871.101 173.346 868.201 172.15 865.801 169.757C863.411 167.193 862.22 164.202 862.22 160.783C862.22 157.194 863.411 154.203 865.801 151.81C868.201 149.417 871.101 148.22 874.521 148.22C878.281 148.22 881.27 149.417 883.5 151.81C885.89 154.203 887.08 157.194 887.08 160.783C887.08 164.202 885.89 167.193 883.5 169.757C881.27 172.15 878.281 173.346 874.521 173.346ZM938.85 320V148.733H956.791V320H938.85ZM908.34 215.65V199.498H987.051V215.65H908.34ZM1059.82 322.564C1048.36 322.564 1038.11 319.829 1029.05 314.359C1019.99 308.719 1012.81 301.198 1007.51 291.797C1002.39 282.396 999.82 271.799 999.82 260.005C999.82 248.041 1002.39 237.358 1007.51 227.957C1012.81 218.385 1019.99 210.864 1029.05 205.395C1038.11 199.754 1048.28 196.934 1059.56 196.934C1068.79 196.934 1076.99 198.814 1084.17 202.574C1091.52 206.164 1097.42 211.292 1101.86 217.958C1106.48 224.453 1109.3 232.059 1110.32 240.776V278.465C1109.3 287.182 1106.48 294.874 1101.86 301.54C1097.42 308.206 1091.52 313.419 1084.17 317.18C1076.99 320.769 1068.88 322.564 1059.82 322.564ZM1062.64 305.386C1075.11 305.386 1085.11 301.198 1092.63 292.823C1100.33 284.448 1104.17 273.423 1104.17 259.749C1104.17 250.69 1102.38 242.742 1098.79 235.905C1095.37 228.897 1090.5 223.513 1084.17 219.752C1078.02 215.821 1070.76 213.855 1062.38 213.855C1053.83 213.855 1046.23 215.821 1039.56 219.752C1033.07 223.684 1027.85 229.153 1023.92 236.161C1020.16 242.998 1018.28 250.861 1018.28 259.749C1018.28 268.637 1020.16 276.5 1023.92 283.337C1027.85 290.174 1033.15 295.558 1039.82 299.489C1046.48 303.42 1054.09 305.386 1062.64 305.386ZM1103.15 320V287.695L1106.74 257.954L1103.15 228.982V199.498H1121.09V320H1103.15ZM1157.49 320V138.478H1175.44V320H1157.49Z" fill="white"></path>
<path d="M1410.58 320V196.165H1444.17V320H1410.58ZM1444.17 251.544L1431.09 242.827C1432.63 227.615 1437.08 215.65 1444.43 206.933C1451.78 198.045 1462.37 193.601 1476.22 193.601C1482.2 193.601 1487.59 194.626 1492.37 196.678C1497.16 198.558 1501.52 201.72 1505.45 206.164L1484.42 230.264C1482.54 228.213 1480.24 226.675 1477.5 225.649C1474.94 224.624 1471.95 224.111 1468.53 224.111C1461.35 224.111 1455.45 226.418 1450.84 231.033C1446.39 235.478 1444.17 242.315 1444.17 251.544ZM1571.94 322.564C1559.46 322.564 1548.18 319.744 1538.1 314.103C1528.18 308.292 1520.23 300.515 1514.25 290.772C1508.44 280.858 1505.53 269.833 1505.53 257.698C1505.53 245.562 1508.44 234.708 1514.25 225.137C1520.06 215.394 1528.01 207.702 1538.1 202.062C1548.18 196.25 1559.38 193.344 1571.68 193.344C1584.33 193.344 1595.61 196.25 1605.53 202.062C1615.61 207.702 1623.56 215.394 1629.37 225.137C1635.18 234.708 1638.09 245.562 1638.09 257.698C1638.09 269.833 1635.18 280.858 1629.37 290.772C1623.56 300.515 1615.61 308.292 1605.53 314.103C1595.61 319.744 1584.42 322.564 1571.94 322.564ZM1571.68 291.285C1578.01 291.285 1583.56 289.917 1588.35 287.182C1593.31 284.277 1597.07 280.345 1599.63 275.389C1602.36 270.261 1603.73 264.449 1603.73 257.954C1603.73 251.459 1602.36 245.733 1599.63 240.776C1596.89 235.819 1593.13 231.974 1588.35 229.239C1583.56 226.333 1578.01 224.88 1571.68 224.88C1565.53 224.88 1560.06 226.333 1555.27 229.239C1550.49 231.974 1546.73 235.819 1543.99 240.776C1541.26 245.733 1539.89 251.459 1539.89 257.954C1539.89 264.449 1541.26 270.261 1543.99 275.389C1546.73 280.345 1550.49 284.277 1555.27 287.182C1560.06 289.917 1565.53 291.285 1571.68 291.285ZM1690.03 320L1643.62 196.165H1677.47L1707.72 286.157L1697.47 286.413L1728.49 196.165H1752.84L1783.87 286.413L1773.61 286.157L1803.87 196.165H1837.71L1791.56 320H1767.2L1735.92 234.367H1745.41L1714.13 320H1690.03ZM1872.21 320V144.631H1905.79V320H1872.21ZM1843.24 225.649V196.165H1934.77V225.649H1843.24ZM2036.98 320V248.981C2036.98 241.631 2034.67 235.648 2030.06 231.033C2025.44 226.418 2019.46 224.111 2012.11 224.111C2007.33 224.111 2003.05 225.137 1999.29 227.188C1995.53 229.239 1992.54 232.144 1990.32 235.905C1988.27 239.665 1987.24 244.024 1987.24 248.981L1974.17 242.315C1974.17 232.572 1976.22 224.111 1980.32 216.932C1984.42 209.582 1990.06 203.856 1997.24 199.754C2004.59 195.652 2012.97 193.601 2022.37 193.601C2031.77 193.601 2040.06 195.652 2047.24 199.754C2054.59 203.856 2060.31 209.497 2064.41 216.676C2068.52 223.855 2070.57 232.144 2070.57 241.545V320H2036.98ZM1953.65 320V134.632H1987.24V320H1953.65Z" fill="white"></path>
<path d="M1215.97 232.134C1215.97 213.025 1223.11 197.3 1223.11 197.3C1229.17 186.914 1233.25 178.877 1240.63 171.66C1247.02 164.737 1252.75 160.193 1265.3 154.135C1276.88 149.158 1287.61 146.778 1300.84 146.778C1315.96 146.778 1325.88 148.293 1341.03 156.515C1363.42 169.497 1372.18 184.209 1377.27 197.732L1356.93 208.118C1353.79 201.302 1349.9 194.811 1343.08 188.753C1343.08 188.753 1334.54 179.558 1320.04 175.23C1314.63 173.616 1311.82 172.526 1300.84 172.526C1291.73 172.526 1284.23 174.581 1276.77 177.827C1269.19 181.505 1264.11 185.291 1259.03 190.376C1253.94 195.46 1249.94 201.411 1246.69 208.659C1243.77 215.366 1241.82 223.371 1241.82 232.134C1241.82 242.628 1243.88 249.552 1246.58 256.259C1249.94 263.616 1253.65 269.279 1258.81 274.434C1263.57 279.843 1271.51 285.144 1279.15 288.281C1286.18 291.169 1293.86 292.717 1301.87 292.717C1313.33 292.717 1319.81 290.603 1330.08 284.545C1340.14 277.45 1346.62 269.025 1350.19 257.857H1316.03V237.243H1387.44L1387.53 317.5H1366.15V277.45C1362.39 286.104 1351.2 303.21 1335.12 310.95C1323.87 316.362 1313.55 318.356 1300.84 318.356C1287.61 318.356 1276.44 316.192 1265.73 311.216C1257.17 307.235 1249.65 302.561 1240.63 293.69C1233.37 286.55 1228.38 279.951 1221.27 266.32C1221.27 266.32 1215.97 254.099 1215.97 232.134Z" fill="white" stroke="white" stroke-width="4.46249"></path>
<path d="M57 329.282L112.409 280.799V352.369H215.695C231.427 352.369 247.256 350.811 262.034 345.416C298.416 332.133 314.592 313.509 334.047 278.49C345.824 252.146 347.642 235.442 344.365 204.674C343.706 198.484 342.46 192.341 340.477 186.44C331.132 158.639 319.508 143.223 296.943 125.035C288.021 117.844 278.377 111.331 267.541 107.605C254.257 103.037 231.837 98.409 190.906 98.409H113.307V197.685L57 246.168V98.409V43H223.228C257.688 43.897 277.381 49.142 313.268 68.396C342.369 88.908 356.688 102.396 375.604 133.04C391.616 161.544 398.691 179.215 401 220.772C401 264.638 393.391 285.579 373.295 322.356C342.671 368.292 308.268 393.021 249.407 405.768C242.773 407.204 235.974 407.779 229.187 407.779H112.409H57V329.282Z" fill="white"></path>
<path d="M57 253.283L153.033 170.523L187.183 211.438L201.132 230.035L242.976 192.84L191.833 176.567L268.548 164.944L312.717 157.97L303.418 195.165L291.795 243.984L282.496 276.53L275.522 250.958L268.548 223.061L229.028 264.906L196.482 299.777L149.988 241.659L57 323.024V253.283Z" fill="white"></path>
</svg>