<svg width="197" height="68" viewBox="0 0 197 68" fill="none" xmlns="http://www.w3.org/2000/svg">
<g clip-path="url(#clip0_1046_5848)">
<path d="M83.0938 11.7179C81.6148 12.0897 80.1853 13.6101 79.012 16.0723C77.8883 18.4437 77.1612 21.2447 76.8059 24.5994C76.6159 26.4006 76.682 30.1023 76.9299 31.7218C77.3182 34.2501 77.9462 36.919 78.4667 38.2906L78.6733 38.8276L78.3676 39.2821C77.2521 40.9098 75.4839 42.0336 73.6744 42.2566C70.6089 42.6367 68.2871 40.6041 68.0475 37.3238C68.0062 36.7785 68.031 36.5637 68.221 35.9357C68.8738 33.7048 68.8077 31.0194 68.0558 29.4743C67.4443 28.2349 66.3206 27.9044 65.1804 28.6233C63.817 29.4909 62.8173 32.2754 62.5942 35.8531C62.5446 36.7537 62.5363 36.7702 62.0571 37.7122C61.2226 39.3482 60.4541 40.2075 59.6113 40.4471C58.3306 40.8024 57.0582 39.6126 56.0336 37.1008C55.8518 36.6546 55.4635 35.5309 55.1578 34.5889C53.53 29.4578 53.2078 28.6233 52.5385 27.9044C51.9106 27.2186 51.4313 27.136 50.5968 27.5574C49.5888 28.0532 48.5146 29.2265 46.1267 32.4241C44.6229 34.4319 43.7801 35.4069 43.367 35.6135C43.1356 35.7374 43.1191 35.7374 42.8134 35.4152C42.3342 34.9029 41.9954 33.8783 41.2104 30.4906C41.0121 29.6561 40.913 29.5322 40.4172 29.5322C40.1693 29.5322 39.8554 29.5983 39.6405 29.7057C39.1117 29.9536 38.5003 30.6394 38.2772 31.226C38.1698 31.4987 37.7153 33.1677 37.2609 34.9442C36.8147 36.7124 36.2198 38.9268 35.9471 39.8605C34.9804 43.1407 34.7656 44.0414 34.7656 44.8759C34.7573 45.5121 34.7821 45.6691 34.9308 45.8592C35.2448 46.2888 35.5092 46.421 36.0215 46.4293C37.1039 46.4293 38.2772 45.5452 42.8134 41.3147C47.771 36.6794 49.2169 35.7044 50.3572 36.2084C51.4065 36.6711 52.1089 37.737 53.5879 41.0834C55.1578 44.6446 56.0501 45.9418 57.2317 46.3797C58.6198 46.9003 59.6361 46.1897 61.5118 43.3721C62.9577 41.2073 63.5609 40.5215 64.0401 40.5215C64.3458 40.5215 64.8912 41.1247 65.4448 42.0583C66.8659 44.4876 67.6592 45.4295 68.7416 45.9996C69.7744 46.545 70.7824 46.6606 72.4763 46.4293C74.5172 46.1566 75.8061 45.5948 78.0949 43.967C79.3508 43.0746 79.6896 42.8929 80.1192 42.8929C80.5572 42.8929 80.9124 43.1242 81.9783 44.1157C83.3665 45.413 84.1762 45.95 85.2503 46.2723C85.8452 46.4541 87.3408 46.4789 88.2579 46.3136C89.5221 46.0905 91.059 45.4626 92.3645 44.6363L92.885 44.3058L93.5543 44.9337C94.6532 45.9666 96.0496 46.545 97.4543 46.5532C98.9168 46.5532 100.85 46.1897 102.23 45.6526C104.651 44.7107 106.436 43.273 108.989 40.2075C110.584 38.2906 111.03 37.9435 111.468 38.2658C111.815 38.5302 112.03 38.9846 112.558 40.6454C113.484 43.5621 113.996 44.6115 114.897 45.4626C116.648 47.1151 119.549 46.6689 122.044 44.3554C124.754 41.8353 127.076 36.9272 127.927 31.887C128.183 30.3997 128.2 28.2267 127.968 27.5161C127.654 26.5576 126.919 26.0701 125.985 26.1858C124.572 26.3593 123.349 27.6896 122.779 29.6561C122.614 30.2428 122.589 30.4906 122.589 31.9283C122.589 33.4239 122.606 33.6057 122.821 34.4484C123.135 35.6548 123.201 36.3489 123.118 37.3156C122.953 39.1086 122.275 40.8768 121.408 41.7609C120.631 42.5541 119.986 42.6037 119.218 41.9179C118.144 40.9759 117.309 38.9103 116.012 33.9692C114.955 29.937 114.533 28.6811 113.996 27.9457C113.641 27.4665 113.319 27.3756 112.74 27.5904C111.914 27.9127 111.492 28.582 110.608 31.0194C108.212 37.6544 105.899 41.042 102.965 42.2319C101.883 42.6615 100.586 42.7855 99.6356 42.5376C99.0985 42.3971 98.3384 42.0418 98.0161 41.7857L97.8178 41.6204L98.7598 40.9759C100.123 40.0505 101.007 39.3234 101.85 38.4476C103.445 36.8033 104.064 35.4648 104.056 33.7131C104.04 31.0938 102.676 28.5241 100.834 27.6152C100.313 27.3591 100.239 27.3426 99.3712 27.3426C98.5615 27.3426 98.3962 27.3756 97.8839 27.5822C94.8267 28.8298 92.2323 32.8455 91.6126 37.2908C91.4308 38.588 91.4391 40.5298 91.6374 41.4717C91.8109 42.3227 91.8109 42.3393 91.216 42.6367C90.0179 43.2482 88.7868 43.1903 87.349 42.4632C85.994 41.7774 84.5398 40.3149 84.1266 39.216L83.9779 38.8276L84.7546 37.2991C85.8948 35.0681 86.4897 33.8287 86.9442 32.7298C88.2249 29.6065 88.8859 26.3428 89.0429 22.261C89.1007 20.7159 88.9685 18.0223 88.795 17.0556C88.4232 15.0478 87.5391 13.3952 86.3575 12.5029C85.7874 12.0732 85.3495 11.8749 84.6389 11.7262C83.9779 11.5857 83.6474 11.5857 83.0938 11.7179ZM84.3497 17.477C84.7298 17.6174 85.1925 18.1297 85.3743 18.6255C85.9692 20.2202 86.0105 23.2939 85.4817 26.5163C84.9694 29.5652 83.9283 32.7546 83.0773 33.8866C82.6559 34.4567 82.1188 34.1262 81.8131 33.1016C81.3421 31.4904 81.1025 27.2186 81.3173 24.2028C81.6809 19.1708 82.722 16.8655 84.3497 17.477ZM98.5862 32.0936C98.9663 32.2919 99.239 32.6307 99.553 33.2917C99.7678 33.7626 99.7843 33.8535 99.7843 34.9029C99.7761 35.9027 99.7513 36.0844 99.5447 36.6794C99.1068 37.9353 98.3053 38.869 97.1485 39.4473C96.5454 39.7531 96.4132 39.7531 96.2066 39.4639C95.6447 38.6789 95.306 37.5387 95.2316 36.2662C95.1242 34.3328 95.8183 32.829 97.1155 32.1845C97.7104 31.887 98.1235 31.8622 98.5862 32.0936Z" fill="white"></path>
<path d="M66.833 13.0399C65.1557 13.5274 63.9907 15.5517 64.2881 17.5017C64.4038 18.2949 64.6186 18.7907 65.0813 19.2782C65.6267 19.8648 66.1307 20.0631 67.0644 20.0714C67.7419 20.0714 67.8576 20.0466 68.3616 19.7987C70.4851 18.7577 71.3031 15.3204 69.7828 13.8001C69.0887 13.106 67.7832 12.7672 66.833 13.0399Z" fill="white"></path>
<path d="M29.5106 14.8989C28.6265 15.1715 27.7589 15.9813 27.2796 16.9893C26.8748 17.8321 26.7013 18.6005 26.7013 19.5838C26.7013 20.6662 26.8748 21.4594 27.6101 23.7068C27.9654 24.7975 28.3125 25.9708 28.3868 26.3096C28.8082 28.2761 28.7752 30.5731 28.3042 33.6385C27.6928 37.5963 26.5691 40.3974 24.9496 41.9838C24.2886 42.6366 23.9911 42.8597 23.297 43.2149C22.2807 43.7272 21.6197 43.8677 20.1738 43.8677C18.9839 43.8594 18.8435 43.8429 18.232 43.6363C16.4638 43.0166 15.0757 41.6037 14.2164 39.5298C13.8859 38.7366 13.5223 37.3154 13.3653 36.1752C13.0348 33.8203 12.9935 28.9949 13.2745 26.3922C13.4397 24.8801 13.5471 24.1613 14.1172 20.9389C14.5056 18.7575 14.58 18.1709 14.5882 17.3033C14.5965 16.4274 14.5717 16.2209 14.4312 15.9482C14.0842 15.2624 13.5719 15.1219 12.4812 15.3946C10.994 15.7747 10.0933 16.3944 9.49843 17.4685C8.68042 18.9476 7.59802 23.1285 7.11052 26.6814C6.89569 28.2513 6.8048 32.4239 6.94527 34.093C7.44929 39.9099 9.55626 43.6859 13.3653 45.5946C15.2988 46.5613 17.2818 46.9414 20.0333 46.8588C21.7271 46.8092 22.4212 46.6935 23.6937 46.2556C27.6184 44.9088 30.6673 41.2567 32.1877 36.0925C33.0552 33.1345 33.3114 30.6309 33.3114 25.1115C33.3114 21.4759 33.1379 19.592 32.6586 17.6916C32.2951 16.2787 31.6588 15.2046 31.0226 14.9402C30.7417 14.8162 29.8576 14.7997 29.5106 14.8989Z" fill="white"></path>
<path d="M164.779 25.8553C163.151 26.2189 161.854 26.9294 160.565 28.1606C158.871 29.7801 157.466 32.1432 155.764 36.2662C154.987 38.1501 154.739 38.6376 154.458 38.8938C154.301 39.0342 154.268 39.0425 154.012 38.9185C153.293 38.5715 152.913 37.3982 152.5 34.2419C151.922 29.7883 151.781 29.0612 151.41 28.615C151.029 28.1606 150.187 28.3341 149.526 28.9951C149.03 29.4909 148.716 30.1684 148.295 31.6392C146.782 36.9355 144.048 40.9925 141.04 42.3723C140.123 42.802 139.487 42.9425 138.495 42.9425C136.677 42.9507 135.132 42.2071 135.207 41.356C135.231 41.0916 135.281 41.0338 135.644 40.8355C135.876 40.7115 136.619 40.4058 137.297 40.1414C140.172 39.059 141.874 37.894 142.709 36.448C143.304 35.4152 143.593 33.7709 143.378 32.6637C142.965 30.5733 141.428 28.6729 139.627 28.0449C138.842 27.764 137.495 27.7227 136.586 27.954C133.389 28.7472 130.794 31.8457 129.91 35.9109C129.662 37.076 129.547 38.7285 129.646 39.8522C129.96 43.3556 131.604 45.4873 134.603 46.2806C135.289 46.4623 135.578 46.4954 136.76 46.5037C139.338 46.5119 141.238 45.8922 143.37 44.3306C145.171 43.0251 146.997 40.7694 148.295 38.2658L148.799 37.2825L148.972 37.9353C149.071 38.2906 149.336 39.4143 149.567 40.4389C150.468 44.4132 151.079 45.884 152.046 46.3715C152.889 46.7928 153.731 46.4623 154.45 45.4295C154.814 44.9007 155.31 43.8596 156.714 40.6868C159.127 35.2334 160.474 32.8372 161.961 31.35C162.853 30.4576 163.837 29.9453 164.671 29.9453C165.159 29.9453 165.365 30.1188 165.803 30.9038C166.373 31.9118 166.902 32.2754 168.059 32.4324C169.513 32.6307 170.695 32.044 171.248 30.8625C171.389 30.5485 171.422 30.3254 171.422 29.5735C171.422 28.7224 171.405 28.6315 171.157 28.1027C170.695 27.136 169.736 26.3758 168.455 25.9627C167.778 25.7396 165.563 25.6735 164.779 25.8553ZM137.669 31.8292C138.098 32.0275 138.545 32.548 138.759 33.0686C138.9 33.4404 138.941 33.7131 138.95 34.3328C138.95 35.0764 138.933 35.1508 138.636 35.7622C137.975 37.0925 136.471 38.1997 134.703 38.6624C134.38 38.745 134.149 38.7698 134.099 38.7202C133.918 38.5385 133.769 37.1751 133.81 36.0597C133.876 34.341 134.24 33.2008 134.975 32.4406C135.711 31.6639 136.793 31.4243 137.669 31.8292Z" fill="white"></path>
</g>
<defs>
<clipPath id="clip0_1046_5848">
<rect width="165.253" height="36.4383" fill="white" transform="translate(6.87109 10.4454)"></rect>
</clipPath>
</defs>
</svg>