<svg width="105" height="68" viewBox="0 0 105 68" fill="none" xmlns="http://www.w3.org/2000/svg">
<g clip-path="url(#clip0_1046_5811)">
<g opacity="0.64">
<g clip-path="url(#clip1_1046_5811)">
<path d="M57.3507 21.8393C57.411 21.9839 57.3869 22.008 57.2664 21.9357C57.1459 21.8634 57.1218 21.8875 57.182 22.0321C57.2182 22.1526 57.2061 22.2369 57.1459 22.2369C57.0856 22.2369 57.0736 22.3213 57.1097 22.4418C57.17 22.5864 57.1459 22.6105 57.0254 22.5382C56.9049 22.4659 56.8808 22.49 56.941 22.6346C56.9772 22.7551 56.9651 22.8394 56.9049 22.8394C56.8446 22.8394 56.8326 22.9238 56.8687 23.0443C56.9169 23.1768 56.9049 23.213 56.8085 23.1527C56.7121 23.0925 56.688 23.1286 56.7362 23.2491C56.7723 23.3576 56.7482 23.4419 56.6639 23.4419C56.5916 23.4419 56.5675 23.4901 56.6036 23.5624C56.6398 23.6227 56.6277 23.6829 56.5554 23.6829C56.4831 23.6829 56.4711 23.7672 56.5072 23.8877C56.5675 24.0323 56.5434 24.0564 56.4229 23.9841C56.3024 23.9118 56.2783 23.9359 56.3385 24.0805C56.3747 24.201 56.3626 24.2854 56.3024 24.2854C56.2421 24.2854 56.2301 24.3697 56.2662 24.4902C56.3265 24.6348 56.3024 24.6589 56.1819 24.5866C56.0614 24.5143 56.0373 24.5384 56.0975 24.683C56.1337 24.8035 56.1216 24.8879 56.0614 24.8879C56.0011 24.8879 55.9891 24.9722 56.0252 25.0927C56.0734 25.2253 56.0614 25.2614 55.965 25.2012C55.8686 25.1409 55.8445 25.1771 55.8927 25.2976C55.9288 25.406 55.9047 25.4904 55.8204 25.4904C55.7481 25.4904 55.724 25.5386 55.7601 25.6108C55.7963 25.6711 55.7842 25.7313 55.712 25.7313C55.6397 25.7313 55.6276 25.8157 55.6638 25.9362C55.724 26.0808 55.6999 26.1049 55.5794 26.0326C55.4589 25.9603 55.4348 25.9844 55.4951 26.129C55.5312 26.2495 55.5192 26.3338 55.4589 26.3338C55.3987 26.3338 55.3866 26.4182 55.4228 26.5387C55.483 26.6833 55.4589 26.7074 55.3384 26.6351C55.2179 26.5628 55.1938 26.5869 55.2541 26.7315C55.2902 26.852 55.2782 26.9363 55.2179 26.9363C55.1577 26.9363 55.1456 27.0207 55.1818 27.1412C55.23 27.2737 55.2179 27.3099 55.1215 27.2496C55.0251 27.1894 55.001 27.2255 55.0492 27.346C55.0854 27.4545 55.0613 27.5388 54.9769 27.5388C54.9046 27.5388 54.8805 27.587 54.9167 27.6593C54.9528 27.7195 54.9408 27.7798 54.8685 27.7798C54.7962 27.7798 54.7841 27.8641 54.8203 27.9846C54.8805 28.1292 54.8564 28.1533 54.7359 28.081C54.6154 28.0087 54.5913 28.0328 54.6516 28.1774C54.6877 28.2979 54.6757 28.3823 54.6154 28.3823C54.5552 28.3823 54.5431 28.4666 54.5793 28.5871C54.6395 28.7317 54.6154 28.7558 54.4949 28.6835C54.3744 28.6112 54.3503 28.6353 54.4106 28.7799C54.4467 28.9004 54.4347 28.9848 54.3624 28.9848C54.2901 28.9848 54.266 29.033 54.3021 29.0932C54.4106 29.2619 54.2419 29.5993 54.0973 29.5029C54.025 29.4547 54.0009 29.5029 54.0491 29.6234C54.0852 29.7439 54.0732 29.8282 54.0129 29.8282C53.9527 29.8282 53.9406 29.9126 53.9768 30.0331C54.037 30.1777 54.0129 30.2018 53.8924 30.1295C53.7719 30.0572 53.7479 30.0813 53.8081 30.2259C53.8442 30.3464 53.8322 30.4307 53.7719 30.4307C53.7117 30.4307 53.6997 30.5151 53.7358 30.6356C53.796 30.7802 53.7719 30.8043 53.6515 30.732C53.531 30.6597 53.5069 30.6838 53.5671 30.8284C53.6033 30.9489 53.5912 31.0332 53.5189 31.0332C53.4466 31.0332 53.4346 31.0814 53.4707 31.1537C53.5069 31.214 53.4948 31.2742 53.4225 31.2742C53.3502 31.2742 53.3382 31.3586 53.3743 31.4791C53.4346 31.6236 53.4105 31.6477 53.29 31.5754C53.1695 31.5031 53.1454 31.5272 53.2056 31.6718C53.2418 31.7923 53.2297 31.8767 53.1695 31.8767C53.1092 31.8767 53.0972 31.961 53.1333 32.0815C53.1936 32.2261 53.1695 32.2502 53.049 32.1779C52.9285 32.1056 52.9044 32.1297 52.9646 32.2743C53.0008 32.3948 52.9887 32.4792 52.9285 32.4792C52.8682 32.4792 52.8562 32.5635 52.8923 32.684C52.9526 32.8286 52.9285 32.8527 52.808 32.7804C52.6875 32.7081 52.6634 32.7322 52.7236 32.8768C52.7598 32.9973 52.7477 33.0817 52.6754 33.0817C52.6031 33.0817 52.5911 33.1299 52.6272 33.2022C52.6634 33.2624 52.6513 33.3227 52.579 33.3227C52.5067 33.3227 52.4826 33.407 52.5188 33.5034C52.567 33.5998 52.5308 33.6841 52.4465 33.6841C52.3742 33.6841 52.3501 33.7323 52.3862 33.8046C52.4224 33.8649 52.4103 33.9251 52.338 33.9251C52.2657 33.9251 52.2537 34.0095 52.2898 34.13C52.3501 34.2746 52.326 34.2987 52.2055 34.2264C52.085 34.1541 52.0609 34.1782 52.1211 34.3228C52.1573 34.4433 52.1452 34.5276 52.085 34.5276C52.0247 34.5276 52.0127 34.612 52.0488 34.7325C52.1091 34.8771 52.085 34.9012 51.9645 34.8289C51.844 34.7566 51.8199 34.7807 51.8801 34.9253C51.9163 35.0458 51.9042 35.1301 51.8319 35.1301C51.7597 35.1301 51.7476 35.1783 51.7838 35.2506C51.8199 35.3109 51.8078 35.3711 51.7356 35.3711C51.6633 35.3711 51.6392 35.4554 51.6753 35.5518C51.7235 35.6482 51.6874 35.7326 51.603 35.7326C51.5307 35.7326 51.5066 35.7808 51.5428 35.8531C51.5789 35.9133 51.5669 35.9736 51.4946 35.9736C51.4223 35.9736 51.4102 36.0579 51.4464 36.1784C51.5066 36.323 51.4825 36.3471 51.362 36.2748C51.2415 36.2025 51.2174 36.2266 51.2777 36.3712C51.3138 36.4917 51.3018 36.5761 51.2295 36.5761C51.1572 36.5761 51.1451 36.6243 51.1813 36.6966C51.2174 36.7568 51.1933 36.8171 51.121 36.8171C51.0367 36.8171 51.0005 36.9014 51.0487 36.9978C51.0849 37.0942 51.0608 37.1786 50.9885 37.1786C50.9162 37.1786 50.9041 37.2268 50.9403 37.2991C50.9764 37.3593 50.9644 37.4195 50.8921 37.4195C50.8198 37.4195 50.8077 37.5039 50.8439 37.6244C50.9041 37.769 50.88 37.7931 50.7595 37.7208C50.639 37.6485 50.6149 37.6726 50.6752 37.8172C50.7113 37.9377 50.6993 38.022 50.639 38.022C50.5788 38.022 50.5667 38.1064 50.6029 38.2269C50.6631 38.3715 50.639 38.3956 50.5185 38.3233C50.398 38.251 50.3739 38.2751 50.4342 38.4197C50.4703 38.5402 50.4583 38.6245 50.386 38.6245C50.3137 38.6245 50.3016 38.6727 50.3378 38.745C50.3739 38.8053 50.3498 38.8655 50.2775 38.8655C50.1932 38.8655 50.157 38.9499 50.2052 39.0463C50.2414 39.1427 50.2173 39.227 50.145 39.227C50.0727 39.227 50.0606 39.2752 50.0968 39.3475C50.1329 39.4077 50.1209 39.468 50.0486 39.468C49.9763 39.468 49.9642 39.5523 50.0004 39.6728C50.0606 39.8174 50.0365 39.8415 49.916 39.7692C49.7956 39.6969 49.7715 39.721 49.8317 39.8656C49.8678 39.9861 49.8558 40.0705 49.7956 40.0705C49.7353 40.0705 49.7233 40.1548 49.7594 40.2753C49.8197 40.4199 49.7956 40.444 49.6751 40.3717C49.5546 40.2994 49.5305 40.3235 49.5907 40.4681C49.6269 40.5886 49.6148 40.673 49.5425 40.673C49.4702 40.673 49.4582 40.7212 49.4943 40.7935C49.5305 40.8537 49.5184 40.914 49.4461 40.914C49.3738 40.914 49.3618 40.9983 49.3979 41.1188C49.4582 41.2634 49.4341 41.2875 49.3136 41.2152C49.1931 41.1429 49.169 41.167 49.2292 41.3116C49.2654 41.4321 49.2533 41.5164 49.1931 41.5164C49.1328 41.5164 49.1208 41.6008 49.1569 41.7213C49.2172 41.8659 49.1931 41.89 49.0726 41.8177C48.9521 41.7454 48.928 41.7695 48.9882 41.9141C49.0244 42.0346 49.0123 42.1189 48.9521 42.1189C48.8918 42.1189 48.8798 42.2033 48.9159 42.3238C48.9762 42.4684 48.9521 42.4925 48.8316 42.4202C48.7111 42.3479 48.687 42.372 48.7472 42.5166C48.7834 42.6371 48.7713 42.7214 48.699 42.7214C48.6267 42.7214 48.6147 42.7696 48.6508 42.8419C48.687 42.9022 48.6749 42.9624 48.6026 42.9624C48.5303 42.9624 48.5183 43.0468 48.5544 43.1673C48.6147 43.3118 48.5906 43.3359 48.4701 43.2637C48.3496 43.1914 48.3255 43.2155 48.3857 43.36C48.4219 43.4805 48.4098 43.5649 48.3496 43.5649C48.2893 43.5649 48.2773 43.6492 48.3134 43.7697C48.3737 43.9143 48.3496 43.9384 48.2291 43.8661C48.1086 43.7938 48.0845 43.8179 48.1447 43.9625C48.1809 44.083 48.1688 44.1674 48.1086 44.1674C48.0483 44.1674 48.0363 44.2517 48.0724 44.3722C48.1327 44.5168 48.1086 44.5409 47.9881 44.4686C47.8676 44.3963 47.8435 44.4204 47.9037 44.565C47.9399 44.6855 47.9278 44.7699 47.8556 44.7699C47.7833 44.7699 47.7712 44.8301 47.8074 44.8904C47.8435 44.9627 47.8315 45.0109 47.7833 45.0109C47.723 45.0109 47.6748 45.1073 47.6748 45.2278C47.6748 45.4085 47.7592 45.4326 48.2411 45.3723C48.5544 45.3241 49.1087 45.3362 49.4823 45.3723C49.8437 45.4085 50.1088 45.3964 50.0847 45.3482C50.0486 45.3 50.0606 45.2519 50.1209 45.2519C50.1691 45.2519 50.2293 45.0832 50.2293 44.8663C50.2414 44.6494 50.3016 44.4566 50.3739 44.4325C50.4342 44.4204 50.4583 44.2879 50.4221 44.1433C50.3739 43.9625 50.398 43.9143 50.5065 43.9866C50.627 44.0469 50.639 44.0107 50.5788 43.8179C50.5306 43.6733 50.5547 43.5649 50.627 43.5649C50.6993 43.5649 50.7234 43.4805 50.6872 43.3841C50.639 43.2878 50.6752 43.2034 50.7475 43.2034C50.8198 43.2034 50.8439 43.1191 50.8077 43.0227C50.7595 42.9263 50.7957 42.8419 50.868 42.8419C50.9403 42.8419 50.9644 42.7576 50.9282 42.6612C50.88 42.5648 50.9162 42.4804 50.9885 42.4804C51.0608 42.4804 51.0849 42.3961 51.0487 42.2997C51.0005 42.2033 51.0367 42.1189 51.109 42.1189C51.1813 42.1189 51.2054 42.0346 51.1692 41.9382C51.121 41.8418 51.1572 41.7574 51.2295 41.7574C51.3018 41.7574 51.3259 41.6731 51.2897 41.5767C51.2415 41.4803 51.2777 41.3959 51.35 41.3959C51.4223 41.3959 51.4464 41.3116 51.4102 41.2152C51.362 41.1188 51.3982 41.0345 51.4705 41.0345C51.5428 41.0345 51.5669 40.9501 51.5307 40.8537C51.4825 40.7573 51.5187 40.673 51.591 40.673C51.6633 40.673 51.6874 40.5886 51.6512 40.4922C51.603 40.3958 51.6392 40.3115 51.7115 40.3115C51.7838 40.3115 51.8078 40.2271 51.7717 40.1307C51.7235 40.0343 51.7597 39.95 51.8319 39.95C51.9042 39.95 51.9283 39.8656 51.8801 39.7451C51.8199 39.6005 51.844 39.5764 51.9645 39.6487C52.085 39.721 52.1091 39.6969 52.0488 39.5523C52.0127 39.4318 52.0247 39.3475 52.085 39.3475C52.1452 39.3475 52.1693 39.2632 52.1332 39.1668C52.085 39.0704 52.1211 38.986 52.1934 38.986C52.2657 38.986 52.2898 38.9017 52.2537 38.8053C52.2055 38.7089 52.2416 38.6245 52.3139 38.6245C52.3862 38.6245 52.4103 38.5402 52.3621 38.4197C52.3019 38.2751 52.326 38.251 52.4465 38.3233C52.567 38.3956 52.5911 38.3715 52.5308 38.2269C52.4947 38.1064 52.4947 38.022 52.5549 38.022C52.6152 38.022 52.6634 37.9497 52.6513 37.8654C52.6393 37.4557 52.6995 37.287 52.8321 37.3714C52.9285 37.4316 52.9405 37.3955 52.8923 37.2629C52.8441 37.1424 52.8682 37.0581 52.9405 37.0581C53.0128 37.0581 53.049 36.9737 53.0008 36.8773C52.9646 36.7809 52.9767 36.6966 53.0369 36.6966C53.0972 36.6966 53.1333 36.6002 53.1213 36.4797C53.1092 36.2869 53.3743 36.2748 57.0856 36.2748C60.8933 36.2748 61.062 36.2869 61.0259 36.5038C61.0018 36.6484 61.0379 36.6966 61.1343 36.6243C61.2428 36.564 61.2548 36.6002 61.2066 36.7327C61.1705 36.8532 61.1825 36.9376 61.2428 36.9376C61.303 36.9376 61.3271 37.0219 61.291 37.1183C61.2428 37.2147 61.2789 37.2991 61.3633 37.2991C61.4356 37.2991 61.4597 37.3593 61.4235 37.4195C61.3874 37.4918 61.3994 37.54 61.4717 37.54C61.544 37.54 61.5681 37.6244 61.532 37.7208C61.4838 37.8172 61.5199 37.9015 61.6043 37.9015C61.6765 37.9015 61.7006 37.9497 61.6645 38.022C61.6283 38.0823 61.6524 38.1425 61.7247 38.1425C61.8091 38.1425 61.8452 38.2269 61.797 38.3233C61.7609 38.4197 61.785 38.504 61.8452 38.504C61.9055 38.504 61.9296 38.5884 61.8934 38.6848C61.8452 38.7812 61.8814 38.8655 61.9657 38.8655C62.038 38.8655 62.0621 38.9137 62.026 38.986C61.9898 39.0463 62.0139 39.1065 62.0862 39.1065C62.1706 39.1065 62.2067 39.1909 62.1585 39.2873C62.1224 39.3836 62.1465 39.468 62.2067 39.468C62.267 39.468 62.2911 39.5523 62.2549 39.6487C62.2067 39.7451 62.2429 39.8295 62.3272 39.8295C62.3995 39.8295 62.4236 39.8777 62.3875 39.95C62.3513 40.0102 62.3754 40.0705 62.4477 40.0705C62.5321 40.0705 62.5682 40.1548 62.52 40.2512C62.4839 40.3476 62.508 40.432 62.5803 40.432C62.6526 40.432 62.6887 40.5163 62.6405 40.6127C62.6044 40.7091 62.6285 40.7935 62.6887 40.7935C62.749 40.7935 62.7731 40.8778 62.7369 40.9742C62.6887 41.0706 62.7249 41.155 62.7972 41.155C62.8695 41.155 62.8936 41.2393 62.8574 41.3357C62.8092 41.4321 62.8454 41.5164 62.9177 41.5164C62.99 41.5164 63.0141 41.6008 62.9659 41.7213C62.9056 41.8659 62.9297 41.89 63.0502 41.8177C63.1707 41.7454 63.1948 41.7695 63.1346 41.9141C63.0864 42.0346 63.1105 42.1189 63.1828 42.1189C63.2551 42.1189 63.2912 42.2033 63.243 42.2997C63.2069 42.3961 63.231 42.4804 63.3033 42.4804C63.3756 42.4804 63.4117 42.5648 63.3635 42.6612C63.3274 42.7576 63.3515 42.8419 63.4238 42.8419C63.4961 42.8419 63.5322 42.9263 63.484 43.0227C63.4479 43.1191 63.472 43.2034 63.5443 43.2034C63.6165 43.2034 63.6527 43.2878 63.6045 43.3841C63.5684 43.4805 63.5924 43.5649 63.6647 43.5649C63.737 43.5649 63.7732 43.6492 63.725 43.7456C63.6888 43.842 63.7129 43.9264 63.7852 43.9264C63.8575 43.9264 63.8937 44.0107 63.8455 44.1071C63.8093 44.2035 63.8334 44.2879 63.9057 44.2879C63.978 44.2879 64.0142 44.3722 63.966 44.4686C63.9298 44.565 63.9539 44.6494 64.0262 44.6494C64.0985 44.6494 64.1347 44.7337 64.0865 44.8301C64.0503 44.9265 64.0744 45.0109 64.1467 45.0109C64.207 45.0109 64.2552 45.1073 64.2311 45.2157C64.207 45.3603 64.2552 45.4205 64.3757 45.3964C64.6769 45.3241 67.4966 45.3482 67.617 45.4205C67.6652 45.4567 67.7255 45.3603 67.7255 45.1916C67.7255 45.0109 67.6652 44.9265 67.5929 44.9747C67.5207 45.0229 67.4966 44.9747 67.5447 44.8542C67.5809 44.7337 67.5688 44.6494 67.5086 44.6494C67.4484 44.6494 67.4363 44.565 67.4725 44.4445C67.5327 44.2999 67.5086 44.2758 67.3881 44.3481C67.2676 44.4204 67.2435 44.3963 67.3038 44.2517C67.352 44.1312 67.3279 44.0469 67.2556 44.0469C67.1833 44.0469 67.1592 43.9625 67.1953 43.8541C67.2435 43.7336 67.2194 43.6974 67.123 43.7577C67.0266 43.8179 67.0146 43.7818 67.0628 43.6492C67.0989 43.5287 67.0869 43.4444 67.0266 43.4444C66.9664 43.4444 66.9543 43.36 66.9905 43.2396C67.0507 43.095 67.0266 43.0709 66.9061 43.1432C66.7856 43.2155 66.7615 43.1914 66.8218 43.0468C66.87 42.9263 66.8459 42.8419 66.7736 42.8419C66.7013 42.8419 66.6772 42.7576 66.7133 42.6491C66.7615 42.5286 66.7374 42.4925 66.641 42.5527C66.5446 42.613 66.5326 42.5768 66.5808 42.4443C66.629 42.3238 66.6049 42.2394 66.5326 42.2394C66.4603 42.2394 66.4362 42.1551 66.4723 42.0466C66.5205 41.9261 66.4964 41.89 66.4 41.9502C66.3036 42.0105 66.2916 41.9743 66.3398 41.8418C66.388 41.7213 66.3639 41.6369 66.2916 41.6369C66.2193 41.6369 66.1952 41.5526 66.2313 41.4441C66.2795 41.3237 66.2554 41.2875 66.159 41.3477C66.0626 41.408 66.0506 41.3718 66.0988 41.2393C66.147 41.1188 66.1229 41.0345 66.0506 41.0345C65.9783 41.0345 65.9421 40.9501 65.9903 40.8537C66.0265 40.7573 66.0024 40.673 65.9421 40.673C65.8819 40.673 65.8698 40.5886 65.906 40.4681C65.9662 40.3235 65.9421 40.2994 65.8216 40.3717C65.7011 40.444 65.677 40.4199 65.7373 40.2753C65.7734 40.1548 65.7614 40.0705 65.7011 40.0705C65.6409 40.0705 65.6288 39.9861 65.665 39.8656C65.7252 39.721 65.7011 39.6969 65.5806 39.7692C65.4602 39.8415 65.4361 39.8174 65.4963 39.6728C65.5325 39.5523 65.5204 39.468 65.4602 39.468C65.3999 39.468 65.3879 39.3836 65.424 39.2632C65.4843 39.1186 65.4602 39.0945 65.3397 39.1668C65.2192 39.2391 65.1951 39.215 65.2553 39.0704C65.2915 38.9499 65.2794 38.8655 65.2192 38.8655C65.1589 38.8655 65.1469 38.7812 65.183 38.6607C65.2433 38.5161 65.2192 38.492 65.0987 38.5643C64.9782 38.6366 64.9541 38.6125 65.0143 38.4679C65.0625 38.3474 65.0384 38.263 64.9661 38.263C64.8938 38.263 64.8697 38.1787 64.9059 38.0702C64.9541 37.9497 64.93 37.9136 64.8336 37.9738C64.7372 38.0341 64.7251 37.9979 64.7733 37.8654C64.8215 37.7449 64.7974 37.6605 64.7251 37.6605C64.6528 37.6605 64.6287 37.5762 64.6649 37.4677C64.7131 37.3473 64.689 37.3111 64.5926 37.3714C64.4962 37.4316 64.4841 37.3955 64.5323 37.2629C64.5805 37.1424 64.5564 37.0581 64.4841 37.0581C64.4118 37.0581 64.3877 36.9737 64.4239 36.8653C64.4721 36.7448 64.448 36.7086 64.3516 36.7689C64.2552 36.8291 64.2431 36.793 64.2913 36.6604C64.3395 36.5399 64.3154 36.4556 64.2431 36.4556C64.1708 36.4556 64.1467 36.3712 64.1829 36.2628C64.2311 36.1423 64.207 36.1061 64.1106 36.1664C64.0142 36.2266 64.0021 36.1905 64.0503 36.0579C64.0985 35.9374 64.0744 35.8531 64.0021 35.8531C63.9298 35.8531 63.9057 35.7687 63.9419 35.6603C63.9901 35.5398 63.966 35.5036 63.8696 35.5639C63.7732 35.6241 63.7611 35.588 63.8093 35.4554C63.8575 35.335 63.8334 35.2506 63.7611 35.2506C63.6888 35.2506 63.6527 35.1663 63.7009 35.0699C63.737 34.9735 63.7129 34.8891 63.6406 34.8891C63.5684 34.8891 63.5563 34.8289 63.5924 34.7686C63.6286 34.6963 63.6045 34.6481 63.5322 34.6481C63.4479 34.6481 63.4117 34.5638 63.4599 34.4674C63.4961 34.371 63.472 34.2866 63.4117 34.2866C63.3515 34.2866 63.3394 34.2023 63.3756 34.0818C63.4238 33.9492 63.4117 33.9131 63.3153 33.9733C63.2189 34.0336 63.1948 33.9974 63.243 33.8769C63.2792 33.7685 63.2551 33.6841 63.1828 33.6841C63.1105 33.6841 63.0864 33.5998 63.1346 33.4793C63.1948 33.3347 63.1707 33.3106 63.0502 33.3829C62.9297 33.4552 62.9056 33.4311 62.9659 33.2865C63.002 33.166 62.99 33.0817 62.9297 33.0817C62.8695 33.0817 62.8574 32.9973 62.8936 32.8768C62.9418 32.7443 62.9297 32.7081 62.8333 32.7684C62.7369 32.8286 62.7128 32.7925 62.761 32.672C62.7972 32.5635 62.7731 32.4792 62.7008 32.4792C62.6285 32.4792 62.6044 32.3948 62.6526 32.2743C62.7008 32.1418 62.6887 32.1056 62.5923 32.1659C62.4959 32.2261 62.4718 32.19 62.52 32.0695C62.5562 31.961 62.5321 31.8767 62.4598 31.8767C62.3875 31.8767 62.3634 31.7923 62.4116 31.6718C62.4718 31.5272 62.4477 31.5031 62.3272 31.5754C62.2067 31.6477 62.1826 31.6236 62.2429 31.4791C62.279 31.3586 62.267 31.2742 62.2067 31.2742C62.1465 31.2742 62.1344 31.1899 62.1706 31.0694C62.2308 30.9248 62.2067 30.9007 62.0862 30.973C61.9657 31.0453 61.9416 31.0212 62.0019 30.8766C62.038 30.7561 62.026 30.6717 61.9657 30.6717C61.9055 30.6717 61.8934 30.5874 61.9296 30.4669C61.9898 30.3223 61.9657 30.2982 61.8452 30.3705C61.7247 30.4428 61.7006 30.4187 61.7609 30.2741C61.797 30.1536 61.785 30.0692 61.7247 30.0692C61.6645 30.0692 61.6524 29.9849 61.6886 29.8644C61.7488 29.7198 61.7247 29.6957 61.6043 29.768C61.4838 29.8403 61.4597 29.8162 61.5199 29.6716C61.5561 29.5511 61.544 29.4668 61.4838 29.4668C61.4235 29.4668 61.4115 29.3824 61.4476 29.2619C61.5079 29.1173 61.4838 29.0932 61.3633 29.1655C61.2428 29.2378 61.2187 29.2137 61.2789 29.0691C61.3151 28.9486 61.303 28.8643 61.2428 28.8643C61.1825 28.8643 61.1705 28.7799 61.2066 28.6594C61.2669 28.5148 61.2428 28.4907 61.1223 28.563C61.0018 28.6353 60.9777 28.6112 61.0379 28.4666C61.0741 28.3461 61.062 28.2618 61.0018 28.2618C60.9415 28.2618 60.9174 28.1774 60.9536 28.081C61.0018 27.9846 60.9656 27.9003 60.8813 27.9003C60.809 27.9003 60.7849 27.84 60.821 27.7798C60.8572 27.7075 60.8451 27.6593 60.7728 27.6593C60.7005 27.6593 60.6764 27.5749 60.7126 27.4786C60.7608 27.3822 60.7246 27.2978 60.6403 27.2978C60.568 27.2978 60.5439 27.2376 60.58 27.1773C60.6162 27.105 60.6041 27.0568 60.5318 27.0568C60.4595 27.0568 60.4354 26.9725 60.4716 26.8761C60.5198 26.7797 60.4836 26.6953 60.3993 26.6953C60.327 26.6953 60.3029 26.6351 60.339 26.5748C60.3752 26.5025 60.3631 26.4543 60.2908 26.4543C60.2185 26.4543 60.1944 26.37 60.2306 26.2736C60.2788 26.1772 60.2426 26.0928 60.1583 26.0928C60.086 26.0928 60.0619 26.0326 60.098 25.9723C60.1342 25.9 60.1101 25.8518 60.0378 25.8518C59.9534 25.8518 59.9173 25.7675 59.9655 25.6711C60.0016 25.5747 59.9775 25.4904 59.9052 25.4904C59.8329 25.4904 59.8209 25.4301 59.857 25.3699C59.8932 25.2976 59.8691 25.2494 59.7968 25.2494C59.7124 25.2494 59.6763 25.165 59.7245 25.0686C59.7606 24.9722 59.7365 24.8879 59.6763 24.8879C59.6161 24.8879 59.604 24.8035 59.6402 24.683C59.7004 24.5384 59.6763 24.5143 59.5558 24.5866C59.4353 24.6589 59.4112 24.6348 59.4715 24.4902C59.5076 24.3697 59.4956 24.2854 59.4353 24.2854C59.3751 24.2854 59.363 24.201 59.3992 24.0805C59.4594 23.9359 59.4353 23.9118 59.3148 23.9841C59.1943 24.0564 59.1702 24.0323 59.2305 23.8877C59.2666 23.7672 59.2546 23.6829 59.1943 23.6829C59.1341 23.6829 59.122 23.5986 59.1582 23.4781C59.2184 23.3335 59.1943 23.3094 59.0738 23.3817C58.9533 23.454 58.9292 23.4299 58.9895 23.2853C59.0377 23.1648 59.0136 23.0804 58.9413 23.0804C58.869 23.0804 58.8449 22.9961 58.881 22.8876C58.9292 22.7671 58.9051 22.731 58.8087 22.7912C58.7123 22.8515 58.7003 22.8153 58.7485 22.6828C58.7846 22.5623 58.7726 22.4779 58.7123 22.4779C58.6521 22.4779 58.64 22.3936 58.6762 22.2731C58.7364 22.1285 58.7123 22.1044 58.5918 22.1767C58.4954 22.2369 58.4593 22.2128 58.4954 22.1044C58.5918 21.8272 58.2785 21.6345 57.7604 21.6345C57.3507 21.6345 57.2905 21.6706 57.3507 21.8393ZM57.3146 26.9604C57.2784 27.0086 57.3025 27.0568 57.3748 27.0568C57.4471 27.0568 57.4712 27.1412 57.4351 27.2376C57.3869 27.334 57.423 27.4183 57.5074 27.4183C57.5797 27.4183 57.6038 27.4665 57.5676 27.5388C57.5315 27.599 57.5435 27.6593 57.6158 27.6593C57.6881 27.6593 57.7122 27.7436 57.6761 27.84C57.6279 27.9364 57.664 28.0208 57.7483 28.0208C57.8206 28.0208 57.8447 28.069 57.8086 28.1413C57.7724 28.2015 57.7845 28.2618 57.8568 28.2618C57.9291 28.2618 57.9532 28.3461 57.917 28.4425C57.8688 28.5389 57.905 28.6233 57.9893 28.6233C58.0616 28.6233 58.0857 28.6715 58.0496 28.7438C58.0134 28.804 58.0255 28.8643 58.0978 28.8643C58.1701 28.8643 58.1821 28.9486 58.146 29.0691C58.0857 29.2137 58.1098 29.2378 58.2303 29.1655C58.3508 29.0932 58.3749 29.1173 58.3147 29.2619C58.2785 29.3824 58.2906 29.4668 58.3508 29.4668C58.4111 29.4668 58.4231 29.5511 58.387 29.6716C58.3267 29.8162 58.3508 29.8403 58.4713 29.768C58.5918 29.6957 58.6159 29.7198 58.5557 29.8644C58.5195 29.9849 58.5316 30.0692 58.5918 30.0692C58.6521 30.0692 58.6641 30.1536 58.628 30.2741C58.5677 30.4187 58.5918 30.4428 58.7123 30.3705C58.8328 30.2982 58.8569 30.3223 58.7967 30.4669C58.7605 30.5874 58.7726 30.6717 58.8328 30.6717C58.8931 30.6717 58.9051 30.7561 58.869 30.8766C58.8087 31.0212 58.8328 31.0453 58.9533 30.973C59.0738 30.9007 59.0979 30.9248 59.0377 31.0694C59.0015 31.1899 59.0136 31.2742 59.0738 31.2742C59.1341 31.2742 59.1461 31.3586 59.11 31.4791C59.0497 31.6236 59.0738 31.6477 59.1943 31.5754C59.3148 31.5031 59.3389 31.5272 59.2787 31.6718C59.2425 31.7923 59.2546 31.8767 59.3148 31.8767C59.3751 31.8767 59.3871 31.961 59.351 32.0815C59.2907 32.2261 59.3148 32.2502 59.4353 32.1779C59.5558 32.1056 59.5799 32.1297 59.5197 32.2743C59.4835 32.3948 59.4956 32.4792 59.5558 32.4792C59.6161 32.4792 59.6281 32.5635 59.592 32.684C59.5317 32.8286 59.5558 32.8527 59.6763 32.7804C59.7968 32.7081 59.8209 32.7322 59.7606 32.8768C59.7245 32.9973 59.7365 33.0817 59.7968 33.0817C59.857 33.0817 59.8691 33.166 59.8329 33.2865C59.7727 33.4311 59.7968 33.4552 59.9173 33.3829C60.0378 33.3106 60.0619 33.3347 60.0016 33.4793C59.9655 33.5998 59.9775 33.6841 60.0378 33.6841C60.098 33.6841 60.1101 33.7685 60.0739 33.889C60.0137 34.0336 60.0378 34.0577 60.1583 33.9854C60.2788 33.9131 60.3029 33.9372 60.2426 34.0818C60.2065 34.2023 60.2185 34.2866 60.2908 34.2866C60.3631 34.2866 60.3872 34.3348 60.3511 34.3951C60.3029 34.4553 60.3511 34.5397 60.4234 34.5638C60.5077 34.5999 59.11 34.6361 57.3146 34.6361C54.507 34.6481 54.025 34.624 53.9647 34.4674C53.9286 34.371 53.9527 34.2866 54.0129 34.2866C54.0732 34.2866 54.0852 34.2023 54.0491 34.0818C54.0009 33.9492 54.0129 33.9131 54.1214 33.9733C54.2178 34.0336 54.266 34.0095 54.2419 33.9131C54.1937 33.5516 54.266 33.3106 54.3865 33.3829C54.4588 33.4311 54.507 33.395 54.4829 33.3106C54.4347 32.925 54.4949 32.7081 54.6395 32.7925C54.7359 32.8527 54.748 32.8166 54.6998 32.684C54.6636 32.5635 54.6757 32.4792 54.7359 32.4792C54.7962 32.4792 54.8082 32.3948 54.7721 32.2743C54.7118 32.1297 54.7359 32.1056 54.8564 32.1779C54.9769 32.2502 55.001 32.2261 54.9408 32.0815C54.9046 31.961 54.9167 31.8767 54.9769 31.8767C55.0372 31.8767 55.0492 31.7923 55.0131 31.6718C54.9528 31.5272 54.9769 31.5031 55.0974 31.5754C55.2179 31.6477 55.242 31.6236 55.1818 31.4791C55.1456 31.3586 55.1577 31.2742 55.2179 31.2742C55.2782 31.2742 55.3023 31.1899 55.2661 31.0935C55.2179 30.9971 55.2541 30.9127 55.3264 30.9127C55.3987 30.9127 55.4228 30.8284 55.3746 30.7079C55.3264 30.5753 55.3384 30.5392 55.4348 30.5994C55.5312 30.6597 55.5553 30.6235 55.5071 30.503C55.471 30.3946 55.4951 30.3102 55.5674 30.3102C55.6397 30.3102 55.6638 30.2259 55.6156 30.1054C55.5553 29.9608 55.5794 29.9367 55.6999 30.009C55.8204 30.0813 55.8445 30.0572 55.7842 29.9126C55.7481 29.7921 55.7601 29.7077 55.8204 29.7077C55.8806 29.7077 55.8927 29.6234 55.8565 29.5029C55.7963 29.3583 55.8204 29.3342 55.9409 29.4065C56.0614 29.4788 56.0855 29.4547 56.0252 29.3101C55.9891 29.1896 56.0011 29.1053 56.0614 29.1053C56.1216 29.1053 56.1337 29.0209 56.0975 28.9004C56.0373 28.7558 56.0614 28.7317 56.1819 28.804C56.3024 28.8763 56.3265 28.8522 56.2662 28.7076C56.2301 28.5871 56.2421 28.5028 56.3024 28.5028C56.3626 28.5028 56.3747 28.4184 56.3385 28.2979C56.2783 28.1533 56.3024 28.1292 56.4229 28.2015C56.5434 28.2738 56.5675 28.2497 56.5072 28.1051C56.4711 27.9846 56.4831 27.9003 56.5434 27.9003C56.6036 27.9003 56.6277 27.8159 56.5916 27.7195C56.5434 27.6231 56.5795 27.5388 56.6518 27.5388C56.7241 27.5388 56.7482 27.4545 56.7 27.334C56.6518 27.2014 56.6639 27.1653 56.7603 27.2255C56.8567 27.2858 56.8808 27.2496 56.8326 27.1291C56.7964 27.0207 56.8205 26.9363 56.8928 26.9363C56.9651 26.9363 56.9892 26.852 56.941 26.7435C56.8808 26.5748 56.9049 26.5748 57.1218 26.7074C57.2543 26.7917 57.3387 26.9122 57.3146 26.9604Z" fill="white"></path>
<path d="M91.3068 21.7548C91.3429 21.815 91.3309 21.8753 91.2586 21.8753C91.1863 21.8753 91.1742 21.9596 91.2104 22.0801C91.2706 22.2247 91.2465 22.2488 91.126 22.1765C91.0055 22.1042 90.9814 22.1283 91.0417 22.2729C91.0778 22.3934 91.0658 22.4777 91.0055 22.4777C90.9453 22.4777 90.9332 22.5621 90.9694 22.6826C91.0296 22.8272 91.0055 22.8513 90.8851 22.779C90.7646 22.7067 90.7405 22.7308 90.8007 22.8754C90.8369 22.9959 90.8248 23.0802 90.7646 23.0802C90.7043 23.0802 90.6923 23.1646 90.7284 23.2851C90.7887 23.4297 90.7646 23.4538 90.6441 23.3815C90.5236 23.3092 90.4995 23.3333 90.5597 23.4779C90.5959 23.5984 90.5838 23.6827 90.5115 23.6827C90.4392 23.6827 90.4272 23.7309 90.4633 23.8032C90.4995 23.8635 90.4874 23.9237 90.4151 23.9237C90.3428 23.9237 90.3308 24.0081 90.3669 24.1286C90.4272 24.2732 90.4031 24.2973 90.2826 24.225C90.1621 24.1527 90.138 24.1768 90.1982 24.3214C90.2344 24.4418 90.2223 24.5262 90.1621 24.5262C90.1018 24.5262 90.0898 24.6105 90.1259 24.731C90.1862 24.8756 90.1621 24.8997 90.0416 24.8274C89.9211 24.7551 89.897 24.7792 89.9572 24.9238C89.9934 25.0443 89.9813 25.1287 89.9211 25.1287C89.8608 25.1287 89.8488 25.213 89.8849 25.3335C89.9331 25.4661 89.9211 25.5022 89.8247 25.442C89.7283 25.3817 89.7042 25.4179 89.7524 25.5384C89.7885 25.6468 89.7644 25.7312 89.6801 25.7312C89.6078 25.7312 89.5837 25.7794 89.6198 25.8517C89.656 25.9119 89.6439 25.9722 89.5716 25.9722C89.4993 25.9722 89.4873 26.0565 89.5234 26.177C89.5837 26.3216 89.5596 26.3457 89.4391 26.2734C89.3186 26.2011 89.2945 26.2252 89.3547 26.3698C89.3909 26.4903 89.3788 26.5746 89.3186 26.5746C89.2583 26.5746 89.2463 26.659 89.2824 26.7795C89.3427 26.9241 89.3186 26.9482 89.1981 26.8759C89.0776 26.8036 89.0535 26.8277 89.1137 26.9723C89.1499 27.0928 89.1378 27.1771 89.0655 27.1771C88.9932 27.1771 88.9691 27.2253 89.0053 27.2856C89.1137 27.4543 88.9451 27.7917 88.8005 27.6953C88.7282 27.6471 88.7041 27.6953 88.7523 27.8158C88.7884 27.9363 88.7764 28.0206 88.7161 28.0206C88.6559 28.0206 88.6438 28.105 88.68 28.2255C88.7402 28.37 88.7161 28.3941 88.5956 28.3218C88.4751 28.2496 88.451 28.2736 88.5113 28.4182C88.5474 28.5387 88.5354 28.6231 88.4751 28.6231C88.4149 28.6231 88.4028 28.7074 88.439 28.8279C88.4992 28.9725 88.4751 28.9966 88.3546 28.9243C88.2341 28.852 88.21 28.8761 88.2703 29.0207C88.3064 29.1412 88.2944 29.2256 88.2221 29.2256C88.1498 29.2256 88.1257 29.2738 88.1618 29.334C88.2703 29.5027 88.1016 29.8401 87.957 29.7437C87.8847 29.6955 87.8606 29.7437 87.9088 29.8642C87.9449 29.9847 87.9329 30.0691 87.8726 30.0691C87.8124 30.0691 87.8003 30.1534 87.8365 30.2739C87.8967 30.4185 87.8726 30.4426 87.7521 30.3703C87.6316 30.298 87.6075 30.3221 87.6678 30.4667C87.7039 30.5872 87.6919 30.6715 87.6316 30.6715C87.5714 30.6715 87.5593 30.7559 87.5955 30.8764C87.6557 31.021 87.6316 31.0451 87.5111 30.9728C87.3906 30.9005 87.3665 30.9246 87.4268 31.0692C87.4629 31.1897 87.4509 31.274 87.3786 31.274C87.3063 31.274 87.2942 31.3222 87.3304 31.3945C87.3665 31.4548 87.3545 31.515 87.2822 31.515C87.2099 31.515 87.1978 31.5994 87.234 31.7199C87.2942 31.8645 87.2701 31.8886 87.1496 31.8163C87.0291 31.744 87.005 31.7681 87.0653 31.9127C87.1014 32.0332 87.0894 32.1175 87.0291 32.1175C86.9689 32.1175 86.9569 32.2018 86.993 32.3223C87.0532 32.4669 87.0291 32.491 86.9087 32.4187C86.7882 32.3464 86.7641 32.3705 86.8243 32.5151C86.8605 32.6356 86.8484 32.72 86.7882 32.72C86.7279 32.72 86.7159 32.8043 86.752 32.9248C86.8123 33.0694 86.7882 33.0935 86.6677 33.0212C86.5472 32.9489 86.5231 32.973 86.5833 33.1176C86.6195 33.2381 86.6074 33.3225 86.5351 33.3225C86.4628 33.3225 86.4508 33.3707 86.4869 33.443C86.5231 33.5032 86.511 33.5635 86.4387 33.5635C86.3664 33.5635 86.3423 33.6478 86.3785 33.7442C86.4267 33.8406 86.3905 33.925 86.3062 33.925C86.2339 33.925 86.2098 33.9852 86.2459 34.0455C86.2821 34.1178 86.27 34.1659 86.1977 34.1659C86.1254 34.1659 86.1134 34.2503 86.1495 34.3708C86.2098 34.5154 86.1857 34.5395 86.0652 34.4672C85.9447 34.3949 85.9206 34.419 85.9808 34.5636C86.017 34.6841 86.0049 34.7684 85.9447 34.7684C85.8844 34.7684 85.8724 34.8528 85.9085 34.9733C85.9688 35.1179 85.9447 35.142 85.8242 35.0697C85.7037 34.9974 85.6796 35.0215 85.7398 35.1661C85.776 35.2866 85.7639 35.3709 85.6916 35.3709C85.6193 35.3709 85.6073 35.4191 85.6434 35.4914C85.6796 35.5517 85.6675 35.6119 85.5952 35.6119C85.5229 35.6119 85.5109 35.6963 85.547 35.8168C85.6073 35.9614 85.5832 35.9855 85.4627 35.9132C85.3422 35.8409 85.3181 35.865 85.3783 36.0096C85.4145 36.13 85.4024 36.2144 85.3422 36.2144C85.2819 36.2144 85.2699 36.2987 85.306 36.4192C85.3663 36.5638 85.3422 36.5879 85.2217 36.5156C85.1012 36.4433 85.0771 36.4674 85.1373 36.612C85.1735 36.7325 85.1614 36.8169 85.0891 36.8169C85.0169 36.8169 85.0048 36.8771 85.041 36.9374C85.0771 37.0097 85.053 37.0579 84.9807 37.0579C84.8964 37.0579 84.8602 37.1422 84.9084 37.2386C84.9446 37.335 84.9205 37.4194 84.8482 37.4194C84.7759 37.4194 84.7638 37.4796 84.8 37.5399C84.8361 37.6122 84.8241 37.6604 84.7518 37.6604C84.6795 37.6604 84.6674 37.7447 84.7036 37.8652C84.7638 38.0098 84.7397 38.0339 84.6192 37.9616C84.4987 37.8893 84.4746 37.9134 84.5349 38.058C84.571 38.1785 84.559 38.2628 84.4987 38.2628C84.4385 38.2628 84.4264 38.3472 84.4626 38.4677C84.5228 38.6123 84.4987 38.6364 84.3782 38.5641C84.2577 38.4918 84.2336 38.5159 84.2939 38.6605C84.33 38.781 84.318 38.8653 84.2457 38.8653C84.1734 38.8653 84.1613 38.9135 84.1975 38.9858C84.2336 39.0461 84.2095 39.1063 84.1372 39.1063C84.0529 39.1063 84.0167 39.1907 84.0649 39.2871C84.1011 39.3835 84.077 39.4678 84.0047 39.4678C83.9324 39.4678 83.9203 39.516 83.9565 39.5883C83.9926 39.6486 83.9806 39.7088 83.9083 39.7088C83.836 39.7088 83.8239 39.7932 83.8601 39.9137C83.9203 40.0582 83.8962 40.0823 83.7757 40.0101C83.6552 39.9378 83.6311 39.9619 83.6914 40.1064C83.7275 40.2269 83.7155 40.3113 83.6552 40.3113C83.595 40.3113 83.5829 40.3956 83.6191 40.5161C83.6793 40.6607 83.6552 40.6848 83.5347 40.6125C83.4142 40.5402 83.3901 40.5643 83.4504 40.7089C83.4865 40.8294 83.4745 40.9138 83.4022 40.9138C83.3299 40.9138 83.3178 40.962 83.354 41.0343C83.3901 41.0945 83.3781 41.1548 83.3058 41.1548C83.2335 41.1548 83.2214 41.2391 83.2576 41.3596C83.3178 41.5042 83.2937 41.5283 83.1732 41.456C83.0528 41.3837 83.0287 41.4078 83.0889 41.5524C83.125 41.6729 83.113 41.7573 83.0528 41.7573C82.9925 41.7573 82.9805 41.8416 83.0166 41.9621C83.0769 42.1067 83.0528 42.1308 82.9323 42.0585C82.8118 41.9862 82.7877 42.0103 82.8479 42.1549C82.8841 42.2754 82.872 42.3597 82.8118 42.3597C82.7515 42.3597 82.7395 42.4441 82.7756 42.5646C82.8359 42.7092 82.8118 42.7333 82.6913 42.661C82.5708 42.5887 82.5467 42.6128 82.6069 42.7574C82.6431 42.8779 82.631 42.9622 82.5587 42.9622C82.4864 42.9622 82.4744 43.0225 82.5105 43.0827C82.5467 43.155 82.5346 43.2032 82.4623 43.2032C82.39 43.2032 82.378 43.2876 82.4141 43.4081C82.4744 43.5527 82.4503 43.5768 82.3298 43.5045C82.2093 43.4322 82.1852 43.4563 82.2454 43.6009C82.2816 43.7214 82.2695 43.8057 82.2093 43.8057C82.149 43.8057 82.137 43.8901 82.1731 44.0105C82.2334 44.1551 82.2093 44.1792 82.0888 44.1069C81.9683 44.0346 81.9442 44.0587 82.0044 44.2033C82.0406 44.3238 82.0285 44.4082 81.9683 44.4082C81.908 44.4082 81.896 44.4925 81.9321 44.613C81.9924 44.7576 81.9683 44.7817 81.8478 44.7094C81.7273 44.6371 81.7032 44.6612 81.7634 44.8058C81.7996 44.9263 81.7996 45.0107 81.7514 45.0107C81.7032 45.0107 81.655 45.1071 81.6429 45.2276C81.6309 45.4204 81.6911 45.4324 82.2093 45.3722C82.5346 45.336 83.0769 45.324 83.4383 45.3722C84.0529 45.4324 84.077 45.4204 84.1011 45.1432C84.1011 44.9866 84.1854 44.8179 84.2577 44.7697C84.3421 44.7215 84.3782 44.6251 84.3421 44.5648C84.2457 44.4082 84.5108 43.5647 84.6433 43.5647C84.7036 43.5647 84.7156 43.4563 84.6795 43.3237C84.6313 43.1912 84.6554 43.0827 84.7277 43.0827C84.8 43.0827 84.8241 42.9984 84.7879 42.902C84.7397 42.8056 84.7759 42.7212 84.8482 42.7212C84.9205 42.7212 84.9446 42.6369 84.9084 42.5405C84.8602 42.4441 84.8964 42.3597 84.9687 42.3597C85.041 42.3597 85.065 42.2754 85.0289 42.179C84.9807 42.0826 85.0169 41.9983 85.0891 41.9983C85.1614 41.9983 85.1855 41.9139 85.1494 41.8175C85.1012 41.7211 85.1373 41.6368 85.2096 41.6368C85.2819 41.6368 85.306 41.5524 85.2699 41.456C85.2217 41.3596 85.2578 41.2753 85.3301 41.2753C85.4024 41.2753 85.4265 41.1909 85.3904 41.0945C85.3422 40.9981 85.3783 40.9138 85.4506 40.9138C85.5229 40.9138 85.547 40.8294 85.4988 40.7089C85.4386 40.5643 85.4627 40.5402 85.5832 40.6125C85.7037 40.6848 85.7278 40.6607 85.6675 40.5161C85.6193 40.3956 85.6434 40.3113 85.7157 40.3113C85.788 40.3113 85.8242 40.2269 85.776 40.1305C85.7398 40.0342 85.7639 39.9498 85.8242 39.9498C85.8844 39.9498 85.9085 39.8655 85.8724 39.7691C85.8242 39.6727 85.8603 39.5883 85.9326 39.5883C86.0049 39.5883 86.029 39.504 85.9929 39.4076C85.9447 39.3112 85.9808 39.2268 86.0531 39.2268C86.1254 39.2268 86.1495 39.1425 86.1013 39.022C86.0411 38.8774 86.0652 38.8533 86.1857 38.9256C86.3062 38.9979 86.3303 38.9738 86.27 38.8292C86.2339 38.7087 86.2339 38.6243 86.2821 38.6243C86.3303 38.6243 86.3785 38.4797 86.3905 38.299C86.3905 38.1182 86.4628 37.9496 86.5351 37.9255C86.6074 37.9014 86.6436 37.8291 86.5954 37.7688C86.5592 37.7086 86.5954 37.6604 86.6677 37.6604C86.752 37.6604 86.7882 37.576 86.74 37.4796C86.7038 37.3832 86.7159 37.2989 86.7761 37.2989C86.8364 37.2989 86.8846 37.2266 86.8725 37.1422C86.8605 36.7566 86.9207 36.5638 87.0412 36.6361C87.1135 36.6843 87.1496 36.6361 87.1255 36.5036C87.0894 36.2867 87.2581 36.2746 91.0658 36.2746C94.7771 36.2746 95.0422 36.2867 95.0301 36.4795C95.0181 36.6 95.0542 36.6964 95.1145 36.6964C95.1747 36.6964 95.1747 36.7807 95.1386 36.9012C95.0783 37.0458 95.1024 37.0699 95.2229 36.9976C95.3434 36.9253 95.3675 36.9494 95.3073 37.094C95.2711 37.2145 95.2832 37.2989 95.3434 37.2989C95.4037 37.2989 95.4157 37.3832 95.3796 37.5037C95.3193 37.6483 95.3434 37.6724 95.4639 37.6001C95.5844 37.5278 95.6085 37.5519 95.5483 37.6965C95.5121 37.817 95.5242 37.9014 95.5844 37.9014C95.6447 37.9014 95.6688 37.9857 95.6326 38.0821C95.5844 38.1785 95.6206 38.2628 95.7049 38.2628C95.7772 38.2628 95.8013 38.311 95.7652 38.3833C95.729 38.4436 95.7531 38.5038 95.8254 38.5038C95.9098 38.5038 95.9459 38.5882 95.8977 38.6846C95.8616 38.781 95.8857 38.8653 95.9459 38.8653C96.0062 38.8653 96.0303 38.9497 95.9941 39.0461C95.9459 39.1425 95.9821 39.2268 96.0544 39.2268C96.1267 39.2268 96.1508 39.3112 96.1026 39.4317C96.0423 39.5763 96.0664 39.6004 96.1869 39.5281C96.3074 39.4558 96.3315 39.4799 96.2713 39.6245C96.2231 39.745 96.2472 39.8293 96.3195 39.8293C96.3918 39.8293 96.4279 39.9137 96.3797 40.0101C96.3436 40.1064 96.3677 40.1908 96.4279 40.1908C96.4882 40.1908 96.5123 40.2751 96.4761 40.3715C96.4279 40.4679 96.4641 40.5523 96.5364 40.5523C96.6087 40.5523 96.6328 40.6366 96.5846 40.7571C96.5243 40.9017 96.5484 40.9258 96.6689 40.8535C96.7894 40.7812 96.8135 40.8053 96.7533 40.9499C96.7051 41.0704 96.7292 41.1548 96.8014 41.1548C96.8737 41.1548 96.9099 41.2391 96.8617 41.3355C96.8255 41.4319 96.8496 41.5163 96.9219 41.5163C96.9942 41.5163 97.0304 41.6006 96.9822 41.697C96.946 41.7934 96.9701 41.8778 97.0424 41.8778C97.1147 41.8778 97.1509 41.9621 97.1027 42.0585C97.0665 42.1549 97.0906 42.2392 97.1629 42.2392C97.2352 42.2392 97.2714 42.3236 97.2232 42.42C97.187 42.5164 97.2111 42.6007 97.2714 42.6007C97.3316 42.6007 97.3557 42.6851 97.3196 42.7815C97.2714 42.8779 97.3075 42.9622 97.3919 42.9622C97.4762 42.9622 97.5124 43.0466 97.4642 43.143C97.428 43.2394 97.4521 43.3237 97.5124 43.3237C97.5726 43.3237 97.5967 43.4081 97.5606 43.5045C97.5124 43.6009 97.5485 43.6852 97.6329 43.6852C97.7172 43.6852 97.7534 43.7696 97.7052 43.866C97.669 43.9624 97.6931 44.0467 97.7534 44.0467C97.8136 44.0467 97.8377 44.131 97.8016 44.2274C97.7534 44.3238 97.7895 44.4082 97.8739 44.4082C97.9582 44.4082 97.9944 44.4925 97.9462 44.5889C97.91 44.6853 97.9341 44.7697 98.0064 44.7697C98.0787 44.7697 98.1149 44.854 98.0667 44.9504C98.0305 45.0468 98.0546 45.1312 98.1269 45.1312C98.1992 45.1312 98.2354 45.2035 98.1992 45.2878C98.1631 45.3963 98.3559 45.4204 99.0668 45.3722C99.5729 45.336 100.368 45.336 100.826 45.3722C101.585 45.4204 101.682 45.4083 101.682 45.2155C101.682 45.1071 101.633 45.0107 101.585 45.0107C101.537 45.0107 101.537 44.9263 101.573 44.8058C101.633 44.6612 101.609 44.6371 101.489 44.7094C101.368 44.7817 101.344 44.7576 101.404 44.613C101.441 44.4925 101.429 44.4082 101.368 44.4082C101.308 44.4082 101.296 44.3238 101.332 44.2033C101.392 44.0587 101.368 44.0346 101.248 44.1069C101.127 44.1792 101.103 44.1551 101.163 44.0105C101.2 43.8901 101.188 43.8057 101.127 43.8057C101.067 43.8057 101.055 43.7214 101.091 43.6009C101.151 43.4563 101.127 43.4322 101.007 43.5045C100.886 43.5768 100.862 43.5527 100.922 43.4081C100.959 43.2876 100.947 43.2032 100.886 43.2032C100.826 43.2032 100.814 43.1189 100.85 42.9984C100.91 42.8538 100.886 42.8297 100.766 42.902C100.645 42.9743 100.621 42.9502 100.681 42.8056C100.718 42.6851 100.706 42.6007 100.645 42.6007C100.585 42.6007 100.573 42.5164 100.609 42.3959C100.669 42.2513 100.645 42.2272 100.525 42.2995C100.404 42.3718 100.38 42.3477 100.44 42.2031C100.489 42.0826 100.465 41.9983 100.392 41.9983C100.32 41.9983 100.284 41.9139 100.332 41.8175C100.368 41.7211 100.344 41.6368 100.284 41.6368C100.224 41.6368 100.212 41.5524 100.248 41.4319C100.308 41.2873 100.284 41.2632 100.163 41.3355C100.043 41.4078 100.019 41.3837 100.079 41.2391C100.115 41.1186 100.103 41.0343 100.043 41.0343C99.9826 41.0343 99.9705 40.9499 100.007 40.8294C100.067 40.6848 100.043 40.6607 99.9223 40.733C99.8018 40.8053 99.7777 40.7812 99.838 40.6366C99.8741 40.5161 99.8621 40.4318 99.8018 40.4318C99.7416 40.4318 99.7295 40.3474 99.7657 40.2269C99.8259 40.0823 99.8018 40.0582 99.6813 40.1305C99.5608 40.2028 99.5367 40.1787 99.597 40.0342C99.6331 39.9137 99.6211 39.8293 99.5608 39.8293C99.5006 39.8293 99.4885 39.745 99.5247 39.6245C99.5849 39.4799 99.5608 39.4558 99.4403 39.5281C99.3198 39.6004 99.2957 39.5763 99.356 39.4317C99.4042 39.3112 99.3801 39.2268 99.3078 39.2268C99.2355 39.2268 99.2114 39.1425 99.2475 39.034C99.2957 38.9135 99.2716 38.8774 99.1752 38.9376C99.0788 38.9979 99.0668 38.9617 99.115 38.8292C99.1632 38.7087 99.1391 38.6243 99.0668 38.6243C98.9945 38.6243 98.9704 38.54 99.0065 38.4315C99.0547 38.311 99.0306 38.2749 98.9342 38.3351C98.8378 38.3954 98.8258 38.3592 98.874 38.2267C98.9222 38.1062 98.8981 38.0219 98.8258 38.0219C98.7535 38.0219 98.7294 37.9375 98.7655 37.8291C98.8137 37.7086 98.7896 37.6724 98.6933 37.7327C98.5969 37.7929 98.5848 37.7568 98.633 37.6242C98.6812 37.5037 98.6571 37.4194 98.5848 37.4194C98.5125 37.4194 98.4884 37.335 98.5246 37.2266C98.5728 37.1061 98.5487 37.0699 98.4523 37.1302C98.3559 37.1904 98.3438 37.1543 98.392 37.0217C98.4402 36.9012 98.4161 36.8169 98.3438 36.8169C98.2715 36.8169 98.2474 36.7325 98.2836 36.6241C98.3318 36.5036 98.3077 36.4674 98.2113 36.5277C98.1149 36.5879 98.1028 36.5518 98.151 36.4192C98.1992 36.2987 98.1751 36.2144 98.1028 36.2144C98.0305 36.2144 98.0064 36.13 98.0426 36.0216C98.0908 35.9011 98.0667 35.865 97.9703 35.9252C97.8739 35.9855 97.8618 35.9493 97.91 35.8168C97.9582 35.6963 97.9341 35.6119 97.8618 35.6119C97.7895 35.6119 97.7534 35.5276 97.8016 35.4312C97.8377 35.3348 97.8136 35.2504 97.7413 35.2504C97.669 35.2504 97.657 35.1902 97.6931 35.1299C97.7293 35.0576 97.7052 35.0094 97.6329 35.0094C97.5485 35.0094 97.5124 34.9251 97.5606 34.8287C97.5967 34.7323 97.5726 34.6479 97.5124 34.6479C97.4521 34.6479 97.4401 34.5636 97.4762 34.4431C97.5365 34.2985 97.5124 34.2744 97.3919 34.3467C97.2714 34.419 97.2473 34.3949 97.3075 34.2503C97.3437 34.1298 97.3316 34.0455 97.2714 34.0455C97.2111 34.0455 97.1991 33.9611 97.2352 33.8406C97.2955 33.696 97.2714 33.6719 97.1509 33.7442C97.0304 33.8165 97.0063 33.7924 97.0665 33.6478C97.1027 33.5273 97.0906 33.443 97.0304 33.443C96.9701 33.443 96.9581 33.3586 96.9942 33.2381C97.0545 33.0935 97.0304 33.0694 96.9099 33.1417C96.7894 33.214 96.7653 33.1899 96.8255 33.0453C96.8617 32.9248 96.8496 32.8405 96.7894 32.8405C96.7292 32.8405 96.7171 32.7561 96.7533 32.6356C96.8135 32.491 96.7894 32.4669 96.6689 32.5392C96.5484 32.6115 96.5243 32.5874 96.5846 32.4428C96.6328 32.3223 96.6087 32.238 96.5364 32.238C96.4641 32.238 96.44 32.1537 96.4761 32.0452C96.5243 31.9247 96.5002 31.8886 96.4038 31.9488C96.3074 32.0091 96.2954 31.9729 96.3436 31.8404C96.3918 31.7199 96.3677 31.6355 96.2954 31.6355C96.2231 31.6355 96.199 31.5512 96.2351 31.4427C96.2833 31.3222 96.2592 31.2861 96.1628 31.3463C96.0664 31.4066 96.0544 31.3704 96.1026 31.2379C96.1508 31.1174 96.1267 31.033 96.0544 31.033C95.9821 31.033 95.958 30.9487 95.9941 30.8402C96.0423 30.7197 96.0182 30.6836 95.9218 30.7438C95.8254 30.8041 95.8134 30.7679 95.8616 30.6354C95.8977 30.5149 95.8857 30.4305 95.8254 30.4305C95.7652 30.4305 95.7531 30.3462 95.7893 30.2257C95.8495 30.0811 95.8254 30.057 95.7049 30.1293C95.5844 30.2016 95.5603 30.1775 95.6206 30.0329C95.6567 29.9124 95.6447 29.8281 95.5844 29.8281C95.5242 29.8281 95.5121 29.7437 95.5483 29.6232C95.6085 29.4786 95.5844 29.4545 95.4639 29.5268C95.3434 29.5991 95.3193 29.575 95.3796 29.4304C95.4157 29.3099 95.4037 29.2256 95.3434 29.2256C95.2832 29.2256 95.2591 29.1412 95.2952 29.0448C95.3434 28.9484 95.3073 28.8641 95.2229 28.8641C95.1506 28.8641 95.1265 28.8038 95.1627 28.7436C95.1988 28.6713 95.1868 28.6231 95.1145 28.6231C95.0422 28.6231 95.0181 28.5387 95.0542 28.4423C95.1024 28.3459 95.0663 28.2616 94.9819 28.2616C94.9096 28.2616 94.8855 28.2014 94.9217 28.1411C94.9578 28.0688 94.9458 28.0206 94.8735 28.0206C94.8012 28.0206 94.7771 27.9363 94.8133 27.8399C94.8614 27.7435 94.8253 27.6591 94.741 27.6591C94.6687 27.6591 94.6446 27.5989 94.6807 27.5386C94.7169 27.4663 94.7048 27.4181 94.6325 27.4181C94.5602 27.4181 94.5361 27.3338 94.5723 27.2374C94.6205 27.141 94.5843 27.0566 94.512 27.0566C94.4397 27.0566 94.4156 26.9723 94.4638 26.8518C94.512 26.7192 94.5 26.6831 94.4036 26.7433C94.3072 26.8036 94.2831 26.7674 94.3313 26.6469C94.3674 26.5385 94.3433 26.4541 94.271 26.4541C94.1987 26.4541 94.1746 26.3698 94.2228 26.2493C94.2831 26.1047 94.259 26.0806 94.1385 26.1529C94.018 26.2252 93.9939 26.2011 94.0541 26.0565C94.0903 25.936 94.0782 25.8517 94.018 25.8517C93.9577 25.8517 93.9457 25.7673 93.9818 25.6468C94.0421 25.5022 94.018 25.4781 93.8975 25.5504C93.777 25.6227 93.7529 25.5986 93.8131 25.454C93.8493 25.3335 93.8372 25.2492 93.777 25.2492C93.7167 25.2492 93.7047 25.1648 93.7408 25.0443C93.8011 24.8997 93.777 24.8756 93.6565 24.9479C93.536 25.0202 93.5119 24.9961 93.5721 24.8515C93.6083 24.731 93.5962 24.6467 93.536 24.6467C93.4757 24.6467 93.4637 24.5623 93.4998 24.4418C93.5601 24.2973 93.536 24.2732 93.4155 24.3454C93.295 24.4177 93.2709 24.3936 93.3311 24.2491C93.3673 24.1286 93.3552 24.0442 93.295 24.0442C93.2347 24.0442 93.2227 23.9599 93.2588 23.8394C93.3191 23.6948 93.295 23.6707 93.1745 23.743C93.054 23.8153 93.0299 23.7912 93.0901 23.6466C93.1263 23.5261 93.1142 23.4417 93.054 23.4417C92.9937 23.4417 92.9817 23.3574 93.0178 23.2369C93.0781 23.0923 93.054 23.0682 92.9335 23.1405C92.813 23.2128 92.7889 23.1887 92.8492 23.0441C92.8853 22.9236 92.8732 22.8392 92.813 22.8392C92.7528 22.8392 92.7407 22.7549 92.7769 22.6344C92.8371 22.4898 92.813 22.4657 92.6925 22.538C92.572 22.6103 92.5479 22.5862 92.6082 22.4416C92.6443 22.3211 92.6323 22.2368 92.572 22.2368C92.5118 22.2368 92.4997 22.1524 92.5359 22.0319C92.5961 21.8873 92.572 21.8632 92.4515 21.9355C92.331 22.0078 92.3069 21.9837 92.3672 21.8391C92.4274 21.6584 92.3551 21.6343 91.837 21.6343C91.4634 21.6343 91.2586 21.6825 91.3068 21.7548ZM91.1863 26.6951C91.1501 26.7674 91.1622 26.8156 91.2345 26.8156C91.3068 26.8156 91.3188 26.9 91.2827 27.0205C91.2224 27.1651 91.2465 27.1892 91.367 27.1169C91.4875 27.0446 91.5116 27.0687 91.4514 27.2133C91.4152 27.3338 91.4273 27.4181 91.4875 27.4181C91.5478 27.4181 91.5598 27.5025 91.5237 27.623C91.4634 27.7676 91.4875 27.7917 91.608 27.7194C91.7285 27.6471 91.7526 27.6712 91.6924 27.8158C91.6562 27.9363 91.6683 28.0206 91.7285 28.0206C91.7888 28.0206 91.8008 28.105 91.7647 28.2255C91.7044 28.37 91.7285 28.3941 91.849 28.3218C91.9695 28.2496 91.9936 28.2736 91.9334 28.4182C91.8972 28.5387 91.9093 28.6231 91.9695 28.6231C92.0298 28.6231 92.0418 28.7074 92.0057 28.8279C91.9454 28.9725 91.9695 28.9966 92.09 28.9243C92.2105 28.852 92.2346 28.8761 92.1744 29.0207C92.1382 29.1412 92.1503 29.2256 92.2105 29.2256C92.2708 29.2256 92.2828 29.3099 92.2467 29.4304C92.1864 29.575 92.2105 29.5991 92.331 29.5268C92.4515 29.4545 92.4756 29.4786 92.4154 29.6232C92.3792 29.7437 92.3913 29.8281 92.4515 29.8281C92.5118 29.8281 92.5238 29.9124 92.4877 30.0329C92.4274 30.1775 92.4515 30.2016 92.572 30.1293C92.6925 30.057 92.7166 30.0811 92.6564 30.2257C92.6202 30.3462 92.6323 30.4305 92.6925 30.4305C92.7528 30.4305 92.7648 30.5149 92.7287 30.6354C92.6684 30.78 92.6925 30.8041 92.813 30.7318C92.9335 30.6595 92.9576 30.6836 92.8973 30.8282C92.8612 30.9487 92.8732 31.033 92.9335 31.033C92.9937 31.033 93.0058 31.1174 92.9696 31.2379C92.9094 31.3825 92.9335 31.4066 93.054 31.3343C93.1745 31.262 93.1986 31.2861 93.1383 31.4307C93.1022 31.5512 93.1142 31.6355 93.1745 31.6355C93.2347 31.6355 93.2468 31.7199 93.2106 31.8404C93.1504 31.985 93.1745 32.0091 93.295 31.9368C93.4155 31.8645 93.4396 31.8886 93.3793 32.0332C93.3432 32.1537 93.3552 32.238 93.4155 32.238C93.4757 32.238 93.4878 32.3223 93.4516 32.4428C93.3914 32.5874 93.4155 32.6115 93.536 32.5392C93.6565 32.4669 93.6806 32.491 93.6203 32.6356C93.5842 32.7561 93.5962 32.8405 93.6685 32.8405C93.7408 32.8405 93.7529 32.8887 93.7167 32.961C93.6806 33.0212 93.7047 33.0815 93.777 33.0815C93.8613 33.0815 93.8975 33.1658 93.8493 33.2622C93.8131 33.3586 93.8372 33.443 93.9095 33.443C93.9818 33.443 93.9939 33.4912 93.9577 33.5635C93.9216 33.6237 93.9457 33.684 94.018 33.684C94.1023 33.684 94.1385 33.7683 94.0903 33.8647C94.0541 33.9611 94.0782 34.0455 94.1505 34.0455C94.2228 34.0455 94.2469 34.0937 94.2108 34.1539C94.1626 34.2141 94.1987 34.2864 94.2831 34.3105C94.3554 34.3346 94.3795 34.431 94.3313 34.5033C94.271 34.6118 93.3793 34.6479 90.9694 34.6359C89.1619 34.6359 87.7642 34.5997 87.8485 34.5636C87.9208 34.5395 87.969 34.4551 87.9208 34.3949C87.8847 34.3346 87.9208 34.2864 87.9931 34.2864C88.0775 34.2864 88.1136 34.2021 88.0654 34.1057C88.0293 34.0093 88.0534 33.925 88.1136 33.925C88.1739 33.925 88.1859 33.8406 88.1498 33.7201C88.1016 33.5876 88.1136 33.5514 88.2221 33.6117C88.3185 33.6719 88.3667 33.6478 88.3426 33.5514C88.2944 33.1658 88.3546 32.9489 88.4992 33.0333C88.5956 33.0935 88.6077 33.0574 88.5595 32.9248C88.5233 32.8043 88.5354 32.72 88.5956 32.72C88.6559 32.72 88.6679 32.6356 88.6318 32.5151C88.5715 32.3705 88.5956 32.3464 88.7161 32.4187C88.8366 32.491 88.8607 32.4669 88.8005 32.3223C88.7643 32.2018 88.7764 32.1175 88.8366 32.1175C88.8969 32.1175 88.9089 32.0332 88.8728 31.9127C88.8125 31.7681 88.8366 31.744 88.9571 31.8163C89.0776 31.8886 89.1017 31.8645 89.0414 31.7199C89.0053 31.5994 89.0173 31.515 89.0776 31.515C89.1378 31.515 89.1499 31.4307 89.1137 31.3102C89.0535 31.1656 89.0776 31.1415 89.1981 31.2138C89.3186 31.2861 89.3427 31.262 89.2824 31.1174C89.2463 30.9969 89.2583 30.9125 89.3186 30.9125C89.3788 30.9125 89.4029 30.8282 89.3668 30.7318C89.3186 30.6354 89.3547 30.551 89.427 30.551C89.4993 30.551 89.5234 30.4667 89.4752 30.3462C89.427 30.2137 89.4391 30.1775 89.5355 30.2377C89.6319 30.298 89.656 30.2618 89.6078 30.1414C89.5716 30.0329 89.5957 29.9486 89.668 29.9486C89.7403 29.9486 89.7644 29.8642 89.7162 29.7437C89.668 29.6232 89.6921 29.575 89.7644 29.6232C89.8367 29.6714 89.897 29.6353 89.8849 29.5509C89.8729 29.1412 89.9331 28.9725 90.0657 29.0569C90.1621 29.1171 90.1741 29.081 90.1259 28.9484C90.0898 28.8279 90.1018 28.7436 90.1621 28.7436C90.2223 28.7436 90.2344 28.6592 90.1982 28.5387C90.138 28.3941 90.1621 28.37 90.2826 28.4423C90.4031 28.5146 90.4272 28.4905 90.3669 28.3459C90.3308 28.2255 90.3428 28.1411 90.4031 28.1411C90.4633 28.1411 90.4754 28.0568 90.4392 27.9363C90.379 27.7917 90.4031 27.7676 90.5236 27.8399C90.6441 27.9122 90.6682 27.8881 90.6079 27.7435C90.5718 27.623 90.5838 27.5386 90.6441 27.5386C90.7043 27.5386 90.7284 27.4543 90.6923 27.3579C90.6441 27.2615 90.6802 27.1771 90.7525 27.1771C90.8248 27.1771 90.8489 27.0928 90.8007 26.9723C90.7525 26.8397 90.7646 26.8036 90.861 26.8638C90.9573 26.9241 90.9814 26.8879 90.9332 26.7674C90.8971 26.659 90.9212 26.5746 90.9935 26.5746C91.0658 26.5746 91.0899 26.4782 91.0537 26.3577C90.9935 26.165 90.9935 26.165 91.126 26.3698C91.1983 26.4782 91.2224 26.6349 91.1863 26.6951Z" fill="white"></path>
<path d="M4.48877 33.7444V45.4447L5.2479 45.3724C5.65759 45.3242 6.32032 45.3242 6.71796 45.3604L7.44094 45.4327V33.7444V22.0562L6.68181 22.1165C6.26007 22.1526 5.59734 22.1526 5.1997 22.1165L4.48877 22.0442V33.7444Z" fill="white"></path>
<path d="M13.2368 23.0805C13.1043 24.8759 11.2366 39.215 10.4774 44.3602L10.3208 45.4447L10.9233 45.3604C11.2607 45.3242 11.815 45.3242 12.1524 45.3604C12.7428 45.4447 12.7548 45.4327 12.7066 45.1676C12.6223 44.7097 12.9235 40.3838 13.285 36.7569C13.9478 30.238 14.1767 28.2618 14.2731 28.2618C14.3213 28.2618 14.3213 28.3462 14.2851 28.4667C14.237 28.5992 14.249 28.6354 14.3454 28.5751C14.4418 28.5149 14.4659 28.5631 14.4056 28.6956C14.3454 28.8523 14.3695 28.8764 14.49 28.8041C14.5864 28.7438 14.6225 28.7559 14.5623 28.8402C14.4538 29.021 14.8635 29.8403 15.0081 29.7439C15.0804 29.6958 15.1045 29.7439 15.0563 29.8644C15.0202 29.9849 15.0322 30.0693 15.1045 30.0693C15.1768 30.0693 15.1889 30.1175 15.1527 30.1898C15.1166 30.25 15.1407 30.3103 15.213 30.3103C15.2853 30.3103 15.3094 30.3585 15.2732 30.4308C15.2371 30.491 15.2612 30.5513 15.3335 30.5513C15.4058 30.5513 15.4299 30.5995 15.3937 30.6718C15.3576 30.732 15.3817 30.7923 15.454 30.7923C15.5263 30.7923 15.5504 30.8405 15.5142 30.9128C15.4781 30.973 15.5022 31.0333 15.5745 31.0333C15.6468 31.0333 15.6709 31.0935 15.6347 31.1538C15.5986 31.214 15.6227 31.2743 15.695 31.2743C15.7673 31.2743 15.7914 31.3225 15.7552 31.3948C15.7191 31.455 15.7432 31.5153 15.8155 31.5153C15.8878 31.5153 15.9119 31.5635 15.8757 31.6358C15.8396 31.696 15.8637 31.7562 15.936 31.7562C16.0083 31.7562 16.0324 31.8044 15.9962 31.8767C15.9601 31.937 15.9842 31.9972 16.0565 31.9972C16.1288 31.9972 16.1649 32.0454 16.1167 32.1057C16.0324 32.2623 16.5505 33.3227 16.683 33.2504C16.7312 33.2143 16.7433 33.2866 16.6951 33.395C16.6469 33.5396 16.6589 33.5758 16.7553 33.5155C16.8517 33.4673 16.8758 33.4914 16.8276 33.5999C16.7915 33.6962 16.8517 33.8529 16.9481 33.9613C17.0445 34.0577 17.0927 34.1662 17.0566 34.2144C17.0084 34.2505 17.0445 34.2867 17.1289 34.2867C17.2132 34.2867 17.2373 34.3349 17.2012 34.4072C17.165 34.4674 17.1891 34.5277 17.2614 34.5277C17.3337 34.5277 17.3578 34.5759 17.3217 34.6482C17.2855 34.7084 17.3096 34.7687 17.3819 34.7687C17.4542 34.7687 17.4783 34.8169 17.4422 34.8892C17.406 34.9494 17.4301 35.0097 17.5024 35.0097C17.5747 35.0097 17.5988 35.0579 17.5627 35.1302C17.5265 35.1904 17.5506 35.2507 17.6229 35.2507C17.6952 35.2507 17.7193 35.2989 17.6832 35.3712C17.647 35.4314 17.6711 35.4917 17.7434 35.4917C17.8157 35.4917 17.8398 35.5399 17.8037 35.6122C17.7675 35.6724 17.7916 35.7326 17.8639 35.7326C17.9362 35.7326 17.9724 35.7808 17.9362 35.8411C17.8398 35.9977 17.9844 36.3472 18.117 36.2628C18.1772 36.2267 18.1893 36.299 18.1411 36.4074C18.0929 36.552 18.1049 36.5882 18.2013 36.5279C18.2977 36.4677 18.3218 36.5038 18.2736 36.6243C18.2374 36.7328 18.2615 36.8171 18.3459 36.8171C18.4182 36.8171 18.4423 36.8653 18.4061 36.9376C18.37 36.9979 18.3941 37.0581 18.4664 37.0581C18.5387 37.0581 18.5628 37.1063 18.5266 37.1786C18.4905 37.2389 18.5146 37.2991 18.5869 37.2991C18.6592 37.2991 18.6833 37.3473 18.6471 37.4196C18.611 37.4799 18.6351 37.5401 18.7074 37.5401C18.7797 37.5401 18.8038 37.5883 18.7676 37.6606C18.7315 37.7208 18.7556 37.7811 18.8279 37.7811C18.9002 37.7811 18.9243 37.8293 18.8881 37.9016C18.852 37.9618 18.8761 38.0221 18.9484 38.0221C19.0207 38.0221 19.0568 38.0703 19.0207 38.1305C18.9122 38.2992 19.0809 38.6366 19.2255 38.5402C19.2978 38.492 19.3219 38.5402 19.2737 38.6607C19.2376 38.7812 19.2496 38.8656 19.3219 38.8656C19.3942 38.8656 19.4063 38.9138 19.3701 38.9861C19.334 39.0463 19.3581 39.1066 19.4304 39.1066C19.5027 39.1066 19.5268 39.1548 19.4906 39.2271C19.4545 39.2873 19.4786 39.3476 19.5509 39.3476C19.6232 39.3476 19.6473 39.3958 19.6111 39.4681C19.575 39.5283 19.5991 39.5886 19.6714 39.5886C19.7437 39.5886 19.7798 39.6367 19.7437 39.697C19.6352 39.8657 19.8039 40.2031 19.9485 40.1067C20.0208 40.0585 20.0449 40.1067 19.9967 40.2272C19.9606 40.3477 19.9726 40.432 20.0449 40.432C20.1172 40.432 20.1293 40.4802 20.0931 40.5525C20.057 40.6128 20.0811 40.673 20.1533 40.673C20.2256 40.673 20.2497 40.7212 20.2136 40.7935C20.1774 40.8538 20.1895 40.914 20.2618 40.914C20.3341 40.914 20.3461 40.9984 20.31 41.1189C20.2618 41.2514 20.2738 41.2876 20.3702 41.2273C20.4666 41.1671 20.4907 41.2032 20.4425 41.3237C20.4064 41.4322 20.4305 41.5165 20.5148 41.5165C20.5871 41.5165 20.6112 41.5647 20.5751 41.637C20.5389 41.6972 20.563 41.7575 20.6353 41.7575C20.7076 41.7575 20.7317 41.8057 20.6956 41.878C20.6594 41.9382 20.6835 41.9985 20.7558 41.9985C20.8281 41.9985 20.8643 42.0467 20.8281 42.1069C20.7197 42.2756 20.8884 42.613 21.033 42.5166C21.1053 42.4684 21.1294 42.5166 21.0812 42.6371C21.045 42.7576 21.0571 42.842 21.1294 42.842C21.2017 42.842 21.2137 42.9022 21.1776 42.9625C21.1414 43.0348 21.1655 43.083 21.2378 43.083C21.3101 43.083 21.3463 43.1312 21.3101 43.1914C21.2137 43.3481 21.3583 43.6975 21.4909 43.6131C21.5511 43.577 21.5632 43.6372 21.527 43.7336C21.4909 43.8421 21.515 43.9264 21.5993 43.9264C21.6716 43.9264 21.6957 43.9746 21.6596 44.0469C21.6234 44.1192 21.6475 44.1674 21.7198 44.1674C21.7921 44.1674 21.8162 44.2277 21.7801 44.2879C21.7439 44.3602 21.768 44.4084 21.8403 44.4084C21.9126 44.4084 21.9367 44.4566 21.9006 44.5289C21.8644 44.5892 21.8765 44.7458 21.9488 44.8663C22.1054 45.1555 22.7561 45.1314 22.7079 44.8302C22.6838 44.6976 22.7199 44.6494 22.8163 44.7217C22.9248 44.782 22.9368 44.7458 22.8886 44.6133C22.8525 44.4928 22.8645 44.4084 22.9248 44.4084C22.985 44.4084 22.9971 44.3241 22.9609 44.2036C22.9007 44.059 22.9248 44.0349 23.0453 44.1072C23.1658 44.1795 23.1899 44.1554 23.1296 44.0108C23.0935 43.8903 23.1055 43.8059 23.1778 43.8059C23.2501 43.8059 23.2742 43.7577 23.2381 43.6975C23.1296 43.5288 23.2983 43.1914 23.4429 43.2878C23.5152 43.336 23.5393 43.2878 23.4911 43.1673C23.455 43.0468 23.467 42.9625 23.5393 42.9625C23.6116 42.9625 23.6357 42.9143 23.5996 42.854C23.4911 42.6853 23.6598 42.3479 23.8044 42.4443C23.8767 42.4925 23.9008 42.4443 23.8526 42.3238C23.8165 42.2033 23.8285 42.119 23.9008 42.119C23.9731 42.119 23.9852 42.0587 23.949 41.9985C23.9129 41.9262 23.937 41.878 24.0093 41.878C24.0815 41.878 24.1177 41.8298 24.0815 41.7695C23.9731 41.6008 24.1418 41.2635 24.2864 41.3599C24.3587 41.4081 24.3828 41.3599 24.3346 41.2394C24.2984 41.1189 24.3105 41.0345 24.3828 41.0345C24.4551 41.0345 24.4671 40.9743 24.431 40.914C24.3948 40.8417 24.4189 40.7935 24.4912 40.7935C24.5635 40.7935 24.5997 40.7453 24.5515 40.6851C24.4671 40.5405 24.7322 39.938 24.8527 40.0103C24.9732 40.0826 25.1178 39.7211 25.0214 39.5765C24.9853 39.5163 25.0214 39.4681 25.0937 39.4681C25.166 39.4681 25.1901 39.4078 25.154 39.3476C25.1178 39.2753 25.1419 39.2271 25.2142 39.2271C25.2865 39.2271 25.3106 39.1668 25.2745 39.1066C25.2383 39.0343 25.2624 38.9861 25.3347 38.9861C25.407 38.9861 25.4432 38.9379 25.395 38.8776C25.3106 38.733 25.5757 38.1305 25.6962 38.2028C25.8047 38.2751 26.2023 37.4317 26.1179 37.2871C26.0697 37.2268 26.1059 37.1786 26.1782 37.1786C26.2505 37.1786 26.2746 37.1184 26.2384 37.0581C26.2023 36.9858 26.2264 36.9376 26.2987 36.9376C26.371 36.9376 26.3951 36.8774 26.3589 36.8171C26.3228 36.7569 26.3469 36.6966 26.4192 36.6966C26.4915 36.6966 26.5156 36.6484 26.4794 36.5761C26.4433 36.5159 26.4674 36.4556 26.5397 36.4556C26.612 36.4556 26.6361 36.4074 26.5999 36.3351C26.5638 36.2628 26.5879 36.2146 26.6602 36.2146C26.7325 36.2146 26.7566 36.1544 26.7204 36.0941C26.6843 36.0218 26.7084 35.9736 26.7807 35.9736C26.853 35.9736 26.8771 35.9134 26.8409 35.8531C26.8048 35.7808 26.8289 35.7326 26.9012 35.7326C26.9735 35.7326 26.9976 35.6724 26.9614 35.6122C26.9253 35.5399 26.9494 35.4917 27.0217 35.4917C27.094 35.4917 27.1181 35.4314 27.0819 35.3712C27.0458 35.3109 27.0699 35.2507 27.1422 35.2507C27.2145 35.2507 27.2386 35.1904 27.2024 35.1302C27.1663 35.0579 27.1904 35.0097 27.2627 35.0097C27.335 35.0097 27.3591 34.9615 27.3229 34.8892C27.2868 34.8289 27.3109 34.7687 27.3832 34.7687C27.4555 34.7687 27.4796 34.7205 27.4434 34.6482C27.4073 34.5759 27.4314 34.5277 27.5037 34.5277C27.576 34.5277 27.6001 34.4795 27.5639 34.4072C27.5278 34.3469 27.5519 34.2867 27.6242 34.2867C27.6965 34.2867 27.7206 34.2385 27.6844 34.1662C27.6483 34.1059 27.6724 34.0457 27.7447 34.0457C27.817 34.0457 27.8411 33.9854 27.8049 33.9252C27.7688 33.8529 27.7929 33.8047 27.8652 33.8047C27.9375 33.8047 27.9616 33.7444 27.9254 33.6842C27.8893 33.624 27.9134 33.5637 27.9857 33.5637C28.0579 33.5637 28.082 33.5035 28.0459 33.4432C28.0097 33.383 28.0338 33.3227 28.1061 33.3227C28.1784 33.3227 28.2025 33.2625 28.1664 33.2022C28.1302 33.142 28.1543 33.0817 28.2266 33.0817C28.2989 33.0817 28.323 33.0215 28.2869 32.9612C28.2507 32.8889 28.2748 32.8407 28.3471 32.8407C28.4194 32.8407 28.4435 32.7805 28.4074 32.7202C28.3712 32.6479 28.3953 32.5997 28.4676 32.5997C28.5399 32.5997 28.564 32.5395 28.5279 32.4792C28.4917 32.4069 28.5158 32.3587 28.5881 32.3587C28.6604 32.3587 28.6845 32.2985 28.6484 32.2382C28.6122 32.1659 28.6363 32.1177 28.7086 32.1177C28.7809 32.1177 28.805 32.0575 28.7689 31.9972C28.7327 31.9249 28.7568 31.8767 28.8291 31.8767C28.9014 31.8767 28.9255 31.8165 28.8894 31.7562C28.8532 31.684 28.8773 31.6358 28.9496 31.6358C29.0219 31.6358 29.046 31.5755 29.0099 31.5153C28.9737 31.443 28.9978 31.3948 29.0701 31.3948C29.1424 31.3948 29.1665 31.3345 29.1304 31.2743C29.0942 31.202 29.1183 31.1538 29.1786 31.1538C29.2509 31.1538 29.528 30.72 29.7931 30.1777C30.0702 29.6476 30.2269 29.2379 30.1425 29.2981C30.0702 29.3463 30.1546 29.0933 30.3474 28.7438L30.6968 28.1052L30.7812 28.5751C31.0101 29.768 32.3717 45.2037 32.2633 45.3724C32.2392 45.4086 32.5886 45.4086 33.0224 45.3724C33.4683 45.3242 34.1792 45.3242 34.613 45.3604L35.3962 45.4327L35.1914 43.8059C34.7214 40.2392 33.0104 24.3818 32.9019 22.5985L32.8658 22.0562L32.3958 22.0683C32.0825 22.0803 31.8898 22.1526 31.8054 22.2972C31.7211 22.4539 31.7331 22.49 31.8295 22.4177C31.9138 22.3695 31.8657 22.5503 31.7331 22.8274C31.5885 23.1046 31.4198 23.3215 31.3475 23.3215C31.2752 23.3215 31.2632 23.3697 31.2993 23.442C31.3355 23.5022 31.3114 23.5625 31.2391 23.5625C31.1668 23.5625 31.1427 23.6107 31.1788 23.683C31.215 23.7432 31.1909 23.8034 31.1186 23.8034C31.0463 23.8034 31.0222 23.8516 31.0583 23.9239C31.0945 23.9842 31.0704 24.0444 30.9981 24.0444C30.9258 24.0444 30.9017 24.0926 30.9378 24.1649C30.974 24.2252 30.9499 24.2854 30.8776 24.2854C30.8053 24.2854 30.7812 24.3336 30.8173 24.4059C30.8535 24.4662 30.8294 24.5264 30.7571 24.5264C30.6848 24.5264 30.6607 24.5746 30.6968 24.6469C30.733 24.7072 30.7089 24.7674 30.6486 24.7674C30.5763 24.7674 30.2992 25.2012 30.0341 25.7435C29.757 26.2736 29.6003 26.6833 29.6606 26.6351C29.757 26.5869 29.7449 26.6592 29.6606 26.8641C29.5762 27.0328 29.4678 27.1412 29.4196 27.1051C29.3593 27.0689 29.3473 27.1412 29.3955 27.2497C29.4437 27.3943 29.4316 27.4304 29.3352 27.3702C29.2388 27.3099 29.2147 27.3581 29.275 27.4907C29.3232 27.6353 29.3111 27.6714 29.2147 27.6112C29.1183 27.5509 29.0942 27.5991 29.1545 27.7316C29.2027 27.8762 29.1906 27.9124 29.0942 27.8521C28.9978 27.7919 28.9737 27.8401 29.034 27.9726C29.0822 28.1172 29.0701 28.1534 28.9737 28.0931C28.8773 28.0329 28.8532 28.0811 28.9135 28.2136C28.9617 28.3582 28.9496 28.3944 28.8532 28.3341C28.7568 28.2739 28.7327 28.3221 28.793 28.4546C28.8412 28.5992 28.8291 28.6354 28.7327 28.5751C28.6363 28.5149 28.6122 28.5631 28.6725 28.6956C28.7207 28.8402 28.7086 28.8764 28.6122 28.8161C28.5158 28.7679 28.4917 28.792 28.5399 28.9125C28.5761 29.0089 28.5038 29.1897 28.3712 29.3222C28.2387 29.4548 28.1543 29.5994 28.1905 29.6355C28.2387 29.6717 28.2025 29.7078 28.1182 29.7078C28.0338 29.7078 28.0097 29.756 28.0459 29.8283C28.082 29.8885 28.0579 29.9488 27.9857 29.9488C27.9134 29.9488 27.8893 29.997 27.9254 30.0693C27.9616 30.1295 27.9375 30.1898 27.8652 30.1898C27.7929 30.1898 27.7688 30.238 27.8049 30.3103C27.8411 30.3705 27.817 30.4308 27.7447 30.4308C27.6724 30.4308 27.6483 30.479 27.6844 30.5513C27.7206 30.6115 27.6965 30.6718 27.6242 30.6718C27.5519 30.6718 27.5278 30.72 27.5639 30.7923C27.6001 30.8525 27.576 30.9128 27.5037 30.9128C27.4314 30.9128 27.4073 30.961 27.4434 31.0333C27.4796 31.0935 27.4555 31.1538 27.3832 31.1538C27.3109 31.1538 27.2868 31.202 27.3229 31.2743C27.3591 31.3345 27.335 31.3948 27.2627 31.3948C27.1904 31.3948 27.1663 31.443 27.2024 31.5153C27.2386 31.5755 27.2145 31.6358 27.1422 31.6358C27.0699 31.6358 27.0458 31.684 27.0819 31.7562C27.1181 31.8165 27.094 31.8767 27.0217 31.8767C26.9494 31.8767 26.9253 31.9249 26.9614 31.9972C26.9976 32.0575 26.9735 32.1177 26.9012 32.1177C26.8289 32.1177 26.8048 32.1659 26.8409 32.2382C26.8771 32.2985 26.853 32.3587 26.7807 32.3587C26.7084 32.3587 26.6843 32.4069 26.7204 32.4792C26.7566 32.5395 26.7325 32.5997 26.6602 32.5997C26.5879 32.5997 26.5638 32.6479 26.5999 32.7202C26.6361 32.7805 26.612 32.8407 26.5397 32.8407C26.4674 32.8407 26.4433 32.8889 26.4794 32.9612C26.5156 33.0215 26.4915 33.0817 26.4192 33.0817C26.3469 33.0817 26.3228 33.1299 26.3589 33.2022C26.3951 33.2625 26.371 33.3227 26.2987 33.3227C26.2264 33.3227 26.2023 33.3709 26.2384 33.4432C26.2746 33.5035 26.2505 33.5637 26.1782 33.5637C26.1059 33.5637 26.0818 33.6119 26.1179 33.6842C26.1541 33.7444 26.13 33.8047 26.0577 33.8047C25.9854 33.8047 25.9613 33.8529 25.9975 33.9252C26.0336 33.9854 26.0095 34.0457 25.9372 34.0457C25.8649 34.0457 25.8408 34.0939 25.877 34.1662C25.9131 34.2264 25.889 34.2867 25.8167 34.2867C25.7444 34.2867 25.7203 34.3349 25.7565 34.4072C25.7926 34.4674 25.7685 34.5277 25.6962 34.5277C25.6239 34.5277 25.5998 34.5759 25.636 34.6482C25.6721 34.7084 25.648 34.7687 25.5757 34.7687C25.5034 34.7687 25.4793 34.8169 25.5155 34.8892C25.5516 34.9494 25.5275 35.0097 25.4552 35.0097C25.3829 35.0097 25.3588 35.0579 25.395 35.1302C25.4311 35.1904 25.407 35.2507 25.3347 35.2507C25.2624 35.2507 25.2383 35.2989 25.2745 35.3712C25.3106 35.4314 25.2865 35.4917 25.2142 35.4917C25.1419 35.4917 25.1178 35.5399 25.154 35.6122C25.1901 35.6724 25.166 35.7326 25.0937 35.7326C25.0214 35.7326 24.9973 35.7808 25.0335 35.8531C25.0696 35.9134 25.0455 35.9736 24.9853 35.9736C24.913 35.9736 24.5274 36.6243 24.1297 37.4317C23.7201 38.2269 23.455 38.8535 23.5273 38.8053C23.5996 38.7692 23.5273 38.974 23.3827 39.2873C23.1417 39.7813 23.0453 39.8295 23.0212 39.5042C23.0091 39.444 22.9248 39.3355 22.8163 39.2512C22.7079 39.1548 22.6958 39.1307 22.7802 39.1668C22.8886 39.2271 22.8525 39.0704 22.6958 38.7571C22.5512 38.48 22.3705 38.2631 22.2982 38.2631C22.2259 38.2631 22.2018 38.2269 22.2379 38.1787C22.2861 38.1426 22.2259 38.0341 22.1054 37.9377C21.997 37.8413 21.9729 37.8052 22.0572 37.8413C22.1415 37.8895 22.0452 37.6004 21.8403 37.1907C21.6475 36.781 21.4186 36.4556 21.3463 36.4556C21.286 36.4556 21.2619 36.3954 21.2981 36.3351C21.3342 36.2628 21.3101 36.2146 21.2499 36.2146C21.1776 36.2146 21.1294 36.1785 21.1294 36.1182C21.1655 35.8772 21.1053 35.7326 20.9727 35.8049C20.8884 35.8531 20.8763 35.8411 20.9245 35.7567C21.0209 35.6001 19.9606 33.4432 19.7798 33.4432C19.7196 33.4432 19.6955 33.383 19.7316 33.3227C19.7678 33.2625 19.7437 33.2022 19.6714 33.2022C19.5991 33.2022 19.575 33.142 19.6111 33.0817C19.6473 33.0094 19.6232 32.9612 19.5509 32.9612C19.4786 32.9612 19.4545 32.901 19.4906 32.8407C19.5268 32.7684 19.5027 32.7202 19.4304 32.7202C19.3581 32.7202 19.334 32.66 19.3701 32.5997C19.4063 32.5274 19.3822 32.4792 19.3099 32.4792C19.2376 32.4792 19.2135 32.419 19.2496 32.3587C19.2858 32.2864 19.2617 32.2382 19.1894 32.2382C19.1171 32.2382 19.093 32.178 19.1291 32.1177C19.1653 32.0454 19.1412 31.9972 19.0689 31.9972C18.9966 31.9972 18.9725 31.937 19.0086 31.8767C19.0448 31.8044 19.0207 31.7562 18.9484 31.7562C18.8761 31.7562 18.852 31.696 18.8881 31.6358C18.9243 31.5635 18.9002 31.5153 18.8279 31.5153C18.7556 31.5153 18.7315 31.455 18.7676 31.3948C18.8038 31.3225 18.7797 31.2743 18.7074 31.2743C18.6351 31.2743 18.611 31.214 18.6471 31.1538C18.6833 31.0935 18.6592 31.0333 18.5869 31.0333C18.5146 31.0333 18.4905 30.973 18.5266 30.9128C18.5628 30.8405 18.5387 30.7923 18.4664 30.7923C18.3941 30.7923 18.3579 30.7441 18.4061 30.6838C18.4905 30.5392 17.4904 28.4908 17.3699 28.5751C17.2614 28.6354 17.1168 28.2739 17.2132 28.1293C17.2494 28.069 17.2132 28.0208 17.1409 28.0208C17.0686 28.0208 17.0445 27.9606 17.0807 27.9003C17.1168 27.828 17.0927 27.7798 17.0204 27.7798C16.9481 27.7798 16.924 27.7196 16.9602 27.6594C16.9963 27.5871 16.9722 27.5389 16.8999 27.5389C16.8276 27.5389 16.8035 27.4786 16.8397 27.4184C16.8758 27.3461 16.8517 27.2979 16.7794 27.2979C16.7071 27.2979 16.683 27.2376 16.7192 27.1774C16.7553 27.1051 16.7312 27.0569 16.6589 27.0569C16.5866 27.0569 16.5505 27.0087 16.5987 26.9484C16.683 26.8038 16.2854 25.9603 16.1649 26.0326C16.0565 26.1049 15.9119 25.7435 16.0083 25.5989C16.0444 25.5386 16.0083 25.4904 15.936 25.4904C15.8637 25.4904 15.8396 25.4302 15.8757 25.3699C15.9119 25.2976 15.8878 25.2494 15.8155 25.2494C15.7432 25.2494 15.7191 25.1892 15.7552 25.1289C15.7914 25.0566 15.7673 25.0084 15.695 25.0084C15.6227 25.0084 15.5865 24.9602 15.6347 24.9C15.7311 24.7313 15.3094 23.9239 15.1768 24.0083C15.1045 24.0565 15.0804 24.0083 15.1286 23.8878C15.1648 23.7673 15.1527 23.683 15.0804 23.683C15.0081 23.683 14.9961 23.6227 15.0322 23.5625C15.0684 23.4902 15.0443 23.442 14.972 23.442C14.8997 23.442 14.8756 23.3817 14.9117 23.3215C14.9479 23.2492 14.9238 23.201 14.8515 23.201C14.7792 23.201 14.7551 23.1528 14.7912 23.0805C14.8274 23.0202 14.7551 22.7672 14.6346 22.5262C14.4297 22.1165 14.3695 22.0803 13.8634 22.0683L13.3212 22.0562L13.2368 23.0805Z" fill="white"></path>
<path d="M37.9268 33.7444V45.4326L38.6497 45.3603C39.0474 45.3242 39.7222 45.3242 40.156 45.3603L40.9392 45.4326L40.903 40.1187L40.8789 34.7927L42.7707 34.8048C44.1926 34.8168 44.8553 34.7686 45.3855 34.612C45.7832 34.5035 46.1446 34.4433 46.1928 34.4794C46.241 34.5035 46.3254 34.4674 46.3615 34.3951C46.4097 34.3349 46.5182 34.2987 46.6146 34.3349C46.711 34.371 46.7833 34.3469 46.7833 34.2746C46.7833 34.2023 46.8676 34.1662 46.964 34.2144C47.0604 34.2505 47.1448 34.2264 47.1448 34.1662C47.1448 34.1059 47.2291 34.0818 47.3255 34.118C47.4219 34.1662 47.5063 34.13 47.5063 34.0457C47.5063 33.9734 47.5545 33.9372 47.6268 33.9854C47.7834 34.0818 49.0366 33.4311 49.7596 32.8648C50.35 32.3948 51.1091 31.4911 50.7476 31.6839C50.6633 31.7321 50.7115 31.6598 50.8802 31.5152C51.0489 31.3706 51.1091 31.2863 51.0248 31.3345C50.9284 31.3827 50.9404 31.2742 51.073 30.985C51.1935 30.7561 51.3381 30.5994 51.3983 30.6356C51.4706 30.6838 51.4947 30.6356 51.4465 30.5151C51.4104 30.3946 51.4224 30.3103 51.4706 30.3103C51.5309 30.3103 51.5791 30.1898 51.5791 30.0331C51.5791 29.8885 51.6393 29.2981 51.7237 28.7076C51.8442 27.8762 51.8442 27.4424 51.7237 26.5989C51.6393 26.0206 51.567 25.4542 51.567 25.3337C51.555 25.2253 51.5068 25.1289 51.4465 25.1289C51.3983 25.1289 51.3863 25.0686 51.4224 25.0084C51.4586 24.9361 51.4465 24.8879 51.3742 24.8879C51.3019 24.8879 51.2778 24.8156 51.314 24.7192C51.3501 24.6348 51.2296 24.4662 51.0609 24.3577C50.8922 24.2493 50.7838 24.1047 50.8199 24.0444C50.9043 23.8998 50.4223 23.4178 50.2777 23.5022C50.2174 23.5383 50.0849 23.4419 49.9764 23.2853C49.7957 22.9961 49.2173 22.6587 49.1089 22.7671C49.0727 22.8033 48.904 22.7671 48.7233 22.6948C47.6388 22.2852 46.8074 22.2008 42.3851 22.1285L37.9268 22.0562V33.7444ZM45.9037 23.6347C46.1446 23.6829 46.2651 23.7673 46.2169 23.8396C46.1687 23.9119 46.2169 23.936 46.3374 23.8878C46.4579 23.8516 46.5423 23.8637 46.5423 23.936C46.5423 24.0083 46.5905 24.0203 46.6628 23.9842C46.7953 23.8998 48.2413 25.3217 48.1328 25.4181C48.0967 25.4542 48.1328 25.4904 48.2172 25.4904C48.3015 25.4904 48.3256 25.5386 48.2895 25.6109C48.2533 25.6711 48.2774 25.7314 48.3497 25.7314C48.422 25.7314 48.4461 25.7916 48.3979 25.8639C48.3618 25.9362 48.3859 26.0326 48.4582 26.0808C48.5425 26.129 48.663 26.5387 48.7233 26.9845C48.8679 27.9003 48.7112 29.5632 48.4582 29.7078C48.3859 29.756 48.3618 29.8644 48.3979 29.9367C48.4461 30.009 48.4341 30.0693 48.3618 30.0693C48.2895 30.0693 48.2774 30.1536 48.3136 30.2741C48.3618 30.3946 48.3377 30.4428 48.2654 30.3946C48.1208 30.2982 47.9521 30.6356 48.0485 30.7922C48.0846 30.8525 48.0485 30.9368 47.9762 30.985C47.8798 31.0453 47.8678 31.0212 47.928 30.9127C48.0003 30.8043 47.9762 30.7802 47.8798 30.8404C47.7955 30.9007 47.7593 31.0091 47.7955 31.0935C47.8316 31.1899 47.7593 31.3224 47.6509 31.4188C47.4701 31.5514 47.4581 31.5514 47.5665 31.3947C47.6388 31.2863 47.5906 31.3104 47.4701 31.455C47.3496 31.5875 47.1207 31.8044 46.9761 31.937C46.8315 32.0695 46.7953 32.1177 46.9038 32.0575C47.0604 31.949 47.0604 31.9611 46.9158 32.1418C46.8315 32.2623 46.711 32.3226 46.6507 32.2864C46.5061 32.2021 46.0362 32.5394 46.1446 32.6479C46.1928 32.6961 46.1326 32.6961 46.0121 32.6479C45.8555 32.5876 45.8073 32.5997 45.8675 32.6961C45.9278 32.7925 45.8916 32.8166 45.7711 32.7684C45.6627 32.7322 45.5783 32.7563 45.5783 32.8286C45.5783 32.9009 45.5422 32.9491 45.494 32.9371C45.4337 32.925 45.2409 32.9973 45.0361 33.0817C44.8071 33.1901 43.9878 33.2624 42.7828 33.2986L40.8789 33.3468V28.4666V23.5745L41.1561 23.5142C41.4814 23.4419 45.3614 23.5383 45.9037 23.6347Z" fill="white"></path>
<path d="M69.4966 33.6841V45.312H75.3527H81.2089L81.0884 44.9626C81.0281 44.7818 81.004 44.2878 81.0402 43.8781L81.1125 43.119L80.4859 43.2154C79.5099 43.372 76.0637 43.5648 74.1598 43.5648H72.4488L72.4729 32.8044L72.509 22.0561L71.7619 22.1164C71.3402 22.1525 70.6654 22.1525 70.2557 22.1164L69.4966 22.0561V33.6841Z" fill="white"></path>
</g>
</g>
</g>
<defs>
<clipPath id="clip0_1046_5811">
<rect width="104.048" height="67.2631" fill="white"></rect>
</clipPath>
<clipPath id="clip1_1046_5811">
<rect width="102.422" height="25.0634" fill="white" transform="translate(1.47607 21.6344)"></rect>
</clipPath>
</defs>
</svg>