<svg width="377" height="165" viewBox="0 0 377 165" fill="none" xmlns="http://www.w3.org/2000/svg">
<g clip-path="url(#clip0_1049_7494)">
<path d="M244.741 12.4639C250.02 11.9317 255.263 11.9414 259.112 15.9992C264.165 21.3273 263.272 29.254 263.179 35.9801C280.024 34.7744 278.728 63.5292 273.624 73.362C271.218 77.9964 268.004 79.6528 263.228 81.0672C264.268 91.4481 257.454 102.7 248.036 107.001C244.152 108.774 238.85 110.1 234.662 111.367L212.367 118.181L124.089 145.143C121.693 145.811 117.517 147.596 115.666 147.934C114.929 147.025 113.884 145.871 113.84 144.654C113.663 139.752 113.795 134.814 113.764 129.907C113.749 127.648 113.675 125.235 113.998 123.015C111.211 126.95 109.249 127.987 104.559 128.962C99.1507 130.086 100.135 124.247 100.131 121.017L100.118 109.317L100.103 90.7494C100.092 76.4711 99.4332 73.8012 113.225 69.9844C113.714 69.849 114.866 64.4463 115.315 63.2312C116.269 60.7114 117.572 58.3386 119.185 56.1827C124.43 49.1687 128.988 47.6795 136.91 45.2555L148.938 41.5789L189.55 29.1626L227.523 17.5445L237.921 14.353C239.803 13.7733 242.91 12.7304 244.741 12.4639Z" fill="#686868"></path>
<path d="M138.12 65.9512L138.157 92.8857L138.201 104.661C138.211 107.256 138.477 110.947 137.669 113.349C135.753 116.714 133.504 116.711 130.003 117.89L129.908 92.2446C129.9 89.0302 130.129 83.1275 129.773 80.2536C129.269 82.8766 128.993 85.8192 128.568 88.5044L125.461 107.766C124.968 110.848 124.395 116.042 123.249 118.924C122.665 120.392 118.852 121.265 117.267 121.74L113.154 96.4166C112.766 94.0326 112.042 87.8623 111.434 85.9979C111.261 88.1263 111.479 91.5942 111.48 93.928L111.481 111.705C111.493 114.656 111.942 119.127 110.816 121.778C109.664 124.49 105.874 125.171 103.291 126.009C103.063 116.528 103.258 106.301 103.245 96.7599L103.223 87.2263C103.215 83.6145 102.666 79.8572 105.24 77.0165C107.73 74.8615 111.319 74.1055 114.46 73.1714L115.692 72.8169C116.856 80.053 118.286 87.2692 119.478 94.5029C119.792 96.4068 120.047 98.4492 120.586 100.294L123.139 84.7143C123.698 81.4329 124.168 78.2573 124.904 75.0037C126.454 68.1465 132.439 67.8082 138.12 65.9512Z" fill="white"></path>
<path d="M136.498 67.3018L136.88 67.362C137.14 67.8267 137.182 80.1685 137.186 81.7517L137.21 100.613C137.211 102.629 137.78 113.777 135.886 114.24C135.738 113.609 135.908 113.318 135.966 112.696C136.21 110.065 136.099 107.039 136.091 104.363L136.013 68.4485C132.195 69.6998 130.46 69.987 126.989 72.0118C129.715 68.3226 133.005 68.9574 136.367 67.3655L136.498 67.3018Z" fill="white"></path>
<path d="M114.12 73.9725C114.745 74.0739 114.613 73.9527 114.923 74.3372C116.526 82.8672 117.88 91.4856 119.445 100.025C119.564 100.674 120.052 101.473 119.966 102.015C119.619 102.355 119.792 102.255 119.268 102.356C118.96 102.233 118.72 102.187 118.596 101.799C118.056 100.111 117.731 97.7513 117.43 96.0217C116.579 91.0407 115.701 86.0643 114.797 81.0927C114.613 80.0608 114.2 75.9384 113.631 75.47C112.765 75.2639 106.56 77.575 105.555 78.3304C105.482 78.2916 105.409 78.2528 105.336 78.2141L105.499 77.758C108.008 75.3511 113.045 75.0629 114.12 73.9725Z" fill="white"></path>
<path d="M110.342 84.8063C110.688 85.2092 110.483 88.8532 110.488 89.6502L110.489 103.27L110.492 113.574C110.511 116.447 111.085 120.494 109.089 122.696C109.009 122.464 109.487 119.084 109.491 118.239C109.538 110.075 109.327 101.919 109.308 93.7598C109.303 91.6062 109.032 86.3653 110.342 84.8063Z" fill="white"></path>
<path d="M128.761 79.0561C129.254 79.6091 128.766 80.6082 128.64 81.3622L127.452 88.8395L124.454 107.528C123.958 110.629 123.5 113.784 122.943 116.874C122.756 117.908 122.527 118.393 121.907 119.209C121.803 119.107 121.598 118.93 121.639 118.768C122.112 116.867 122.493 114.272 122.793 112.387L126.078 91.8264C126.501 89.1925 127.435 80.9205 128.761 79.0561Z" fill="white"></path>
<path d="M255.379 43.8664C256.104 42.9186 256.751 42.1279 257.742 41.4712C266.575 35.6126 272.661 42.2133 273.26 51.0204C273.713 57.7018 273.969 66.0834 270.624 71.897C267.994 76.6041 261.476 79.9605 256.325 76.9716C253.807 75.5114 252.142 71.4545 251.662 68.5983C250.316 60.594 250.766 50.8238 255.379 43.8664Z" fill="white"></path>
<path d="M260.439 70.4423C257.775 65.5662 258.552 55.6195 259.901 50.3114C260.26 48.9012 261.299 46.1815 263.137 46.645C263.756 46.8014 264.321 47.6111 264.563 48.2002C266.315 53.7325 266.333 63.1787 264.546 68.7163C264.264 69.5939 263.275 71.1957 262.406 71.4451C262.269 71.4842 261.998 71.6025 261.851 71.6538C261.081 71.204 261.026 71.1453 260.439 70.4423Z" fill="#686868"></path>
<path d="M256.63 43.9284C257.622 40.269 267.823 38.0134 270.364 44.0691C273.227 50.8904 273.25 61.4236 271.171 68.292C270.874 69.247 270.518 70.1826 270.106 71.0935C269.46 72.2674 268.898 73.0506 267.952 73.9859C268.713 72.0142 270.15 69.7481 270.595 67.4546C271.854 60.9704 272.369 50.8244 268.984 44.9188C268.068 43.3204 266.309 41.9797 264.553 41.6263C261.381 40.987 259.133 42.3534 256.63 43.9284Z" fill="white"></path>
<path d="M260.864 73.8575C256.294 72.1349 256.937 64.7476 256.679 60.7862C256.56 58.9433 257.59 47.7393 259.723 47.8078C259.763 48.1689 258.807 50.6461 258.629 51.4668C257.706 55.6926 256.943 66.6662 259.361 70.2919C260.154 71.778 261.081 72.8001 262.913 72.1883L263.241 72.0334L263.366 72.1793C263.115 73.1166 261.668 73.5962 260.864 73.8575Z" fill="white"></path>
<path d="M204.43 66.025C204.898 63.3113 204.071 60.4239 206.237 58.1687C209.237 55.0454 216.733 51.3912 220.508 54.9471C222.692 57.0045 222.954 59.9432 223.027 62.7581C222.991 70.444 223.139 78.5782 222.84 86.2303C222.005 90.7294 219.645 90.698 215.716 91.8278C215.762 90.3196 215.805 89.2045 215.999 87.716C215.571 88.3363 215.159 88.9838 214.735 89.6187C211.863 94.1251 205.305 96.3328 203.035 90.102C199.939 81.6094 203.297 72.429 211.814 68.8971C213.108 68.3606 214.363 67.8124 215.634 67.2918C215.646 65.9615 215.622 62.1687 214.719 61.3734C212.038 59.0146 206.206 64.4634 204.43 66.025Z" fill="white"></path>
<path d="M214.947 72.2867L215.207 72.2671L215.371 72.4484C215.432 76.4105 215.64 81.5141 213.608 85.0409C213.012 86.0743 212.013 86.3968 211.015 85.6252C210.852 85.4242 210.705 85.2114 210.573 84.989C209.537 83.2553 209.603 80.4807 210.115 78.6C210.964 75.4865 212.298 73.8883 214.947 72.2867Z" fill="#686868"></path>
<path d="M216.044 54.3655C222.889 53.865 222.099 62.7223 222.102 67.2342C222.131 70.6653 222.102 74.0967 222.014 77.5267C221.983 79.0211 222.408 88.8591 220.504 89.043C220.401 88.7787 220.769 86.9728 220.795 86.3621C220.915 83.6099 220.9 80.868 220.903 78.1148C220.898 74.1924 220.985 70.2749 220.967 66.3526C220.953 63.2534 221.196 58.2663 218.175 56.405C214.531 54.1597 209.312 57.4786 206.26 59.5342C208.041 56.5824 212.771 54.8473 216.044 54.3655Z" fill="white"></path>
<path d="M210.247 74.9199C210.287 74.9701 210.411 75.249 210.409 75.2529C210.113 75.9663 209.641 77.1223 209.429 77.828C209.114 78.8755 208.885 79.937 208.844 80.9769C208.779 82.583 208.927 84.7249 210.087 85.9491C211.214 87.1394 212.175 86.6696 213.375 86.7298C213.29 87.1437 212.866 87.4127 212.519 87.712C206.746 90.9221 206.656 78.947 210.247 74.9199Z" fill="white"></path>
<path d="M214.984 68.4874L215.385 68.4262L215.575 68.5973C215.135 69.8387 211.333 70.7299 209.866 71.7086C208.445 72.6561 207.84 73.0258 206.466 74.1839L206.284 74.292L206.165 74.1232C207.009 71.808 212.803 69.3922 214.984 68.4874Z" fill="white"></path>
<path d="M234.069 51.9884C235.027 50.4093 235.806 49.079 237.233 47.8542C241.842 43.8997 247.635 44.4702 247.756 51.4944C247.838 56.2725 247.844 61.1517 247.853 65.9499C247.86 70.0772 248.035 74.2387 247.866 78.3639C247.797 79.2912 247.485 80.1573 247.052 80.9726C245.908 83.1379 242.593 83.7324 240.408 84.3964L240.342 67.1879C240.33 63.849 240.362 60.497 240.205 57.1616C240.162 56.2592 239.803 54.2894 238.735 53.9993C236.628 53.4274 235.208 56.2063 234.643 57.829C233.518 61.0126 234.187 76.9717 234.267 81.4216C234.159 86.8194 231.083 87.2615 226.751 88.5314L226.669 65.997C226.655 62.2463 226.579 58.4957 226.698 54.747C226.863 49.6456 230.265 49.1971 234.286 48.0439C234.231 49.3597 234.158 50.6746 234.069 51.9884Z" fill="white"></path>
<path d="M242.106 46.3863C243.264 46.1839 244.532 46.3449 245.375 47.1948C245.734 47.5571 246.242 48.2488 246.364 48.7364C246.624 49.7872 246.801 50.9653 246.807 52.0431C246.833 57.3264 246.805 62.6088 246.812 67.8922C246.802 71.2948 247.054 74.719 246.839 78.1165C246.79 78.8814 246.54 81.1665 245.521 81.1544C245.351 80.7371 245.809 79.8969 245.834 79.1468C245.877 77.8995 245.861 76.6588 245.85 75.4146V59.8467C245.827 55.1197 247.085 44.6115 239 48.3614C238.32 48.6772 237.459 49.7338 236.718 49.8452L236.604 49.6262C236.815 48.2814 240.864 46.6255 242.106 46.3863Z" fill="white"></path>
<path d="M232.283 80.6246C232.041 75.059 232.013 69.4621 231.96 63.8918C231.933 61.2176 232.339 58.2567 233.833 55.9965C233.999 55.7485 234.106 55.6964 234.367 55.6594C234.312 56.4911 233.559 58.1847 233.337 59.1291C233.05 60.3446 233.041 61.5031 233.01 62.6321C232.923 65.7751 233.734 81.1276 233.096 83.2152C232.931 83.8801 232.816 84.1862 232.557 84.8233L232.569 84.7435L232.102 85.0937L232.155 85.2713C231.921 84.8196 232.266 81.5993 232.283 80.6246Z" fill="white"></path>
<path d="M232.283 80.6244C232.92 81.439 231.978 82.9693 232.768 83.3002L233.095 83.2149C232.93 83.8798 232.816 84.1859 232.557 84.8231L232.568 84.7433L232.102 85.0935L232.155 85.2711C231.921 84.8194 232.265 81.5991 232.283 80.6244Z" fill="white"></path>
<path d="M232.461 49.4688C232.704 49.4161 232.708 49.4497 232.973 49.5018C233.251 49.9923 233.22 52.8816 233.085 53.4417L232.783 53.4998C231.792 52.8106 232.302 51.3376 231.492 50.7662C230.566 51.1178 229.563 51.6056 228.608 51.6282L228.522 51.4655C229.527 50.3785 231.118 49.9283 232.461 49.4688Z" fill="white"></path>
<path d="M160.5 74.4106C162.191 71.3429 164.162 68.9118 167.634 67.8805C171.397 66.763 173.169 68.9045 174.119 72.111C174.547 76.4718 174.359 83.8912 174.38 88.4319L174.411 95.699C174.418 97.7487 174.534 99.8635 174.139 101.865C172.561 105.626 170.402 105.513 166.86 106.66L166.769 88.5219C166.761 86.3711 167.082 78.7902 166.131 77.1757C164.255 73.9903 161.536 78.4273 160.931 80.7022C159.839 84.367 160.917 92.3646 160.617 96.4182C160.539 97.477 160.586 102.52 160.749 103.539C160.375 109.18 157.99 109.399 153.205 110.791C153.56 99.5118 152.9 88.0321 153.226 76.7368C153.367 71.8594 156.922 71.4006 160.755 70.2708C160.733 71.7006 160.622 72.9844 160.5 74.4106Z" fill="white"></path>
<path d="M168.887 68.5303C169.357 68.5087 169.759 68.5202 170.22 68.6216C171.147 68.8302 171.947 69.4125 172.433 70.2314C174.086 72.9693 172.983 91.4739 173.358 95.7516C173.489 97.2449 173.521 102.719 172.105 103.523L171.88 103.414C171.945 102.828 172.18 102.348 172.229 101.749C172.338 100.432 172.292 99.0041 172.276 97.6777L172.213 85.2538C172.21 83.9344 172.2 82.5605 172.21 81.0328C172.24 76.0208 173.244 66.8042 165.058 70.8768C164.461 71.174 163.92 71.8649 163.214 72.0866C162.831 70.5037 167.68 68.8106 168.887 68.5303Z" fill="white"></path>
<path d="M160.498 78.0123L160.776 78.1256C160.891 78.6679 159.942 80.3498 159.814 81.0516C159.328 83.7315 159.527 86.5631 159.569 89.2831C159.591 92.4299 159.631 95.5768 159.687 98.7233C159.723 101.548 160.135 105.34 158.568 107.738C158.492 107.716 158.201 107.576 158.219 107.496C158.729 105.94 158.602 104.346 158.728 102.885C159.195 97.4503 156.685 82.2188 160.498 78.0123Z" fill="white"></path>
<path d="M158.669 71.7321C159.096 71.6877 159.169 71.687 159.59 71.7656C159.765 72.0289 159.65 75.1999 159.51 75.5724L159.158 75.5723C158.395 74.869 158.89 73.7999 158.318 73.0566L157.932 73.0579C157.192 73.2208 155.301 74.1451 154.886 73.9635L154.945 73.6621C155.58 72.7686 157.592 72.1297 158.669 71.7321Z" fill="white"></path>
<path d="M198.823 58.7787L199.015 58.7792C199.067 58.8503 199.149 58.9496 199.149 59.0319C199.183 70.1425 199.245 81.264 199.224 92.3768C199.215 97.4733 195.776 97.9179 191.802 99.1045C191.79 97.6277 191.799 96.5657 191.981 95.107C189.914 98.323 187.165 101.459 182.966 101.521C181.808 101.53 180.696 101.073 179.877 100.251C179.195 99.5728 178.718 98.714 178.504 97.7745C177.975 95.5465 178.097 91.115 178.084 88.7002L178.016 75.2266C177.991 72.9639 177.866 70.6337 178.129 68.389C178.602 64.3491 182.418 63.6997 185.613 62.8007C185.239 71.0862 185.865 79.8237 185.622 88.1485C185.593 89.1257 185.328 93.1177 186.648 93.268C192.419 93.9256 191.85 86.1234 191.837 82.5213L191.781 70.688C191.771 68.5932 191.688 66.4829 191.84 64.3947C192.137 60.2973 195.639 59.6796 198.823 58.7787Z" fill="white"></path>
<path d="M184.223 64.0793L184.372 64.1264C185.124 65.1626 184.088 89.5476 184.993 92.6744C185.914 95.8588 188.465 93.5185 190.275 93.362L190.32 93.5356C189.458 94.7169 187.479 95.4912 186.065 95.6932C185.84 95.6423 185.612 95.589 185.396 95.5082C184.651 95.2304 184.148 94.653 183.895 93.9086C183.043 91.3893 183.446 74.4715 183.473 70.6324C183.482 69.2679 183.817 66.7766 183.295 65.5706C182.563 65.3892 180.218 66.5033 179.26 66.8169C180.947 64.7979 181.843 64.9391 184.223 64.0793Z" fill="white"></path>
<path d="M197.995 59.924L198.162 60.1118C198.459 61.594 198.315 93.4361 198.068 94.2184C197.935 94.6344 197.422 95.7959 197.054 95.999C196.815 95.6304 197.252 93.113 197.276 92.156C197.082 85.1956 197.322 78.0163 197.22 71.0386C197.179 68.1918 197.37 63.9538 197.063 61.202C195.909 61.4872 194.453 62.2679 193.505 62.222L193.429 61.9842L193.364 62.0693L193.423 62.1944L193.493 61.912C194.898 60.8387 196.306 60.3723 197.995 59.924Z" fill="white"></path>
<path d="M149.266 73.8162L149.365 73.9735C149.493 75.7549 149.415 78.341 149.414 80.1635L149.426 91.3095L149.447 101.915C149.451 103.889 149.5 105.832 149.39 107.803C149.117 112.656 145.86 113.143 142.013 114.193C141.918 113.709 141.95 111.55 141.947 110.874L141.921 103.444L141.868 88.8145C141.859 86.197 141.848 83.5231 141.881 80.9118C141.95 75.5208 144.877 75.1057 149.266 73.8162Z" fill="white"></path>
<path d="M147.699 75.1023L148.256 75.1349L148.443 75.3939C148.546 83.8488 148.405 92.3317 148.454 100.791C148.466 102.859 148.955 109.898 147.173 111.091C146.879 110.606 147.437 108.719 147.438 107.733L147.437 107.563L147.257 87.4124C147.256 84.144 147.259 80.8576 147.313 77.5881C147.321 77.1119 147.255 76.9037 146.971 76.5806C145.847 76.4338 144.493 77.4827 143.695 77.5264L143.626 77.2775C144.066 76.1754 146.542 75.6101 147.699 75.1023Z" fill="white"></path>
<path d="M141.861 73.7658C141.681 65.9543 141.853 64.9041 149.495 62.8677C149.076 65.6184 149.764 66.6407 148.834 69.8125C147.094 72.701 145.053 72.8329 141.861 73.7658Z" fill="white"></path>
<path d="M147.368 64.3442C147.974 64.2254 147.834 64.153 148.257 64.3879C148.923 65.7542 148.23 69.0672 147.318 70.2652L147.095 70.3062C146.881 69.4869 147.574 67.3729 147.231 65.6521L147.6 65.6191C147.922 65.3145 147.823 65.4593 147.941 65.0104C147.736 64.4755 147.882 64.6564 147.368 64.3442Z" fill="white"></path>
<path d="M147.231 65.652C146.001 65.2999 144.903 66.5496 143.771 66.5395L143.637 66.3693C144.289 65.2097 146.162 64.7417 147.368 64.3441C147.883 64.6562 147.736 64.4754 147.941 65.0103C147.823 65.4592 147.923 65.3143 147.6 65.619L147.231 65.652Z" fill="white"></path>
</g>
<defs>
<clipPath id="clip0_1049_7494">
<rect width="177.782" height="140.599" fill="white" transform="translate(99.9297 12.7816)"></rect>
</clipPath>
</defs>
</svg>