<svg width="486" height="153" viewBox="0 0 486 153" fill="none" xmlns="http://www.w3.org/2000/svg">
<rect x="0.5" y="0.5" width="485" height="152" rx="34.5" stroke="#555555"></rect>
<path d="M226.913 49.2401C233.884 49.0121 240.954 49.1927 246.235 54.546C248.372 56.7126 249.974 60.0255 250.497 63.0162C251.315 67.6989 251.009 72.8209 251.008 77.5988L251.004 97.5009C245.245 100.604 237.52 101.971 231.046 101.824C227.87 101.752 226.049 101.909 222.853 100.999C218.114 99.6516 214.941 97.8766 212.448 93.5853C210.819 90.5353 210.48 86.2586 211.265 82.9403C214.292 70.1566 231.3 70.1079 241.22 72.4269C241.179 69.6834 241.269 65.6691 240.219 63.1651C236.752 54.9048 222.302 57.3958 215.94 60.1849C215.316 57.6684 214.436 54.4212 213.948 51.9758C217.082 50.5195 223.431 49.3641 226.913 49.2401ZM230.927 94.269C232.972 94.2602 235.344 94.1163 237.256 93.6404C238.324 93.3746 240.654 92.8137 240.87 91.7484C240.959 91.3073 240.923 89.3838 240.92 88.7956L240.901 82.6755C240.899 81.6844 240.848 79.9773 240.977 79.0629C237.851 78.4826 234.367 77.9428 231.167 78.071C228.171 78.2457 224.884 78.5246 222.794 81.0002C220.325 83.9254 220.257 89.3378 223.313 91.9216C225.611 93.8651 228.063 94.0788 230.927 94.269Z" fill="#FEFEFE"></path>
<path d="M197.585 49.0324C200.289 48.9565 204.079 48.9932 206.713 49.6393C206.629 51.5635 205.771 56.2282 205.407 58.2654C205.249 58.2086 205.089 58.1573 204.927 58.1119C200.522 56.8754 192.849 57.8661 188.903 60.1149C188.81 61.6024 188.883 63.9935 188.883 65.5494L188.883 75.9479C188.884 83.9748 188.713 92.6691 188.914 100.633L188.779 100.767L188.431 100.702C185.577 100.672 181.38 100.6 178.613 100.777C178.801 95.8921 178.379 54.4184 178.8 53.8964C179.405 53.1468 180.851 52.6818 181.727 52.3413C186.894 50.3328 192.071 49.3797 197.585 49.0324Z" fill="#FEFEFE"></path>
<path d="M328.861 120.428C332.214 120.115 335.192 122.569 335.536 125.929C335.879 129.288 333.459 132.298 330.112 132.673C326.723 133.054 323.673 130.588 323.325 127.184C322.977 123.781 325.463 120.746 328.861 120.428Z" fill="#FEFEFE"></path>
<path d="M273.681 120.437C277.027 120.118 280.008 122.558 280.364 125.91C280.722 129.262 278.323 132.278 274.986 132.676C272.791 132.937 270.626 131.995 269.317 130.21C268.008 128.424 267.757 126.071 268.661 124.049C269.564 122.026 271.481 120.647 273.681 120.437Z" fill="#FEFEFE"></path>
<path d="M277.919 50.3452L296.014 50.3733C298.946 50.4208 303.079 50.5114 305.947 50.3695C319.881 50.314 334.109 50.5447 348 50.3413V54.4886L347.977 54.5941C347.766 55.5875 347.651 57.1501 347.517 58.2094C347.315 59.7662 347.042 61.313 346.7 62.8449C344.537 72.9242 340.646 81.8034 335.483 90.6729C330.695 98.8962 330.964 98.5396 321.869 98.5344L311.1 98.5241L303.128 98.5333C299.65 98.5517 295.913 99.1056 293.685 95.7633C293.553 95.5631 293.436 95.3541 293.332 95.1379C292.952 95.5557 292.204 97.5398 291.91 98.1558C289.127 103.983 285.996 110.658 282.151 115.858C279.136 115.938 275.946 115.859 272.903 115.885C274.738 112.387 276.801 108.859 278.642 105.345C279.458 103.786 280.135 101.91 281.068 100.443C279.51 98.9402 277.105 95.4953 275.91 93.6606C269.038 82.9698 264.319 71.0342 262.017 58.5265C259.782 58.6625 257.452 58.522 255.15 58.6513C255.187 56.007 255.22 53.135 255.132 50.4979C260.039 50.691 266.405 50.5697 271.346 50.5168C271.297 52.6265 271.821 55.7159 272.182 57.8095C274.277 69.736 278.661 81.1415 285.088 91.3944C285.351 89.9065 286.855 86.6441 287.402 84.9769C286.572 83.7622 284.775 79.6443 284.19 78.2596C280.322 69.0982 278.076 60.3065 277.919 50.3452Z" fill="#42A1D4"></path>
<path d="M277.919 50.3452L296.014 50.3733C298.946 50.4208 303.079 50.5114 305.947 50.3695C306.047 51.332 305.563 53.3409 305.409 54.3884C304.769 58.7306 303.611 62.8023 302.516 67.0218C300.913 73.4422 299.002 79.7811 296.788 86.0164C296.462 86.9432 293.245 94.863 293.332 95.1379C292.952 95.5557 292.204 97.5398 291.91 98.1558C289.127 103.983 285.996 110.658 282.151 115.858C279.136 115.938 275.946 115.859 272.903 115.885C274.738 112.387 276.801 108.859 278.642 105.345C279.458 103.786 280.135 101.91 281.068 100.443C279.51 98.9402 277.105 95.4953 275.91 93.6606C269.038 82.9698 264.319 71.0342 262.017 58.5265C259.782 58.6625 257.452 58.522 255.15 58.6514C255.187 56.007 255.22 53.135 255.132 50.4979C260.039 50.691 266.405 50.5697 271.346 50.5168C271.297 52.6265 271.821 55.7159 272.182 57.8095C274.277 69.736 278.661 81.1415 285.088 91.3944C285.351 89.9065 286.855 86.6441 287.402 84.9769C286.572 83.7622 284.775 79.6443 284.19 78.2597C280.322 69.0983 278.076 60.3065 277.919 50.3452Z" fill="#FEFEFE"></path>
<path d="M277.919 50.3452L296.014 50.3733C295.557 52.4988 295.318 55.4425 294.899 57.7479C293.611 64.7255 291.884 71.6145 289.73 78.3738C289.317 79.6954 288.022 83.7403 287.402 84.9769C286.572 83.7622 284.775 79.6443 284.19 78.2597C280.322 69.0983 278.076 60.3065 277.919 50.3452Z" fill="#42A1D4"></path>
<path d="M144.052 38.8055C147.594 38.4548 150.897 38.4499 154.378 38.1626C154.193 42.0481 154.534 46.407 154.317 50.1922C157.105 50.1059 159.938 50.1962 162.728 50.1645C163.901 50.1511 165.755 50.2289 166.854 50.0854C166.826 52.8021 166.775 55.8479 166.852 58.5525C166.003 58.4345 165.144 58.4359 164.288 58.4353C161.406 58.4332 158.524 58.4487 155.642 58.4763C155.193 58.4807 154.75 58.4534 154.305 58.3876C154.409 60.6401 154.349 63.3041 154.349 65.583L154.347 78.1331C154.346 82.0646 153.689 88.6653 156.777 91.5501C159.559 94.1497 164.599 93.3027 167.974 92.526C168.175 95.1067 168.28 98.1598 168.613 100.67C165.158 101.788 163.303 101.8 159.742 101.825C153.019 101.873 147.304 98.9094 145.259 92.1552C143.913 87.7077 144.125 83.2788 144.125 78.651L144.124 68.9861L144.123 62.2328C144.122 61.056 144.067 59.5467 144.144 58.4104C141.763 58.4413 139.381 58.4525 137 58.4441V50.1645C139.36 50.165 141.805 50.1362 144.157 50.1756C144.051 47.616 144.161 44.9731 144.127 42.408C144.115 41.4723 144.181 39.6733 144.052 38.8055Z" fill="#FEFEFE"></path>
</svg>