<svg width="351" height="351" viewBox="0 0 351 351" fill="none" xmlns="http://www.w3.org/2000/svg" xmlns:xlink="http://www.w3.org/1999/xlink">
<g clip-path="url(#clip0_404_13)">
<path d="M70.3508 0H281.025C280.787 5.67147 280.928 12.2278 280.448 17.6785C302.215 19.908 326.567 12.5136 342.122 31.5565C343.975 33.8242 345.545 36.3103 346.795 38.9588C347.835 41.1898 349.625 46.1195 351 47.6878V69.468C349.06 72.47 347.505 88.3 346.538 93.25C341.18 120.706 331.59 147.216 314.872 169.874C313.175 172.173 311.345 174.776 309.515 176.91C308.263 176.696 308.49 176.46 307.87 177.404C306.46 179.546 304.487 181.446 302.672 183.247C302.41 182.909 302.51 183.09 302.365 182.71C302.87 182.518 296.052 188.649 295.992 188.717C296.252 188.85 296.437 188.941 296.705 189.062C296.325 190.056 295.348 190.581 294.42 191.202L295.255 189.787L295.165 189.538C291.23 193.398 286.705 196.794 282.253 200.028C281.103 200.861 278.717 202.135 277.997 202.708C278.062 203.037 278.132 203.365 278.212 203.691L277.75 203.962L277.263 203.536C274.045 205.163 270.708 207.342 267.633 209.253C266.78 209.783 265.03 209.917 264.353 210.7L265.397 211.083C264.452 211.808 258.963 212.36 258.323 213.452L259.87 213.69C259.3 214.117 258.34 214.852 257.515 214.566C256.395 214.177 252.665 215.716 251.837 216.271C252.357 216.475 252.408 216.484 252.96 216.575C251.805 217.87 247.66 217.512 245.886 218.237L246.355 218.775C244.99 220.613 235.36 220.79 234.861 221.389C235.406 221.488 235.832 221.553 236.383 221.613C235.116 222.96 229.821 222.84 227.764 223.529L227.977 223.537C223.247 224.512 219.906 225.275 215.104 225.724C214.428 227.028 214.421 229.621 214.301 231.154C214.161 232.935 216.032 234.746 215.85 236.503L216.082 236.525L216.363 235.583C217.474 238.832 218.216 244.218 219.201 246.612L219.183 246.321C219.416 247.04 219.97 248.94 220.342 249.46L219.885 250.133L220.057 250.428L220.398 250.273L220.51 250.402C220.804 250.742 220.91 250.922 221.323 251.105C221.997 252.367 223.004 256.247 223.463 257.875L227.382 271.753C228.001 273.923 229.246 278.515 230.173 280.448C233.029 281.03 237.223 281.675 239.866 282.425C247.18 284.575 253.505 289.228 257.735 295.573C260.132 299.173 261.79 303.215 262.612 307.462C263.625 312.637 263.335 323.013 263.307 328.693C263.275 335.845 263.478 343.94 263.195 351H87.8792L87.8395 326.237C87.8353 318.417 87.255 310.325 89.964 302.875C93.7222 292.535 102.761 283.6 113.849 281.753C115.822 281.425 119.152 281.185 120.839 280.362C122.578 278.12 128.381 256.035 129.522 252.107L133.702 237.615C134.695 234.17 136.115 230.13 136.376 226.653C133.983 226.441 131.002 225.858 128.572 225.482C112.383 222.976 96.1702 217.677 81.7322 209.872C42.8725 189.096 18.4664 150.219 7.84473 108.335C5.7079 99.9085 3.89798 91.1802 2.72498 82.5772C2.46342 80.659 1.61807 71.8183 0 71.0165V47.3862C1.71342 45.5515 3.52382 40.2667 4.77882 37.8442C6.69732 34.141 8.84615 31.6023 11.7442 28.68C22.6464 17.6877 34.8103 18.142 49.1045 18.1561L70.3213 18.1686C70.55 12.0886 70.2613 6.08157 70.3508 0ZM102.554 181.209C104.029 181.584 104.282 182.376 105.94 182.988L106.219 182.835C106.102 181.655 104.253 177.66 103.35 176.814C86.0285 148.335 79.096 110.43 74.4075 77.6862C73.3103 70.022 73.7197 61.0693 71.864 53.462C60.7525 53.0465 47.4368 53.3985 36.1855 53.465C33.169 60.956 40.4235 95.0273 42.957 103.948C44.8468 110.507 47.1312 116.947 49.7982 123.23C58.2365 143.065 70.4807 160.247 88.1762 172.779C92.3357 175.724 97.853 179.207 102.554 181.209ZM266.755 169.815C298.313 144.031 310.248 107.522 314.88 68.2148C315.378 63.9878 315.882 57.6222 315.242 53.4442C304.107 52.418 290.53 53.9145 279.7 52.9572C277.525 61.948 277.62 71.0578 276.332 80.2253C271.63 113.665 264.692 148.209 247.367 177.643C246.794 178.615 244.541 181.972 244.835 182.859L245.277 183.02C246.227 182.264 245.874 181.656 246.221 181.495C247.081 181.096 250.407 180.424 251.075 180.027C255.692 177.277 262.81 173.251 266.755 169.815Z" fill="#3A65A9"></path>
<path d="M103.35 176.814C104.253 177.66 106.102 181.655 106.218 182.835L105.939 182.988C104.282 182.376 104.028 181.584 102.554 181.209C103.671 181.191 103.67 181.385 104.391 180.774C104.695 179.733 103.779 177.94 103.35 176.814Z" fill="#3A65A9"></path>
<path d="M221.324 251.105C220.91 250.923 220.804 250.743 220.51 250.403L220.399 250.273L220.057 250.428L219.886 250.133L220.343 249.461C219.971 248.941 219.417 247.04 219.183 246.321L219.201 246.612C218.216 244.218 217.475 238.832 216.364 235.583L216.082 236.526L215.851 236.503C216.032 234.746 214.161 232.935 214.301 231.155C214.422 229.621 214.428 227.028 215.104 225.724C219.906 225.275 223.247 224.512 227.978 223.537L227.764 223.529C229.821 222.84 235.116 222.96 236.383 221.614C235.833 221.554 235.406 221.488 234.862 221.39C235.361 220.79 244.99 220.613 246.356 218.775L245.887 218.237C247.66 217.512 251.805 217.87 252.96 216.575C252.408 216.484 252.358 216.475 251.838 216.272C252.665 215.716 256.395 214.177 257.515 214.566C258.34 214.852 259.3 214.117 259.87 213.69L258.323 213.452C258.963 212.36 264.453 211.808 265.398 211.084L264.353 210.7C265.03 209.917 266.78 209.783 267.633 209.253C270.708 207.342 274.045 205.163 277.263 203.536L277.75 203.962L278.213 203.691C278.133 203.365 278.063 203.037 277.998 202.708C278.718 202.136 281.103 200.862 282.253 200.028C286.705 196.795 291.23 193.399 295.165 189.538L295.255 189.787L294.42 191.203C295.348 190.581 296.325 190.056 296.705 189.062C296.438 188.941 296.253 188.85 295.993 188.717C296.053 188.649 302.87 182.518 302.365 182.71C302.51 183.09 302.41 182.909 302.673 183.247C304.488 181.446 306.46 179.546 307.87 177.404C308.49 176.46 308.263 176.696 309.515 176.91C306.715 180.024 303.528 183.708 300.6 186.64C285.863 201.398 266.083 213.8 246.104 220.03C240.03 221.986 233.841 223.569 227.573 224.77C223.711 225.497 219.744 225.829 215.943 226.843C215.174 227.047 214.991 227.254 215.147 228.089C216.58 235.758 219.743 243.484 221.324 251.105Z" fill="#3A65A9"></path>
<rect x="111" y="62.5" width="129" height="87" fill="url(#pattern0_404_13)"></rect>
</g>
<defs>
<pattern id="pattern0_404_13" patternContentUnits="objectBoundingBox" width="1" height="1">
<use xlink:href="#image0_404_13" transform="scale(0.0054054 0.00793651)"></use>
</pattern>
<clipPath id="clip0_404_13">
<rect width="351" height="351" fill="white"></rect>
</clipPath>
<image id="image0_404_13" width="500" height="126" preserveAspectRatio="none"></image>
</defs>
</svg>