<svg width="377" height="165" viewBox="0 0 377 165" fill="none" xmlns="http://www.w3.org/2000/svg">
<g clip-path="url(#clip0_1049_7360)">
<path d="M177.703 55.4794C175.269 56.0722 172.917 58.4963 170.987 62.4222C169.138 66.2032 167.942 70.6693 167.357 76.0181C167.044 78.8901 167.153 84.7922 167.561 87.3743C168.2 91.4056 169.233 95.6609 170.09 97.8479L170.43 98.7042L169.926 99.4288C168.091 102.024 165.182 103.816 162.204 104.172C157.161 104.778 153.341 101.537 152.946 96.3065C152.878 95.437 152.919 95.0944 153.232 94.0932C154.306 90.5361 154.197 86.2545 152.96 83.7909C151.954 81.8148 150.105 81.2878 148.229 82.434C145.986 83.8173 144.341 88.257 143.974 93.9615C143.892 95.3975 143.878 95.4238 143.09 96.9257C141.717 99.5342 140.452 100.904 139.066 101.286C136.958 101.853 134.865 99.9558 133.179 95.9508C132.88 95.2394 132.241 93.4477 131.738 91.9458C129.06 83.7646 128.529 82.434 127.428 81.2878C126.395 80.1943 125.607 80.0626 124.233 80.7345C122.575 81.5249 120.807 83.3957 116.879 88.4941C114.404 91.6955 113.018 93.25 112.338 93.5794C111.957 93.777 111.93 93.777 111.427 93.2632C110.638 92.4464 110.081 90.8128 108.789 85.4113C108.463 84.0807 108.3 83.8831 107.484 83.8831C107.076 83.8831 106.56 83.9885 106.206 84.1598C105.336 84.555 104.33 85.6485 103.963 86.5839C103.786 87.0186 103.039 89.6798 102.291 92.5123C101.557 95.3316 100.578 98.8623 100.129 100.351C98.5388 105.581 98.1853 107.017 98.1853 108.348C98.1717 109.362 98.2125 109.613 98.4572 109.916C98.9738 110.601 99.4089 110.811 100.252 110.825C102.033 110.825 103.963 109.415 111.427 102.67C119.584 95.2789 121.963 93.7243 123.839 94.528C125.566 95.2657 126.721 96.9652 129.155 102.301C131.738 107.979 133.206 110.047 135.15 110.745C137.434 111.575 139.106 110.442 142.193 105.95C144.572 102.498 145.564 101.405 146.353 101.405C146.856 101.405 147.753 102.367 148.664 103.855C151.002 107.729 152.307 109.23 154.088 110.139C155.788 111.009 157.446 111.193 160.233 110.825C163.591 110.39 165.712 109.494 169.478 106.899C171.544 105.476 172.102 105.186 172.809 105.186C173.529 105.186 174.114 105.555 175.868 107.136C178.152 109.204 179.484 110.06 181.251 110.574C182.23 110.864 184.691 110.904 186.2 110.64C188.28 110.284 190.809 109.283 192.957 107.966L193.813 107.439L194.914 108.44C196.722 110.087 199.02 111.009 201.331 111.022C203.737 111.022 206.919 110.442 209.189 109.586C213.172 108.084 216.109 105.792 220.31 100.904C222.934 97.8479 223.668 97.2946 224.388 97.8083C224.959 98.2299 225.313 98.9545 226.183 101.603C227.706 106.253 228.548 107.926 230.03 109.283C232.912 111.918 237.684 111.207 241.79 107.518C246.249 103.5 250.069 95.6741 251.47 87.6378C251.891 85.2664 251.918 81.8016 251.538 80.6686C251.021 79.1404 249.811 78.3631 248.275 78.5475C245.95 78.8242 243.938 80.9453 243 84.0807C242.728 85.0161 242.687 85.4113 242.687 87.7037C242.687 90.0882 242.715 90.3781 243.068 91.7218C243.585 93.6453 243.693 94.7519 243.557 96.2933C243.286 99.1521 242.171 101.971 240.743 103.381C239.465 104.646 238.405 104.725 237.141 103.631C235.373 102.13 234 98.8359 231.866 90.9577C230.125 84.5287 229.432 82.5262 228.548 81.3537C227.964 80.5896 227.434 80.4446 226.482 80.7872C225.122 81.301 224.429 82.3681 222.974 86.2545C219.032 96.8335 215.225 102.235 210.399 104.132C208.618 104.817 206.484 105.015 204.92 104.619C204.037 104.395 202.786 103.829 202.256 103.421L201.929 103.157L203.479 102.13C205.722 100.654 207.177 99.4947 208.564 98.0982C211.188 95.4765 212.207 93.3423 212.194 90.5493C212.166 86.3731 209.923 82.2759 206.892 80.8267C206.035 80.4183 205.913 80.3919 204.485 80.3919C203.153 80.3919 202.881 80.4446 202.038 80.774C197.008 82.7633 192.739 89.166 191.719 96.2538C191.42 98.3221 191.434 101.418 191.76 102.92C192.046 104.277 192.046 104.303 191.067 104.778C189.096 105.752 187.07 105.66 184.704 104.501C182.475 103.407 180.082 101.076 179.402 99.3234L179.158 98.7042L180.435 96.267C182.312 92.7099 183.29 90.7338 184.038 88.9816C186.145 84.0017 187.233 78.7979 187.491 72.2898C187.586 69.8262 187.369 65.5314 187.083 63.99C186.472 60.7886 185.017 58.1538 183.073 56.7309C182.135 56.0459 181.414 55.7297 180.245 55.4926C179.158 55.2686 178.614 55.2686 177.703 55.4794ZM179.769 64.6619C180.395 64.8858 181.156 65.7026 181.455 66.4931C182.434 69.0357 182.502 73.9365 181.632 79.0745C180.789 83.9358 179.076 89.0211 177.676 90.826C176.982 91.735 176.099 91.208 175.596 89.5744C174.821 87.0054 174.426 80.1943 174.78 75.3857C175.378 67.3626 177.091 63.687 179.769 64.6619ZM203.194 87.9672C203.819 88.2833 204.268 88.8235 204.784 89.8774C205.138 90.6284 205.165 90.7733 205.165 92.4464C205.151 94.0405 205.111 94.3303 204.771 95.2789C204.05 97.2814 202.731 98.7701 200.828 99.6923C199.836 100.18 199.618 100.18 199.278 99.7186C198.354 98.4671 197.796 96.649 197.674 94.6202C197.497 91.5374 198.639 89.1397 200.774 88.1121C201.753 87.6378 202.432 87.5983 203.194 87.9672Z" fill="white"></path>
<path d="M150.948 57.5872C148.188 58.3645 146.271 61.5922 146.76 64.7013C146.951 65.9661 147.304 66.7565 148.065 67.5338C148.963 68.4692 149.792 68.7853 151.328 68.7985C152.443 68.7985 152.633 68.759 153.463 68.3638C156.957 66.7038 158.303 61.2233 155.801 58.7992C154.659 57.6926 152.511 57.1525 150.948 57.5872Z" fill="white"></path>
<path d="M89.5386 60.5514C88.0839 60.9861 86.6565 62.2772 85.8679 63.8845C85.2018 65.2282 84.9163 66.4534 84.9163 68.0212C84.9163 69.747 85.2018 71.0117 86.4117 74.5951C86.9963 76.3342 87.5673 78.2049 87.6897 78.745C88.383 81.8805 88.3287 85.543 87.5537 90.4306C86.5477 96.7411 84.6988 101.207 82.0341 103.737C80.9465 104.777 80.4571 105.133 79.3151 105.7C77.6429 106.516 76.5553 106.74 74.1762 106.74C72.2185 106.727 71.9874 106.701 70.9813 106.372C68.072 105.383 65.788 103.131 64.3741 99.8239C63.8303 98.5592 63.2322 96.2932 62.9738 94.4751C62.43 90.7205 62.3621 83.0267 62.8243 78.8768C63.0962 76.4659 63.2729 75.3197 64.211 70.1818C64.85 66.7038 64.9723 65.7684 64.9859 64.3851C64.9995 62.9886 64.9587 62.6592 64.7276 62.2245C64.1566 61.131 63.3137 60.9071 61.5192 61.3418C59.0721 61.9478 57.5902 62.9359 56.6114 64.6486C55.2654 67.0068 53.4845 73.6729 52.6824 79.3379C52.3289 81.841 52.1794 88.494 52.4105 91.1552C53.2398 100.43 56.7065 106.451 62.9738 109.494C66.1551 111.035 69.4179 111.641 73.9451 111.509C76.7321 111.43 77.874 111.246 79.9677 110.548C86.4253 108.4 91.4419 102.577 93.9434 94.3434C95.3709 89.627 95.7923 85.6352 95.7923 76.8348C95.7923 71.0381 95.5069 68.0344 94.7183 65.0043C94.1202 62.7515 93.0733 61.0388 92.0265 60.6172C91.5643 60.4196 90.1096 60.3933 89.5386 60.5514Z" fill="white"></path>
<path d="M312.104 78.0207C309.426 78.6004 307.291 79.7333 305.17 81.6963C302.383 84.2785 300.072 88.0463 297.272 94.6203C295.994 97.624 295.586 98.4013 295.124 98.8097C294.865 99.0337 294.811 99.0468 294.39 98.8492C293.207 98.2959 292.581 96.4252 291.902 91.3926C290.95 84.2916 290.719 83.1323 290.107 82.4209C289.482 81.6963 288.095 81.973 287.007 83.0269C286.192 83.8174 285.675 84.8977 284.982 87.2427C282.494 95.6874 277.994 102.156 273.045 104.356C271.536 105.041 270.489 105.265 268.858 105.265C265.867 105.278 263.325 104.093 263.447 102.736C263.488 102.314 263.569 102.222 264.168 101.906C264.548 101.708 265.772 101.221 266.887 100.799C271.618 99.0732 274.418 97.2156 275.791 94.9101C276.77 93.2633 277.246 90.6416 276.893 88.8763C276.213 85.5432 273.684 82.5131 270.72 81.5119C269.429 81.0639 267.213 80.9981 265.718 81.367C260.456 82.6317 256.187 87.572 254.733 94.0538C254.325 95.9114 254.135 98.5462 254.298 100.338C254.814 105.924 257.52 109.323 262.455 110.588C263.583 110.877 264.059 110.93 266.003 110.943C270.245 110.956 273.372 109.968 276.879 107.478C279.843 105.397 282.847 101.8 284.982 97.8085L285.811 96.2407L286.097 97.2815C286.26 97.848 286.695 99.6397 287.075 101.273C288.557 107.61 289.563 109.955 291.154 110.732C292.541 111.404 293.927 110.877 295.11 109.231C295.708 108.387 296.524 106.727 298.835 101.669C302.805 92.9735 305.021 89.153 307.468 86.7816C308.936 85.3588 310.554 84.542 311.927 84.542C312.729 84.542 313.069 84.8186 313.79 86.0702C314.728 87.6774 315.598 88.2571 317.501 88.5074C319.894 88.8236 321.838 87.8882 322.749 86.0043C322.98 85.5037 323.034 85.148 323.034 83.9491C323.034 82.5922 323.007 82.4472 322.599 81.6041C321.838 80.0627 320.261 78.8507 318.154 78.1919C317.039 77.8362 313.395 77.7308 312.104 78.0207ZM267.498 87.5457C268.205 87.8619 268.94 88.6919 269.293 89.5218C269.524 90.1147 269.592 90.5494 269.606 91.5375C269.606 92.7232 269.579 92.8418 269.089 93.8167C268.001 95.9377 265.527 97.7031 262.618 98.4408C262.088 98.5726 261.707 98.6121 261.625 98.533C261.326 98.2432 261.082 96.0695 261.15 94.2909C261.258 91.5507 261.857 89.7326 263.066 88.5206C264.276 87.2822 266.057 86.9002 267.498 87.5457Z" fill="white"></path>
</g>
<defs>
<clipPath id="clip0_1049_7360">
<rect width="271.901" height="58.0986" fill="white" transform="translate(52.2887 53.4506)"></rect>
</clipPath>
</defs>
</svg>